<svg width="745" height="368" viewBox="0 0 745 368" fill="none" xmlns="http://www.w3.org/2000/svg">
<rect x="0.75" y="0.75" width="743.5" height="366.5" rx="9.25" stroke="#858B89" stroke-width="1.5" stroke-linecap="round" stroke-dasharray="11 11"/>
<path d="M375.208 161.146C375.208 160.068 375.636 159.035 376.398 158.273C377.16 157.511 378.193 157.083 379.271 157.083C380.348 157.083 381.382 157.511 382.143 158.273C382.905 159.035 383.333 160.068 383.333 161.146C383.333 162.223 382.905 163.257 382.143 164.018C381.382 164.78 380.348 165.208 379.271 165.208C378.193 165.208 377.16 164.78 376.398 164.018C375.636 163.257 375.208 162.223 375.208 161.146ZM370.16 165.487C369.977 165.195 369.723 164.954 369.422 164.787C369.121 164.62 368.782 164.533 368.437 164.533C368.093 164.533 367.754 164.62 367.453 164.787C367.151 164.954 366.898 165.195 366.715 165.487L359.944 176.321C359.752 176.628 359.646 176.981 359.637 177.343C359.628 177.706 359.715 178.064 359.891 178.381C360.067 178.698 360.324 178.962 360.636 179.146C360.949 179.33 361.304 179.427 361.667 179.427H383.333C383.711 179.427 384.08 179.322 384.401 179.124C384.722 178.925 384.981 178.642 385.15 178.304C385.319 177.967 385.39 177.589 385.356 177.213C385.322 176.838 385.185 176.479 384.958 176.177L380.896 170.76C380.707 170.508 380.461 170.303 380.179 170.162C379.897 170.021 379.586 169.948 379.271 169.948C378.955 169.948 378.644 170.021 378.362 170.162C378.08 170.303 377.835 170.508 377.646 170.76L375.36 173.807L370.16 165.487Z" fill="#858B89"/>
<path fill-rule="evenodd" clip-rule="evenodd" d="M358.958 136.094C356.983 136.094 355.089 136.878 353.692 138.275C352.295 139.672 351.51 141.566 351.51 143.542V181.458C351.51 183.434 352.295 185.328 353.692 186.725C355.089 188.122 356.983 188.906 358.958 188.906H386.042C388.017 188.906 389.911 188.122 391.308 186.725C392.705 185.328 393.49 183.434 393.49 181.458V151.58C393.49 150.548 393.154 149.546 392.531 148.723L384.411 137.976C383.97 137.391 383.398 136.917 382.742 136.59C382.086 136.264 381.363 136.094 380.63 136.094H358.958ZM355.573 143.542C355.573 141.673 357.09 140.156 358.958 140.156H378.594V152.065C378.594 153.186 379.504 154.096 380.625 154.096H389.427V181.458C389.427 183.327 387.91 184.844 386.042 184.844H358.958C357.09 184.844 355.573 183.327 355.573 181.458V143.542Z" fill="#858B89"/>
<path d="M287.045 214V202.8H288.437V207.536H293.717V202.8H295.109V214H293.717V208.848H288.437V214H287.045ZM301.191 214.192C300.444 214.192 299.799 214.008 299.255 213.64C298.711 213.272 298.292 212.765 297.999 212.12C297.706 211.475 297.559 210.736 297.559 209.904C297.559 209.003 297.711 208.235 298.015 207.6C298.319 206.96 298.743 206.472 299.287 206.136C299.831 205.8 300.466 205.632 301.191 205.632C301.804 205.632 302.367 205.771 302.879 206.048C303.391 206.32 303.799 206.744 304.103 207.32C304.412 207.891 304.567 208.624 304.567 209.52C304.567 209.648 304.562 209.797 304.551 209.968C304.546 210.133 304.535 210.304 304.519 210.48H298.983C299.036 210.976 299.159 211.411 299.351 211.784C299.543 212.157 299.796 212.451 300.111 212.664C300.426 212.872 300.796 212.976 301.223 212.976C301.57 212.976 301.89 212.915 302.183 212.792C302.482 212.669 302.759 212.48 303.015 212.224L303.831 213.136C303.527 213.44 303.148 213.693 302.695 213.896C302.247 214.093 301.746 214.192 301.191 214.192ZM298.967 209.264H303.159C303.159 208.8 303.082 208.387 302.927 208.024C302.778 207.656 302.556 207.368 302.263 207.16C301.97 206.952 301.612 206.848 301.191 206.848C300.599 206.848 300.09 207.04 299.663 207.424C299.242 207.808 299.01 208.421 298.967 209.264ZM309.925 214.192C308.805 214.192 307.922 213.811 307.277 213.048C306.632 212.28 306.309 211.237 306.309 209.92C306.309 209.04 306.456 208.28 306.749 207.64C307.042 207 307.458 206.507 307.997 206.16C308.541 205.808 309.184 205.632 309.925 205.632C310.672 205.632 311.314 205.805 311.853 206.152C312.397 206.493 312.813 206.984 313.101 207.624C313.394 208.264 313.541 209.024 313.541 209.904C313.541 210.784 313.394 211.547 313.101 212.192C312.808 212.832 312.389 213.325 311.845 213.672C311.306 214.019 310.666 214.192 309.925 214.192ZM309.925 212.896C310.613 212.896 311.152 212.632 311.541 212.104C311.936 211.571 312.133 210.837 312.133 209.904C312.133 208.965 311.936 208.232 311.541 207.704C311.152 207.176 310.613 206.912 309.925 206.912C309.232 206.912 308.69 207.176 308.301 207.704C307.912 208.227 307.717 208.965 307.717 209.92C307.717 210.853 307.912 211.584 308.301 212.112C308.69 212.635 309.232 212.896 309.925 212.896ZM318.987 214.192C318.257 214.192 317.619 214.024 317.075 213.688C316.537 213.352 316.118 212.867 315.819 212.232C315.521 211.592 315.371 210.821 315.371 209.92V208.816C315.371 207.669 315.473 206.72 315.675 205.968C315.883 205.216 316.174 204.621 316.547 204.184C316.921 203.741 317.366 203.419 317.883 203.216C318.401 203.008 318.971 202.88 319.595 202.832L322.459 202.608L321.659 203.936L319.579 204.112C319.03 204.16 318.577 204.264 318.219 204.424C317.867 204.584 317.582 204.835 317.363 205.176C317.15 205.512 316.977 205.968 316.843 206.544C316.822 206.645 316.801 206.733 316.779 206.808C316.763 206.877 316.747 206.944 316.731 207.008C316.774 206.928 316.817 206.848 316.859 206.768C316.907 206.683 316.955 206.608 317.003 206.544C317.243 206.245 317.542 206.019 317.899 205.864C318.257 205.709 318.662 205.632 319.115 205.632C319.803 205.632 320.409 205.8 320.931 206.136C321.454 206.472 321.862 206.96 322.155 207.6C322.454 208.235 322.603 209.003 322.603 209.904C322.603 210.8 322.454 211.568 322.155 212.208C321.857 212.848 321.435 213.339 320.891 213.68C320.353 214.021 319.718 214.192 318.987 214.192ZM318.987 212.896C319.675 212.896 320.214 212.632 320.603 212.104C320.998 211.571 321.195 210.837 321.195 209.904C321.195 208.976 321.001 208.245 320.611 207.712C320.227 207.179 319.686 206.912 318.987 206.912C318.294 206.912 317.753 207.176 317.363 207.704C316.974 208.227 316.779 208.965 316.779 209.92C316.779 210.848 316.974 211.576 317.363 212.104C317.753 212.632 318.294 212.896 318.987 212.896ZM323.975 214L326.711 209.744L324.183 205.824H325.735L327.031 207.808C327.122 207.941 327.205 208.075 327.279 208.208C327.359 208.341 327.431 208.469 327.495 208.592C327.57 208.464 327.647 208.336 327.727 208.208C327.807 208.075 327.89 207.941 327.975 207.808L329.255 205.824H330.823L328.279 209.744L331.031 214H329.463L327.959 211.68C327.874 211.541 327.794 211.408 327.719 211.28C327.645 211.152 327.57 211.024 327.495 210.896C327.431 211.024 327.359 211.152 327.279 211.28C327.205 211.408 327.122 211.541 327.031 211.68L325.527 214H323.975ZM335.878 214.192C334.758 214.192 333.875 213.811 333.23 213.048C332.585 212.28 332.262 211.237 332.262 209.92C332.262 209.04 332.409 208.28 332.702 207.64C332.995 207 333.411 206.507 333.95 206.16C334.494 205.808 335.137 205.632 335.878 205.632C336.625 205.632 337.267 205.805 337.806 206.152C338.35 206.493 338.766 206.984 339.054 207.624C339.347 208.264 339.494 209.024 339.494 209.904C339.494 210.784 339.347 211.547 339.054 212.192C338.761 212.832 338.342 213.325 337.798 213.672C337.259 214.019 336.619 214.192 335.878 214.192ZM335.878 212.896C336.566 212.896 337.105 212.632 337.494 212.104C337.889 211.571 338.086 210.837 338.086 209.904C338.086 208.965 337.889 208.232 337.494 207.704C337.105 207.176 336.566 206.912 335.878 206.912C335.185 206.912 334.643 207.176 334.254 207.704C333.865 208.227 333.67 208.965 333.67 209.92C333.67 210.853 333.865 211.584 334.254 212.112C334.643 212.635 335.185 212.896 335.878 212.896ZM340.878 216.608V212.784H341.726C341.95 212.672 342.137 212.493 342.286 212.248C342.436 211.997 342.532 211.669 342.574 211.264L343.15 205.824H348.99V212.784H350.382V216.048L348.99 216.608V214H342.27V216.048L340.878 216.608ZM343.502 212.784H347.598V207.04H344.414L343.918 211.472C343.886 211.749 343.833 211.997 343.758 212.216C343.684 212.435 343.598 212.624 343.502 212.784ZM352.398 214V205.824H353.79V211.552L357.758 205.824H359.15V214H357.758V208.288L353.79 214H352.398ZM365.963 214.144L363.675 209.632C363.584 209.445 363.502 209.272 363.427 209.112C363.352 208.947 363.275 208.768 363.195 208.576C363.211 208.704 363.224 208.861 363.235 209.048C363.251 209.235 363.259 209.429 363.259 209.632V214H361.867V205.824H363.115L365.611 210.768C365.702 210.949 365.774 211.096 365.827 211.208C365.88 211.32 365.926 211.424 365.963 211.52C366.006 211.424 366.051 211.32 366.099 211.208C366.152 211.096 366.224 210.949 366.315 210.768L368.811 205.824H370.059V214H368.667V209.76C368.667 209.557 368.672 209.36 368.683 209.168C368.699 208.976 368.715 208.816 368.731 208.688C368.651 208.88 368.574 209.059 368.499 209.224C368.424 209.389 368.336 209.568 368.235 209.76L365.963 214.144ZM375.925 214.192C374.805 214.192 373.922 213.811 373.277 213.048C372.632 212.28 372.309 211.237 372.309 209.92C372.309 209.04 372.456 208.28 372.749 207.64C373.042 207 373.458 206.507 373.997 206.16C374.541 205.808 375.184 205.632 375.925 205.632C376.672 205.632 377.314 205.805 377.853 206.152C378.397 206.493 378.813 206.984 379.101 207.624C379.394 208.264 379.541 209.024 379.541 209.904C379.541 210.784 379.394 211.547 379.101 212.192C378.808 212.832 378.389 213.325 377.845 213.672C377.306 214.019 376.666 214.192 375.925 214.192ZM375.925 212.896C376.613 212.896 377.152 212.632 377.541 212.104C377.936 211.571 378.133 210.837 378.133 209.904C378.133 208.965 377.936 208.232 377.541 207.704C377.152 207.176 376.613 206.912 375.925 206.912C375.232 206.912 374.69 207.176 374.301 207.704C373.912 208.227 373.717 208.965 373.717 209.92C373.717 210.853 373.912 211.584 374.301 212.112C374.69 212.635 375.232 212.896 375.925 212.896ZM388.5 214.192C387.695 214.192 386.967 213.995 386.316 213.6C385.671 213.2 385.204 212.64 384.916 211.92L386.132 211.488C386.351 211.957 386.663 212.312 387.068 212.552C387.474 212.792 387.951 212.912 388.5 212.912C389.023 212.912 389.444 212.805 389.764 212.592C390.084 212.373 390.244 212.069 390.244 211.68C390.244 211.317 390.092 211.029 389.788 210.816C389.484 210.603 389.044 210.496 388.468 210.496H387.044V209.216H388.468C388.932 209.216 389.287 209.109 389.532 208.896C389.783 208.683 389.908 208.4 389.908 208.048C389.908 207.696 389.772 207.419 389.5 207.216C389.234 207.013 388.884 206.912 388.452 206.912C387.972 206.912 387.554 207.024 387.196 207.248C386.844 207.472 386.58 207.808 386.404 208.256L385.22 207.744C385.455 207.088 385.868 206.573 386.46 206.2C387.058 205.821 387.727 205.632 388.468 205.632C389.348 205.632 390.042 205.848 390.548 206.28C391.06 206.712 391.316 207.264 391.316 207.936C391.316 208.336 391.212 208.699 391.004 209.024C390.796 209.344 390.479 209.589 390.052 209.76C390.575 209.888 390.972 210.136 391.244 210.504C391.516 210.872 391.652 211.28 391.652 211.728C391.652 212.448 391.37 213.04 390.804 213.504C390.244 213.963 389.476 214.192 388.5 214.192ZM396.469 214.192C395.584 214.192 394.888 213.947 394.381 213.456C393.875 212.965 393.621 212.293 393.621 211.44C393.621 210.891 393.747 210.413 393.997 210.008C394.248 209.603 394.603 209.291 395.061 209.072C395.52 208.848 396.059 208.736 396.677 208.736C397.077 208.736 397.451 208.781 397.797 208.872C398.149 208.957 398.48 209.088 398.789 209.264V208.688C398.789 208.053 398.645 207.589 398.357 207.296C398.069 206.997 397.621 206.848 397.013 206.848C396.624 206.848 396.219 206.92 395.797 207.064C395.381 207.208 394.992 207.408 394.629 207.664L394.229 206.496C394.64 206.224 395.107 206.013 395.629 205.864C396.157 205.709 396.677 205.632 397.189 205.632C398.16 205.632 398.888 205.88 399.373 206.376C399.859 206.867 400.101 207.6 400.101 208.576V214H398.789V213.248C398.469 213.552 398.109 213.787 397.709 213.952C397.309 214.112 396.896 214.192 396.469 214.192ZM396.677 212.976C397.056 212.976 397.429 212.883 397.797 212.696C398.171 212.509 398.501 212.245 398.789 211.904V210.496C398.517 210.325 398.208 210.192 397.861 210.096C397.515 210 397.184 209.952 396.869 209.952C396.272 209.952 395.8 210.088 395.453 210.36C395.107 210.627 394.933 210.992 394.933 211.456C394.933 211.925 395.088 212.296 395.397 212.568C395.707 212.84 396.133 212.976 396.677 212.976ZM402.726 214V205.824H407.67V207.04H404.118V214H402.726ZM409.57 217.248V205.824H410.962V206.512C411.549 205.925 412.248 205.632 413.058 205.632C413.752 205.632 414.349 205.805 414.85 206.152C415.357 206.499 415.746 206.992 416.018 207.632C416.296 208.272 416.434 209.029 416.434 209.904C416.434 210.779 416.296 211.539 416.018 212.184C415.741 212.824 415.349 213.32 414.842 213.672C414.341 214.019 413.746 214.192 413.058 214.192C412.626 214.192 412.237 214.115 411.89 213.96C411.544 213.8 411.234 213.557 410.962 213.232V216.592L409.57 217.248ZM412.882 212.896C413.57 212.896 414.096 212.637 414.458 212.12C414.826 211.603 415.01 210.864 415.01 209.904C415.01 208.981 414.818 208.253 414.434 207.72C414.05 207.181 413.533 206.912 412.882 206.912C412.466 206.912 412.093 207.008 411.762 207.2C411.432 207.392 411.165 207.664 410.962 208.016V211.792C411.245 212.16 411.546 212.437 411.866 212.624C412.186 212.805 412.525 212.896 412.882 212.896ZM419.538 217.104L420.786 213.792L417.762 205.824H419.154L421.186 211.392C421.245 211.536 421.293 211.667 421.33 211.784C421.368 211.901 421.405 212.032 421.442 212.176C421.485 212.032 421.525 211.901 421.562 211.784C421.6 211.667 421.645 211.536 421.698 211.392L423.762 205.824H425.186L420.946 217.104H419.538ZM430.141 214.192C429.336 214.192 428.608 213.995 427.957 213.6C427.312 213.2 426.845 212.64 426.557 211.92L427.773 211.488C427.992 211.957 428.304 212.312 428.709 212.552C429.114 212.792 429.592 212.912 430.141 212.912C430.664 212.912 431.085 212.805 431.405 212.592C431.725 212.373 431.885 212.069 431.885 211.68C431.885 211.317 431.733 211.029 431.429 210.816C431.125 210.603 430.685 210.496 430.109 210.496H428.685V209.216H430.109C430.573 209.216 430.928 209.109 431.173 208.896C431.424 208.683 431.549 208.4 431.549 208.048C431.549 207.696 431.413 207.419 431.141 207.216C430.874 207.013 430.525 206.912 430.093 206.912C429.613 206.912 429.194 207.024 428.837 207.248C428.485 207.472 428.221 207.808 428.045 208.256L426.861 207.744C427.096 207.088 427.509 206.573 428.101 206.2C428.698 205.821 429.368 205.632 430.109 205.632C430.989 205.632 431.682 205.848 432.189 206.28C432.701 206.712 432.957 207.264 432.957 207.936C432.957 208.336 432.853 208.699 432.645 209.024C432.437 209.344 432.12 209.589 431.693 209.76C432.216 209.888 432.613 210.136 432.885 210.504C433.157 210.872 433.293 211.28 433.293 211.728C433.293 212.448 433.01 213.04 432.445 213.504C431.885 213.963 431.117 214.192 430.141 214.192ZM435.68 214V205.824H437.072V211.552L441.04 205.824H442.432V214H441.04V208.288L437.072 214H435.68ZM446.78 214V207.04H444.332V205.824H450.62V207.04H448.172V214H446.78ZM452.523 214V205.824H453.915V208.752H455.867C456.427 208.752 456.918 208.861 457.339 209.08C457.766 209.299 458.097 209.608 458.331 210.008C458.566 210.403 458.683 210.864 458.683 211.392C458.683 211.915 458.566 212.373 458.331 212.768C458.097 213.157 457.769 213.461 457.347 213.68C456.926 213.893 456.433 214 455.867 214H452.523ZM453.915 212.784H455.739C456.214 212.784 456.587 212.659 456.859 212.408C457.137 212.152 457.275 211.808 457.275 211.376C457.275 210.944 457.137 210.603 456.859 210.352C456.587 210.096 456.214 209.968 455.739 209.968H453.915V212.784ZM253.888 233.192C253.408 233.192 253.003 233.096 252.672 232.904C252.342 232.712 252.059 232.477 251.824 232.2V230.536C252.016 230.968 252.286 231.304 252.632 231.544C252.984 231.779 253.339 231.896 253.696 231.896C254.304 231.896 254.774 231.619 255.104 231.064C255.435 230.509 255.6 229.789 255.6 228.904C255.6 227.944 255.438 227.205 255.112 226.688C254.792 226.171 254.32 225.912 253.696 225.912C253.387 225.912 253.11 225.976 252.864 226.104C252.619 226.232 252.408 226.389 252.232 226.576C252.056 226.763 251.92 226.941 251.824 227.112V225.544C252.048 225.304 252.331 225.093 252.672 224.912C253.014 224.725 253.419 224.632 253.888 224.632C254.843 224.632 255.6 225.008 256.16 225.76C256.726 226.512 257.008 227.56 257.008 228.904C257.008 229.784 256.883 230.547 256.632 231.192C256.387 231.832 256.03 232.325 255.56 232.672C255.096 233.019 254.539 233.192 253.888 233.192ZM248.624 233.192C247.974 233.192 247.414 233.019 246.944 232.672C246.48 232.325 246.123 231.832 245.872 231.192C245.627 230.547 245.504 229.784 245.504 228.904C245.504 228.008 245.632 227.243 245.888 226.608C246.144 225.968 246.504 225.48 246.968 225.144C247.438 224.803 247.99 224.632 248.624 224.632C249.099 224.632 249.504 224.725 249.84 224.912C250.182 225.093 250.464 225.304 250.688 225.544V227.112C250.592 226.941 250.456 226.763 250.28 226.576C250.104 226.389 249.894 226.232 249.648 226.104C249.403 225.976 249.126 225.912 248.816 225.912C248.192 225.912 247.718 226.171 247.392 226.688C247.072 227.205 246.912 227.944 246.912 228.904C246.912 229.789 247.078 230.509 247.408 231.064C247.739 231.619 248.208 231.896 248.816 231.896C249.179 231.896 249.534 231.779 249.88 231.544C250.227 231.304 250.496 230.968 250.688 230.536V232.2C250.459 232.477 250.176 232.712 249.84 232.904C249.51 233.096 249.104 233.192 248.624 233.192ZM250.56 236.216V222.264L251.952 221.608V235.56L250.56 236.216ZM262.448 233.192C261.328 233.192 260.446 232.811 259.8 232.048C259.155 231.28 258.832 230.237 258.832 228.92C258.832 228.04 258.979 227.28 259.272 226.64C259.566 226 259.982 225.507 260.52 225.16C261.064 224.808 261.707 224.632 262.448 224.632C263.195 224.632 263.838 224.805 264.376 225.152C264.92 225.493 265.336 225.984 265.624 226.624C265.918 227.264 266.064 228.024 266.064 228.904C266.064 229.784 265.918 230.547 265.624 231.192C265.331 231.832 264.912 232.325 264.368 232.672C263.83 233.019 263.19 233.192 262.448 233.192ZM262.448 231.896C263.136 231.896 263.675 231.632 264.064 231.104C264.459 230.571 264.656 229.837 264.656 228.904C264.656 227.965 264.459 227.232 264.064 226.704C263.675 226.176 263.136 225.912 262.448 225.912C261.755 225.912 261.214 226.176 260.824 226.704C260.435 227.227 260.24 227.965 260.24 228.92C260.24 229.853 260.435 230.584 260.824 231.112C261.214 231.635 261.755 231.896 262.448 231.896ZM269.897 233V226.04H267.449V224.824H273.737V226.04H271.289V233H269.897ZM278.745 233.192C277.625 233.192 276.743 232.811 276.097 232.048C275.452 231.28 275.129 230.237 275.129 228.92C275.129 228.04 275.276 227.28 275.569 226.64C275.863 226 276.279 225.507 276.817 225.16C277.361 224.808 278.004 224.632 278.745 224.632C279.492 224.632 280.135 224.805 280.673 225.152C281.217 225.493 281.633 225.984 281.921 226.624C282.215 227.264 282.361 228.024 282.361 228.904C282.361 229.784 282.215 230.547 281.921 231.192C281.628 231.832 281.209 232.325 280.665 232.672C280.127 233.019 279.487 233.192 278.745 233.192ZM278.745 231.896C279.433 231.896 279.972 231.632 280.361 231.104C280.756 230.571 280.953 229.837 280.953 228.904C280.953 227.965 280.756 227.232 280.361 226.704C279.972 226.176 279.433 225.912 278.745 225.912C278.052 225.912 277.511 226.176 277.121 226.704C276.732 227.227 276.537 227.965 276.537 228.92C276.537 229.853 276.732 230.584 277.121 231.112C277.511 231.635 278.052 231.896 278.745 231.896ZM284.609 233V224.824H289.553V226.04H286.001V233H284.609ZM291.453 236.248V224.824H292.845V225.512C293.432 224.925 294.13 224.632 294.941 224.632C295.634 224.632 296.232 224.805 296.733 225.152C297.24 225.499 297.629 225.992 297.901 226.632C298.178 227.272 298.317 228.029 298.317 228.904C298.317 229.779 298.178 230.539 297.901 231.184C297.624 231.824 297.232 232.32 296.725 232.672C296.224 233.019 295.629 233.192 294.941 233.192C294.509 233.192 294.12 233.115 293.773 232.96C293.426 232.8 293.117 232.557 292.845 232.232V235.592L291.453 236.248ZM294.765 231.896C295.453 231.896 295.978 231.637 296.341 231.12C296.709 230.603 296.893 229.864 296.893 228.904C296.893 227.981 296.701 227.253 296.317 226.72C295.933 226.181 295.416 225.912 294.765 225.912C294.349 225.912 293.976 226.008 293.645 226.2C293.314 226.392 293.048 226.664 292.845 227.016V230.792C293.128 231.16 293.429 231.437 293.749 231.624C294.069 231.805 294.408 231.896 294.765 231.896ZM302.977 233.192C302.092 233.192 301.396 232.947 300.889 232.456C300.383 231.965 300.129 231.293 300.129 230.44C300.129 229.891 300.255 229.413 300.505 229.008C300.756 228.603 301.111 228.291 301.569 228.072C302.028 227.848 302.567 227.736 303.185 227.736C303.585 227.736 303.959 227.781 304.305 227.872C304.657 227.957 304.988 228.088 305.297 228.264V227.688C305.297 227.053 305.153 226.589 304.865 226.296C304.577 225.997 304.129 225.848 303.521 225.848C303.132 225.848 302.727 225.92 302.305 226.064C301.889 226.208 301.5 226.408 301.137 226.664L300.737 225.496C301.148 225.224 301.615 225.013 302.137 224.864C302.665 224.709 303.185 224.632 303.697 224.632C304.668 224.632 305.396 224.88 305.881 225.376C306.367 225.867 306.609 226.6 306.609 227.576V233H305.297V232.248C304.977 232.552 304.617 232.787 304.217 232.952C303.817 233.112 303.404 233.192 302.977 233.192ZM303.185 231.976C303.564 231.976 303.937 231.883 304.305 231.696C304.679 231.509 305.009 231.245 305.297 230.904V229.496C305.025 229.325 304.716 229.192 304.369 229.096C304.023 229 303.692 228.952 303.377 228.952C302.78 228.952 302.308 229.088 301.961 229.36C301.615 229.627 301.441 229.992 301.441 230.456C301.441 230.925 301.596 231.296 301.905 231.568C302.215 231.84 302.641 231.976 303.185 231.976ZM317.045 233.192C316.565 233.192 316.159 233.096 315.829 232.904C315.498 232.712 315.215 232.477 314.981 232.2V230.536C315.173 230.968 315.442 231.304 315.789 231.544C316.141 231.779 316.495 231.896 316.852 231.896C317.461 231.896 317.93 231.619 318.261 231.064C318.591 230.509 318.757 229.789 318.757 228.904C318.757 227.944 318.594 227.205 318.269 226.688C317.949 226.171 317.477 225.912 316.852 225.912C316.543 225.912 316.266 225.976 316.021 226.104C315.775 226.232 315.565 226.389 315.389 226.576C315.213 226.763 315.077 226.941 314.981 227.112V225.544C315.205 225.304 315.487 225.093 315.829 224.912C316.17 224.725 316.575 224.632 317.045 224.632C317.999 224.632 318.757 225.008 319.317 225.76C319.882 226.512 320.165 227.56 320.165 228.904C320.165 229.784 320.039 230.547 319.789 231.192C319.543 231.832 319.186 232.325 318.717 232.672C318.253 233.019 317.695 233.192 317.045 233.192ZM311.781 233.192C311.13 233.192 310.57 233.019 310.101 232.672C309.637 232.325 309.279 231.832 309.029 231.192C308.783 230.547 308.661 229.784 308.661 228.904C308.661 228.008 308.789 227.243 309.045 226.608C309.301 225.968 309.661 225.48 310.125 225.144C310.594 224.803 311.146 224.632 311.781 224.632C312.255 224.632 312.661 224.725 312.997 224.912C313.338 225.093 313.621 225.304 313.845 225.544V227.112C313.749 226.941 313.613 226.763 313.437 226.576C313.261 226.389 313.05 226.232 312.805 226.104C312.559 225.976 312.282 225.912 311.973 225.912C311.349 225.912 310.874 226.171 310.549 226.688C310.229 227.205 310.069 227.944 310.069 228.904C310.069 229.789 310.234 230.509 310.565 231.064C310.895 231.619 311.365 231.896 311.973 231.896C312.335 231.896 312.69 231.779 313.037 231.544C313.383 231.304 313.653 230.968 313.845 230.536V232.2C313.615 232.477 313.333 232.712 312.997 232.904C312.666 233.096 312.261 233.192 311.781 233.192ZM313.717 236.216V222.264L315.109 221.608V235.56L313.717 236.216ZM322.437 233V224.824H323.829V230.552L327.797 224.824H329.189V233H327.797V227.288L323.829 233H322.437ZM339.41 233.192C338.402 233.192 337.575 232.875 336.93 232.24C336.29 231.6 335.922 230.696 335.826 229.528H333.298V233H331.906V224.824H333.298V228.264H335.826C335.933 227.117 336.306 226.227 336.946 225.592C337.591 224.952 338.413 224.632 339.41 224.632C340.141 224.632 340.775 224.8 341.314 225.136C341.858 225.472 342.279 225.96 342.578 226.6C342.877 227.235 343.026 228.003 343.026 228.904C343.026 230.248 342.698 231.299 342.042 232.056C341.386 232.813 340.509 233.192 339.41 233.192ZM339.41 231.896C340.098 231.896 340.637 231.632 341.026 231.104C341.421 230.571 341.618 229.837 341.618 228.904C341.618 227.976 341.423 227.245 341.034 226.712C340.65 226.179 340.109 225.912 339.41 225.912C338.717 225.912 338.175 226.176 337.786 226.704C337.397 227.227 337.202 227.965 337.202 228.92C337.202 229.848 337.397 230.576 337.786 231.104C338.175 231.632 338.717 231.896 339.41 231.896ZM348.969 233V224.824H352.649C353.193 224.824 353.657 224.915 354.041 225.096C354.425 225.272 354.718 225.523 354.921 225.848C355.123 226.168 355.225 226.547 355.225 226.984C355.225 227.373 355.123 227.723 354.921 228.032C354.723 228.336 354.441 228.557 354.073 228.696C354.553 228.845 354.915 229.083 355.161 229.408C355.406 229.728 355.529 230.125 355.529 230.6C355.529 231.069 355.425 231.485 355.217 231.848C355.009 232.205 354.702 232.488 354.297 232.696C353.897 232.899 353.406 233 352.825 233H348.969ZM350.361 231.784H352.745C353.033 231.784 353.278 231.739 353.481 231.648C353.683 231.552 353.838 231.416 353.945 231.24C354.051 231.059 354.105 230.84 354.105 230.584C354.105 230.328 354.038 230.112 353.905 229.936C353.777 229.76 353.585 229.627 353.329 229.536C353.078 229.445 352.766 229.4 352.393 229.4H350.361V231.784ZM350.361 228.184H352.281C352.777 228.184 353.153 228.096 353.409 227.92C353.67 227.739 353.801 227.485 353.801 227.16C353.801 226.925 353.75 226.725 353.649 226.56C353.547 226.389 353.398 226.261 353.201 226.176C353.009 226.085 352.777 226.04 352.505 226.04H350.361V228.184ZM369.56 233.192C369.08 233.192 368.675 233.096 368.344 232.904C368.013 232.712 367.731 232.477 367.496 232.2V230.536C367.688 230.968 367.957 231.304 368.304 231.544C368.656 231.779 369.011 231.896 369.368 231.896C369.976 231.896 370.445 231.619 370.776 231.064C371.107 230.509 371.272 229.789 371.272 228.904C371.272 227.944 371.109 227.205 370.784 226.688C370.464 226.171 369.992 225.912 369.368 225.912C369.059 225.912 368.781 225.976 368.536 226.104C368.291 226.232 368.08 226.389 367.904 226.576C367.728 226.763 367.592 226.941 367.496 227.112V225.544C367.72 225.304 368.003 225.093 368.344 224.912C368.685 224.725 369.091 224.632 369.56 224.632C370.515 224.632 371.272 225.008 371.832 225.76C372.397 226.512 372.68 227.56 372.68 228.904C372.68 229.784 372.555 230.547 372.304 231.192C372.059 231.832 371.701 232.325 371.232 232.672C370.768 233.019 370.211 233.192 369.56 233.192ZM364.296 233.192C363.645 233.192 363.085 233.019 362.616 232.672C362.152 232.325 361.795 231.832 361.544 231.192C361.299 230.547 361.176 229.784 361.176 228.904C361.176 228.008 361.304 227.243 361.56 226.608C361.816 225.968 362.176 225.48 362.64 225.144C363.109 224.803 363.661 224.632 364.296 224.632C364.771 224.632 365.176 224.725 365.512 224.912C365.853 225.093 366.136 225.304 366.36 225.544V227.112C366.264 226.941 366.128 226.763 365.952 226.576C365.776 226.389 365.565 226.232 365.32 226.104C365.075 225.976 364.797 225.912 364.488 225.912C363.864 225.912 363.389 226.171 363.064 226.688C362.744 227.205 362.584 227.944 362.584 228.904C362.584 229.789 362.749 230.509 363.08 231.064C363.411 231.619 363.88 231.896 364.488 231.896C364.851 231.896 365.205 231.779 365.552 231.544C365.899 231.304 366.168 230.968 366.36 230.536V232.2C366.131 232.477 365.848 232.712 365.512 232.904C365.181 233.096 364.776 233.192 364.296 233.192ZM366.232 236.216V222.264L367.624 221.608V235.56L366.232 236.216ZM378.12 233.192C377 233.192 376.118 232.811 375.472 232.048C374.827 231.28 374.504 230.237 374.504 228.92C374.504 228.04 374.651 227.28 374.944 226.64C375.238 226 375.654 225.507 376.192 225.16C376.736 224.808 377.379 224.632 378.12 224.632C378.867 224.632 379.51 224.805 380.048 225.152C380.592 225.493 381.008 225.984 381.296 226.624C381.59 227.264 381.736 228.024 381.736 228.904C381.736 229.784 381.59 230.547 381.296 231.192C381.003 231.832 380.584 232.325 380.04 232.672C379.502 233.019 378.862 233.192 378.12 233.192ZM378.12 231.896C378.808 231.896 379.347 231.632 379.736 231.104C380.131 230.571 380.328 229.837 380.328 228.904C380.328 227.965 380.131 227.232 379.736 226.704C379.347 226.176 378.808 225.912 378.12 225.912C377.427 225.912 376.886 226.176 376.496 226.704C376.107 227.227 375.912 227.965 375.912 228.92C375.912 229.853 376.107 230.584 376.496 231.112C376.886 231.635 377.427 231.896 378.12 231.896ZM383.984 236.248V224.824H385.376V225.512C385.963 224.925 386.662 224.632 387.472 224.632C388.166 224.632 388.763 224.805 389.264 225.152C389.771 225.499 390.16 225.992 390.432 226.632C390.71 227.272 390.848 228.029 390.848 228.904C390.848 229.779 390.71 230.539 390.432 231.184C390.155 231.824 389.763 232.32 389.256 232.672C388.755 233.019 388.16 233.192 387.472 233.192C387.04 233.192 386.651 233.115 386.304 232.96C385.958 232.8 385.648 232.557 385.376 232.232V235.592L383.984 236.248ZM387.296 231.896C387.984 231.896 388.51 231.637 388.872 231.12C389.24 230.603 389.424 229.864 389.424 228.904C389.424 227.981 389.232 227.253 388.848 226.72C388.464 226.181 387.947 225.912 387.296 225.912C386.88 225.912 386.507 226.008 386.176 226.2C385.846 226.392 385.579 226.664 385.376 227.016V230.792C385.659 231.16 385.96 231.437 386.28 231.624C386.6 231.805 386.939 231.896 387.296 231.896ZM397.205 233.144L394.917 228.632C394.827 228.445 394.744 228.272 394.669 228.112C394.595 227.947 394.517 227.768 394.437 227.576C394.453 227.704 394.467 227.861 394.477 228.048C394.493 228.235 394.501 228.429 394.501 228.632V233H393.109V224.824H394.357L396.853 229.768C396.944 229.949 397.016 230.096 397.069 230.208C397.123 230.32 397.168 230.424 397.205 230.52C397.248 230.424 397.293 230.32 397.341 230.208C397.395 230.096 397.467 229.949 397.557 229.768L400.053 224.824H401.301V233H399.909V228.76C399.909 228.557 399.915 228.36 399.925 228.168C399.941 227.976 399.957 227.816 399.973 227.688C399.893 227.88 399.816 228.059 399.741 228.224C399.667 228.389 399.579 228.568 399.477 228.76L397.205 233.144ZM406.368 233.192C405.483 233.192 404.787 232.947 404.28 232.456C403.773 231.965 403.52 231.293 403.52 230.44C403.52 229.891 403.645 229.413 403.896 229.008C404.147 228.603 404.501 228.291 404.96 228.072C405.419 227.848 405.957 227.736 406.576 227.736C406.976 227.736 407.349 227.781 407.696 227.872C408.048 227.957 408.379 228.088 408.688 228.264V227.688C408.688 227.053 408.544 226.589 408.256 226.296C407.968 225.997 407.52 225.848 406.912 225.848C406.523 225.848 406.117 225.92 405.696 226.064C405.28 226.208 404.891 226.408 404.528 226.664L404.128 225.496C404.539 225.224 405.005 225.013 405.528 224.864C406.056 224.709 406.576 224.632 407.088 224.632C408.059 224.632 408.787 224.88 409.272 225.376C409.757 225.867 410 226.6 410 227.576V233H408.688V232.248C408.368 232.552 408.008 232.787 407.608 232.952C407.208 233.112 406.795 233.192 406.368 233.192ZM406.576 231.976C406.955 231.976 407.328 231.883 407.696 231.696C408.069 231.509 408.4 231.245 408.688 230.904V229.496C408.416 229.325 408.107 229.192 407.76 229.096C407.413 229 407.083 228.952 406.768 228.952C406.171 228.952 405.699 229.088 405.352 229.36C405.005 229.627 404.832 229.992 404.832 230.456C404.832 230.925 404.987 231.296 405.296 231.568C405.605 231.84 406.032 231.976 406.576 231.976ZM414.131 233V226.04H411.683V224.824H417.971V226.04H415.523V233H414.131ZM422.996 233.192C422.249 233.192 421.604 233.008 421.06 232.64C420.516 232.272 420.097 231.765 419.804 231.12C419.51 230.475 419.364 229.736 419.364 228.904C419.364 228.003 419.516 227.235 419.82 226.6C420.124 225.96 420.548 225.472 421.092 225.136C421.636 224.8 422.27 224.632 422.996 224.632C423.609 224.632 424.172 224.771 424.684 225.048C425.196 225.32 425.604 225.744 425.908 226.32C426.217 226.891 426.372 227.624 426.372 228.52C426.372 228.648 426.366 228.797 426.356 228.968C426.35 229.133 426.34 229.304 426.324 229.48H420.788C420.841 229.976 420.964 230.411 421.156 230.784C421.348 231.157 421.601 231.451 421.916 231.664C422.23 231.872 422.601 231.976 423.028 231.976C423.374 231.976 423.694 231.915 423.988 231.792C424.286 231.669 424.564 231.48 424.82 231.224L425.636 232.136C425.332 232.44 424.953 232.693 424.5 232.896C424.052 233.093 423.55 233.192 422.996 233.192ZM420.772 228.264H424.964C424.964 227.8 424.886 227.387 424.732 227.024C424.582 226.656 424.361 226.368 424.068 226.16C423.774 225.952 423.417 225.848 422.996 225.848C422.404 225.848 421.894 226.04 421.468 226.424C421.046 226.808 420.814 227.421 420.772 228.264ZM434.571 233.192C433.765 233.192 433.096 233.019 432.563 232.672C432.029 232.32 431.621 231.821 431.339 231.176L432.491 230.584C432.709 231.016 432.968 231.341 433.267 231.56C433.571 231.773 434.011 231.88 434.587 231.88C434.853 231.88 435.112 231.845 435.363 231.776C435.613 231.701 435.84 231.573 436.043 231.392C436.251 231.211 436.413 230.957 436.531 230.632C436.653 230.301 436.715 229.88 436.715 229.368V221.8H438.107V229.32C438.107 230.093 437.997 230.731 437.779 231.232C437.565 231.733 437.28 232.128 436.923 232.416C436.571 232.699 436.189 232.899 435.779 233.016C435.368 233.133 434.965 233.192 434.571 233.192ZM441.193 233V221.8H445.481C446.388 221.8 447.105 221.965 447.633 222.296C448.161 222.621 448.537 223.043 448.761 223.56C448.985 224.072 449.097 224.605 449.097 225.16C449.097 225.544 449.03 225.933 448.897 226.328C448.769 226.717 448.561 227.077 448.273 227.408C447.985 227.739 447.612 228.005 447.153 228.208C446.694 228.405 446.137 228.504 445.481 228.504H442.585V233H441.193ZM442.585 227.208H445.577C446.105 227.208 446.524 227.104 446.833 226.896C447.148 226.688 447.372 226.427 447.505 226.112C447.638 225.797 447.705 225.48 447.705 225.16C447.705 224.867 447.644 224.56 447.521 224.24C447.404 223.92 447.19 223.651 446.881 223.432C446.572 223.208 446.137 223.096 445.577 223.096H442.585V227.208ZM455.387 233.192C454.539 233.192 453.814 233.032 453.211 232.712C452.608 232.387 452.118 231.949 451.739 231.4C451.36 230.845 451.08 230.224 450.899 229.536C450.723 228.843 450.635 228.131 450.635 227.4C450.635 226.675 450.728 225.968 450.915 225.28C451.107 224.592 451.395 223.973 451.779 223.424C452.168 222.869 452.662 222.429 453.259 222.104C453.856 221.773 454.566 221.608 455.387 221.608C456.08 221.608 456.656 221.701 457.115 221.888C457.579 222.075 457.96 222.32 458.259 222.624C458.558 222.923 458.811 223.24 459.019 223.576L457.771 224.296C457.515 223.928 457.208 223.608 456.851 223.336C456.494 223.059 456.006 222.92 455.387 222.92C454.763 222.92 454.238 223.056 453.811 223.328C453.39 223.595 453.051 223.949 452.795 224.392C452.539 224.835 452.355 225.32 452.243 225.848C452.131 226.371 452.075 226.888 452.075 227.4C452.075 227.976 452.139 228.531 452.267 229.064C452.395 229.597 452.592 230.075 452.859 230.496C453.126 230.917 453.467 231.251 453.883 231.496C454.304 231.741 454.806 231.864 455.387 231.864C455.894 231.864 456.334 231.755 456.707 231.536C457.086 231.317 457.379 231.016 457.587 230.632C457.795 230.243 457.899 229.795 457.899 229.288V228.84H455.867V227.56H459.355V228.904C459.355 229.832 459.179 230.616 458.827 231.256C458.48 231.891 458.006 232.373 457.403 232.704C456.806 233.029 456.134 233.192 455.387 233.192ZM461.939 235.256L461.475 235.016C461.571 234.931 461.685 234.8 461.819 234.624C461.957 234.453 462.08 234.251 462.187 234.016C462.293 233.781 462.355 233.528 462.371 233.256C462.061 233.24 461.797 233.133 461.579 232.936C461.36 232.739 461.251 232.488 461.251 232.184C461.251 231.837 461.357 231.563 461.571 231.36C461.784 231.152 462.035 231.048 462.323 231.048C462.637 231.048 462.917 231.163 463.163 231.392C463.413 231.621 463.539 231.976 463.539 232.456C463.539 232.867 463.467 233.251 463.323 233.608C463.184 233.965 462.992 234.283 462.747 234.56C462.507 234.843 462.237 235.075 461.939 235.256ZM469.49 233V221.8H473.778C474.685 221.8 475.402 221.965 475.93 222.296C476.458 222.621 476.834 223.043 477.058 223.56C477.282 224.072 477.394 224.605 477.394 225.16C477.394 225.544 477.327 225.933 477.194 226.328C477.066 226.717 476.858 227.077 476.57 227.408C476.282 227.739 475.909 228.005 475.45 228.208C474.991 228.405 474.434 228.504 473.778 228.504H470.882V233H469.49ZM470.882 227.208H473.874C474.402 227.208 474.821 227.104 475.13 226.896C475.445 226.688 475.669 226.427 475.802 226.112C475.935 225.797 476.002 225.48 476.002 225.16C476.002 224.867 475.941 224.56 475.818 224.24C475.701 223.92 475.487 223.651 475.178 223.432C474.869 223.208 474.434 223.096 473.874 223.096H470.882V227.208ZM479.568 233V221.8H480.976L485.936 229.768C486.016 229.901 486.093 230.035 486.168 230.168C486.243 230.301 486.32 230.445 486.4 230.6C486.395 230.461 486.387 230.323 486.376 230.184C486.371 230.045 486.368 229.912 486.368 229.784V221.8H487.76V233H486.416L481.376 225C481.307 224.877 481.232 224.749 481.152 224.616C481.077 224.483 481.003 224.349 480.928 224.216C480.939 224.333 480.947 224.461 480.952 224.6C480.957 224.739 480.96 224.872 480.96 225V233H479.568ZM495.168 233.192C494.32 233.192 493.595 233.032 492.992 232.712C492.389 232.387 491.899 231.949 491.52 231.4C491.141 230.845 490.861 230.224 490.68 229.536C490.504 228.843 490.416 228.131 490.416 227.4C490.416 226.675 490.509 225.968 490.696 225.28C490.888 224.592 491.176 223.973 491.56 223.424C491.949 222.869 492.443 222.429 493.04 222.104C493.637 221.773 494.347 221.608 495.168 221.608C495.861 221.608 496.437 221.701 496.896 221.888C497.36 222.075 497.741 222.32 498.04 222.624C498.339 222.923 498.592 223.24 498.8 223.576L497.552 224.296C497.296 223.928 496.989 223.608 496.632 223.336C496.275 223.059 495.787 222.92 495.168 222.92C494.544 222.92 494.019 223.056 493.592 223.328C493.171 223.595 492.832 223.949 492.576 224.392C492.32 224.835 492.136 225.32 492.024 225.848C491.912 226.371 491.856 226.888 491.856 227.4C491.856 227.976 491.92 228.531 492.048 229.064C492.176 229.597 492.373 230.075 492.64 230.496C492.907 230.917 493.248 231.251 493.664 231.496C494.085 231.741 494.587 231.864 495.168 231.864C495.675 231.864 496.115 231.755 496.488 231.536C496.867 231.317 497.16 231.016 497.368 230.632C497.576 230.243 497.68 229.795 497.68 229.288V228.84H495.648V227.56H499.136V228.904C499.136 229.832 498.96 230.616 498.608 231.256C498.261 231.891 497.787 232.373 497.184 232.704C496.587 233.029 495.915 233.192 495.168 233.192Z" fill="#858B89"/>
</svg>
