<svg width="322" height="322" viewBox="0 0 322 322" fill="none" xmlns="http://www.w3.org/2000/svg">
<rect x="0.75" y="0.75" width="320.5" height="320.5" rx="9.25" stroke="#858B89" stroke-width="1.5" stroke-linecap="round" stroke-dasharray="11 11"/>
<path d="M163.708 138.146C163.708 137.068 164.136 136.035 164.898 135.273C165.66 134.511 166.693 134.083 167.771 134.083C168.848 134.083 169.882 134.511 170.643 135.273C171.405 136.035 171.833 137.068 171.833 138.146C171.833 139.223 171.405 140.256 170.643 141.018C169.882 141.78 168.848 142.208 167.771 142.208C166.693 142.208 165.66 141.78 164.898 141.018C164.136 140.256 163.708 139.223 163.708 138.146ZM158.66 142.487C158.477 142.195 158.223 141.954 157.922 141.787C157.621 141.62 157.282 141.532 156.937 141.532C156.593 141.532 156.254 141.62 155.953 141.787C155.651 141.954 155.398 142.195 155.215 142.487L148.444 153.32C148.252 153.628 148.146 153.981 148.137 154.343C148.128 154.705 148.215 155.064 148.391 155.381C148.567 155.697 148.824 155.962 149.136 156.146C149.449 156.33 149.804 156.427 150.167 156.427H171.833C172.211 156.427 172.58 156.322 172.901 156.123C173.222 155.925 173.481 155.641 173.65 155.304C173.819 154.967 173.89 154.589 173.856 154.213C173.822 153.837 173.685 153.479 173.458 153.177L169.396 147.76C169.207 147.508 168.961 147.303 168.679 147.162C168.397 147.021 168.086 146.948 167.771 146.948C167.455 146.948 167.144 147.021 166.862 147.162C166.58 147.303 166.335 147.508 166.146 147.76L163.86 150.807L158.66 142.487Z" fill="#858B89"/>
<path fill-rule="evenodd" clip-rule="evenodd" d="M147.458 113.094C145.483 113.094 143.589 113.878 142.192 115.275C140.795 116.672 140.01 118.566 140.01 120.542V158.458C140.01 160.434 140.795 162.328 142.192 163.725C143.589 165.122 145.483 165.906 147.458 165.906H174.542C176.517 165.906 178.411 165.122 179.808 163.725C181.205 162.328 181.99 160.434 181.99 158.458V128.58C181.99 127.548 181.654 126.546 181.031 125.723L172.911 114.976C172.469 114.391 171.898 113.917 171.242 113.59C170.586 113.264 169.863 113.094 169.13 113.094H147.458ZM144.073 120.542C144.073 118.673 145.59 117.156 147.458 117.156H167.094V129.065C167.094 130.186 168.004 131.096 169.125 131.096H177.927V158.458C177.927 160.327 176.41 161.844 174.542 161.844H147.458C145.59 161.844 144.073 160.327 144.073 158.458V120.542Z" fill="#858B89"/>
<path d="M64.3024 191V179.8H65.6944V184.536H70.9744V179.8H72.3664V191H70.9744V185.848H65.6944V191H64.3024ZM77.1491 191.192C76.2638 191.192 75.5678 190.947 75.0611 190.456C74.5545 189.965 74.3011 189.293 74.3011 188.44C74.3011 187.891 74.4265 187.413 74.6771 187.008C74.9278 186.603 75.2825 186.291 75.7411 186.072C76.1998 185.848 76.7385 185.736 77.3571 185.736C77.7571 185.736 78.1305 185.781 78.4771 185.872C78.8291 185.957 79.1598 186.088 79.4691 186.264V185.688C79.4691 185.053 79.3251 184.589 79.0371 184.296C78.7491 183.997 78.3011 183.848 77.6931 183.848C77.3038 183.848 76.8985 183.92 76.4771 184.064C76.0611 184.208 75.6718 184.408 75.3091 184.664L74.9091 183.496C75.3198 183.224 75.7865 183.013 76.3091 182.864C76.8371 182.709 77.3571 182.632 77.8691 182.632C78.8398 182.632 79.5678 182.88 80.0531 183.376C80.5385 183.867 80.7811 184.6 80.7811 185.576V191H79.4691V190.248C79.1491 190.552 78.7891 190.787 78.3891 190.952C77.9891 191.112 77.5758 191.192 77.1491 191.192ZM77.3571 189.976C77.7358 189.976 78.1091 189.883 78.4771 189.696C78.8505 189.509 79.1811 189.245 79.4691 188.904V187.496C79.1971 187.325 78.8878 187.192 78.5411 187.096C78.1945 187 77.8638 186.952 77.5491 186.952C76.9518 186.952 76.4798 187.088 76.1331 187.36C75.7865 187.627 75.6131 187.992 75.6131 188.456C75.6131 188.925 75.7678 189.296 76.0771 189.568C76.3865 189.84 76.8131 189.976 77.3571 189.976ZM88.464 189.48L83.104 182.824H84.672L88.464 187.624V189.48ZM89.008 189.608V187.752L92.912 182.824H94.48L89.008 189.608ZM82.608 191L85.856 185.048L86.784 186.184L84.176 191H82.608ZM88.096 191V182.824H89.488V191H88.096ZM93.408 191L90.8 186.184L91.728 185.048L94.976 191H93.408ZM101.065 191.144L98.7766 186.632C98.686 186.445 98.6033 186.272 98.5286 186.112C98.454 185.947 98.3766 185.768 98.2966 185.576C98.3126 185.704 98.326 185.861 98.3366 186.048C98.3526 186.235 98.3606 186.429 98.3606 186.632V191H96.9686V182.824H98.2166L100.713 187.768C100.803 187.949 100.875 188.096 100.929 188.208C100.982 188.32 101.027 188.424 101.065 188.52C101.107 188.424 101.153 188.32 101.201 188.208C101.254 188.096 101.326 187.949 101.417 187.768L103.913 182.824H105.161V191H103.769V186.76C103.769 186.557 103.774 186.36 103.785 186.168C103.801 185.976 103.817 185.816 103.833 185.688C103.753 185.88 103.675 186.059 103.601 186.224C103.526 186.389 103.438 186.568 103.337 186.76L101.065 191.144ZM107.875 191V182.824H109.267V188.552L113.235 182.824H114.627V191H113.235V185.288L109.267 191H107.875ZM118.975 191V184.04H116.527V182.824H122.815V184.04H120.367V191H118.975ZM127.839 191.192C127.093 191.192 126.447 191.008 125.903 190.64C125.359 190.272 124.941 189.765 124.647 189.12C124.354 188.475 124.207 187.736 124.207 186.904C124.207 186.003 124.359 185.235 124.663 184.6C124.967 183.96 125.391 183.472 125.935 183.136C126.479 182.8 127.114 182.632 127.839 182.632C128.453 182.632 129.015 182.771 129.527 183.048C130.039 183.32 130.447 183.744 130.751 184.32C131.061 184.891 131.215 185.624 131.215 186.52C131.215 186.648 131.21 186.797 131.199 186.968C131.194 187.133 131.183 187.304 131.167 187.48H125.631C125.685 187.976 125.807 188.411 125.999 188.784C126.191 189.157 126.445 189.451 126.759 189.664C127.074 189.872 127.445 189.976 127.871 189.976C128.218 189.976 128.538 189.915 128.831 189.792C129.13 189.669 129.407 189.48 129.663 189.224L130.479 190.136C130.175 190.44 129.797 190.693 129.343 190.896C128.895 191.093 128.394 191.192 127.839 191.192ZM125.615 186.264H129.807C129.807 185.8 129.73 185.387 129.575 185.024C129.426 184.656 129.205 184.368 128.911 184.16C128.618 183.952 128.261 183.848 127.839 183.848C127.247 183.848 126.738 184.04 126.311 184.424C125.89 184.808 125.658 185.421 125.615 186.264ZM137.062 191V182.824H138.454V188.552L142.422 182.824H143.814V191H142.422V185.288L138.454 191H137.062ZM146.306 191.192L145.65 190.136C146.189 190.072 146.581 189.917 146.826 189.672C147.077 189.427 147.229 189.037 147.282 188.504L147.906 182.824H153.746V191H152.354V184.04H149.186L148.642 188.728C148.562 189.416 148.325 189.968 147.93 190.384C147.535 190.8 146.994 191.069 146.306 191.192ZM156.469 191V182.824H157.861V188.552L161.829 182.824H163.221V191H161.829V185.288L157.861 191H156.469ZM169.641 191V182.824H176.329V191H174.937V184.04H171.033V191H169.641ZM182.23 191.192C181.483 191.192 180.838 191.008 180.294 190.64C179.75 190.272 179.331 189.765 179.038 189.12C178.745 188.475 178.598 187.736 178.598 186.904C178.598 186.003 178.75 185.235 179.054 184.6C179.358 183.96 179.782 183.472 180.326 183.136C180.87 182.8 181.505 182.632 182.23 182.632C182.843 182.632 183.406 182.771 183.918 183.048C184.43 183.32 184.838 183.744 185.142 184.32C185.451 184.891 185.606 185.624 185.606 186.52C185.606 186.648 185.601 186.797 185.59 186.968C185.585 187.133 185.574 187.304 185.558 187.48H180.022C180.075 187.976 180.198 188.411 180.39 188.784C180.582 189.157 180.835 189.451 181.15 189.664C181.465 189.872 181.835 189.976 182.262 189.976C182.609 189.976 182.929 189.915 183.222 189.792C183.521 189.669 183.798 189.48 184.054 189.224L184.87 190.136C184.566 190.44 184.187 190.693 183.734 190.896C183.286 191.093 182.785 191.192 182.23 191.192ZM180.006 186.264H184.198C184.198 185.8 184.121 185.387 183.966 185.024C183.817 184.656 183.595 184.368 183.302 184.16C183.009 183.952 182.651 183.848 182.23 183.848C181.638 183.848 181.129 184.04 180.702 184.424C180.281 184.808 180.049 185.421 180.006 186.264ZM187.766 194.248V182.824H189.158V183.512C189.744 182.925 190.443 182.632 191.254 182.632C191.947 182.632 192.544 182.805 193.046 183.152C193.552 183.499 193.942 183.992 194.214 184.632C194.491 185.272 194.63 186.029 194.63 186.904C194.63 187.779 194.491 188.539 194.214 189.184C193.936 189.824 193.544 190.32 193.038 190.672C192.536 191.019 191.942 191.192 191.254 191.192C190.822 191.192 190.432 191.115 190.086 190.96C189.739 190.8 189.43 190.557 189.158 190.232V193.592L187.766 194.248ZM191.078 189.896C191.766 189.896 192.291 189.637 192.654 189.12C193.022 188.603 193.206 187.864 193.206 186.904C193.206 185.981 193.014 185.253 192.63 184.72C192.246 184.181 191.728 183.912 191.078 183.912C190.662 183.912 190.288 184.008 189.958 184.2C189.627 184.392 189.36 184.664 189.158 185.016V188.792C189.44 189.16 189.742 189.437 190.062 189.624C190.382 189.805 190.72 189.896 191.078 189.896ZM200.089 191.192C199.343 191.192 198.697 191.008 198.153 190.64C197.609 190.272 197.191 189.765 196.897 189.12C196.604 188.475 196.457 187.736 196.457 186.904C196.457 186.003 196.609 185.235 196.913 184.6C197.217 183.96 197.641 183.472 198.185 183.136C198.729 182.8 199.364 182.632 200.089 182.632C200.703 182.632 201.265 182.771 201.777 183.048C202.289 183.32 202.697 183.744 203.001 184.32C203.311 184.891 203.465 185.624 203.465 186.52C203.465 186.648 203.46 186.797 203.449 186.968C203.444 187.133 203.433 187.304 203.417 187.48H197.881C197.935 187.976 198.057 188.411 198.249 188.784C198.441 189.157 198.695 189.451 199.009 189.664C199.324 189.872 199.695 189.976 200.121 189.976C200.468 189.976 200.788 189.915 201.081 189.792C201.38 189.669 201.657 189.48 201.913 189.224L202.729 190.136C202.425 190.44 202.047 190.693 201.593 190.896C201.145 191.093 200.644 191.192 200.089 191.192ZM197.865 186.264H202.057C202.057 185.8 201.98 185.387 201.825 185.024C201.676 184.656 201.455 184.368 201.161 184.16C200.868 183.952 200.511 183.848 200.089 183.848C199.497 183.848 198.988 184.04 198.561 184.424C198.14 184.808 197.908 185.421 197.865 186.264ZM207.256 191V184.04H204.808V182.824H211.096V184.04H208.648V191H207.256ZM215.337 191.192C214.451 191.192 213.755 190.947 213.249 190.456C212.742 189.965 212.489 189.293 212.489 188.44C212.489 187.891 212.614 187.413 212.865 187.008C213.115 186.603 213.47 186.291 213.929 186.072C214.387 185.848 214.926 185.736 215.545 185.736C215.945 185.736 216.318 185.781 216.665 185.872C217.017 185.957 217.347 186.088 217.657 186.264V185.688C217.657 185.053 217.513 184.589 217.225 184.296C216.937 183.997 216.489 183.848 215.881 183.848C215.491 183.848 215.086 183.92 214.665 184.064C214.249 184.208 213.859 184.408 213.497 184.664L213.097 183.496C213.507 183.224 213.974 183.013 214.497 182.864C215.025 182.709 215.545 182.632 216.057 182.632C217.027 182.632 217.755 182.88 218.241 183.376C218.726 183.867 218.969 184.6 218.969 185.576V191H217.657V190.248C217.337 190.552 216.977 190.787 216.577 190.952C216.177 191.112 215.763 191.192 215.337 191.192ZM215.545 189.976C215.923 189.976 216.297 189.883 216.665 189.696C217.038 189.509 217.369 189.245 217.657 188.904V187.496C217.385 187.325 217.075 187.192 216.729 187.096C216.382 187 216.051 186.952 215.737 186.952C215.139 186.952 214.667 187.088 214.321 187.36C213.974 187.627 213.801 187.992 213.801 188.456C213.801 188.925 213.955 189.296 214.265 189.568C214.574 189.84 215.001 189.976 215.545 189.976ZM231.772 193.608V191H230.956V189.784H233.164V192.968L231.772 193.608ZM221.5 191V182.824H222.892V189.784H225.98V182.824H227.372V189.784H230.46V182.824H231.852V191H221.5ZM235.172 191V182.824H236.564V188.552L240.532 182.824H241.924V191H240.532V185.288L236.564 191H235.172ZM246.272 191V184.04H243.824V182.824H250.112V184.04H247.664V191H246.272ZM255.136 191.192C254.39 191.192 253.744 191.008 253.2 190.64C252.656 190.272 252.238 189.765 251.944 189.12C251.651 188.475 251.504 187.736 251.504 186.904C251.504 186.003 251.656 185.235 251.96 184.6C252.264 183.96 252.688 183.472 253.232 183.136C253.776 182.8 254.411 182.632 255.136 182.632C255.75 182.632 256.312 182.771 256.824 183.048C257.336 183.32 257.744 183.744 258.048 184.32C258.358 184.891 258.512 185.624 258.512 186.52C258.512 186.648 258.507 186.797 258.496 186.968C258.491 187.133 258.48 187.304 258.464 187.48H252.928C252.982 187.976 253.104 188.411 253.296 188.784C253.488 189.157 253.742 189.451 254.056 189.664C254.371 189.872 254.742 189.976 255.168 189.976C255.515 189.976 255.835 189.915 256.128 189.792C256.427 189.669 256.704 189.48 256.96 189.224L257.776 190.136C257.472 190.44 257.094 190.693 256.64 190.896C256.192 191.093 255.691 191.192 255.136 191.192ZM252.912 186.264H257.104C257.104 185.8 257.027 185.387 256.872 185.024C256.723 184.656 256.502 184.368 256.208 184.16C255.915 183.952 255.558 183.848 255.136 183.848C254.544 183.848 254.035 184.04 253.608 184.424C253.187 184.808 252.955 185.421 252.912 186.264ZM45.5858 210V201.824H46.9778V207.552L50.9458 201.824H52.3378V210H50.9458V204.288L46.9778 210H45.5858ZM58.0473 210.192C57.242 210.192 56.514 209.995 55.8633 209.6C55.218 209.2 54.7513 208.64 54.4633 207.92L55.6793 207.488C55.898 207.957 56.21 208.312 56.6153 208.552C57.0206 208.792 57.498 208.912 58.0473 208.912C58.57 208.912 58.9913 208.805 59.3113 208.592C59.6313 208.373 59.7913 208.069 59.7913 207.68C59.7913 207.317 59.6393 207.029 59.3353 206.816C59.0313 206.603 58.5913 206.496 58.0153 206.496H56.5913V205.216H58.0153C58.4793 205.216 58.834 205.109 59.0793 204.896C59.33 204.683 59.4553 204.4 59.4553 204.048C59.4553 203.696 59.3193 203.419 59.0473 203.216C58.7806 203.013 58.4313 202.912 57.9993 202.912C57.5193 202.912 57.1006 203.024 56.7433 203.248C56.3913 203.472 56.1273 203.808 55.9513 204.256L54.7673 203.744C55.002 203.088 55.4153 202.573 56.0073 202.2C56.6046 201.821 57.274 201.632 58.0153 201.632C58.8953 201.632 59.5886 201.848 60.0953 202.28C60.6073 202.712 60.8633 203.264 60.8633 203.936C60.8633 204.336 60.7593 204.699 60.5513 205.024C60.3433 205.344 60.026 205.589 59.5993 205.76C60.122 205.888 60.5193 206.136 60.7913 206.504C61.0633 206.872 61.1993 207.28 61.1993 207.728C61.1993 208.448 60.9166 209.04 60.3513 209.504C59.7913 209.963 59.0233 210.192 58.0473 210.192ZM66.7531 210.192C65.6331 210.192 64.7504 209.811 64.1051 209.048C63.4597 208.28 63.1371 207.237 63.1371 205.92C63.1371 205.04 63.2837 204.28 63.5771 203.64C63.8704 203 64.2864 202.507 64.8251 202.16C65.3691 201.808 66.0117 201.632 66.7531 201.632C67.4997 201.632 68.1424 201.805 68.6811 202.152C69.2251 202.493 69.6411 202.984 69.9291 203.624C70.2224 204.264 70.3691 205.024 70.3691 205.904C70.3691 206.784 70.2224 207.547 69.9291 208.192C69.6357 208.832 69.2171 209.325 68.6731 209.672C68.1344 210.019 67.4944 210.192 66.7531 210.192ZM66.7531 208.896C67.4411 208.896 67.9797 208.632 68.3691 208.104C68.7637 207.571 68.9611 206.837 68.9611 205.904C68.9611 204.965 68.7637 204.232 68.3691 203.704C67.9797 203.176 67.4411 202.912 66.7531 202.912C66.0597 202.912 65.5184 203.176 65.1291 203.704C64.7397 204.227 64.5451 204.965 64.5451 205.92C64.5451 206.853 64.7397 207.584 65.1291 208.112C65.5184 208.635 66.0597 208.896 66.7531 208.896ZM75.8156 210.192C75.0849 210.192 74.4476 210.024 73.9036 209.688C73.3649 209.352 72.9462 208.867 72.6476 208.232C72.3489 207.592 72.1996 206.821 72.1996 205.92V204.816C72.1996 203.669 72.3009 202.72 72.5036 201.968C72.7116 201.216 73.0022 200.621 73.3756 200.184C73.7489 199.741 74.1942 199.419 74.7116 199.216C75.2289 199.008 75.7996 198.88 76.4236 198.832L79.2876 198.608L78.4876 199.936L76.4076 200.112C75.8582 200.16 75.4049 200.264 75.0476 200.424C74.6956 200.584 74.4102 200.835 74.1916 201.176C73.9782 201.512 73.8049 201.968 73.6716 202.544C73.6502 202.645 73.6289 202.733 73.6076 202.808C73.5916 202.877 73.5756 202.944 73.5596 203.008C73.6022 202.928 73.6449 202.848 73.6876 202.768C73.7356 202.683 73.7836 202.608 73.8316 202.544C74.0716 202.245 74.3702 202.019 74.7276 201.864C75.0849 201.709 75.4902 201.632 75.9436 201.632C76.6316 201.632 77.2369 201.8 77.7596 202.136C78.2822 202.472 78.6902 202.96 78.9836 203.6C79.2822 204.235 79.4316 205.003 79.4316 205.904C79.4316 206.8 79.2822 207.568 78.9836 208.208C78.6849 208.848 78.2636 209.339 77.7196 209.68C77.1809 210.021 76.5462 210.192 75.8156 210.192ZM75.8156 208.896C76.5036 208.896 77.0422 208.632 77.4316 208.104C77.8262 207.571 78.0236 206.837 78.0236 205.904C78.0236 204.976 77.8289 204.245 77.4396 203.712C77.0556 203.179 76.5142 202.912 75.8156 202.912C75.1222 202.912 74.5809 203.176 74.1916 203.704C73.8022 204.227 73.6076 204.965 73.6076 205.92C73.6076 206.848 73.8022 207.576 74.1916 208.104C74.5809 208.632 75.1222 208.896 75.8156 208.896ZM81.6796 213.248V201.824H83.0716V202.512C83.6582 201.925 84.3569 201.632 85.1676 201.632C85.8609 201.632 86.4582 201.805 86.9596 202.152C87.4662 202.499 87.8556 202.992 88.1276 203.632C88.4049 204.272 88.5436 205.029 88.5436 205.904C88.5436 206.779 88.4049 207.539 88.1276 208.184C87.8502 208.824 87.4582 209.32 86.9516 209.672C86.4502 210.019 85.8556 210.192 85.1676 210.192C84.7356 210.192 84.3462 210.115 83.9996 209.96C83.6529 209.8 83.3436 209.557 83.0716 209.232V212.592L81.6796 213.248ZM84.9916 208.896C85.6796 208.896 86.2049 208.637 86.5676 208.12C86.9356 207.603 87.1196 206.864 87.1196 205.904C87.1196 204.981 86.9276 204.253 86.5436 203.72C86.1596 203.181 85.6422 202.912 84.9916 202.912C84.5756 202.912 84.2022 203.008 83.8716 203.2C83.5409 203.392 83.2742 203.664 83.0716 204.016V207.792C83.3542 208.16 83.6556 208.437 83.9756 208.624C84.2956 208.805 84.6342 208.896 84.9916 208.896ZM93.2038 210.192C92.3185 210.192 91.6225 209.947 91.1158 209.456C90.6091 208.965 90.3558 208.293 90.3558 207.44C90.3558 206.891 90.4811 206.413 90.7318 206.008C90.9825 205.603 91.3371 205.291 91.7958 205.072C92.2545 204.848 92.7931 204.736 93.4118 204.736C93.8118 204.736 94.1851 204.781 94.5318 204.872C94.8838 204.957 95.2145 205.088 95.5238 205.264V204.688C95.5238 204.053 95.3798 203.589 95.0918 203.296C94.8038 202.997 94.3558 202.848 93.7478 202.848C93.3585 202.848 92.9531 202.92 92.5318 203.064C92.1158 203.208 91.7265 203.408 91.3638 203.664L90.9638 202.496C91.3745 202.224 91.8411 202.013 92.3638 201.864C92.8918 201.709 93.4118 201.632 93.9238 201.632C94.8945 201.632 95.6225 201.88 96.1078 202.376C96.5931 202.867 96.8358 203.6 96.8358 204.576V210H95.5238V209.248C95.2038 209.552 94.8438 209.787 94.4438 209.952C94.0438 210.112 93.6305 210.192 93.2038 210.192ZM93.4118 208.976C93.7905 208.976 94.1638 208.883 94.5318 208.696C94.9051 208.509 95.2358 208.245 95.5238 207.904V206.496C95.2518 206.325 94.9425 206.192 94.5958 206.096C94.2491 206 93.9185 205.952 93.6038 205.952C93.0065 205.952 92.5345 206.088 92.1878 206.36C91.8411 206.627 91.6678 206.992 91.6678 207.456C91.6678 207.925 91.8225 208.296 92.1318 208.568C92.4411 208.84 92.8678 208.976 93.4118 208.976ZM104.519 208.48L99.1587 201.824H100.727L104.519 206.624V208.48ZM105.063 208.608V206.752L108.967 201.824H110.535L105.063 208.608ZM98.6627 210L101.911 204.048L102.839 205.184L100.231 210H98.6627ZM104.151 210V201.824H105.543V210H104.151ZM109.463 210L106.855 205.184L107.783 204.048L111.031 210H109.463ZM116.003 210.192C115.257 210.192 114.611 210.008 114.067 209.64C113.523 209.272 113.105 208.765 112.811 208.12C112.518 207.475 112.371 206.736 112.371 205.904C112.371 205.003 112.523 204.235 112.827 203.6C113.131 202.96 113.555 202.472 114.099 202.136C114.643 201.8 115.278 201.632 116.003 201.632C116.617 201.632 117.179 201.771 117.691 202.048C118.203 202.32 118.611 202.744 118.915 203.32C119.225 203.891 119.379 204.624 119.379 205.52C119.379 205.648 119.374 205.797 119.363 205.968C119.358 206.133 119.347 206.304 119.331 206.48H113.795C113.849 206.976 113.971 207.411 114.163 207.784C114.355 208.157 114.609 208.451 114.923 208.664C115.238 208.872 115.609 208.976 116.035 208.976C116.382 208.976 116.702 208.915 116.995 208.792C117.294 208.669 117.571 208.48 117.827 208.224L118.643 209.136C118.339 209.44 117.961 209.693 117.507 209.896C117.059 210.093 116.558 210.192 116.003 210.192ZM113.779 205.264H117.971C117.971 204.8 117.894 204.387 117.739 204.024C117.59 203.656 117.369 203.368 117.075 203.16C116.782 202.952 116.425 202.848 116.003 202.848C115.411 202.848 114.902 203.04 114.475 203.424C114.054 203.808 113.822 204.421 113.779 205.264ZM121.555 210V201.824H122.947V205.184H126.995V201.824H128.387V210H126.995V206.4H122.947V210H121.555ZM131.101 210V201.824H132.493V207.552L136.461 201.824H137.853V210H136.461V204.288L132.493 210H131.101ZM143.738 210.192C142.991 210.192 142.346 210.008 141.802 209.64C141.258 209.272 140.839 208.765 140.546 208.12C140.252 207.475 140.106 206.736 140.106 205.904C140.106 205.003 140.258 204.235 140.562 203.6C140.866 202.96 141.29 202.472 141.834 202.136C142.378 201.8 143.012 201.632 143.738 201.632C144.351 201.632 144.914 201.771 145.426 202.048C145.938 202.32 146.346 202.744 146.65 203.32C146.959 203.891 147.114 204.624 147.114 205.52C147.114 205.648 147.108 205.797 147.098 205.968C147.092 206.133 147.082 206.304 147.066 206.48H141.53C141.583 206.976 141.706 207.411 141.898 207.784C142.09 208.157 142.343 208.451 142.658 208.664C142.972 208.872 143.343 208.976 143.77 208.976C144.116 208.976 144.436 208.915 144.73 208.792C145.028 208.669 145.306 208.48 145.562 208.224L146.378 209.136C146.074 209.44 145.695 209.693 145.242 209.896C144.794 210.093 144.292 210.192 143.738 210.192ZM141.514 205.264H145.706C145.706 204.8 145.628 204.387 145.474 204.024C145.324 203.656 145.103 203.368 144.81 203.16C144.516 202.952 144.159 202.848 143.738 202.848C143.146 202.848 142.636 203.04 142.21 203.424C141.788 203.808 141.556 204.421 141.514 205.264ZM152.113 212.608V208.784H152.961C153.185 208.672 153.371 208.493 153.521 208.248C153.67 207.997 153.766 207.669 153.809 207.264L154.385 201.824H160.225V208.784H161.617V212.048L160.225 212.608V210H153.505V212.048L152.113 212.608ZM154.737 208.784H158.833V203.04H155.649L155.153 207.472C155.121 207.749 155.067 207.997 154.993 208.216C154.918 208.435 154.833 208.624 154.737 208.784ZM163.595 210.192L162.939 209.136C163.478 209.072 163.87 208.917 164.115 208.672C164.366 208.427 164.518 208.037 164.571 207.504L165.195 201.824H171.035V210H169.643V203.04H166.475L165.931 207.728C165.851 208.416 165.614 208.968 165.219 209.384C164.824 209.8 164.283 210.069 163.595 210.192ZM178.539 210V207.072H176.443C175.883 207.072 175.39 206.963 174.963 206.744C174.542 206.52 174.214 206.211 173.979 205.816C173.744 205.421 173.627 204.96 173.627 204.432C173.627 203.909 173.744 203.453 173.979 203.064C174.214 202.669 174.542 202.365 174.963 202.152C175.384 201.933 175.878 201.824 176.443 201.824H179.931V210H178.539ZM173.019 210L175.691 206.384H177.323L174.699 210H173.019ZM176.571 205.856H178.539V203.04H176.571C176.102 203.04 175.728 203.168 175.451 203.424C175.174 203.675 175.035 204.016 175.035 204.448C175.035 204.88 175.174 205.224 175.451 205.48C175.728 205.731 176.102 205.856 176.571 205.856ZM185.503 212.608V208.784H186.351C186.575 208.672 186.762 208.493 186.911 208.248C187.061 207.997 187.157 207.669 187.199 207.264L187.775 201.824H193.615V208.784H195.007V212.048L193.615 212.608V210H186.895V212.048L185.503 212.608ZM188.127 208.784H192.223V203.04H189.039L188.543 207.472C188.511 207.749 188.458 207.997 188.383 208.216C188.309 208.435 188.223 208.624 188.127 208.784ZM200.128 210.192C199.008 210.192 198.125 209.811 197.48 209.048C196.835 208.28 196.512 207.237 196.512 205.92C196.512 205.04 196.659 204.28 196.952 203.64C197.245 203 197.661 202.507 198.2 202.16C198.744 201.808 199.387 201.632 200.128 201.632C200.875 201.632 201.517 201.805 202.056 202.152C202.6 202.493 203.016 202.984 203.304 203.624C203.597 204.264 203.744 205.024 203.744 205.904C203.744 206.784 203.597 207.547 203.304 208.192C203.011 208.832 202.592 209.325 202.048 209.672C201.509 210.019 200.869 210.192 200.128 210.192ZM200.128 208.896C200.816 208.896 201.355 208.632 201.744 208.104C202.139 207.571 202.336 206.837 202.336 205.904C202.336 204.965 202.139 204.232 201.744 203.704C201.355 203.176 200.816 202.912 200.128 202.912C199.435 202.912 198.893 203.176 198.504 203.704C198.115 204.227 197.92 204.965 197.92 205.92C197.92 206.853 198.115 207.584 198.504 208.112C198.893 208.635 199.435 208.896 200.128 208.896ZM209.191 210.192C208.46 210.192 207.823 210.024 207.279 209.688C206.74 209.352 206.321 208.867 206.023 208.232C205.724 207.592 205.575 206.821 205.575 205.92V204.816C205.575 203.669 205.676 202.72 205.879 201.968C206.087 201.216 206.377 200.621 206.751 200.184C207.124 199.741 207.569 199.419 208.087 199.216C208.604 199.008 209.175 198.88 209.799 198.832L212.663 198.608L211.863 199.936L209.783 200.112C209.233 200.16 208.78 200.264 208.423 200.424C208.071 200.584 207.785 200.835 207.567 201.176C207.353 201.512 207.18 201.968 207.047 202.544C207.025 202.645 207.004 202.733 206.983 202.808C206.967 202.877 206.951 202.944 206.935 203.008C206.977 202.928 207.02 202.848 207.063 202.768C207.111 202.683 207.159 202.608 207.207 202.544C207.447 202.245 207.745 202.019 208.103 201.864C208.46 201.709 208.865 201.632 209.319 201.632C210.007 201.632 210.612 201.8 211.135 202.136C211.657 202.472 212.065 202.96 212.359 203.6C212.657 204.235 212.807 205.003 212.807 205.904C212.807 206.8 212.657 207.568 212.359 208.208C212.06 208.848 211.639 209.339 211.095 209.68C210.556 210.021 209.921 210.192 209.191 210.192ZM209.191 208.896C209.879 208.896 210.417 208.632 210.807 208.104C211.201 207.571 211.399 206.837 211.399 205.904C211.399 204.976 211.204 204.245 210.815 203.712C210.431 203.179 209.889 202.912 209.191 202.912C208.497 202.912 207.956 203.176 207.567 203.704C207.177 204.227 206.983 204.965 206.983 205.92C206.983 206.848 207.177 207.576 207.567 208.104C207.956 208.632 208.497 208.896 209.191 208.896ZM217.454 210.192C216.568 210.192 215.872 209.947 215.366 209.456C214.859 208.965 214.606 208.293 214.606 207.44C214.606 206.891 214.731 206.413 214.982 206.008C215.232 205.603 215.587 205.291 216.046 205.072C216.504 204.848 217.043 204.736 217.662 204.736C218.062 204.736 218.435 204.781 218.782 204.872C219.134 204.957 219.464 205.088 219.774 205.264V204.688C219.774 204.053 219.63 203.589 219.342 203.296C219.054 202.997 218.606 202.848 217.998 202.848C217.608 202.848 217.203 202.92 216.782 203.064C216.366 203.208 215.976 203.408 215.614 203.664L215.214 202.496C215.624 202.224 216.091 202.013 216.614 201.864C217.142 201.709 217.662 201.632 218.174 201.632C219.144 201.632 219.872 201.88 220.358 202.376C220.843 202.867 221.086 203.6 221.086 204.576V210H219.774V209.248C219.454 209.552 219.094 209.787 218.694 209.952C218.294 210.112 217.88 210.192 217.454 210.192ZM217.662 208.976C218.04 208.976 218.414 208.883 218.782 208.696C219.155 208.509 219.486 208.245 219.774 207.904V206.496C219.502 206.325 219.192 206.192 218.846 206.096C218.499 206 218.168 205.952 217.854 205.952C217.256 205.952 216.784 206.088 216.438 206.36C216.091 206.627 215.918 206.992 215.918 207.456C215.918 207.925 216.072 208.296 216.382 208.568C216.691 208.84 217.118 208.976 217.662 208.976ZM223.617 210V201.824H227.297C227.841 201.824 228.305 201.915 228.689 202.096C229.073 202.272 229.366 202.523 229.569 202.848C229.772 203.168 229.873 203.547 229.873 203.984C229.873 204.373 229.772 204.723 229.569 205.032C229.372 205.336 229.089 205.557 228.721 205.696C229.201 205.845 229.564 206.083 229.809 206.408C230.054 206.728 230.177 207.125 230.177 207.6C230.177 208.069 230.073 208.485 229.865 208.848C229.657 209.205 229.35 209.488 228.945 209.696C228.545 209.899 228.054 210 227.473 210H223.617ZM225.009 208.784H227.393C227.681 208.784 227.926 208.739 228.129 208.648C228.332 208.552 228.486 208.416 228.593 208.24C228.7 208.059 228.753 207.84 228.753 207.584C228.753 207.328 228.686 207.112 228.553 206.936C228.425 206.76 228.233 206.627 227.977 206.536C227.726 206.445 227.414 206.4 227.041 206.4H225.009V208.784ZM225.009 205.184H226.929C227.425 205.184 227.801 205.096 228.057 204.92C228.318 204.739 228.449 204.485 228.449 204.16C228.449 203.925 228.398 203.725 228.297 203.56C228.196 203.389 228.046 203.261 227.849 203.176C227.657 203.085 227.425 203.04 227.153 203.04H225.009V205.184ZM232.376 210.192L231.72 209.136C232.259 209.072 232.651 208.917 232.896 208.672C233.147 208.427 233.299 208.037 233.352 207.504L233.976 201.824H239.816V210H238.424V203.04H235.256L234.712 207.728C234.632 208.416 234.395 208.968 234 209.384C233.606 209.8 233.064 210.069 232.376 210.192ZM245.675 210.192C244.929 210.192 244.283 210.008 243.739 209.64C243.195 209.272 242.777 208.765 242.483 208.12C242.19 207.475 242.043 206.736 242.043 205.904C242.043 205.003 242.195 204.235 242.499 203.6C242.803 202.96 243.227 202.472 243.771 202.136C244.315 201.8 244.95 201.632 245.675 201.632C246.289 201.632 246.851 201.771 247.363 202.048C247.875 202.32 248.283 202.744 248.587 203.32C248.897 203.891 249.051 204.624 249.051 205.52C249.051 205.648 249.046 205.797 249.035 205.968C249.03 206.133 249.019 206.304 249.003 206.48H243.467C243.521 206.976 243.643 207.411 243.835 207.784C244.027 208.157 244.281 208.451 244.595 208.664C244.91 208.872 245.281 208.976 245.707 208.976C246.054 208.976 246.374 208.915 246.667 208.792C246.966 208.669 247.243 208.48 247.499 208.224L248.315 209.136C248.011 209.44 247.633 209.693 247.179 209.896C246.731 210.093 246.23 210.192 245.675 210.192ZM243.451 205.264H247.643C247.643 204.8 247.566 204.387 247.411 204.024C247.262 203.656 247.041 203.368 246.747 203.16C246.454 202.952 246.097 202.848 245.675 202.848C245.083 202.848 244.574 203.04 244.147 203.424C243.726 203.808 243.494 204.421 243.451 205.264ZM251.226 210V201.824H252.618V205.184H256.666V201.824H258.058V210H256.666V206.4H252.618V210H251.226ZM260.773 210V201.824H262.165V207.552L266.133 201.824H267.525V210H266.133V204.288L262.165 210H260.773ZM275.023 210V207.072H272.927C272.367 207.072 271.874 206.963 271.447 206.744C271.026 206.52 270.698 206.211 270.463 205.816C270.229 205.421 270.111 204.96 270.111 204.432C270.111 203.909 270.229 203.453 270.463 203.064C270.698 202.669 271.026 202.365 271.447 202.152C271.869 201.933 272.362 201.824 272.927 201.824H276.415V210H275.023ZM269.503 210L272.175 206.384H273.807L271.183 210H269.503ZM273.055 205.856H275.023V203.04H273.055C272.586 203.04 272.213 203.168 271.935 203.424C271.658 203.675 271.519 204.016 271.519 204.448C271.519 204.88 271.658 205.224 271.935 205.48C272.213 205.731 272.586 205.856 273.055 205.856Z" fill="#858B89"/>
</svg>
