<svg width="24" height="24" viewBox="0 0 24 24" fill="none" xmlns="http://www.w3.org/2000/svg">
<path d="M16.75 11C16.75 11.1989 16.671 11.3897 16.5303 11.5303C16.3897 11.671 16.1989 11.75 16 11.75H8C7.80109 11.75 7.61032 11.671 7.46967 11.5303C7.32902 11.3897 7.25 11.1989 7.25 11C7.25 10.8011 7.32902 10.6103 7.46967 10.4697C7.61032 10.329 7.80109 10.25 8 10.25H16C16.1989 10.25 16.3897 10.329 16.5303 10.4697C16.671 10.6103 16.75 10.8011 16.75 11Z" fill="#333333"/>
<path fill-rule="evenodd" clip-rule="evenodd" d="M4.386 8.14678L5.574 4.89878C5.72125 4.49717 5.97489 4.14313 6.30779 3.87452C6.64069 3.60591 7.04034 3.43283 7.464 3.37378C10.4736 2.95614 13.5264 2.95614 16.536 3.37378C17.4 3.49378 18.126 4.08078 18.426 4.89878L19.615 8.14678C19.837 8.49378 19.99 8.88978 20.055 9.31678L20.156 9.99578C20.5555 12.6543 20.5184 15.3602 20.046 18.0068C19.9439 18.5778 19.6581 19.1 19.2321 19.4938C18.8062 19.8876 18.2633 20.1316 17.686 20.1888L16.456 20.3108C13.4927 20.6057 10.5073 20.6057 7.544 20.3108L6.314 20.1888C5.7367 20.1316 5.19382 19.8876 4.76786 19.4938C4.3419 19.1 4.05614 18.5778 3.954 18.0068C3.48161 15.3602 3.44446 12.6543 3.844 9.99578L3.946 9.31778C4.00875 8.90087 4.15868 8.50186 4.386 8.14678ZM7.67 4.85978C10.543 4.45978 13.457 4.45978 16.33 4.85978C16.484 4.88153 16.6292 4.94462 16.7502 5.04236C16.8712 5.14009 16.9634 5.2688 17.017 5.41478L17.523 6.79778L17.386 6.78078L16.408 6.68378C13.4765 6.39263 10.5235 6.39263 7.592 6.68378L6.614 6.78078C6.56733 6.78478 6.52167 6.79045 6.477 6.79778L6.983 5.41478C7.03663 5.2688 7.12884 5.14009 7.24981 5.04236C7.37079 4.94462 7.51601 4.88153 7.67 4.85978ZM5.686 8.89978L5.704 8.90678L5.727 8.84378C5.973 8.52778 6.342 8.31378 6.762 8.27278L7.74 8.17578C10.573 7.89373 13.427 7.89373 16.26 8.17578L17.238 8.27278C17.658 8.31378 18.027 8.52778 18.273 8.84278L18.296 8.90678L18.314 8.89978C18.4482 9.09026 18.5362 9.30938 18.571 9.53978L18.673 10.2178C19.048 12.7148 19.013 15.2558 18.569 17.7418C18.5245 17.9912 18.3999 18.2194 18.214 18.3915C18.0281 18.5637 17.7911 18.6705 17.539 18.6958L16.308 18.8178C13.443 19.1018 10.558 19.1018 7.692 18.8178L6.462 18.6958C6.2097 18.6707 5.97247 18.564 5.78638 18.3918C5.60028 18.2196 5.4755 17.9914 5.431 17.7418C4.98713 15.2562 4.952 12.7147 5.327 10.2178L5.429 9.53978C5.46379 9.30938 5.55179 9.09026 5.686 8.89978Z" fill="#333333"/>
</svg>
