<svg width="24" height="24" viewBox="0 0 24 24" fill="none" xmlns="http://www.w3.org/2000/svg">
<path d="M20 7.54167V17.4583C20 19.4112 18.3177 21 16.25 21H8.75C6.68225 21 5 19.4112 5 17.4583V7.54167C5 5.58879 6.68225 4 8.75 4H9.5C9.914 4 10.25 4.31733 10.25 4.70833C10.25 5.09933 9.914 5.41667 9.5 5.41667H8.75C7.5095 5.41667 6.5 6.37008 6.5 7.54167V17.4583C6.5 18.6299 7.5095 19.5833 8.75 19.5833H16.25C17.4905 19.5833 18.5 18.6299 18.5 17.4583V7.54167C18.5 7.05362 18.329 6.59392 18.0065 6.21354C17.7477 5.90825 17.7995 5.46271 18.1227 5.21762C18.4452 4.97254 18.917 5.02071 19.1772 5.32742C19.7083 5.95217 20 6.73983 20 7.54167ZM9.5 17.4583H15.5C15.914 17.4583 16.25 17.141 16.25 16.75C16.25 16.359 15.914 16.0417 15.5 16.0417H9.5C9.086 16.0417 8.75 16.359 8.75 16.75C8.75 17.141 9.086 17.4583 9.5 17.4583ZM11.75 11.7917C12.164 11.7917 12.5 11.4743 12.5 11.0833V6.83333C12.5 6.05204 13.1727 5.41667 14 5.41667C14.8273 5.41667 15.5 6.05204 15.5 6.83333V12.1458C15.5 12.3413 15.332 12.5 15.125 12.5C14.918 12.5 14.75 12.3413 14.75 12.1458V7.54167C14.75 7.15067 14.414 6.83333 14 6.83333C13.586 6.83333 13.25 7.15067 13.25 7.54167V12.1458C13.25 13.1219 14.0915 13.9167 15.125 13.9167C16.1585 13.9167 17 13.1219 17 12.1458V6.83333C17 5.27075 15.6545 4 14 4C12.3455 4 11 5.27075 11 6.83333V11.0833C11 11.4743 11.336 11.7917 11.75 11.7917ZM9.5 14.625H11.375C11.789 14.625 12.125 14.3077 12.125 13.9167C12.125 13.5257 11.789 13.2083 11.375 13.2083H9.5C9.086 13.2083 8.75 13.5257 8.75 13.9167C8.75 14.3077 9.086 14.625 9.5 14.625Z" fill="#333333"/>
</svg>
