<svg width="24" height="24" viewBox="0 0 24 24" fill="none" xmlns="http://www.w3.org/2000/svg">
<path d="M12.5 14.3333C11.9396 14.3333 11.3918 14.1672 10.9259 13.8558C10.4599 13.5445 10.0968 13.102 9.88234 12.5843C9.66789 12.0665 9.61178 11.4969 9.72111 10.9472C9.83043 10.3976 10.1003 9.89278 10.4965 9.49653C10.8928 9.10028 11.3976 8.83043 11.9472 8.72111C12.4969 8.61178 13.0665 8.66789 13.5843 8.88234C14.102 9.09679 14.5445 9.45995 14.8558 9.92589C15.1672 10.3918 15.3333 10.9396 15.3333 11.5C15.3333 12.2514 15.0348 12.9721 14.5035 13.5035C13.9721 14.0348 13.2514 14.3333 12.5 14.3333ZM12.5 10.0833C12.2198 10.0833 11.9459 10.1664 11.7129 10.3221C11.48 10.4778 11.2984 10.699 11.1912 10.9579C11.0839 11.2167 11.0559 11.5016 11.1106 11.7764C11.1652 12.0512 11.3001 12.3036 11.4983 12.5017C11.6964 12.6999 11.9488 12.8348 12.2236 12.8894C12.4984 12.9441 12.7833 12.9161 13.0421 12.8088C13.301 12.7016 13.5222 12.52 13.6779 12.2871C13.8336 12.0541 13.9167 11.7802 13.9167 11.5C13.9167 11.1243 13.7674 10.7639 13.5017 10.4983C13.2361 10.2326 12.8757 10.0833 12.5 10.0833ZM16.75 19.2917C16.75 18.1645 16.3022 17.0835 15.5052 16.2865C14.7082 15.4894 13.6272 15.0417 12.5 15.0417C11.3728 15.0417 10.2918 15.4894 9.4948 16.2865C8.69777 17.0835 8.25 18.1645 8.25 19.2917C8.25 19.4795 8.32463 19.6597 8.45747 19.7925C8.5903 19.9254 8.77047 20 8.95833 20C9.14619 20 9.32636 19.9254 9.4592 19.7925C9.59204 19.6597 9.66667 19.4795 9.66667 19.2917C9.66667 18.5402 9.96518 17.8196 10.4965 17.2882C11.0279 16.7568 11.7486 16.4583 12.5 16.4583C13.2514 16.4583 13.9721 16.7568 14.5035 17.2882C15.0348 17.8196 15.3333 18.5402 15.3333 19.2917C15.3333 19.4795 15.408 19.6597 15.5408 19.7925C15.6736 19.9254 15.8538 20 16.0417 20C16.2295 20 16.4097 19.9254 16.5425 19.7925C16.6754 19.6597 16.75 19.4795 16.75 19.2917ZM16.75 8.66667C16.1896 8.66667 15.6418 8.5005 15.1759 8.18917C14.7099 7.87783 14.3468 7.43533 14.1323 6.9176C13.9179 6.39988 13.8618 5.83019 13.9711 5.28058C14.0804 4.73097 14.3503 4.22611 14.7465 3.82987C15.1428 3.43362 15.6476 3.16377 16.1972 3.05444C16.7469 2.94512 17.3165 3.00123 17.8343 3.21568C18.352 3.43012 18.7945 3.79328 19.1058 4.25922C19.4172 4.72516 19.5833 5.27295 19.5833 5.83333C19.5833 6.58478 19.2848 7.30545 18.7535 7.8368C18.2221 8.36816 17.5014 8.66667 16.75 8.66667ZM16.75 4.41667C16.4698 4.41667 16.1959 4.49975 15.9629 4.65542C15.73 4.81108 15.5484 5.03234 15.4412 5.2912C15.3339 5.55006 15.3059 5.83491 15.3606 6.10971C15.4152 6.38452 15.5501 6.63695 15.7483 6.83507C15.9464 7.03319 16.1988 7.16812 16.4736 7.22278C16.7484 7.27744 17.0333 7.24939 17.2921 7.14216C17.551 7.03494 17.7722 6.85336 17.9279 6.62039C18.0836 6.38742 18.1667 6.11353 18.1667 5.83333C18.1667 5.45761 18.0174 5.09728 17.7517 4.8316C17.4861 4.56592 17.1257 4.41667 16.75 4.41667ZM21 13.625C20.9989 12.4982 20.5507 11.4178 19.754 10.621C18.9572 9.82425 17.8768 9.37613 16.75 9.375C16.5621 9.375 16.382 9.44963 16.2491 9.58247C16.1163 9.71531 16.0417 9.89547 16.0417 10.0833C16.0417 10.2712 16.1163 10.4514 16.2491 10.5842C16.382 10.717 16.5621 10.7917 16.75 10.7917C17.5014 10.7917 18.2221 11.0902 18.7535 11.6215C19.2848 12.1529 19.5833 12.8736 19.5833 13.625C19.5833 13.8129 19.658 13.993 19.7908 14.1259C19.9236 14.2587 20.1038 14.3333 20.2917 14.3333C20.4795 14.3333 20.6597 14.2587 20.7925 14.1259C20.9254 13.993 21 13.8129 21 13.625ZM8.25 8.66667C7.68962 8.66667 7.14182 8.5005 6.67588 8.18917C6.20994 7.87783 5.84679 7.43533 5.63234 6.9176C5.41789 6.39988 5.36178 5.83019 5.47111 5.28058C5.58043 4.73097 5.85028 4.22611 6.24653 3.82987C6.64278 3.43362 7.14763 3.16377 7.69724 3.05444C8.24686 2.94512 8.81655 3.00123 9.33427 3.21568C9.85199 3.43012 10.2945 3.79328 10.6058 4.25922C10.9172 4.72516 11.0833 5.27295 11.0833 5.83333C11.0833 6.58478 10.7848 7.30545 10.2535 7.8368C9.72212 8.36816 9.00145 8.66667 8.25 8.66667ZM8.25 4.41667C7.96981 4.41667 7.69591 4.49975 7.46294 4.65542C7.22997 4.81108 7.04839 5.03234 6.94117 5.2912C6.83395 5.55006 6.80589 5.83491 6.86055 6.10971C6.91522 6.38452 7.05014 6.63695 7.24827 6.83507C7.44639 7.03319 7.69882 7.16812 7.97362 7.22278C8.24843 7.27744 8.53327 7.24939 8.79213 7.14216C9.051 7.03494 9.27225 6.85336 9.42792 6.62039C9.58358 6.38742 9.66667 6.11353 9.66667 5.83333C9.66667 5.45761 9.51741 5.09728 9.25173 4.8316C8.98606 4.56592 8.62572 4.41667 8.25 4.41667ZM5.41667 13.625C5.41667 12.8736 5.71518 12.1529 6.24653 11.6215C6.77788 11.0902 7.49855 10.7917 8.25 10.7917C8.43786 10.7917 8.61803 10.717 8.75087 10.5842C8.88371 10.4514 8.95833 10.2712 8.95833 10.0833C8.95833 9.89547 8.88371 9.71531 8.75087 9.58247C8.61803 9.44963 8.43786 9.375 8.25 9.375C7.12318 9.37613 6.04282 9.82425 5.24604 10.621C4.44925 11.4178 4.00113 12.4982 4 13.625C4 13.8129 4.07463 13.993 4.20747 14.1259C4.3403 14.2587 4.52047 14.3333 4.70833 14.3333C4.89619 14.3333 5.07636 14.2587 5.2092 14.1259C5.34204 13.993 5.41667 13.8129 5.41667 13.625Z" fill="#333333"/>
</svg>
