<svg width="24" height="24" viewBox="0 0 24 24" fill="none" xmlns="http://www.w3.org/2000/svg">
<path d="M10.7292 5.77083C10.7292 4.79262 11.5218 4 12.5 4C13.4782 4 14.2708 4.79262 14.2708 5.77083C14.2708 6.74904 13.4782 7.54167 12.5 7.54167C11.5218 7.54167 10.7292 6.74904 10.7292 5.77083ZM11.0833 10.375C11.0833 9.98471 11.4014 9.66667 11.7917 9.66667H13.2083C13.5986 9.66667 13.9167 9.98471 13.9167 10.375V11.7917H15.3333V10.375C15.3333 9.20342 14.3799 8.25 13.2083 8.25H11.7917C10.6201 8.25 9.66667 9.20342 9.66667 10.375V11.7917H11.0833V10.375ZM6.125 10.375C7.10321 10.375 7.89583 9.58238 7.89583 8.60417C7.89583 7.62596 7.10321 6.83333 6.125 6.83333C5.14679 6.83333 4.35417 7.62596 4.35417 8.60417C4.35417 9.58238 5.14679 10.375 6.125 10.375ZM8.25 16.75H10.375V21H8.95833V18.1667H6.125C4.95342 18.1667 4 17.2132 4 16.0417V13.2083C4 12.0367 4.95342 11.0833 6.125 11.0833C7.29658 11.0833 8.25 12.0367 8.25 13.2083V16.75ZM6.83333 16.75V13.2083C6.83333 12.818 6.51529 12.5 6.125 12.5C5.73471 12.5 5.41667 12.818 5.41667 13.2083V16.0417C5.41667 16.4327 5.73471 16.75 6.125 16.75H6.83333ZM18.875 10.375C19.8532 10.375 20.6458 9.58238 20.6458 8.60417C20.6458 7.62596 19.8532 6.83333 18.875 6.83333C17.8968 6.83333 17.1042 7.62596 17.1042 8.60417C17.1042 9.58238 17.8968 10.375 18.875 10.375ZM21 13.2083V16.0417C21 17.2132 20.0466 18.1667 18.875 18.1667H16.0417V21H14.625V16.75H16.75V13.2083C16.75 12.0367 17.7034 11.0833 18.875 11.0833C20.0466 11.0833 21 12.0367 21 13.2083ZM19.5833 13.2083C19.5833 12.818 19.2653 12.5 18.875 12.5C18.4847 12.5 18.1667 12.818 18.1667 13.2083V16.75H18.875C19.2653 16.75 19.5833 16.4327 19.5833 16.0417V13.2083ZM15.3333 13.2083H9.66667V14.625H15.3333V13.2083ZM4 21H7.54167V19.5833H4V21ZM17.4583 21H21V19.5833H17.4583V21Z" fill="#333333"/>
</svg>
