<svg width="24" height="24" viewBox="0 0 24 24" fill="none" xmlns="http://www.w3.org/2000/svg">
<path d="M9.25 4.25H9.75V3.75V3C9.75 2.9337 9.77634 2.87011 9.82322 2.82322C9.87011 2.77634 9.9337 2.75 10 2.75H14C14.0663 2.75 14.1299 2.77634 14.1768 2.82322C14.2237 2.87011 14.25 2.9337 14.25 3V3.75V4.25H14.75H19C19.0663 4.25 19.1299 4.27634 19.1768 4.32322C19.2237 4.37011 19.25 4.43369 19.25 4.5C19.25 4.56631 19.2237 4.62989 19.1768 4.67678C19.1299 4.72366 19.0663 4.75 19 4.75H5C4.9337 4.75 4.87011 4.72366 4.82322 4.67678C4.77634 4.62989 4.75 4.5663 4.75 4.5C4.75 4.4337 4.77634 4.37011 4.82322 4.32322C4.87011 4.27634 4.9337 4.25 5 4.25H9.25ZM12.7064 14.6464L12.3529 15L12.7064 15.3536L14.1764 16.8236L14.1827 16.8298L14.1891 16.8358C14.2137 16.8587 14.2334 16.8863 14.2471 16.917C14.2607 16.9476 14.2681 16.9807 14.2687 17.0143C14.2693 17.0479 14.2631 17.0812 14.2505 17.1123C14.2379 17.1435 14.2192 17.1717 14.1955 17.1955C14.1717 17.2192 14.1435 17.2379 14.1123 17.2505C14.0812 17.2631 14.0479 17.2693 14.0143 17.2687C13.9807 17.2681 13.9476 17.2607 13.917 17.2471C13.8863 17.2334 13.8587 17.2137 13.8358 17.1891L13.8298 17.1827L13.8236 17.1764L12.3536 15.7064L12 15.3529L11.6464 15.7064L10.1764 17.1764L10.1702 17.1827L10.1642 17.1891C10.1413 17.2137 10.1137 17.2334 10.083 17.2471C10.0524 17.2607 10.0193 17.2681 9.9857 17.2687C9.95213 17.2693 9.91879 17.2631 9.88766 17.2505C9.85654 17.2379 9.82826 17.2192 9.80451 17.1955C9.78078 17.1717 9.76206 17.1435 9.74949 17.1123C9.73691 17.0812 9.73074 17.0479 9.73133 17.0143C9.73192 16.9807 9.73927 16.9476 9.75293 16.917C9.7666 16.8863 9.7863 16.8587 9.81086 16.8358L9.81732 16.8298L9.82355 16.8236L11.2936 15.3536L11.6471 15L11.2936 14.6464L9.82355 13.1764L9.81732 13.1702L9.81086 13.1642C9.7863 13.1413 9.7666 13.1137 9.75293 13.083C9.73927 13.0524 9.73192 13.0193 9.73133 12.9857C9.73074 12.9521 9.73691 12.9188 9.74949 12.8877C9.76206 12.8565 9.78077 12.8283 9.80451 12.8045C9.82826 12.7808 9.85654 12.7621 9.88766 12.7495C9.91879 12.7369 9.95214 12.7307 9.9857 12.7313C10.0193 12.7319 10.0524 12.7393 10.083 12.7529C10.1137 12.7666 10.1413 12.7863 10.1642 12.8109L10.1702 12.8173L10.1764 12.8236L11.6464 14.2936L12 14.6471L12.3536 14.2936L13.8236 12.8236L13.8298 12.8173L13.8358 12.8109C13.8587 12.7863 13.8863 12.7666 13.917 12.7529C13.9476 12.7393 13.9807 12.7319 14.0143 12.7313C14.0479 12.7307 14.0812 12.7369 14.1123 12.7495C14.1435 12.7621 14.1717 12.7808 14.1955 12.8045C14.2192 12.8283 14.2379 12.8565 14.2505 12.8877C14.2631 12.9188 14.2693 12.9521 14.2687 12.9857C14.2681 13.0193 14.2607 13.0524 14.2471 13.083C14.2334 13.1137 14.2137 13.1413 14.1891 13.1642L14.1827 13.1702L14.1764 13.1764L12.7064 14.6464Z" fill="#B32020" stroke="#B32020"/>
<path fill-rule="evenodd" clip-rule="evenodd" d="M5.99102 7.917C6.01146 7.73349 6.09887 7.56396 6.23652 7.44089C6.37417 7.31782 6.55238 7.24985 6.73702 7.25H17.263C17.4477 7.24985 17.6259 7.31782 17.7635 7.44089C17.9012 7.56396 17.9886 7.73349 18.009 7.917L18.209 9.719C18.572 12.984 18.572 16.279 18.209 19.545L18.189 19.722C18.1194 20.3522 17.8417 20.9412 17.3998 21.3958C16.9579 21.8504 16.377 22.1446 15.749 22.232C13.2619 22.5807 10.7382 22.5807 8.25102 22.232C7.62307 22.1446 7.04218 21.8504 6.60026 21.3958C6.15833 20.9412 5.88061 20.3522 5.81102 19.722L5.79102 19.545C5.4283 16.2797 5.4283 12.9843 5.79102 9.719L5.99102 7.917ZM7.40802 8.75L7.28202 9.884C6.93151 13.0393 6.93151 16.2237 7.28202 19.379L7.30202 19.556C7.33461 19.855 7.46615 20.1346 7.67576 20.3504C7.88537 20.5662 8.16104 20.7058 8.45902 20.747C10.809 21.076 13.192 21.076 15.541 20.747C15.8389 20.7058 16.1144 20.5664 16.324 20.3508C16.5336 20.1352 16.6652 19.8559 16.698 19.557L16.718 19.379C17.068 16.224 17.068 13.039 16.718 9.884L16.592 8.75H7.40802Z" fill="#B32020"/>
</svg>
