<svg width="51" height="50" viewBox="0 0 51 50" fill="none" xmlns="http://www.w3.org/2000/svg">
<rect x="0.666626" width="50" height="50" rx="25" fill="#F0F3F2"/>
<mask id="path-2-inside-1_2084_46193" fill="white">
<path d="M23.344 13C23.113 13 22.8915 13.0937 22.7282 13.2604C22.5648 13.4272 22.4731 13.6533 22.4731 13.8891V14.7783H17.5376C17.3066 14.7783 17.0851 14.8719 16.9217 15.0387C16.7584 15.2054 16.6666 15.4316 16.6666 15.6674C16.6666 15.9032 16.7584 16.1293 16.9217 16.2961C17.0851 16.4628 17.3066 16.5565 17.5376 16.5565H33.7957C34.0267 16.5565 34.2482 16.4628 34.4115 16.2961C34.5749 16.1293 34.6666 15.9032 34.6666 15.6674C34.6666 15.4316 34.5749 15.2054 34.4115 15.0387C34.2482 14.8719 34.0267 14.7783 33.7957 14.7783H28.8602V13.8891C28.8602 13.6533 28.7684 13.4272 28.6051 13.2604C28.4417 13.0937 28.2202 13 27.9892 13H23.344ZM26.8976 28.1151L28.6047 29.8578C28.6903 29.9392 28.7589 30.0374 28.8065 30.1465C28.8541 30.2555 28.8797 30.3733 28.8818 30.4926C28.8838 30.612 28.8623 30.7306 28.8185 30.8413C28.7747 30.952 28.7095 31.0526 28.6268 31.137C28.5441 31.2215 28.4456 31.288 28.3371 31.3327C28.2287 31.3775 28.1125 31.3994 27.9956 31.3973C27.8786 31.3952 27.7633 31.3691 27.6565 31.3205C27.5496 31.2719 27.4535 31.2018 27.3737 31.1145L25.6666 29.3718L23.9595 31.1145C23.8798 31.2018 23.7836 31.2719 23.6768 31.3205C23.57 31.3691 23.4546 31.3952 23.3377 31.3973C23.2207 31.3994 23.1046 31.3775 22.9961 31.3327C22.8877 31.288 22.7892 31.2215 22.7065 31.137C22.6237 31.0526 22.5585 30.952 22.5147 30.8413C22.4709 30.7306 22.4494 30.612 22.4515 30.4926C22.4536 30.3733 22.4791 30.2555 22.5268 30.1465C22.5744 30.0374 22.643 29.9392 22.7286 29.8578L24.4357 28.1151L22.7286 26.3725C22.643 26.2911 22.5744 26.1929 22.5268 26.0838C22.4791 25.9748 22.4536 25.857 22.4515 25.7376C22.4494 25.6183 22.4709 25.4997 22.5147 25.389C22.5585 25.2783 22.6237 25.1777 22.7065 25.0933C22.7892 25.0088 22.8877 24.9423 22.9961 24.8975C23.1046 24.8528 23.2207 24.8309 23.3377 24.833C23.4546 24.8351 23.57 24.8612 23.6768 24.9098C23.7836 24.9584 23.8798 25.0285 23.9595 25.1158L25.6666 26.8585L27.3737 25.1158C27.4535 25.0285 27.5496 24.9584 27.6565 24.9098C27.7633 24.8612 27.8786 24.8351 27.9956 24.833C28.1125 24.8309 28.2287 24.8528 28.3371 24.8975C28.4456 24.9423 28.5441 25.0088 28.6268 25.0933C28.7095 25.1777 28.7747 25.2783 28.8185 25.389C28.8623 25.4997 28.8838 25.6183 28.8818 25.7376C28.8797 25.857 28.8541 25.9748 28.8065 26.0838C28.7589 26.1929 28.6903 26.2911 28.6047 26.3725L26.8976 28.1151Z"/>
</mask>
<path d="M23.344 13C23.113 13 22.8915 13.0937 22.7282 13.2604C22.5648 13.4272 22.4731 13.6533 22.4731 13.8891V14.7783H17.5376C17.3066 14.7783 17.0851 14.8719 16.9217 15.0387C16.7584 15.2054 16.6666 15.4316 16.6666 15.6674C16.6666 15.9032 16.7584 16.1293 16.9217 16.2961C17.0851 16.4628 17.3066 16.5565 17.5376 16.5565H33.7957C34.0267 16.5565 34.2482 16.4628 34.4115 16.2961C34.5749 16.1293 34.6666 15.9032 34.6666 15.6674C34.6666 15.4316 34.5749 15.2054 34.4115 15.0387C34.2482 14.8719 34.0267 14.7783 33.7957 14.7783H28.8602V13.8891C28.8602 13.6533 28.7684 13.4272 28.6051 13.2604C28.4417 13.0937 28.2202 13 27.9892 13H23.344ZM26.8976 28.1151L28.6047 29.8578C28.6903 29.9392 28.7589 30.0374 28.8065 30.1465C28.8541 30.2555 28.8797 30.3733 28.8818 30.4926C28.8838 30.612 28.8623 30.7306 28.8185 30.8413C28.7747 30.952 28.7095 31.0526 28.6268 31.137C28.5441 31.2215 28.4456 31.288 28.3371 31.3327C28.2287 31.3775 28.1125 31.3994 27.9956 31.3973C27.8786 31.3952 27.7633 31.3691 27.6565 31.3205C27.5496 31.2719 27.4535 31.2018 27.3737 31.1145L25.6666 29.3718L23.9595 31.1145C23.8798 31.2018 23.7836 31.2719 23.6768 31.3205C23.57 31.3691 23.4546 31.3952 23.3377 31.3973C23.2207 31.3994 23.1046 31.3775 22.9961 31.3327C22.8877 31.288 22.7892 31.2215 22.7065 31.137C22.6237 31.0526 22.5585 30.952 22.5147 30.8413C22.4709 30.7306 22.4494 30.612 22.4515 30.4926C22.4536 30.3733 22.4791 30.2555 22.5268 30.1465C22.5744 30.0374 22.643 29.9392 22.7286 29.8578L24.4357 28.1151L22.7286 26.3725C22.643 26.2911 22.5744 26.1929 22.5268 26.0838C22.4791 25.9748 22.4536 25.857 22.4515 25.7376C22.4494 25.6183 22.4709 25.4997 22.5147 25.389C22.5585 25.2783 22.6237 25.1777 22.7065 25.0933C22.7892 25.0088 22.8877 24.9423 22.9961 24.8975C23.1046 24.8528 23.2207 24.8309 23.3377 24.833C23.4546 24.8351 23.57 24.8612 23.6768 24.9098C23.7836 24.9584 23.8798 25.0285 23.9595 25.1158L25.6666 26.8585L27.3737 25.1158C27.4535 25.0285 27.5496 24.9584 27.6565 24.9098C27.7633 24.8612 27.8786 24.8351 27.9956 24.833C28.1125 24.8309 28.2287 24.8528 28.3371 24.8975C28.4456 24.9423 28.5441 25.0088 28.6268 25.0933C28.7095 25.1777 28.7747 25.2783 28.8185 25.389C28.8623 25.4997 28.8838 25.6183 28.8818 25.7376C28.8797 25.857 28.8541 25.9748 28.8065 26.0838C28.7589 26.1929 28.6903 26.2911 28.6047 26.3725L26.8976 28.1151Z" fill="#004529"/>
<path d="M22.4731 14.7783V16.7783H24.4731V14.7783H22.4731ZM16.6666 15.6674H14.6666H16.6666ZM33.7957 16.5565V18.5565V16.5565ZM28.8602 14.7783H26.8602V16.7783H28.8602V14.7783ZM28.8602 13.8891H30.8602H28.8602ZM26.8976 28.1151L25.4689 26.7156L24.0979 28.1151L25.4689 29.5147L26.8976 28.1151ZM28.6047 29.8578L27.176 31.2574L27.2007 31.2826L27.2262 31.3069L28.6047 29.8578ZM27.3737 31.1145L28.8509 29.7661L28.8271 29.7401L28.8025 29.7149L27.3737 31.1145ZM25.6666 29.3718L27.0954 27.9722L25.6666 26.5137L24.2379 27.9722L25.6666 29.3718ZM23.9595 31.1145L22.5308 29.7149L22.5061 29.7401L22.4824 29.7661L23.9595 31.1145ZM22.7286 29.8578L24.107 31.3069L24.1326 31.2826L24.1573 31.2574L22.7286 29.8578ZM24.4357 28.1151L25.8644 29.5147L27.2354 28.1151L25.8644 26.7156L24.4357 28.1151ZM22.7286 26.3725L24.1573 24.9729L24.1326 24.9477L24.107 24.9234L22.7286 26.3725ZM23.9595 25.1158L22.4824 26.4642L22.5061 26.4902L22.5308 26.5154L23.9595 25.1158ZM25.6666 26.8585L24.2379 28.2581L25.6666 29.7166L27.0954 28.2581L25.6666 26.8585ZM27.3737 25.1158L28.8025 26.5154L28.8271 26.4902L28.8509 26.4642L27.3737 25.1158ZM28.6047 26.3725L27.2262 24.9234L27.2007 24.9477L27.176 24.9729L28.6047 26.3725ZM23.344 11C22.5691 11 21.8345 11.3146 21.2995 11.8609L24.1569 14.66C23.9485 14.8727 23.657 15 23.344 15V11ZM21.2995 11.8609C20.7657 12.4057 20.4731 13.136 20.4731 13.8891H24.4731C24.4731 14.1706 24.3639 14.4486 24.1569 14.66L21.2995 11.8609ZM20.4731 13.8891V14.7783H24.4731V13.8891H20.4731ZM22.4731 12.7783H17.5376V16.7783H22.4731V12.7783ZM17.5376 12.7783C16.7627 12.7783 16.0281 13.0929 15.493 13.6391L18.3505 16.4382C18.142 16.651 17.8505 16.7783 17.5376 16.7783V12.7783ZM15.493 13.6391C14.9593 14.184 14.6666 14.9143 14.6666 15.6674H18.6666C18.6666 15.9488 18.5575 16.2269 18.3505 16.4382L15.493 13.6391ZM14.6666 15.6674C14.6666 16.4205 14.9593 17.1508 15.493 17.6956L18.3505 14.8965C18.5575 15.1079 18.6666 15.3859 18.6666 15.6674H14.6666ZM15.493 17.6956C16.0281 18.2419 16.7627 18.5565 17.5376 18.5565V14.5565C17.8505 14.5565 18.142 14.6838 18.3505 14.8965L15.493 17.6956ZM17.5376 18.5565H33.7957V14.5565H17.5376V18.5565ZM33.7957 18.5565C34.5706 18.5565 35.3052 18.2419 35.8403 17.6956L32.9828 14.8965C33.1912 14.6838 33.4827 14.5565 33.7957 14.5565V18.5565ZM35.8403 17.6956C36.374 17.1508 36.6666 16.4205 36.6666 15.6674H32.6666C32.6666 15.3859 32.7758 15.1079 32.9828 14.8965L35.8403 17.6956ZM36.6666 15.6674C36.6666 14.9143 36.374 14.184 35.8403 13.6391L32.9828 16.4382C32.7758 16.2269 32.6666 15.9488 32.6666 15.6674H36.6666ZM35.8403 13.6391C35.3052 13.0929 34.5706 12.7783 33.7957 12.7783V16.7783C33.4827 16.7783 33.1912 16.651 32.9828 16.4382L35.8403 13.6391ZM33.7957 12.7783H28.8602V16.7783H33.7957V12.7783ZM30.8602 14.7783V13.8891H26.8602V14.7783H30.8602ZM30.8602 13.8891C30.8602 13.136 30.5675 12.4057 30.0338 11.8609L27.1763 14.66C26.9693 14.4486 26.8602 14.1706 26.8602 13.8891L30.8602 13.8891ZM30.0338 11.8609C29.4987 11.3146 28.7641 11 27.9892 11V15C27.6763 15 27.3848 14.8727 27.1763 14.66L30.0338 11.8609ZM27.9892 11H23.344V15H27.9892V11ZM25.4689 29.5147L27.176 31.2574L30.0334 28.4583L28.3263 26.7156L25.4689 29.5147ZM27.2262 31.3069C27.117 31.203 27.0318 31.08 26.9735 30.9465L30.6395 29.3464C30.486 28.9947 30.2635 28.6754 29.9831 28.4087L27.2262 31.3069ZM26.9735 30.9465C26.9152 30.8131 26.8845 30.6706 26.8821 30.5272L30.8815 30.4581C30.8749 30.076 30.793 29.698 30.6395 29.3464L26.9735 30.9465ZM26.8821 30.5272C26.8796 30.3838 26.9054 30.2406 26.9588 30.1055L30.6782 31.5771C30.8193 31.2207 30.8881 30.8402 30.8815 30.4581L26.8821 30.5272ZM26.9588 30.1055C27.0123 29.9703 27.0929 29.8448 27.1981 29.7375L30.0555 32.5366C30.3261 32.2604 30.5371 31.9337 30.6782 31.5771L26.9588 30.1055ZM27.1981 29.7375C27.3033 29.6301 27.431 29.543 27.5747 29.4838L29.0995 33.1817C29.4601 33.033 29.7849 32.8129 30.0555 32.5366L27.1981 29.7375ZM27.5747 29.4838C27.7185 29.4245 27.8741 29.3948 28.0316 29.3976L27.9595 33.397C28.351 33.404 28.7388 33.3305 29.0995 33.1817L27.5747 29.4838ZM28.0316 29.3976C28.1891 29.4005 28.3433 29.4357 28.4845 29.5L26.8284 33.141C27.1833 33.3024 27.5681 33.3899 27.9595 33.397L28.0316 29.3976ZM28.4845 29.5C28.6257 29.5642 28.7498 29.6554 28.8509 29.7661L25.8966 32.4628C26.1571 32.7482 26.4735 32.9796 26.8284 33.141L28.4845 29.5ZM28.8025 29.7149L27.0954 27.9722L24.2379 30.7713L25.945 32.514L28.8025 29.7149ZM24.2379 27.9722L22.5308 29.7149L25.3883 32.514L27.0954 30.7713L24.2379 27.9722ZM22.4824 29.7661C22.5834 29.6554 22.7076 29.5642 22.8487 29.5L24.5049 33.141C24.8597 32.9796 25.1762 32.7482 25.4367 32.4628L22.4824 29.7661ZM22.8487 29.5C22.99 29.4357 23.1442 29.4005 23.3017 29.3976L23.3737 33.397C23.7651 33.3899 24.1499 33.3024 24.5049 33.141L22.8487 29.5ZM23.3017 29.3976C23.4592 29.3948 23.6147 29.4245 23.7585 29.4838L22.2337 33.1817C22.5944 33.3305 22.9823 33.404 23.3737 33.397L23.3017 29.3976ZM23.7585 29.4838C23.9022 29.543 24.0299 29.6301 24.1352 29.7375L21.2777 32.5366C21.5484 32.8129 21.8731 33.033 22.2337 33.1817L23.7585 29.4838ZM24.1352 29.7375C24.2403 29.8448 24.321 29.9703 24.3745 30.1055L20.655 31.5771C20.7961 31.9337 21.0072 32.2604 21.2777 32.5366L24.1352 29.7375ZM24.3745 30.1055C24.4279 30.2406 24.4537 30.3838 24.4512 30.5272L20.4518 30.4581C20.4452 30.8402 20.514 31.2207 20.655 31.5771L24.3745 30.1055ZM24.4512 30.5272C24.4487 30.6706 24.418 30.8131 24.3598 30.9465L20.6937 29.3464C20.5403 29.698 20.4584 30.076 20.4518 30.4581L24.4512 30.5272ZM24.3598 30.9465C24.3015 31.08 24.2162 31.203 24.107 31.3069L21.3501 28.4087C21.0698 28.6754 20.8472 28.9947 20.6937 29.3464L24.3598 30.9465ZM24.1573 31.2574L25.8644 29.5147L23.0069 26.7156L21.2998 28.4583L24.1573 31.2574ZM25.8644 26.7156L24.1573 24.9729L21.2998 27.772L23.0069 29.5147L25.8644 26.7156ZM24.107 24.9234C24.2162 25.0273 24.3015 25.1503 24.3598 25.2838L20.6937 26.8839C20.8472 27.2355 21.0698 27.5549 21.3501 27.8216L24.107 24.9234ZM24.3598 25.2838C24.418 25.4172 24.4487 25.5597 24.4512 25.7031L20.4518 25.7722C20.4584 26.1543 20.5403 26.5323 20.6937 26.8839L24.3598 25.2838ZM24.4512 25.7031C24.4537 25.8464 24.4279 25.9897 24.3745 26.1248L20.655 24.6531C20.514 25.0096 20.4452 25.3901 20.4518 25.7722L24.4512 25.7031ZM24.3745 26.1248C24.321 26.2599 24.2403 26.3855 24.1352 26.4928L21.2777 23.6937C21.0072 23.9699 20.7961 24.2966 20.655 24.6531L24.3745 26.1248ZM24.1352 26.4928C24.0299 26.6002 23.9022 26.6873 23.7585 26.7465L22.2337 23.0486C21.8731 23.1973 21.5484 23.4174 21.2777 23.6937L24.1352 26.4928ZM23.7585 26.7465C23.6147 26.8058 23.4592 26.8355 23.3017 26.8326L23.3737 22.8333C22.9823 22.8262 22.5944 22.8998 22.2337 23.0486L23.7585 26.7465ZM23.3017 26.8326C23.1441 26.8298 22.99 26.7946 22.8487 26.7303L24.5049 23.0893C24.1499 22.9278 23.7651 22.8403 23.3737 22.8333L23.3017 26.8326ZM22.8487 26.7303C22.7076 26.6661 22.5834 26.5749 22.4824 26.4642L25.4367 23.7675C25.1762 23.4821 24.8597 23.2507 24.5049 23.0893L22.8487 26.7303ZM22.5308 26.5154L24.2379 28.2581L27.0954 25.459L25.3883 23.7163L22.5308 26.5154ZM27.0954 28.2581L28.8025 26.5154L25.945 23.7163L24.2379 25.459L27.0954 28.2581ZM28.8509 26.4642C28.7498 26.5749 28.6257 26.6661 28.4845 26.7303L26.8284 23.0893C26.4735 23.2507 26.1571 23.4821 25.8966 23.7675L28.8509 26.4642ZM28.4845 26.7303C28.3433 26.7946 28.1891 26.8298 28.0316 26.8326L27.9595 22.8333C27.5681 22.8403 27.1833 22.9278 26.8284 23.0893L28.4845 26.7303ZM28.0316 26.8326C27.874 26.8355 27.7185 26.8058 27.5747 26.7465L29.0995 23.0486C28.7388 22.8998 28.351 22.8262 27.9595 22.8333L28.0316 26.8326ZM27.5747 26.7465C27.431 26.6873 27.3033 26.6002 27.1981 26.4928L30.0555 23.6937C29.7849 23.4174 29.4601 23.1973 29.0995 23.0486L27.5747 26.7465ZM27.1981 26.4928C27.0929 26.3855 27.0123 26.2599 26.9588 26.1248L30.6782 24.6531C30.5371 24.2966 30.3261 23.9699 30.0555 23.6937L27.1981 26.4928ZM26.9588 26.1248C26.9053 25.9897 26.8796 25.8464 26.8821 25.7031L30.8815 25.7722C30.8881 25.3901 30.8193 25.0096 30.6782 24.6531L26.9588 26.1248ZM26.8821 25.7031C26.8845 25.5597 26.9152 25.4172 26.9735 25.2838L30.6395 26.8839C30.793 26.5323 30.8749 26.1543 30.8815 25.7722L26.8821 25.7031ZM26.9735 25.2838C27.0318 25.1503 27.117 25.0273 27.2262 24.9234L29.9831 27.8216C30.2635 27.5549 30.486 27.2355 30.6395 26.8839L26.9735 25.2838ZM27.176 24.9729L25.4689 26.7156L28.3263 29.5147L30.0334 27.772L27.176 24.9729Z" fill="#004529" mask="url(#path-2-inside-1_2084_46193)"/>
<path fill-rule="evenodd" clip-rule="evenodd" d="M18.6896 19.7194C18.7133 19.5019 18.8148 19.3009 18.9747 19.155C19.1345 19.0091 19.3415 18.9285 19.5559 18.9287H31.7797C31.9941 18.9285 32.201 19.0091 32.3609 19.155C32.5207 19.3009 32.6223 19.5019 32.646 19.7194L32.8782 21.8557C33.2998 25.7264 33.2998 29.6326 32.8782 33.5045L32.855 33.7143C32.7742 34.4614 32.4517 35.1596 31.9385 35.6985C31.4253 36.2375 30.7507 36.5863 30.0215 36.6899C27.1331 37.1033 24.2024 37.1033 21.3141 36.6899C20.5849 36.5863 19.9103 36.2375 19.3971 35.6985C18.8839 35.1596 18.5614 34.4614 18.4806 33.7143L18.4573 33.5045C18.0361 29.6334 18.0361 25.7267 18.4573 21.8557L18.6896 19.7194ZM20.3351 20.707L20.1888 22.0513C19.7818 25.7919 19.7818 29.567 20.1888 33.3077L20.212 33.5175C20.2499 33.872 20.4026 34.2035 20.6461 34.4593C20.8895 34.7151 21.2096 34.8805 21.5557 34.9294C24.2847 35.3195 27.052 35.3195 29.7799 34.9294C30.1258 34.8806 30.4458 34.7153 30.6892 34.4597C30.9326 34.2042 31.0854 33.873 31.1235 33.5187L31.1468 33.3077C31.5532 29.5674 31.5532 25.7916 31.1468 22.0513L31.0004 20.707H20.3351Z" fill="#004529"/>
</svg>
