<svg width="65" height="68" viewBox="0 0 65 68" fill="none" xmlns="http://www.w3.org/2000/svg">
<path fill-rule="evenodd" clip-rule="evenodd" d="M36.9795 0.5H14.5923C10.469 0.5 7.12646 3.81624 7.12646 7.90703V54.706C7.12646 58.7968 10.469 62.1131 14.5923 62.1131H49.5457C53.669 62.1131 57.0115 58.7968 57.0115 54.706V20.9221L56.5984 20.5009L56.6025 20.4969L40.2771 3.86683H40.2821L36.9795 0.5ZM35.9716 4.30647V14.9774C35.9716 18.5103 38.8583 21.3744 42.4193 21.3744H52.7268L35.9716 4.30647ZM53.6179 22.2822V24.7412H42.4193C36.9841 24.7412 32.578 20.3698 32.578 14.9774V3.86683H14.5923C12.3432 3.86683 10.52 5.67569 10.52 7.90703V54.706C10.52 56.9374 12.3432 58.7462 14.5923 58.7462H49.5457C51.7948 58.7462 53.618 56.9374 53.618 54.706L53.6179 22.2822Z" fill="black"/>
<path d="M0 17.3341C0 16.2184 0.911604 15.314 2.03612 15.314H30.5419C31.6664 15.314 32.578 16.2184 32.578 17.3341V32.1481C32.578 33.2638 31.6664 34.1682 30.5419 34.1682H2.03612C0.911604 34.1682 0 33.2638 0 32.1481V17.3341Z" fill="#2B579A"/>
<path d="M27.3684 26.6061H29.8817C29.8658 27.4689 29.6935 28.2001 29.3648 28.7998C29.036 29.3996 28.5694 29.8546 27.9649 30.165C27.3604 30.4701 26.6446 30.6227 25.8174 30.6227C25.1599 30.6227 24.5767 30.5122 24.0676 30.2912C23.5586 30.065 23.1265 29.7389 22.7712 29.3128C22.4213 28.8866 22.1561 28.3632 21.9758 27.7424C21.8009 27.1217 21.7134 26.4115 21.7134 25.6119V23.8285C21.7134 23.0341 21.8088 22.3239 21.9997 21.6979C22.1906 21.0719 22.461 20.5458 22.811 20.1197C23.1662 19.6883 23.5984 19.3622 24.1074 19.1412C24.6164 18.9203 25.1865 18.8098 25.8174 18.8098C26.6817 18.8098 27.4082 18.9703 27.9967 19.2912C28.5853 19.6121 29.0387 20.0776 29.3568 20.6879C29.6749 21.2981 29.8552 22.0372 29.8976 22.9053H27.3763C27.3817 22.3792 27.3339 21.9689 27.2332 21.6743C27.1377 21.3744 26.976 21.164 26.748 21.043C26.52 20.9167 26.2098 20.8536 25.8174 20.8536C25.5364 20.8536 25.2952 20.9062 25.0937 21.0114C24.8922 21.1114 24.7304 21.2771 24.6085 21.5085C24.4865 21.74 24.3964 22.0451 24.3381 22.4239C24.2797 22.8027 24.2506 23.2656 24.2506 23.8127V25.6119C24.2506 26.159 24.2744 26.6219 24.3222 27.0007C24.3699 27.3742 24.4521 27.6793 24.5687 27.916C24.6854 28.1475 24.8445 28.3159 25.0459 28.4211C25.2474 28.5263 25.5046 28.5789 25.8174 28.5789C26.1674 28.5789 26.4564 28.5263 26.6844 28.4211C26.9124 28.3106 27.0821 28.1133 27.1934 27.8292C27.3101 27.5452 27.3684 27.1375 27.3684 26.6061Z" fill="white"/>
<path d="M20.3533 23.8442V25.6749C20.3533 26.4903 20.2525 27.2084 20.051 27.8292C19.8495 28.4447 19.5606 28.9602 19.1841 29.3758C18.8129 29.7914 18.3675 30.1044 17.8479 30.3148C17.3335 30.52 16.7635 30.6226 16.1379 30.6226C15.5069 30.6226 14.9316 30.52 14.4119 30.3148C13.8923 30.1044 13.4442 29.7914 13.0678 29.3758C12.6913 28.9602 12.3997 28.4447 12.1929 27.8292C11.9914 27.2084 11.8906 26.4903 11.8906 25.6749V23.8442C11.8906 23.0183 11.9914 22.2923 12.1929 21.6663C12.3997 21.035 12.6886 20.5116 13.0598 20.096C13.4363 19.6751 13.8817 19.3568 14.396 19.1412C14.9156 18.9255 15.491 18.8176 16.1219 18.8176C16.7529 18.8176 17.3256 18.9255 17.8399 19.1412C18.3596 19.3568 18.805 19.6751 19.1761 20.096C19.5526 20.5116 19.8416 21.035 20.0431 21.6663C20.2499 22.2923 20.3533 23.0183 20.3533 23.8442ZM17.8161 25.6749V23.8284C17.8161 23.2971 17.7789 22.8447 17.7047 22.4712C17.6358 22.0977 17.5297 21.7925 17.3866 21.5558C17.2434 21.3191 17.0658 21.1455 16.8537 21.035C16.6469 20.9245 16.403 20.8693 16.1219 20.8693C15.8356 20.8693 15.5864 20.9245 15.3743 21.035C15.1622 21.1455 14.9846 21.3191 14.8414 21.5558C14.7036 21.7925 14.6002 22.0977 14.5312 22.4712C14.4676 22.8447 14.4358 23.2971 14.4358 23.8284V25.6749C14.4358 26.1905 14.4702 26.6324 14.5392 27.0006C14.6081 27.3689 14.7142 27.6687 14.8573 27.9002C15.0005 28.1317 15.1781 28.3026 15.3902 28.4131C15.6023 28.5236 15.8515 28.5788 16.1379 28.5788C16.4136 28.5788 16.6548 28.5236 16.8616 28.4131C17.0737 28.3026 17.2487 28.1317 17.3866 27.9002C17.5297 27.6687 17.6358 27.3689 17.7047 27.0006C17.7789 26.6324 17.8161 26.1905 17.8161 25.6749Z" fill="white"/>
<path d="M6.03682 30.4649H3.95297L3.96888 28.4369H6.03682C6.51934 28.4369 6.90111 28.3449 7.18214 28.1607C7.46847 27.9766 7.67261 27.6767 7.79457 27.2612C7.92182 26.8456 7.98545 26.2932 7.98545 25.604V23.8286C7.98545 23.313 7.95099 22.8764 7.88206 22.5187C7.81312 22.1557 7.70177 21.8663 7.548 21.6506C7.39954 21.4297 7.2007 21.2692 6.95148 21.1693C6.70227 21.0641 6.39473 21.0115 6.02886 21.0115H3.9132V18.9756H6.02886C6.70227 18.9756 7.3147 19.0861 7.86615 19.307C8.4176 19.5227 8.89216 19.841 9.28984 20.2618C9.68752 20.6774 9.99241 21.1851 10.2045 21.7848C10.4166 22.3845 10.5227 23.071 10.5227 23.8443V25.604C10.5227 26.3721 10.4166 27.0586 10.2045 27.6636C9.99241 28.2633 9.68752 28.771 9.28984 29.1866C8.89216 29.6022 8.4176 29.9204 7.86615 30.1414C7.32 30.3571 6.71022 30.4649 6.03682 30.4649ZM5.42439 18.9756V30.4649H2.89514V18.9756H5.42439Z" fill="white"/>
<path d="M43.3594 36.8619C43.3594 35.9322 44.119 35.1785 45.0561 35.1785H57.2729C58.21 35.1785 58.9697 35.9322 58.9697 36.8619V52.686H43.3594V36.8619Z" fill="#2B579A"/>
<path d="M51.3342 67.5001L37.6683 52.3493L65 52.3493L51.3342 67.5001Z" fill="#2B579A"/>
</svg>
