<svg width="43" height="46" viewBox="0 0 43 46" fill="none" xmlns="http://www.w3.org/2000/svg">
<path fill-rule="evenodd" clip-rule="evenodd" d="M27.7563 0H11.2241C8.17928 0 5.71094 2.44892 5.71094 5.46981V40.0291C5.71094 43.05 8.17928 45.4989 11.2241 45.4989H37.0359C40.0808 45.4989 42.5491 43.05 42.5491 40.0291V15.0809L42.244 14.7699L42.2471 14.7669L30.1914 2.48628H30.1951L27.7563 0ZM27.0119 2.81093V10.691C27.0119 13.2999 29.1437 15.4149 31.7733 15.4149H39.385L27.0119 2.81093ZM40.0431 16.0853V17.9012H31.7733C27.7597 17.9012 24.5059 14.6731 24.5059 10.691V2.48628H11.2241C9.56331 2.48628 8.21694 3.82205 8.21694 5.46981V40.0291C8.21694 41.6768 9.56331 43.0126 11.2241 43.0126H37.0359C38.6968 43.0126 40.0431 41.6768 40.0431 40.0291L40.0431 16.0853Z" fill="black"/>
<path d="M0.453125 12.4322C0.453125 11.6083 1.12631 10.9404 1.95672 10.9404H23.0071C23.8375 10.9404 24.5107 11.6083 24.5107 12.4322V23.3718C24.5107 24.1957 23.8375 24.8636 23.0071 24.8636H1.95672C1.12631 24.8636 0.453125 24.1957 0.453125 23.3718V12.4322Z" fill="#2B579A"/>
<path d="M20.6682 19.2797H22.5242C22.5125 19.9169 22.3852 20.4568 22.1424 20.8997C21.8997 21.3426 21.5551 21.6786 21.1087 21.9078C20.6623 22.1331 20.1337 22.2458 19.5229 22.2458C19.0373 22.2458 18.6066 22.1642 18.2307 22.0011C17.8548 21.834 17.5357 21.5932 17.2734 21.2785C17.0149 20.9638 16.8191 20.5773 16.686 20.1189C16.5568 19.6605 16.4922 19.136 16.4922 18.5455V17.2286C16.4922 16.642 16.5627 16.1175 16.7036 15.6552C16.8446 15.1929 17.0443 14.8044 17.3027 14.4898C17.5651 14.1712 17.8842 13.9304 18.2601 13.7672C18.636 13.604 19.0569 13.5225 19.5229 13.5225C20.1611 13.5225 20.6976 13.6409 21.1322 13.8779C21.5668 14.1149 21.9016 14.4587 22.1366 14.9093C22.3715 15.36 22.5046 15.9058 22.536 16.5468H20.6741C20.678 16.1583 20.6427 15.8553 20.5684 15.6377C20.4979 15.4163 20.3784 15.2609 20.2101 15.1716C20.0417 15.0783 19.8126 15.0317 19.5229 15.0317C19.3154 15.0317 19.1372 15.0706 18.9884 15.1483C18.8396 15.2221 18.7202 15.3444 18.6301 15.5154C18.5401 15.6863 18.4735 15.9116 18.4304 16.1913C18.3873 16.471 18.3658 16.8129 18.3658 17.2169V18.5455C18.3658 18.9495 18.3834 19.2914 18.4187 19.5711C18.4539 19.8469 18.5146 20.0722 18.6008 20.2471C18.6869 20.418 18.8044 20.5423 18.9532 20.62C19.102 20.6977 19.2919 20.7366 19.5229 20.7366C19.7813 20.7366 19.9947 20.6977 20.1631 20.62C20.3315 20.5384 20.4568 20.3927 20.539 20.183C20.6251 19.9732 20.6682 19.6721 20.6682 19.2797Z" fill="white"/>
<path d="M15.4837 17.2403V18.5922C15.4837 19.1943 15.4093 19.7246 15.2605 20.183C15.1117 20.6375 14.8983 21.0182 14.6203 21.3251C14.3462 21.632 14.0173 21.8632 13.6336 22.0186C13.2538 22.1701 12.8328 22.2458 12.3708 22.2458C11.9048 22.2458 11.48 22.1701 11.0963 22.0186C10.7125 21.8632 10.3817 21.632 10.1036 21.3251C9.82563 21.0182 9.61027 20.6375 9.45757 20.183C9.30877 19.7246 9.23438 19.1943 9.23438 18.5922V17.2403C9.23438 16.6303 9.30877 16.0942 9.45757 15.6319C9.61027 15.1658 9.82368 14.7792 10.0978 14.4723C10.3758 14.1615 10.7047 13.9265 11.0845 13.7672C11.4682 13.608 11.8931 13.5283 12.359 13.5283C12.825 13.5283 13.2479 13.608 13.6277 13.7672C14.0114 13.9265 14.3403 14.1615 14.6144 14.4723C14.8925 14.7792 15.1059 15.1658 15.2546 15.6319C15.4074 16.0942 15.4837 16.6303 15.4837 17.2403ZM13.6101 18.5922V17.2286C13.6101 16.8362 13.5827 16.5021 13.5279 16.2263C13.477 15.9505 13.3986 15.7252 13.2929 15.5504C13.1872 15.3755 13.056 15.2473 12.8994 15.1658C12.7467 15.0842 12.5666 15.0434 12.359 15.0434C12.1476 15.0434 11.9636 15.0842 11.8069 15.1658C11.6503 15.2473 11.5191 15.3755 11.4134 15.5504C11.3116 15.7252 11.2353 15.9505 11.1844 16.2263C11.1374 16.5021 11.1139 16.8362 11.1139 17.2286V18.5922C11.1139 18.9729 11.1393 19.2992 11.1902 19.5711C11.2411 19.8431 11.3194 20.0645 11.4252 20.2354C11.5309 20.4064 11.6621 20.5326 11.8187 20.6142C11.9753 20.6958 12.1593 20.7366 12.3708 20.7366C12.5744 20.7366 12.7526 20.6958 12.9053 20.6142C13.0619 20.5326 13.1911 20.4064 13.2929 20.2354C13.3986 20.0645 13.477 19.8431 13.5279 19.5711C13.5827 19.2992 13.6101 18.9729 13.6101 18.5922Z" fill="white"/>
<path d="M4.91376 22.1299H3.37492L3.38666 20.6323H4.91376C5.27008 20.6323 5.552 20.5644 5.75953 20.4284C5.97098 20.2924 6.12173 20.071 6.21179 19.7641C6.30576 19.4572 6.35275 19.0493 6.35275 18.5404V17.2292C6.35275 16.8485 6.3273 16.5261 6.27639 16.2619C6.22549 15.9939 6.14326 15.7802 6.02971 15.6209C5.92007 15.4578 5.77324 15.3393 5.5892 15.2655C5.40517 15.1878 5.17806 15.1489 4.90788 15.1489H3.34555V13.6455H4.90788C5.40517 13.6455 5.85742 13.7271 6.26465 13.8903C6.67187 14.0495 7.02232 14.2846 7.31599 14.5953C7.60966 14.9022 7.83481 15.2771 7.99144 15.72C8.14806 16.1629 8.22637 16.6698 8.22637 17.2409V18.5404C8.22637 19.1075 8.14806 19.6145 7.99144 20.0613C7.83481 20.5041 7.60966 20.879 7.31599 21.1859C7.02232 21.4928 6.67187 21.7279 6.26465 21.891C5.86134 22.0503 5.41104 22.1299 4.91376 22.1299ZM4.4615 13.6455V22.1299H2.59375V13.6455H4.4615Z" fill="white"/>
</svg>
