<svg width="65" height="66" viewBox="0 0 65 66" fill="none" xmlns="http://www.w3.org/2000/svg">
<path fill-rule="evenodd" clip-rule="evenodd" d="M29.082 45.5314C28.0706 45.5331 27.0954 45.1549 26.3496 44.4718C25.6038 43.7887 25.1416 42.8503 25.0548 41.8427C24.6715 37.4797 24.5747 33.0964 24.765 28.7208L24.0798 28.672L20.0443 28.3795C19.455 28.3365 18.8869 28.1411 18.3958 27.8126C17.9046 27.4841 17.5071 27.0336 17.2423 26.5054C16.9775 25.9771 16.8544 25.3891 16.8851 24.799C16.9158 24.2089 17.0991 23.6369 17.4173 23.1389C20.3883 18.4914 25.8293 13.2914 30.3089 10.0739C30.9482 9.61591 31.7149 9.36963 32.5013 9.36963C33.2877 9.36963 34.0544 9.61591 34.6937 10.0739C39.1706 13.2914 44.6116 18.4914 47.5827 23.1389C47.9008 23.6369 48.0842 24.2089 48.1148 24.799C48.1455 25.3891 48.0224 25.9771 47.7576 26.5054C47.4928 27.0336 47.0953 27.4841 46.6042 27.8126C46.113 28.1411 45.5449 28.3365 44.9556 28.3795L40.9202 28.672L40.235 28.7208C40.4246 33.0974 40.327 37.4795 39.9452 41.8427C39.8583 42.8503 39.3962 43.7887 38.6503 44.4718C37.9045 45.1549 36.9293 45.5331 35.9179 45.5314H29.082ZM28.9304 26.9387C28.6217 31.7795 28.6787 36.6367 29.101 41.4689H35.8989C36.3214 36.6372 36.3783 31.7812 36.0723 26.9387C36.0554 26.6703 36.0921 26.4013 36.18 26.1472C36.268 25.8931 36.4055 25.659 36.5846 25.4584C36.7637 25.2579 36.9809 25.0949 37.2235 24.9789C37.4661 24.863 37.7293 24.7963 37.9979 24.7829C38.8754 24.7395 39.7511 24.6854 40.625 24.6204L43.5527 24.4091C40.9506 20.5801 37.6963 17.2378 33.9381 14.5345L32.5 13.5027L31.0618 14.5345C27.3036 17.2378 24.0494 20.5801 21.4473 24.4091L24.375 24.6231C25.2507 24.6863 26.1264 24.7395 27.002 24.7829C27.2706 24.7963 27.5338 24.863 27.7764 24.9789C28.019 25.0949 28.2362 25.2579 28.4153 25.4584C28.5945 25.659 28.732 25.8931 28.8199 26.1472C28.9079 26.4013 28.9445 26.6703 28.9277 26.9387" fill="#004529"/>
<path d="M15.5729 46.5417C15.5729 46.003 15.3589 45.4864 14.9779 45.1054C14.597 44.7245 14.0803 44.5105 13.5416 44.5105C13.0029 44.5105 12.4862 44.7245 12.1053 45.1054C11.7244 45.4864 11.5104 46.003 11.5104 46.5417V51.9584C11.5104 54.5747 13.6337 56.698 16.25 56.698H48.75C50.007 56.698 51.2125 56.1986 52.1013 55.3098C52.9902 54.421 53.4895 53.2154 53.4895 51.9584V46.5417C53.4895 46.003 53.2755 45.4864 52.8946 45.1054C52.5137 44.7245 51.997 44.5105 51.4583 44.5105C50.9196 44.5105 50.4029 44.7245 50.022 45.1054C49.641 45.4864 49.427 46.003 49.427 46.5417V51.9584C49.427 52.138 49.3557 52.3102 49.2287 52.4372C49.1017 52.5642 48.9295 52.6355 48.75 52.6355H16.25C16.0704 52.6355 15.8982 52.5642 15.7712 52.4372C15.6442 52.3102 15.5729 52.138 15.5729 51.9584V46.5417Z" fill="#004529"/>
</svg>
