<svg width="17" height="17" viewBox="0 0 17 17" fill="none" xmlns="http://www.w3.org/2000/svg">
<path fill-rule="evenodd" clip-rule="evenodd" d="M11.3808 0.5C11.5712 0.5 11.7539 0.572439 11.8886 0.701406L14.5985 3.29909C14.7331 3.42822 14.8086 3.60326 14.8086 3.78576C14.8086 3.96826 14.7331 4.14329 14.5985 4.27242L5.79048 12.7128C5.7002 12.7996 5.58741 12.8617 5.46372 12.8928L1.79564 13.811C1.67436 13.8414 1.54691 13.8407 1.42595 13.8093C1.30499 13.7778 1.19472 13.7166 1.1061 13.6316C1.01747 13.5467 0.95356 13.441 0.920716 13.3251C0.887872 13.2092 0.887234 13.0871 0.918866 12.9709L1.87709 9.45402C1.90939 9.33592 1.97388 9.22817 2.06394 9.14182L10.8729 0.701406C11.0076 0.572439 11.1903 0.5 11.3808 0.5ZM11.3808 2.16232L3.21764 9.98384L2.61876 12.1812L4.91179 11.6073L13.0739 3.78484L11.3808 2.16232Z" fill="#333333"/>
<path d="M0.412964 15.3619C0.549354 15.2369 0.734339 15.1667 0.927224 15.1667H15.4727C15.6656 15.1667 15.8505 15.2369 15.9869 15.3619C16.1233 15.487 16.2 15.6565 16.2 15.8333C16.2 16.0101 16.1233 16.1797 15.9869 16.3047C15.8505 16.4298 15.6656 16.5 15.4727 16.5H0.927224C0.734339 16.5 0.549354 16.4298 0.412964 16.3047C0.276574 16.1797 0.199951 16.0101 0.199951 15.8333C0.199951 15.6565 0.276574 15.487 0.412964 15.3619Z" fill="#333333"/>
</svg>
