<svg width="24" height="24" viewBox="0 0 24 24" fill="none" xmlns="http://www.w3.org/2000/svg">
<path fill-rule="evenodd" clip-rule="evenodd" d="M7.24998 15.0497C7.24586 15.217 7.29779 15.3808 7.39751 15.5152C7.49723 15.6496 7.63902 15.7467 7.80033 15.7912C7.96163 15.8357 8.13318 15.825 8.28768 15.7607C8.44218 15.6965 8.57077 15.5824 8.65298 15.4367L9.55598 13.8367C10.0788 12.9103 10.8707 12.1646 11.8268 11.6984C12.7829 11.2321 13.8581 11.0673 14.91 11.2257L15.059 11.2477C15.0857 11.9257 15.1237 12.603 15.173 13.2797L15.241 14.2107C15.296 14.9677 16.14 15.3907 16.779 14.9817C18.8772 13.6421 20.7011 11.9149 22.153 9.89271L22.609 9.25771C22.7006 9.13021 22.7498 8.97719 22.7498 8.82021C22.7498 8.66323 22.7006 8.51021 22.609 8.38271L22.153 7.74771C20.7015 5.72522 18.878 3.99776 16.78 2.65771C16.6337 2.56423 16.4657 2.51035 16.2923 2.50135C16.119 2.49235 15.9463 2.52854 15.7911 2.60637C15.6359 2.6842 15.5037 2.801 15.4072 2.94534C15.3108 3.08967 15.2535 3.25658 15.241 3.42971L15.173 4.35971C15.133 4.90638 15.1007 5.45304 15.076 5.99971H14.057C12.295 5.99972 10.6029 6.68869 9.34201 7.91947C8.08116 9.15024 7.35153 10.8252 7.30898 12.5867L7.24998 15.0497ZM15.133 9.74171C13.9567 9.56467 12.7545 9.70163 11.6482 10.1387C10.5418 10.5758 9.57065 11.2975 8.83298 12.2307C8.96151 10.9344 9.56736 9.73222 10.5328 8.8577C11.4983 7.98318 12.7543 7.49881 14.057 7.49871H15.797C15.9913 7.49857 16.178 7.42301 16.3177 7.28796C16.4574 7.15291 16.5392 6.96891 16.546 6.77471C16.572 6.00471 16.613 5.23638 16.669 4.46971L16.675 4.39471C18.3204 5.55715 19.7602 6.98612 20.935 8.62271L21.077 8.82071L20.935 9.01771C19.7602 10.6543 18.3204 12.0833 16.675 13.2457L16.669 13.1707C16.6063 12.3071 16.5623 11.4422 16.537 10.5767C16.5319 10.4009 16.4652 10.2326 16.3486 10.1009C16.232 9.96934 16.0729 9.8829 15.899 9.85671L15.133 9.74171Z" fill="#004529"/>
<path d="M19.641 17.4108C19.759 16.4021 19.8423 15.3914 19.891 14.3788C19.8933 14.3244 19.9066 14.2711 19.9302 14.2221C19.9537 14.1731 19.987 14.1295 20.028 14.0938C20.392 13.7738 20.744 13.4404 21.084 13.0938C21.212 12.9638 21.435 13.0558 21.432 13.2378C21.4008 14.691 21.3007 16.142 21.132 17.5858C20.895 19.6078 19.27 21.1928 17.258 21.4178C13.7633 21.8045 10.2367 21.8045 6.74201 21.4178C4.73001 21.1928 3.10501 19.6078 2.86901 17.5858C2.45512 14.0411 2.45512 10.4604 2.86901 6.91575C3.10501 4.89375 4.72901 3.30875 6.74201 3.08375C9.05199 2.82876 11.3774 2.74186 13.7 2.82375C13.896 2.82975 14.03 3.02175 14.007 3.21675L13.994 3.33875L13.943 4.04275C13.9376 4.12074 13.902 4.19354 13.8437 4.24565C13.7854 4.29776 13.7091 4.32507 13.631 4.32175C11.3868 4.24187 9.13983 4.32643 6.90801 4.57475C6.26195 4.64626 5.65886 4.93348 5.19617 5.39C4.73347 5.84653 4.43819 6.44571 4.35801 7.09075C3.95687 10.5191 3.95687 13.9824 4.35801 17.4108C4.43819 18.0558 4.73347 18.655 5.19617 19.1115C5.65886 19.568 6.26195 19.8552 6.90801 19.9268C10.264 20.3018 13.736 20.3018 17.092 19.9268C17.7381 19.8552 18.3412 19.568 18.8039 19.1115C19.2666 18.655 19.5608 18.0558 19.641 17.4108Z" fill="#004529"/>
</svg>
