<svg width="65" height="65" viewBox="0 0 65 65" fill="none" xmlns="http://www.w3.org/2000/svg">
<path d="M35.2083 31.146C35.2083 30.0686 35.6363 29.0352 36.3982 28.2734C37.1601 27.5115 38.1934 27.0835 39.2708 27.0835C40.3482 27.0835 41.3816 27.5115 42.1434 28.2734C42.9053 29.0352 43.3333 30.0686 43.3333 31.146C43.3333 32.2234 42.9053 33.2568 42.1434 34.0186C41.3816 34.7805 40.3482 35.2085 39.2708 35.2085C38.1934 35.2085 37.1601 34.7805 36.3982 34.0186C35.6363 33.2568 35.2083 32.2234 35.2083 31.146ZM30.16 35.4875C29.9774 35.1953 29.7235 34.9544 29.4222 34.7874C29.1208 34.6204 28.782 34.5328 28.4375 34.5328C28.093 34.5328 27.7541 34.6204 27.4528 34.7874C27.1515 34.9544 26.8976 35.1953 26.715 35.4875L19.9441 46.3208C19.7523 46.6282 19.6462 46.9814 19.6369 47.3437C19.6276 47.7059 19.7153 48.0641 19.891 48.381C20.0668 48.6979 20.3241 48.9621 20.6363 49.146C20.9485 49.33 21.3043 49.4271 21.6666 49.4272H43.3333C43.7105 49.4272 44.0803 49.3222 44.4012 49.1239C44.7221 48.9256 44.9814 48.6418 45.1501 48.3044C45.3188 47.967 45.3902 47.5893 45.3563 47.2136C45.3225 46.8379 45.1846 46.479 44.9583 46.1772L40.8958 40.7606C40.7066 40.5083 40.4613 40.3035 40.1792 40.1625C39.8972 40.0215 39.5861 39.9481 39.2708 39.9481C38.9555 39.9481 38.6445 40.0215 38.3624 40.1625C38.0804 40.3035 37.835 40.5083 37.6458 40.7606L35.36 43.8075L30.16 35.4875Z" fill="#858B89"/>
<path fill-rule="evenodd" clip-rule="evenodd" d="M18.9583 6.09375C16.983 6.09375 15.0886 6.87844 13.6919 8.27519C12.2951 9.67195 11.5104 11.5664 11.5104 13.5417V51.4583C11.5104 53.4336 12.2951 55.328 13.6919 56.7248C15.0886 58.1216 16.983 58.9062 18.9583 58.9062H46.0417C48.017 58.9062 49.9114 58.1216 51.3081 56.7248C52.7049 55.328 53.4896 53.4336 53.4896 51.4583V21.58C53.4896 20.5481 53.1537 19.546 52.5308 18.7227L44.4112 7.97604C43.9695 7.39136 43.3981 6.91708 42.7421 6.59048C42.0861 6.26388 41.3632 6.09385 40.6304 6.09375H18.9583ZM15.5729 13.5417C15.5729 11.6729 17.0896 10.1562 18.9583 10.1562H38.5937V22.0648C38.5937 23.186 39.5037 24.096 40.625 24.096H49.4271V51.4583C49.4271 53.3271 47.9104 54.8438 46.0417 54.8438H18.9583C17.0896 54.8438 15.5729 53.3271 15.5729 51.4583V13.5417Z" fill="#858B89"/>
</svg>
