<svg width="55" height="41" viewBox="0 0 55 41" fill="none" xmlns="http://www.w3.org/2000/svg">
<path d="M23.0189 14.5721C23.1448 14.4548 23.2457 14.3134 23.3157 14.1562C23.3858 13.9991 23.4234 13.8294 23.4265 13.6574C23.4295 13.4853 23.3979 13.3145 23.3334 13.1549C23.269 12.9954 23.1731 12.8505 23.0514 12.7288C22.9297 12.6071 22.7848 12.5112 22.6253 12.4468C22.4657 12.3823 22.2948 12.3507 22.1228 12.3537C21.9508 12.3568 21.7811 12.3944 21.624 12.4644C21.4668 12.5345 21.3253 12.6354 21.208 12.7613L14.3747 19.5946C14.1348 19.8349 14 20.1605 14 20.5001C14 20.8396 14.1348 21.1652 14.3747 21.4055L21.208 28.2388C21.3253 28.3647 21.4668 28.4657 21.624 28.5357C21.7811 28.6057 21.9508 28.6434 22.1228 28.6464C22.2948 28.6494 22.4657 28.6178 22.6253 28.5534C22.7848 28.4889 22.9297 28.393 23.0514 28.2713C23.1731 28.1497 23.269 28.0047 23.3334 27.8452C23.3979 27.6857 23.4295 27.5148 23.4265 27.3428C23.4234 27.1707 23.3858 27.0011 23.3157 26.8439C23.2457 26.6867 23.1448 26.5453 23.0189 26.428L18.3722 21.7813H39.3945C39.7343 21.7813 40.0602 21.6463 40.3005 21.406C40.3005 21.406 40.6758 20.8399 40.6758 20.5001C40.6758 20.1603 40.5408 19.8344 40.3005 19.5941C40.0602 19.3538 39.7343 19.2188 39.3945 19.2188H18.3722L23.0189 14.5721Z" fill="#004529"/>
</svg>
