<svg width="20" height="20" viewBox="0 0 20 20" fill="none" xmlns="http://www.w3.org/2000/svg">
<path fill-rule="evenodd" clip-rule="evenodd" d="M8.94964 2.70801C8.30464 2.70801 7.76714 3.20051 7.71047 3.84301C7.59255 5.18545 7.56276 6.53417 7.6213 7.88051L7.41047 7.89551L6.1688 7.98551C5.98747 7.99876 5.81268 8.05887 5.66155 8.15995C5.51042 8.26104 5.38813 8.39963 5.30665 8.56217C5.22517 8.72471 5.18729 8.90563 5.19673 9.0872C5.20616 9.26877 5.26258 9.44479 5.36047 9.59801C6.27487 11.0272 7.45207 12.27 8.82964 13.2605L9.3263 13.618C9.52309 13.7591 9.75915 13.835 10.0013 13.835C10.2435 13.835 10.4795 13.7591 10.6763 13.618L11.173 13.2605C12.5519 12.2716 13.7293 11.0285 14.6421 9.59801C14.74 9.44479 14.7964 9.26877 14.8059 9.0872C14.8153 8.90563 14.7774 8.72471 14.696 8.56217C14.6145 8.39963 14.4922 8.26104 14.3411 8.15995C14.1899 8.05887 14.0151 7.99876 13.8338 7.98551L12.5921 7.89551L12.3813 7.88051C12.4396 6.53468 12.4096 5.18551 12.2921 3.84301C12.2654 3.53295 12.1232 3.24424 11.8937 3.03404C11.6642 2.82384 11.3642 2.70749 11.053 2.70801H8.94964ZM8.90297 8.42884C8.80798 6.93937 8.82553 5.44484 8.95547 3.95801H11.0471C11.1774 5.44482 11.1952 6.93934 11.1005 8.42884C11.0953 8.51142 11.1066 8.5942 11.1336 8.67238C11.1607 8.75057 11.203 8.82261 11.2581 8.88431C11.3132 8.94602 11.3801 8.99616 11.4547 9.03185C11.5293 9.06753 11.6103 9.08804 11.693 9.09218C11.963 9.10551 12.2324 9.12218 12.5013 9.14218L13.4021 9.20801C12.6014 10.3859 11.6001 11.414 10.4438 12.2455L10.0021 12.563L9.5588 12.2455C8.40251 11.414 7.40119 10.3859 6.60047 9.20801L7.5013 9.14134C7.77075 9.1219 8.04019 9.10551 8.30964 9.09218C8.39234 9.08814 8.47342 9.06771 8.54817 9.03208C8.62291 8.99644 8.68983 8.94631 8.74503 8.8846C8.80023 8.82288 8.84262 8.75081 8.86974 8.67257C8.89685 8.59433 8.90815 8.51148 8.90297 8.42884Z" fill="#004529"/>
<path d="M4.78906 14.167C4.78906 14.0012 4.72321 13.8423 4.606 13.725C4.48879 13.6078 4.32982 13.542 4.16406 13.542C3.9983 13.542 3.83933 13.6078 3.72212 13.725C3.60491 13.8423 3.53906 14.0012 3.53906 14.167V15.8337C3.53906 16.6387 4.1924 17.292 4.9974 17.292H14.9974C15.3842 17.292 15.7551 17.1383 16.0286 16.8649C16.3021 16.5914 16.4557 16.2204 16.4557 15.8337V14.167C16.4557 14.0012 16.3899 13.8423 16.2727 13.725C16.1555 13.6078 15.9965 13.542 15.8307 13.542C15.665 13.542 15.506 13.6078 15.3888 13.725C15.2716 13.8423 15.2057 14.0012 15.2057 14.167V15.8337C15.2057 15.8889 15.1838 15.9419 15.1447 15.981C15.1056 16.02 15.0526 16.042 14.9974 16.042H4.9974C4.94214 16.042 4.88915 16.02 4.85008 15.981C4.81101 15.9419 4.78906 15.8889 4.78906 15.8337V14.167Z" fill="#004529"/>
</svg>
