<svg width="24" height="25" viewBox="0 0 24 25" fill="none" xmlns="http://www.w3.org/2000/svg">
<path fill-rule="evenodd" clip-rule="evenodd" d="M10.7396 3.74903C9.96556 3.74903 9.32056 4.34003 9.25256 5.11103C9.11106 6.72195 9.07531 8.34042 9.14556 9.95603L8.89256 9.97403L7.40256 10.082C7.18496 10.0979 6.97522 10.1701 6.79386 10.2914C6.6125 10.4127 6.46576 10.579 6.36798 10.774C6.2702 10.9691 6.22475 11.1862 6.23607 11.4041C6.24739 11.6219 6.3151 11.8332 6.43256 12.017C7.52985 13.7321 8.94248 15.2234 10.5956 16.412L11.1916 16.841C11.4277 17.0104 11.711 17.1014 12.0016 17.1014C12.2921 17.1014 12.5754 17.0104 12.8116 16.841L13.4076 16.412C15.0623 15.2253 16.4752 13.7336 17.5706 12.017C17.688 11.8332 17.7557 11.6219 17.7671 11.4041C17.7784 11.1862 17.7329 10.9691 17.6351 10.774C17.5374 10.579 17.3906 10.4127 17.2093 10.2914C17.0279 10.1701 16.8182 10.0979 16.6006 10.082L15.1106 9.97403L14.8576 9.95603C14.9276 8.34103 14.8916 6.72203 14.7506 5.11103C14.7185 4.73896 14.5479 4.3925 14.2725 4.14027C13.9971 3.88803 13.637 3.7484 13.2636 3.74903H10.7396ZM10.6836 10.614C10.5696 8.82665 10.5906 7.03323 10.7466 5.24903H13.2566C13.4128 7.0332 13.4342 8.82663 13.3206 10.614C13.3144 10.7131 13.3279 10.8125 13.3603 10.9063C13.3928 11.0001 13.4436 11.0865 13.5097 11.1606C13.5759 11.2346 13.6561 11.2948 13.7456 11.3376C13.8352 11.3804 13.9324 11.4051 14.0316 11.41C14.3556 11.426 14.6789 11.446 15.0016 11.47L16.0826 11.549C15.1217 12.9624 13.9201 14.1962 12.5326 15.194L12.0026 15.575L11.4706 15.194C10.083 14.1962 8.88143 12.9624 7.92056 11.549L9.00156 11.469C9.3249 11.4457 9.64823 11.426 9.97156 11.41C10.0708 11.4052 10.1681 11.3807 10.2578 11.3379C10.3475 11.2951 10.4278 11.235 10.494 11.1609C10.5603 11.0869 10.6111 11.0004 10.6437 10.9065C10.6762 10.8126 10.6898 10.7132 10.6836 10.614Z" fill="#333333"/>
<path d="M5.75 17.499C5.75 17.3001 5.67098 17.1093 5.53033 16.9687C5.38968 16.828 5.19891 16.749 5 16.749C4.80109 16.749 4.61032 16.828 4.46967 16.9687C4.32902 17.1093 4.25 17.3001 4.25 17.499V19.499C4.25 20.465 5.034 21.249 6 21.249H18C18.4641 21.249 18.9092 21.0646 19.2374 20.7365C19.5656 20.4083 19.75 19.9632 19.75 19.499V17.499C19.75 17.3001 19.671 17.1093 19.5303 16.9687C19.3897 16.828 19.1989 16.749 19 16.749C18.8011 16.749 18.6103 16.828 18.4697 16.9687C18.329 17.1093 18.25 17.3001 18.25 17.499V19.499C18.25 19.5653 18.2237 19.6289 18.1768 19.6758C18.1299 19.7227 18.0663 19.749 18 19.749H6C5.9337 19.749 5.87011 19.7227 5.82322 19.6758C5.77634 19.6289 5.75 19.5653 5.75 19.499V17.499Z" fill="#333333"/>
</svg>
