<svg width="24" height="24" viewBox="0 0 24 24" fill="none" xmlns="http://www.w3.org/2000/svg">
<path d="M17.4583 4H11.0833C9.13046 4 7.54167 5.58879 7.54167 7.54167V8.25H7.1875C5.43012 8.25 4 9.68012 4 11.4375V18.5208C4 19.8872 5.11138 20.9993 6.47846 21H17.4583C19.4112 21 21 19.4112 21 17.4583V7.54167C21 5.58879 19.4112 4 17.4583 4ZM7.54167 18.5208C7.54167 19.1066 7.06496 19.5833 6.47917 19.5833C5.89337 19.5833 5.41667 19.1066 5.41667 18.5208V11.4375C5.41667 10.4614 6.21142 9.66667 7.1875 9.66667H7.54167V18.5208ZM19.5833 17.4583C19.5833 18.6299 18.6299 19.5833 17.4583 19.5833H8.71892C8.87192 19.261 8.95833 18.9012 8.95833 18.5208V7.54167C8.95833 6.37008 9.91175 5.41667 11.0833 5.41667H17.4583C18.6299 5.41667 19.5833 6.37008 19.5833 7.54167V17.4583ZM18.1667 8.95833C18.1667 9.34933 17.8493 9.66667 17.4583 9.66667H15.3333C14.9423 9.66667 14.625 9.34933 14.625 8.95833C14.625 8.56733 14.9423 8.25 15.3333 8.25H17.4583C17.8493 8.25 18.1667 8.56733 18.1667 8.95833ZM18.1667 11.7917C18.1667 12.1827 17.8493 12.5 17.4583 12.5H11.0833C10.6923 12.5 10.375 12.1827 10.375 11.7917C10.375 11.4007 10.6923 11.0833 11.0833 11.0833H17.4583C17.8493 11.0833 18.1667 11.4007 18.1667 11.7917ZM18.1667 14.625C18.1667 15.016 17.8493 15.3333 17.4583 15.3333H11.0833C10.6923 15.3333 10.375 15.016 10.375 14.625C10.375 14.234 10.6923 13.9167 11.0833 13.9167H17.4583C17.8493 13.9167 18.1667 14.234 18.1667 14.625ZM18.1667 17.4583C18.1667 17.8493 17.8493 18.1667 17.4583 18.1667H11.0833C10.6923 18.1667 10.375 17.8493 10.375 17.4583C10.375 17.0673 10.6923 16.75 11.0833 16.75H17.4583C17.8493 16.75 18.1667 17.0673 18.1667 17.4583ZM10.375 8.95833V7.54167C10.375 7.15067 10.6923 6.83333 11.0833 6.83333H12.5C12.891 6.83333 13.2083 7.15067 13.2083 7.54167V8.95833C13.2083 9.34933 12.891 9.66667 12.5 9.66667H11.0833C10.6923 9.66667 10.375 9.34933 10.375 8.95833Z" fill="#333333"/>
</svg>
