<svg width="24" height="24" viewBox="0 0 24 24" fill="none" xmlns="http://www.w3.org/2000/svg">
<path fill-rule="evenodd" clip-rule="evenodd" d="M11.612 3.30201C11.855 3.23201 12.112 3.23201 12.355 3.30201C12.873 3.44901 13.395 3.58501 13.919 3.72201C16.38 4.36301 18.879 5.01501 21.103 6.82601L22.127 7.66001C22.542 7.99801 22.75 8.50001 22.75 9.00001V16C22.75 16.1989 22.671 16.3897 22.5303 16.5303C22.3897 16.671 22.1989 16.75 22 16.75C21.8011 16.75 21.6103 16.671 21.4697 16.5303C21.329 16.3897 21.25 16.1989 21.25 16V11.057L21.087 11.19C20.3503 11.7873 19.5453 12.2952 18.689 12.703C18.729 12.7943 18.7493 12.8933 18.75 13V17.294C18.75 17.8477 18.5828 18.3885 18.2704 18.8456C17.958 19.3027 17.5149 19.6549 16.999 19.856L12.999 21.416C12.3566 21.6665 11.6434 21.6665 11.001 21.416L7.001 19.856C6.48515 19.6549 6.04202 19.3027 5.7296 18.8456C5.41718 18.3885 5.25003 17.8477 5.25 17.294V13C5.25067 12.8913 5.272 12.79 5.314 12.696C4.484 12.297 3.674 11.806 2.897 11.174L1.873 10.34C1.043 9.66301 1.043 8.33701 1.873 7.66001L2.913 6.81001C5.12 5.01001 7.602 4.36101 10.045 3.72301C10.5689 3.58841 11.0912 3.44807 11.612 3.30201ZM21.25 9.00101C21.25 8.91101 21.214 8.85101 21.18 8.82301L20.156 7.98901C18 6.50001 16.078 5.84301 13.64 5.20201C13.0866 5.05855 12.5346 4.90988 11.984 4.75601C11.414 4.91701 10.86 5.06301 10.322 5.20501C7.902 5.84101 5.793 6.39601 3.862 7.97301L2.821 8.82201C2.786 8.85001 2.75 8.90901 2.75 8.99901C2.75 9.08901 2.786 9.14901 2.82 9.17701L3.845 10.011C5.793 11.598 7.921 12.157 10.36 12.798C10.8967 12.9367 11.4487 13.0853 12.016 13.244C12.586 13.083 13.14 12.937 13.678 12.795C16.098 12.159 18.207 11.604 20.138 10.028L21.179 9.17801C21.214 9.15001 21.25 9.09101 21.25 9.00101ZM13.956 14.277C15.056 13.99 16.163 13.7 17.25 13.305V17.294C17.25 17.809 16.934 18.271 16.454 18.459L12.454 20.018C12.162 20.1318 11.838 20.1318 11.546 20.018L7.546 18.458C7.31159 18.3666 7.11021 18.2066 6.96819 17.999C6.82617 17.7913 6.75013 17.5456 6.75 17.294V13.296C7.849 13.696 8.969 13.988 10.08 14.278C10.605 14.415 11.127 14.551 11.645 14.698C11.888 14.768 12.145 14.768 12.388 14.698C12.907 14.55 13.43 14.414 13.956 14.277Z" fill="#333333"/>
</svg>
