<svg width="24" height="24" viewBox="0 0 24 24" fill="none" xmlns="http://www.w3.org/2000/svg">
<path d="M14.6875 4C11.7083 4 9.375 5.40038 9.375 7.1875V9.01996C9.03288 8.97958 8.67729 8.95833 8.3125 8.95833C5.33325 8.95833 3 10.3587 3 12.1458V17.8125C3 19.5996 5.33325 21 8.3125 21C10.7258 21 12.7155 20.0813 13.3842 18.7822C13.8077 18.8438 14.2441 18.875 14.6875 18.875C17.6667 18.875 20 17.4746 20 15.6875V7.1875C20 5.40038 17.6667 4 14.6875 4ZM18.5833 12.8542C18.5833 13.69 16.9173 14.625 14.6875 14.625C14.3248 14.625 13.9692 14.6002 13.625 14.552V13.1467C13.9721 13.1871 14.3277 13.2083 14.6875 13.2083C16.2416 13.2083 17.62 12.8272 18.5833 12.2089V12.8542ZM4.41667 14.3339C5.38 14.9522 6.75842 15.3333 8.3125 15.3333C9.86658 15.3333 11.245 14.9522 12.2083 14.3339V14.9792C12.2083 15.815 10.5423 16.75 8.3125 16.75C6.08267 16.75 4.41667 15.815 4.41667 14.9792V14.3339ZM18.5833 10.0208C18.5833 10.8567 16.9173 11.7917 14.6875 11.7917C14.3085 11.7917 13.9367 11.7647 13.5782 11.7123C13.4415 11.084 13.0116 10.5195 12.3698 10.0669C13.0668 10.2652 13.8517 10.375 14.6875 10.375C16.2416 10.375 17.62 9.99392 18.5833 9.37554V10.0208ZM14.6875 5.41667C16.9173 5.41667 18.5833 6.35167 18.5833 7.1875C18.5833 8.02333 16.9173 8.95833 14.6875 8.95833C12.4577 8.95833 10.7917 8.02333 10.7917 7.1875C10.7917 6.35167 12.4577 5.41667 14.6875 5.41667ZM8.3125 10.375C10.5423 10.375 12.2083 11.31 12.2083 12.1458C12.2083 12.9817 10.5423 13.9167 8.3125 13.9167C6.08267 13.9167 4.41667 12.9817 4.41667 12.1458C4.41667 11.31 6.08267 10.375 8.3125 10.375ZM8.3125 19.5833C6.08267 19.5833 4.41667 18.6483 4.41667 17.8125V17.1672C5.38 17.7856 6.75842 18.1667 8.3125 18.1667C9.86658 18.1667 11.245 17.7856 12.2083 17.1672V17.8125C12.2083 18.6483 10.5423 19.5833 8.3125 19.5833ZM14.6875 17.4583C14.3248 17.4583 13.9692 17.4335 13.625 17.3854V15.98C13.9721 16.0204 14.3277 16.0417 14.6875 16.0417C16.2416 16.0417 17.62 15.6606 18.5833 15.0422V15.6875C18.5833 16.5233 16.9173 17.4583 14.6875 17.4583Z" fill="#333333"/>
</svg>
