<svg width="24" height="24" viewBox="0 0 24 24" fill="none" xmlns="http://www.w3.org/2000/svg">
<path d="M21 9.08447C21 10.2813 20.5305 11.5094 19.8143 12.6896C19.6088 12.1863 19.2922 11.72 18.8625 11.3351C19.2555 10.5638 19.5 9.80201 19.5 9.08447C19.5 7.11634 17.9543 5.45323 16.125 5.45323C14.4488 5.45323 13.494 6.11048 12.8505 6.68349L9.9825 9.26095C9.71775 9.51804 9.65475 9.95016 9.86025 10.2269C9.9945 10.4077 10.1917 10.5166 10.4145 10.5341C10.6357 10.5537 10.8502 10.4752 11.0055 10.3235L14.1353 7.42209L15.1725 8.47079L14.244 9.3314L17.8043 12.357C18.6383 13.0658 18.8438 14.2561 18.282 15.1254C17.9362 15.6599 17.3715 16.0194 16.7333 16.1102C16.6898 16.116 16.647 16.1211 16.6035 16.1247C16.6005 16.4988 16.4977 16.8691 16.287 17.196C15.9412 17.7305 15.3765 18.09 14.7382 18.1807C14.5995 18.1996 14.4615 18.2076 14.3235 18.2011C14.283 18.4785 14.1855 18.7487 14.0273 18.9934C13.6815 19.5279 13.1167 19.8867 12.4785 19.9775C12.3712 19.9927 12.264 20 12.1583 20C11.628 20 11.1135 19.8148 10.71 19.4713L8.382 17.4494C5.92575 15.3012 3 12.1064 3 9.08447C3 6.28115 5.187 4.00073 7.875 4.00073C9.07725 4.00073 9.99975 4.2738 10.7235 4.63184L9.52425 5.70959C9.06675 5.55417 8.52675 5.45323 7.875 5.45323C6.04575 5.45323 4.5 7.11634 4.5 9.08447C4.5 11.0265 6.23475 13.6141 9.38625 16.3717L11.7067 18.3863C11.8545 18.5119 12.0592 18.57 12.2618 18.5417C12.4672 18.5126 12.6435 18.4001 12.7568 18.2236C12.9292 17.9556 12.8438 17.5576 12.561 17.318L10.1558 15.1036L11.1877 14.0491L13.9792 16.6012C14.1135 16.7144 14.3212 16.774 14.5208 16.7435C14.7262 16.7144 14.9025 16.6012 15.0157 16.4254C15.1882 16.1574 15.1027 15.7594 14.82 15.519L12.15 13.1783L13.1512 12.0977L15.9578 14.5161C16.1077 14.6439 16.3133 14.7035 16.515 14.673C16.7205 14.6439 16.8968 14.5306 17.01 14.3549C17.1825 14.0869 17.097 13.6889 16.8143 13.4485L13.1558 10.3394L12.0533 11.3613C11.64 11.7622 11.0693 11.9887 10.4753 11.9887C9.69075 11.9887 9.0315 11.5995 8.6415 11.0751C8.00775 10.2225 8.136 8.99296 8.94 8.21443L11.8312 5.6159C12.6128 4.92088 13.9042 4 16.1235 4C18.8115 4 20.9985 6.28042 20.9985 9.08375L21 9.08447Z" fill="#333333"/>
</svg>
