<svg width="57" height="62" viewBox="0 0 57 62" fill="none" xmlns="http://www.w3.org/2000/svg">
<path fill-rule="evenodd" clip-rule="evenodd" d="M36.972 0H14.5893C10.4669 0 7.125 3.33707 7.125 7.45355V54.5464C7.125 58.6629 10.4669 62 14.5893 62H49.5357C53.6581 62 57 58.6629 57 54.5464V20.5503L56.5869 20.1265L56.591 20.1225L40.2689 3.38798H40.2739L36.972 0ZM35.9643 3.83037V14.5683C35.9643 18.1235 38.8504 21.0055 42.4107 21.0055H52.7161L35.9643 3.83037ZM53.6071 21.919V24.3934H42.4107C36.9766 24.3934 32.5714 19.9946 32.5714 14.5683V3.38798H14.5893C12.3407 3.38798 10.5179 5.2082 10.5179 7.45355V54.5464C10.5179 56.7918 12.3407 58.612 14.5893 58.612H49.5357C51.7843 58.612 53.6071 56.7918 53.6071 54.5464L53.6071 21.919Z" fill="black"/>
<path d="M0 16.9398C0 15.8171 0.91142 14.907 2.03571 14.907H28.5C29.6243 14.907 30.5357 15.8171 30.5357 16.9398V31.8469C30.5357 32.9695 29.6243 33.8797 28.5 33.8797H2.03571C0.91142 33.8797 0 32.9695 0 31.8469V16.9398Z" fill="#D60000"/>
<path d="M23.9196 18.5916V30.153H21.3909V18.5916H23.9196ZM27.506 23.4512V25.484H23.2596V23.4512H27.506ZM27.8956 18.5916V20.6402H23.2596V18.5916H27.8956Z" fill="white"/>
<path d="M15.3553 30.153H13.2719L13.2878 28.1123H15.3553C15.8378 28.1123 16.2195 28.0197 16.5004 27.8344C16.7867 27.6491 16.9908 27.3474 17.1127 26.9292C17.24 26.511 17.3036 25.9551 17.3036 25.2616V23.475C17.3036 22.9562 17.2691 22.5168 17.2002 22.1569C17.1313 21.7916 17.02 21.5004 16.8662 21.2834C16.7178 21.0611 16.519 20.8996 16.2698 20.799C16.0207 20.6932 15.7132 20.6402 15.3474 20.6402H13.2322V18.5916H15.3474C16.0207 18.5916 16.633 18.7027 17.1843 18.9251C17.7356 19.1421 18.2101 19.4624 18.6077 19.8859C19.0053 20.3041 19.3101 20.8149 19.5222 21.4184C19.7342 22.0219 19.8403 22.7127 19.8403 23.4909V25.2616C19.8403 26.0345 19.7342 26.7253 19.5222 27.3341C19.3101 27.9376 19.0053 28.4485 18.6077 28.8667C18.2101 29.2849 17.7356 29.6051 17.1843 29.8275C16.6383 30.0445 16.0286 30.153 15.3553 30.153ZM14.743 18.5916V30.153H12.2143V18.5916H14.743Z" fill="white"/>
<path d="M6.89439 26.1589H4.54855V24.1103H6.89439C7.19657 24.1103 7.44043 24.0414 7.62597 23.9038C7.81152 23.7609 7.9467 23.5676 8.03153 23.3241C8.11635 23.0753 8.15876 22.7948 8.15876 22.4824C8.15876 22.1542 8.11635 21.8498 8.03153 21.5693C7.9467 21.2887 7.81152 21.0637 7.62597 20.8943C7.44043 20.7249 7.19657 20.6402 6.89439 20.6402H5.42327V30.153H2.89453V18.5916H6.89439C7.68429 18.5916 8.36286 18.7583 8.9301 19.0918C9.50265 19.4253 9.94266 19.8832 10.2501 20.4655C10.5576 21.0478 10.7114 21.7148 10.7114 22.4666C10.7114 23.213 10.5576 23.8614 10.2501 24.412C9.94266 24.9625 9.50265 25.3913 8.9301 25.6984C8.36286 26.0054 7.68429 26.1589 6.89439 26.1589Z" fill="white"/>
</svg>
