<svg width="14" height="17" viewBox="0 0 14 17" fill="none" xmlns="http://www.w3.org/2000/svg">
<path d="M5.24511 0C5.07058 0 4.9032 0.0649199 4.77979 0.180478C4.65638 0.296037 4.58705 0.452768 4.58705 0.616192V1.23238H0.858016C0.683486 1.23238 0.516105 1.2973 0.392694 1.41286C0.269283 1.52842 0.199951 1.68515 0.199951 1.84858C0.199951 2.012 0.269283 2.16873 0.392694 2.28429C0.516105 2.39985 0.683486 2.46477 0.858016 2.46477H13.1419C13.3164 2.46477 13.4838 2.39985 13.6072 2.28429C13.7306 2.16873 13.8 2.012 13.8 1.84858C13.8 1.68515 13.7306 1.52842 13.6072 1.41286C13.4838 1.2973 13.3164 1.23238 13.1419 1.23238H9.41285V0.616192C9.41285 0.452768 9.34352 0.296037 9.22011 0.180478C9.0967 0.0649199 8.92932 0 8.75479 0H5.24511ZM7.93002 10.4753L9.21982 11.683C9.28448 11.7394 9.33633 11.8074 9.3723 11.883C9.40827 11.9586 9.42761 12.0402 9.42917 12.1229C9.43073 12.2057 9.41447 12.2879 9.38137 12.3646C9.34828 12.4413 9.29901 12.511 9.23653 12.5695C9.17404 12.628 9.0996 12.6742 9.01766 12.7052C8.93572 12.7361 8.84795 12.7514 8.7596 12.7499C8.67124 12.7484 8.5841 12.7303 8.50338 12.6967C8.42265 12.663 8.35 12.6144 8.28976 12.5539L6.99995 11.3461L5.71014 12.5539C5.6499 12.6144 5.57725 12.663 5.49653 12.6967C5.4158 12.7303 5.32866 12.7484 5.24031 12.7499C5.15195 12.7514 5.06418 12.7361 4.98224 12.7052C4.9003 12.6742 4.82586 12.628 4.76338 12.5695C4.70089 12.511 4.65162 12.4413 4.61853 12.3646C4.58543 12.2879 4.56918 12.2057 4.57073 12.1229C4.57229 12.0402 4.59163 11.9586 4.6276 11.883C4.66357 11.8074 4.71543 11.7394 4.78008 11.683L6.06989 10.4753L4.78008 9.26752C4.71543 9.21111 4.66357 9.14309 4.6276 9.0675C4.59163 8.99191 4.57229 8.91032 4.57073 8.82758C4.56918 8.74485 4.58543 8.66266 4.61853 8.58594C4.65162 8.50921 4.70089 8.43951 4.76338 8.381C4.82586 8.32249 4.9003 8.27636 4.98224 8.24537C5.06418 8.21438 5.15195 8.19916 5.24031 8.20062C5.32866 8.20208 5.4158 8.22019 5.49653 8.25386C5.57725 8.28754 5.6499 8.3361 5.71014 8.39664L6.99995 9.60438L8.28976 8.39664C8.35 8.3361 8.42265 8.28754 8.50338 8.25386C8.5841 8.22019 8.67124 8.20208 8.7596 8.20062C8.84795 8.19916 8.93572 8.21438 9.01766 8.24537C9.0996 8.27636 9.17404 8.32249 9.23653 8.381C9.29901 8.43951 9.34828 8.50921 9.38137 8.58594C9.41447 8.66266 9.43073 8.74485 9.42917 8.82758C9.42761 8.91032 9.40827 8.99191 9.3723 9.0675C9.33633 9.14309 9.28448 9.21111 9.21982 9.26752L7.93002 10.4753Z" fill="#333333"/>
<path fill-rule="evenodd" clip-rule="evenodd" d="M2.2714 4.80789C2.28748 4.6544 2.35626 4.51261 2.46458 4.40967C2.57289 4.30673 2.71313 4.24988 2.85842 4.25H11.1413C11.2866 4.24988 11.4268 4.30673 11.5352 4.40967C11.6435 4.51261 11.7123 4.6544 11.7283 4.80789L11.8857 6.31512C12.1714 9.04603 12.1714 11.802 11.8857 14.5338L11.87 14.6818C11.8152 15.2089 11.5967 15.7015 11.2489 16.0818C10.9012 16.462 10.4441 16.7082 9.94995 16.7812C7.9928 17.0729 6.00694 17.0729 4.04979 16.7812C3.55565 16.7082 3.09855 16.462 2.7508 16.0818C2.40305 15.7015 2.18451 15.2089 2.12976 14.6818L2.11402 14.5338C1.8286 11.8026 1.8286 9.04627 2.11402 6.31512L2.2714 4.80789ZM3.38643 5.50463L3.28728 6.45313C3.01147 9.09228 3.01147 11.7558 3.28728 14.3949L3.30302 14.543C3.32867 14.7931 3.43217 15.027 3.59712 15.2074C3.76206 15.3879 3.97898 15.5047 4.21346 15.5392C6.06267 15.8143 7.93785 15.8143 9.78627 15.5392C10.0206 15.5047 10.2375 15.3881 10.4024 15.2078C10.5673 15.0275 10.6709 14.7938 10.6967 14.5438L10.7125 14.3949C10.9879 11.756 10.9879 9.09203 10.7125 6.45313L10.6133 5.50463H3.38643Z" fill="#333333"/>
</svg>
