<svg width="14" height="15" viewBox="0 0 14 15" fill="none" xmlns="http://www.w3.org/2000/svg">
<circle cx="7" cy="7.5" r="7" fill="#C8D0CE"/>
<path d="M9.37183 5.74742C9.41364 5.70708 9.44699 5.65882 9.46994 5.60546C9.4929 5.55209 9.50499 5.49469 9.50552 5.4366C9.50605 5.37851 9.49501 5.32089 9.47304 5.26712C9.45107 5.21334 9.41861 5.16447 9.37755 5.12338C9.33649 5.08228 9.28766 5.04977 9.2339 5.02775C9.18014 5.00573 9.12254 4.99463 9.06445 4.99511C9.00636 4.99558 8.94894 5.00762 8.89556 5.03053C8.84217 5.05343 8.79388 5.08674 8.7535 5.1285L7 6.88142L5.24708 5.1285C5.20703 5.08552 5.15873 5.05104 5.10506 5.02713C5.0514 5.00322 4.99346 4.99036 4.93472 4.98933C4.87598 4.98829 4.81763 4.9991 4.76315 5.0211C4.70867 5.0431 4.65919 5.07585 4.61764 5.1174C4.5761 5.15894 4.54335 5.20843 4.52134 5.26291C4.49934 5.31738 4.48853 5.37573 4.48957 5.43448C4.49061 5.49322 4.50346 5.55115 4.52738 5.60482C4.55129 5.65848 4.58576 5.70679 4.62875 5.74684L6.3805 7.50034L4.62758 9.25325C4.5503 9.33619 4.50823 9.44588 4.51023 9.55923C4.51223 9.67257 4.55814 9.78071 4.6383 9.86087C4.71846 9.94102 4.8266 9.98694 4.93994 9.98894C5.05329 9.99094 5.16298 9.94887 5.24592 9.87159L7 8.11867L8.75292 9.87217C8.83585 9.94945 8.94554 9.99152 9.05889 9.98952C9.17223 9.98752 9.28037 9.94161 9.36053 9.86145C9.44068 9.78129 9.4866 9.67315 9.4886 9.55981C9.4906 9.44647 9.44853 9.33677 9.37125 9.25384L7.6195 7.50034L9.37183 5.74742Z" fill="white"/>
</svg>
