<svg width="24" height="24" viewBox="0 0 24 24" fill="none" xmlns="http://www.w3.org/2000/svg">
<path d="M8.46918 8.47015C8.6098 8.3297 8.80043 8.25081 8.99918 8.25081C9.19793 8.25081 9.38855 8.3297 9.52918 8.47015L11.9992 10.9402L14.4692 8.47015C14.5378 8.39647 14.6206 8.33736 14.7126 8.29637C14.8046 8.25538 14.904 8.23334 15.0047 8.23156C15.1054 8.22979 15.2054 8.24831 15.2988 8.28603C15.3922 8.32375 15.477 8.3799 15.5482 8.45112C15.6194 8.52233 15.6756 8.60717 15.7133 8.70056C15.751 8.79394 15.7695 8.89397 15.7678 8.99468C15.766 9.09538 15.744 9.19469 15.703 9.28669C15.662 9.37869 15.6029 9.46149 15.5292 9.53015L13.0592 12.0002L15.5292 14.4702C15.6617 14.6123 15.7338 14.8004 15.7304 14.9947C15.7269 15.189 15.6482 15.3744 15.5108 15.5118C15.3734 15.6492 15.188 15.7279 14.9937 15.7313C14.7994 15.7348 14.6114 15.6626 14.4692 15.5302L11.9992 13.0602L9.52918 15.5302C9.46052 15.6038 9.37771 15.6629 9.28572 15.7039C9.19372 15.7449 9.0944 15.767 8.9937 15.7687C8.893 15.7705 8.79297 15.752 8.69958 15.7143C8.60619 15.6766 8.52136 15.6204 8.45014 15.5492C8.37892 15.478 8.32278 15.3931 8.28505 15.2998C8.24733 15.2064 8.22881 15.1063 8.23059 15.0056C8.23236 14.9049 8.2544 14.8056 8.2954 14.7136C8.33639 14.6216 8.39549 14.5388 8.46918 14.4702L10.9392 12.0002L8.46918 9.53015C8.32873 9.38953 8.24984 9.1989 8.24984 9.00015C8.24984 8.8014 8.32873 8.61078 8.46918 8.47015Z" fill="#333333"/>
<path fill-rule="evenodd" clip-rule="evenodd" d="M7.31569 3.76905C10.4282 3.42399 13.5692 3.42399 16.6817 3.76905C18.5087 3.97305 19.9837 5.41205 20.1977 7.24905C20.5677 10.406 20.5677 13.595 20.1977 16.752C19.9827 18.589 18.5077 20.027 16.6817 20.232C13.5692 20.5771 10.4282 20.5771 7.31569 20.232C5.48869 20.027 4.01369 18.589 3.79969 16.752C3.43135 13.5951 3.43135 10.406 3.79969 7.24905C4.01369 5.41205 5.48969 3.97305 7.31569 3.76905ZM16.5157 5.25905C13.5136 4.92627 10.4838 4.92627 7.48169 5.25905C6.92594 5.3207 6.4072 5.56792 6.00927 5.96076C5.61135 6.35361 5.35749 6.86913 5.28869 7.42405C4.93302 10.465 4.93302 13.5371 5.28869 16.578C5.3577 17.1328 5.61165 17.6481 6.00956 18.0407C6.40746 18.4334 6.92609 18.6804 7.48169 18.742C10.4587 19.074 13.5387 19.074 16.5157 18.742C17.0711 18.6802 17.5895 18.4331 17.9872 18.0404C18.3849 17.6478 18.6387 17.1326 18.7077 16.578C19.0634 13.5371 19.0634 10.465 18.7077 7.42405C18.6385 6.86964 18.3846 6.35469 17.9869 5.96227C17.5893 5.56985 17.071 5.32282 16.5157 5.26105" fill="#333333"/>
</svg>
