<svg width="24" height="24" viewBox="0 0 24 24" fill="none" xmlns="http://www.w3.org/2000/svg">
<path d="M12 18.25C11.8011 18.25 11.6103 18.329 11.4697 18.4697C11.329 18.6103 11.25 18.8011 11.25 19C11.25 19.1989 11.329 19.3897 11.4697 19.5303C11.6103 19.671 11.8011 19.75 12 19.75H18C18.4641 19.75 18.9092 19.5656 19.2374 19.2374C19.5656 18.9092 19.75 18.4641 19.75 18V6C19.75 5.53587 19.5656 5.09075 19.2374 4.76256C18.9092 4.43437 18.4641 4.25 18 4.25H12C11.8011 4.25 11.6103 4.32902 11.4697 4.46967C11.329 4.61032 11.25 4.80109 11.25 5C11.25 5.19891 11.329 5.38968 11.4697 5.53033C11.6103 5.67098 11.8011 5.75 12 5.75H18C18.0663 5.75 18.1299 5.77634 18.1768 5.82322C18.2237 5.87011 18.25 5.9337 18.25 6V18C18.25 18.0663 18.2237 18.1299 18.1768 18.1768C18.1299 18.2237 18.0663 18.25 18 18.25H12Z" fill="#333333"/>
<path fill-rule="evenodd" clip-rule="evenodd" d="M14.5034 14.365C15.1934 14.365 15.7534 13.805 15.7534 13.115V10.875C15.7534 10.185 15.1934 9.62498 14.5034 9.62498H9.89039L9.87039 9.40498L9.81639 8.84898C9.7973 8.65261 9.73113 8.46373 9.6235 8.29838C9.51587 8.13302 9.36995 7.99606 9.19812 7.8991C9.02629 7.80214 8.83361 7.74805 8.63642 7.74142C8.43923 7.73478 8.24335 7.77579 8.06539 7.86098C6.43018 8.64307 4.95026 9.71506 3.69739 11.025L3.59839 11.128C3.37482 11.3612 3.25 11.6719 3.25 11.995C3.25 12.3181 3.37482 12.6287 3.59839 12.862L3.69839 12.965C4.95096 14.2748 6.43053 15.3468 8.06539 16.129C8.24335 16.2142 8.43923 16.2552 8.63642 16.2485C8.83361 16.2419 9.02629 16.1878 9.19812 16.0909C9.36995 15.9939 9.51587 15.8569 9.6235 15.6916C9.73113 15.5262 9.7973 15.3374 9.81639 15.141L9.87039 14.585L9.89039 14.365H14.5034ZM9.19539 12.865C9.00454 12.8651 8.82093 12.938 8.68195 13.0688C8.54298 13.1996 8.45909 13.3785 8.44739 13.569C8.42872 13.859 8.40539 14.1493 8.37739 14.44L8.36139 14.602C7.05632 13.9285 5.86894 13.0481 4.84539 11.995C5.86894 10.9418 7.05632 10.0614 8.36139 9.38798L8.37739 9.54998C8.40539 9.83998 8.42872 10.1303 8.44739 10.421C8.45909 10.6115 8.54298 10.7903 8.68195 10.9211C8.82093 11.0519 9.00454 11.1248 9.19539 11.125H14.2534V12.865H9.19539Z" fill="#333333"/>
</svg>
