<svg width="24" height="24" viewBox="0 0 24 24" fill="none" xmlns="http://www.w3.org/2000/svg">
<path d="M12.9997 11.5C12.9997 11.1022 13.1577 10.7206 13.439 10.4393C13.7203 10.158 14.1019 10 14.4997 10C14.8975 10 15.279 10.158 15.5604 10.4393C15.8417 10.7206 15.9997 11.1022 15.9997 11.5C15.9997 11.8978 15.8417 12.2794 15.5604 12.5607C15.279 12.842 14.8975 13 14.4997 13C14.1019 13 13.7203 12.842 13.439 12.5607C13.1577 12.2794 12.9997 11.8978 12.9997 11.5ZM11.1357 13.103C11.0683 12.9951 10.9745 12.9062 10.8633 12.8445C10.752 12.7829 10.6269 12.7505 10.4997 12.7505C10.3725 12.7505 10.2474 12.7829 10.1361 12.8445C10.0249 12.9062 9.93111 12.9951 9.86369 13.103L7.36369 17.103C7.29286 17.2165 7.2537 17.3469 7.25025 17.4807C7.2468 17.6144 7.2792 17.7467 7.34409 17.8637C7.40897 17.9807 7.50398 18.0782 7.61926 18.1462C7.73454 18.2141 7.86589 18.2499 7.99969 18.25H15.9997C16.139 18.25 16.2755 18.2112 16.394 18.138C16.5125 18.0648 16.6082 17.96 16.6705 17.8354C16.7328 17.7108 16.7592 17.5714 16.7467 17.4326C16.7342 17.2939 16.6833 17.1614 16.5997 17.05L15.0997 15.05C15.0298 14.9569 14.9392 14.8813 14.8351 14.8292C14.731 14.7771 14.6161 14.75 14.4997 14.75C14.3833 14.75 14.2684 14.7771 14.1643 14.8292C14.0601 14.8813 13.9695 14.9569 13.8997 15.05L13.0557 16.175L11.1357 13.103Z" fill="#333333"/>
<path fill-rule="evenodd" clip-rule="evenodd" d="M7 2.25C6.27065 2.25 5.57118 2.53973 5.05546 3.05546C4.53973 3.57118 4.25 4.27065 4.25 5V19C4.25 19.7293 4.53973 20.4288 5.05546 20.9445C5.57118 21.4603 6.27065 21.75 7 21.75H17C17.7293 21.75 18.4288 21.4603 18.9445 20.9445C19.4603 20.4288 19.75 19.7293 19.75 19V7.968C19.75 7.587 19.626 7.217 19.396 6.913L16.398 2.945C16.2349 2.72912 16.0239 2.554 15.7817 2.43341C15.5395 2.31282 15.2726 2.25004 15.002 2.25H7ZM5.75 5C5.75 4.31 6.31 3.75 7 3.75H14.25V8.147C14.25 8.561 14.586 8.897 15 8.897H18.25V19C18.25 19.69 17.69 20.25 17 20.25H7C6.31 20.25 5.75 19.69 5.75 19V5Z" fill="#333333"/>
</svg>
