<svg width="24" height="24" viewBox="0 0 24 24" fill="none" xmlns="http://www.w3.org/2000/svg">
<path fill-rule="evenodd" clip-rule="evenodd" d="M11.9997 3.08025L9.78673 5.36825C9.67011 5.48883 9.53042 5.5847 9.37597 5.65015C9.22152 5.71561 9.05547 5.74931 8.88773 5.74925H5.74973V8.88725C5.74973 9.22725 5.61173 9.55125 5.36873 9.78725L3.07873 12.0002L5.36873 14.2132C5.61173 14.4482 5.74973 14.7732 5.74973 15.1122V18.2502H8.88773C9.22773 18.2502 9.55173 18.3882 9.78773 18.6312L11.9997 20.9212L14.2127 18.6312C14.3293 18.5107 14.469 18.4148 14.6235 18.3493C14.7779 18.2839 14.944 18.2502 15.1117 18.2502H18.2497V15.1122C18.2497 14.7722 18.3877 14.4482 18.6307 14.2122L20.9207 12.0002L18.6307 9.78725C18.5102 9.67063 18.4143 9.53093 18.3488 9.37649C18.2834 9.22204 18.2497 9.05599 18.2497 8.88825V5.75025H15.1117C14.9438 5.75044 14.7776 5.71681 14.623 5.65135C14.4683 5.58589 14.3285 5.48995 14.2117 5.36925L11.9997 3.08025ZM11.1007 1.85025C11.2173 1.72958 11.357 1.63361 11.5114 1.56807C11.6659 1.50253 11.8319 1.46875 11.9997 1.46875C12.1675 1.46875 12.3336 1.50253 12.488 1.56807C12.6425 1.63361 12.7822 1.72958 12.8987 1.85025L15.2177 4.25025H18.4997C19.1897 4.25025 19.7497 4.81025 19.7497 5.50025V8.78225L22.1497 11.1022C22.2702 11.2188 22.3661 11.3584 22.4315 11.5128C22.497 11.6671 22.5307 11.8331 22.5307 12.0007C22.5307 12.1684 22.497 12.3344 22.4315 12.4887C22.3661 12.6431 22.2702 12.7827 22.1497 12.8992L19.7497 15.2182V18.5002C19.7497 19.1902 19.1897 19.7502 18.4997 19.7502H15.2177L12.8977 22.1502C12.7812 22.2708 12.6416 22.3666 12.4872 22.432C12.3328 22.4975 12.1669 22.5312 11.9992 22.5312C11.8316 22.5312 11.6656 22.4975 11.5113 22.432C11.3569 22.3666 11.2173 22.2708 11.1007 22.1502L8.78173 19.7502H5.49973C4.80973 19.7502 4.24973 19.1902 4.24973 18.5002V15.2182L1.84973 12.8982C1.72921 12.7817 1.63338 12.6421 1.56793 12.4877C1.50248 12.3334 1.46875 12.1674 1.46875 11.9997C1.46875 11.8321 1.50248 11.6661 1.56793 11.5118C1.63338 11.3574 1.72921 11.2178 1.84973 11.1012L4.24973 8.78225V5.50025C4.24973 4.81025 4.80973 4.25025 5.49973 4.25025H8.78173L11.1007 1.85025Z" fill="#333333"/>
<path fill-rule="evenodd" clip-rule="evenodd" d="M7.25 12C7.25 10.7402 7.75045 9.53204 8.64124 8.64124C9.53204 7.75045 10.7402 7.25 12 7.25C13.2598 7.25 14.468 7.75045 15.3588 8.64124C16.2496 9.53204 16.75 10.7402 16.75 12C16.75 13.2598 16.2496 14.468 15.3588 15.3588C14.468 16.2496 13.2598 16.75 12 16.75C10.7402 16.75 9.53204 16.2496 8.64124 15.3588C7.75045 14.468 7.25 13.2598 7.25 12ZM12 8.75C11.138 8.75 10.3114 9.09241 9.7019 9.7019C9.09241 10.3114 8.75 11.138 8.75 12C8.75 12.862 9.09241 13.6886 9.7019 14.2981C10.3114 14.9076 11.138 15.25 12 15.25C12.862 15.25 13.6886 14.9076 14.2981 14.2981C14.9076 13.6886 15.25 12.862 15.25 12C15.25 11.138 14.9076 10.3114 14.2981 9.7019C13.6886 9.09241 12.862 8.75 12 8.75Z" fill="#333333"/>
</svg>
