<svg width="48" height="48" viewBox="0 0 48 48" fill="none" xmlns="http://www.w3.org/2000/svg">
<rect width="48" height="48" rx="24" fill="white" fill-opacity="0.7"/>
<path d="M12.1927 29.075C12.1339 29.1908 12.1126 29.3221 12.1319 29.4506C12.1512 29.5791 12.21 29.6983 12.3002 29.7918C12.3904 29.8853 12.5075 29.9484 12.6352 29.9723C12.7629 29.9961 12.8948 29.9796 13.0127 29.925L16.1364 28.4838C18.7614 27.2713 21.6277 26.7175 24.4877 26.8475C24.5219 27.7667 24.5723 28.685 24.6389 29.6025L24.7252 30.775C24.737 30.9379 24.7908 31.0948 24.8815 31.2306C24.9722 31.3664 25.0966 31.4762 25.2426 31.5495C25.3885 31.6227 25.5509 31.6567 25.714 31.6483C25.877 31.6398 26.0351 31.5892 26.1727 31.5013C28.7828 29.8316 31.0525 27.6819 32.8614 25.1663L33.4364 24.3663C33.5129 24.2599 33.5541 24.1323 33.5541 24.0013C33.5541 23.8703 33.5129 23.7426 33.4364 23.6363L32.8614 22.8363C31.0526 20.3202 28.7829 18.1701 26.1727 16.5C26.0352 16.4121 25.8772 16.3615 25.7143 16.353C25.5513 16.3445 25.389 16.3784 25.2431 16.4515C25.0972 16.5246 24.9727 16.6343 24.882 16.7698C24.7912 16.9054 24.7372 17.0623 24.7252 17.225L24.6389 18.4C24.5819 19.1868 24.5369 19.9744 24.5039 20.7625H23.6989C21.5038 20.7627 19.3518 21.3713 17.4817 22.5207C15.6116 23.6701 14.0967 25.3154 13.1052 27.2738L12.1927 29.075Z" fill="white"/>
</svg>
