<svg width="48" height="48" viewBox="0 0 48 48" fill="none" xmlns="http://www.w3.org/2000/svg">
<rect x="0.65" y="0.65" width="46.7" height="46.7" rx="23.35" stroke="white" stroke-width="1.3"/>
<path fill-rule="evenodd" clip-rule="evenodd" d="M12.075 30.025C11.9396 29.8849 11.8512 29.7061 11.8221 29.5135C11.7929 29.3208 11.8246 29.1239 11.9125 28.95L12.79 27.2175C13.8079 25.2076 15.3629 23.5192 17.2825 22.3398C19.202 21.1604 21.4109 20.5361 23.6638 20.5363H24.095C24.1259 19.8529 24.1663 19.1704 24.2163 18.4888L24.3013 17.325C24.3172 17.1087 24.3889 16.9002 24.5095 16.72C24.6302 16.5397 24.7955 16.3939 24.9894 16.2967C25.1834 16.1996 25.3992 16.1545 25.6158 16.1658C25.8324 16.1771 26.0423 16.2444 26.225 16.3613C28.8474 18.036 31.1268 20.1948 32.9413 22.7225L33.5113 23.5163C33.6258 23.6756 33.6873 23.8669 33.6873 24.0631C33.6873 24.2594 33.6258 24.4506 33.5113 24.61L32.9413 25.4038C31.1268 27.9314 28.8474 30.0903 26.225 31.765C26.0423 31.8818 25.8324 31.9492 25.6158 31.9605C25.3992 31.9718 25.1834 31.9267 24.9894 31.8295C24.7955 31.7324 24.6302 31.5866 24.5095 31.4063C24.3889 31.2261 24.3172 31.0176 24.3013 30.8013L24.2163 29.6388C24.1572 28.8241 24.1109 28.0086 24.0775 27.1925C21.3764 27.1144 18.6938 27.6629 16.24 28.795L13.1425 30.225C12.9659 30.3066 12.7682 30.3312 12.5769 30.2953C12.3856 30.2595 12.2102 30.165 12.075 30.025ZM14.8475 27.3725L15.4538 27.0925C18.4551 25.7078 21.7607 25.114 25.0563 25.3675C25.2869 25.3853 25.5027 25.4877 25.6624 25.6549C25.8221 25.8222 25.9143 26.0426 25.9213 26.2738C25.953 27.3504 26.008 28.4263 26.0863 29.5013L26.0938 29.595C28.1505 28.142 29.9503 26.3557 31.4188 24.31L31.5963 24.0625L31.4188 23.8163C29.9503 21.7705 28.1505 19.9843 26.0938 18.5313L26.0863 18.625C26.0166 19.5839 25.9653 20.5441 25.9325 21.505C25.9244 21.7482 25.8221 21.9787 25.6472 22.1478C25.4722 22.3169 25.2384 22.4114 24.995 22.4113H23.6638C21.8918 22.4111 20.1498 22.8676 18.6055 23.7366C17.0613 24.6056 15.767 25.8578 14.8475 27.3725Z" fill="white"/>
</svg>
