<svg width="10" height="7" viewBox="0 0 10 7" fill="none" xmlns="http://www.w3.org/2000/svg">
<path fill-rule="evenodd" clip-rule="evenodd" d="M9.53015 6.03082C9.6706 5.8902 9.74949 5.69957 9.74949 5.50082C9.74949 5.30207 9.6706 5.11145 9.53015 4.97082L5.53015 0.970823C5.38953 0.830372 5.1989 0.751482 5.00015 0.751482C4.8014 0.751482 4.61078 0.830372 4.47015 0.970823L0.470153 4.97082C0.396466 5.03948 0.337364 5.12229 0.296372 5.21428C0.25538 5.30628 0.233339 5.4056 0.231562 5.5063C0.229785 5.607 0.24831 5.70703 0.286031 5.80042C0.323752 5.89381 0.379896 5.97864 0.451115 6.04986C0.522334 6.12108 0.607168 6.17722 0.700556 6.21495C0.793944 6.25267 0.893973 6.27119 0.994676 6.26941C1.09538 6.26764 1.19469 6.2456 1.28669 6.2046C1.37869 6.16361 1.46149 6.10451 1.53015 6.03082L5.00015 2.56082L8.47015 6.03082C8.61078 6.17127 8.8014 6.25016 9.00015 6.25016C9.1989 6.25016 9.38953 6.17127 9.53015 6.03082Z" fill="#333333"/>
</svg>
