<svg width="80" height="79" viewBox="0 0 80 79" fill="none" xmlns="http://www.w3.org/2000/svg">
<rect x="1" y="1" width="78" height="77" rx="38.5" fill="#004529" fill-opacity="0.04"/>
<rect x="1" y="1" width="78" height="77" rx="38.5" stroke="#006D49" stroke-width="2"/>
<path d="M38.5 54C38.5 54.8284 39.1716 55.5 40 55.5C40.8284 55.5 41.5 54.8284 41.5 54L38.5 54ZM41.0607 23.9393C40.4749 23.3536 39.5251 23.3536 38.9393 23.9393L29.3934 33.4853C28.8076 34.0711 28.8076 35.0208 29.3934 35.6066C29.9792 36.1924 30.9289 36.1924 31.5147 35.6066L40 27.1213L48.4853 35.6066C49.0711 36.1924 50.0208 36.1924 50.6066 35.6066C51.1924 35.0208 51.1924 34.0711 50.6066 33.4853L41.0607 23.9393ZM41.5 54L41.5 25L38.5 25L38.5 54L41.5 54Z" fill="#006D49"/>
</svg>
