<svg width="64" height="64" viewBox="0 0 64 64" fill="none" xmlns="http://www.w3.org/2000/svg">
<path fill-rule="evenodd" clip-rule="evenodd" d="M22 34.667C22 32.0148 23.0536 29.4713 24.9289 27.5959C26.8043 25.7206 29.3478 24.667 32 24.667C34.6522 24.667 37.1957 25.7206 39.0711 27.5959C40.9464 29.4713 42 32.0148 42 34.667C42 37.3192 40.9464 39.8627 39.0711 41.7381C37.1957 43.6134 34.6522 44.667 32 44.667C29.3478 44.667 26.8043 43.6134 24.9289 41.7381C23.0536 39.8627 22 37.3192 22 34.667ZM32 28.667C30.4087 28.667 28.8826 29.2991 27.7574 30.4244C26.6321 31.5496 26 33.0757 26 34.667C26 36.2583 26.6321 37.7844 27.7574 38.9096C28.8826 40.0349 30.4087 40.667 32 40.667C33.5913 40.667 35.1174 40.0349 36.2426 38.9096C37.3679 37.7844 38 36.2583 38 34.667C38 33.0757 37.3679 31.5496 36.2426 30.4244C35.1174 29.2991 33.5913 28.667 32 28.667Z" fill="white"/>
<path fill-rule="evenodd" clip-rule="evenodd" d="M28.3097 15.3335C27.6469 15.3328 26.9905 15.4628 26.3781 15.7161C25.7656 15.9694 25.2091 16.341 24.7405 16.8097C24.2719 17.2783 23.9003 17.8348 23.6469 18.4472C23.3936 19.0597 23.2636 19.7161 23.2643 20.3788C23.2639 21.2353 22.9414 22.0603 22.361 22.6902C21.7806 23.32 20.9846 23.7086 20.131 23.7788L14.1843 24.2588C13.6156 24.3046 13.0778 24.5362 12.6537 24.9179C12.2297 25.2995 11.9429 25.8101 11.8377 26.3708C10.6409 32.6905 10.5525 39.1702 11.5763 45.5202L11.835 47.1308C12.0803 48.6508 13.331 49.8108 14.867 49.9362L20.0483 50.3575C28.0032 51.0032 35.9974 51.0032 43.9523 50.3575L49.131 49.9362C49.8779 49.8758 50.5829 49.5665 51.1331 49.0579C51.6833 48.5492 52.0469 47.8707 52.1657 47.1308L52.4243 45.5202C53.4473 39.17 53.358 32.6904 52.1603 26.3708C52.0546 25.8106 51.7676 25.3006 51.3435 24.9195C50.9195 24.5383 50.382 24.3072 49.8137 24.2615L43.8697 23.7788C43.0161 23.7086 42.2201 23.32 41.6396 22.6902C41.0592 22.0603 40.7368 21.2353 40.7363 20.3788C40.737 19.7161 40.607 19.0597 40.3537 18.4472C40.1004 17.8348 39.7288 17.2783 39.2601 16.8097C38.7915 16.341 38.235 15.9694 37.6226 15.7161C37.0101 15.4628 36.3538 15.3328 35.691 15.3335H28.3097ZM19.2803 19.8348C19.4196 17.5344 20.4314 15.3737 22.1094 13.7939C23.7874 12.214 26.005 11.334 28.3097 11.3335H35.691C40.5043 11.3335 44.4377 15.0935 44.7203 19.8348L50.139 20.2748C51.5806 20.3912 52.944 20.978 54.0194 21.945C55.0948 22.9121 55.8227 24.2057 56.091 25.6268C57.3737 32.4002 57.4697 39.3468 56.3737 46.1548L56.115 47.7682C55.8537 49.3911 55.0556 50.8795 53.8484 51.9953C52.6413 53.1111 51.0948 53.7898 49.4563 53.9228L44.2777 54.3442C36.1062 55.0064 27.8945 55.0064 19.723 54.3442L14.5443 53.9228C12.9059 53.7898 11.3594 53.1111 10.1522 51.9953C8.94505 50.8795 8.14698 49.3911 7.88566 47.7682L7.62699 46.1548C6.53041 39.3475 6.62605 32.4014 7.90966 25.6268C8.17839 24.2059 8.90638 22.9125 9.98173 21.9456C11.0571 20.9786 12.4202 20.3916 13.8617 20.2748L19.2803 19.8348Z" fill="white"/>
</svg>
