<svg width="28" height="28" viewBox="0 0 28 28" fill="none" xmlns="http://www.w3.org/2000/svg">
<path fill-rule="evenodd" clip-rule="evenodd" d="M25.0312 6.31866C25.142 6.4869 25.1914 6.68824 25.171 6.88868C25.1506 7.08912 25.0617 7.27637 24.9192 7.41883L14.194 18.1428C14.0843 18.2525 13.9474 18.331 13.7974 18.3703L9.3302 19.537C9.18253 19.5755 9.02736 19.5747 8.88009 19.5347C8.73282 19.4948 8.59856 19.4169 8.49066 19.309C8.38275 19.2011 8.30494 19.0669 8.26495 18.9196C8.22496 18.7723 8.22418 18.6172 8.2627 18.4695L9.42936 14.0035C9.46425 13.8697 9.52841 13.7454 9.6172 13.6395L20.382 2.88166C20.5461 2.7178 20.7685 2.62576 21.0004 2.62576C21.2322 2.62576 21.4546 2.7178 21.6187 2.88166L24.9192 6.18099C24.96 6.22397 24.9974 6.26999 25.0312 6.31866ZM23.063 6.79933L21.0004 4.73783L11.0627 14.6755L10.3335 17.4673L13.1254 16.7382L23.063 6.79933Z" fill="#001C14"/>
<path d="M22.9139 20.02C23.2327 17.2946 23.3346 14.5482 23.2184 11.8067C23.2156 11.7421 23.2263 11.6776 23.2498 11.6173C23.2733 11.5571 23.3091 11.5024 23.3549 11.4567L24.5029 10.3087C24.5342 10.2771 24.574 10.2553 24.6175 10.2458C24.661 10.2364 24.7063 10.2397 24.7479 10.2553C24.7896 10.271 24.8258 10.2983 24.8523 10.334C24.8788 10.3698 24.8944 10.4124 24.8972 10.4568C25.1127 13.7133 25.0307 16.9826 24.6522 20.2242C24.3769 22.5832 22.4822 24.4323 20.1337 24.6948C16.0566 25.146 11.9421 25.146 7.86503 24.6948C5.5177 24.4323 3.62186 22.5832 3.34653 20.2242C2.86366 16.0888 2.86366 11.9112 3.34653 7.77583C3.62186 5.41683 5.51653 3.56766 7.86503 3.30516C10.9596 2.96339 14.0772 2.88027 17.1855 3.05666C17.23 3.05986 17.2727 3.07573 17.3084 3.10241C17.3441 3.12909 17.3715 3.16545 17.3872 3.20719C17.4029 3.24893 17.4063 3.29429 17.3971 3.33792C17.3878 3.38154 17.3662 3.42159 17.3349 3.45333L16.1764 4.61066C16.1311 4.65598 16.0769 4.69149 16.0173 4.71498C15.9577 4.73846 15.8939 4.74942 15.8299 4.74716C13.2361 4.65832 10.6393 4.75775 8.05986 5.04466C7.30613 5.12809 6.60252 5.46318 6.06271 5.99579C5.5229 6.52841 5.1784 7.22745 5.08486 7.98C4.61686 11.9797 4.61686 16.0203 5.08486 20.02C5.1784 20.7725 5.5229 21.4716 6.06271 22.0042C6.60252 22.5368 7.30613 22.8719 8.05986 22.9553C11.974 23.3928 16.0247 23.3928 19.94 22.9553C20.6938 22.8719 21.3974 22.5368 21.9372 22.0042C22.477 21.4716 22.8203 20.7725 22.9139 20.02Z" fill="#004529"/>
</svg>
