<svg width="25" height="24" viewBox="0 0 25 24" fill="none" xmlns="http://www.w3.org/2000/svg">
<path d="M12.2087 10.75C12.411 10.75 12.6051 10.829 12.7482 10.9697C12.8912 11.1103 12.9716 11.3011 12.9716 11.5V16.5C12.9716 16.6989 12.8912 16.8897 12.7482 17.0303C12.6051 17.171 12.411 17.25 12.2087 17.25C12.0063 17.25 11.8123 17.171 11.6692 17.0303C11.5261 16.8897 11.4457 16.6989 11.4457 16.5V11.5C11.4457 11.3011 11.5261 11.1103 11.6692 10.9697C11.8123 10.829 12.0063 10.75 12.2087 10.75ZM12.2087 9C12.4785 9 12.7372 8.89464 12.928 8.70711C13.1188 8.51957 13.2259 8.26522 13.2259 8C13.2259 7.73478 13.1188 7.48043 12.928 7.29289C12.7372 7.10536 12.4785 7 12.2087 7C11.9389 7 11.6801 7.10536 11.4894 7.29289C11.2986 7.48043 11.1914 7.73478 11.1914 8C11.1914 8.26522 11.2986 8.51957 11.4894 8.70711C11.6801 8.89464 11.9389 9 12.2087 9Z" fill="#5B605E"/>
<path fill-rule="evenodd" clip-rule="evenodd" d="M3.30469 12C3.30469 9.67936 4.24248 7.45376 5.91175 5.81282C7.58102 4.17187 9.84504 3.25 12.2058 3.25C14.5665 3.25 16.8305 4.17187 18.4998 5.81282C20.169 7.45376 21.1068 9.67936 21.1068 12C21.1068 14.3206 20.169 16.5462 18.4998 18.1872C16.8305 19.8281 14.5665 20.75 12.2058 20.75C9.84504 20.75 7.58102 19.8281 5.91175 18.1872C4.24248 16.5462 3.30469 14.3206 3.30469 12ZM12.2058 4.75C11.2372 4.75 10.2782 4.93753 9.3834 5.30187C8.4886 5.66622 7.67557 6.20025 6.99072 6.87348C6.30587 7.5467 5.76262 8.34593 5.39198 9.22554C5.02135 10.1052 4.83058 11.0479 4.83058 12C4.83058 12.9521 5.02135 13.8948 5.39198 14.7745C5.76262 15.6541 6.30587 16.4533 6.99072 17.1265C7.67557 17.7997 8.4886 18.3338 9.3834 18.6981C10.2782 19.0625 11.2372 19.25 12.2058 19.25C14.1618 19.25 16.0377 18.4862 17.4208 17.1265C18.8039 15.7669 19.5809 13.9228 19.5809 12C19.5809 10.0772 18.8039 8.23311 17.4208 6.87348C16.0377 5.51384 14.1618 4.75 12.2058 4.75Z" fill="#5B605E"/>
</svg>
