<svg width="34" height="34" viewBox="0 0 34 34" fill="none" xmlns="http://www.w3.org/2000/svg">
<path fill-rule="evenodd" clip-rule="evenodd" d="M28.8455 26.3217C28.2717 26.8742 27.5096 27.2297 26.6695 27.2907L24.349 27.4564C19.4563 27.8049 14.5451 27.8049 9.65247 27.4564L7.50763 27.3034C6.68389 27.244 5.90321 26.9127 5.28829 26.3613C4.67337 25.81 4.25906 25.07 4.11047 24.2576C3.4911 20.872 3.38508 17.4124 3.79597 13.9952L4.17988 10.7808C4.29072 9.85924 4.73533 9.01018 5.42967 8.39415C6.12402 7.77811 7.01999 7.43779 7.94822 7.4375H11.1952C12.779 7.4375 14.0994 8.568 14.3898 10.0668H26.168C28.0196 10.0668 29.5963 11.4127 29.8867 13.2402L29.9774 13.8068L30.034 14.1667H30.5086C30.9909 14.1666 31.4659 14.2841 31.8924 14.509C32.319 14.734 32.6843 15.0596 32.9565 15.4576C33.2288 15.8557 33.3999 16.3141 33.455 16.7932C33.5101 17.2723 33.4474 17.7576 33.2725 18.207L31.5017 22.7587C30.9534 24.164 30.0351 25.3946 28.844 26.3202M27.7886 13.5731L27.8793 14.1412C27.8793 14.1487 27.8807 14.1567 27.8835 14.1652H14.6915C13.9055 14.1651 13.1377 14.4028 12.4892 14.847C11.8406 15.2912 11.3417 15.9213 11.0578 16.6543L7.75413 25.1883L7.6578 25.1812C7.3043 25.1558 6.96926 25.0137 6.70519 24.7773C6.44111 24.5409 6.26295 24.2236 6.19863 23.8751C5.61762 20.6989 5.51829 17.4532 5.90397 14.2474L6.29072 11.0316C6.34015 10.6266 6.53596 10.2537 6.84126 9.98315C7.14656 9.71256 7.54026 9.56295 7.94822 9.5625H11.1952C11.8185 9.5625 12.3243 10.0682 12.3243 10.6916C12.3243 11.5203 12.9958 12.1933 13.826 12.1933H26.168C26.9755 12.1933 27.6611 12.7769 27.7886 13.5731ZM9.97263 25.3484C14.7085 25.6803 19.462 25.6766 24.1974 25.3371L26.5179 25.1699L26.7941 25.1444L26.7913 25.1416C28.0389 24.4374 29.0045 23.3232 29.524 21.9881L31.2949 17.4363C31.3445 17.3089 31.3622 17.1712 31.3465 17.0353C31.3308 16.8995 31.2822 16.7695 31.2048 16.6567C31.1275 16.5439 31.0238 16.4517 30.9027 16.3881C30.7816 16.3244 30.6468 16.2914 30.51 16.2917H14.6915C13.9605 16.2917 13.3046 16.7407 13.0411 17.4236L9.97263 25.3484Z" fill="#333333"/>
</svg>
