<svg width="48" height="48" viewBox="0 0 48 48" fill="none" xmlns="http://www.w3.org/2000/svg">
<rect x="0.6" y="0.6" width="46.8" height="46.8" rx="23.4" stroke="#006D49" stroke-width="1.2"/>
<path d="M12.1924 29.075C12.1336 29.1908 12.1124 29.3221 12.1317 29.4506C12.1509 29.5791 12.2098 29.6983 12.2999 29.7918C12.3901 29.8853 12.5072 29.9484 12.6349 29.9723C12.7626 29.9961 12.8946 29.9796 13.0124 29.925L16.1362 28.4838C18.7612 27.2713 21.6274 26.7175 24.4874 26.8475C24.5216 27.7667 24.572 28.685 24.6387 29.6025L24.7249 30.775C24.7367 30.9379 24.7906 31.0948 24.8813 31.2306C24.972 31.3664 25.0964 31.4762 25.2423 31.5495C25.3883 31.6227 25.5507 31.6567 25.7137 31.6483C25.8768 31.6398 26.0349 31.5892 26.1724 31.5013C28.7826 29.8316 31.0523 27.6819 32.8612 25.1663L33.4362 24.3663C33.5127 24.2599 33.5538 24.1323 33.5538 24.0013C33.5538 23.8703 33.5127 23.7426 33.4362 23.6363L32.8612 22.8363C31.0524 20.3202 28.7827 18.1701 26.1724 16.5C26.0349 16.4121 25.877 16.3615 25.714 16.353C25.5511 16.3445 25.3887 16.3784 25.2428 16.4515C25.0969 16.5246 24.9725 16.6343 24.8817 16.7698C24.7909 16.9054 24.7369 17.0623 24.7249 17.225L24.6387 18.4C24.5817 19.1868 24.5367 19.9744 24.5037 20.7625H23.6987C21.5036 20.7627 19.3515 21.3713 17.4814 22.5207C15.6113 23.6701 14.0964 25.3154 13.1049 27.2738L12.1924 29.075Z" fill="#006D49"/>
</svg>
