<svg width="24" height="24" viewBox="0 0 24 24" fill="none" xmlns="http://www.w3.org/2000/svg">
<path fill-rule="evenodd" clip-rule="evenodd" d="M7.25023 15.05C7.2461 15.2173 7.29803 15.3811 7.39775 15.5155C7.49748 15.6498 7.63927 15.747 7.80057 15.7915C7.96187 15.836 8.13342 15.8253 8.28792 15.761C8.44243 15.6968 8.57102 15.5827 8.65323 15.437L9.55623 13.837C10.0791 12.9106 10.871 12.1649 11.8271 11.6986C12.7832 11.2324 13.8584 11.0676 14.9102 11.226L15.0592 11.248C15.0859 11.926 15.1239 12.6033 15.1732 13.28L15.2412 14.211C15.2962 14.968 16.1402 15.391 16.7792 14.982C18.8775 13.6423 20.7013 11.9152 22.1532 9.89299L22.6092 9.25799C22.7008 9.13048 22.7501 8.97746 22.7501 8.82049C22.7501 8.66351 22.7008 8.51049 22.6092 8.38299L22.1532 7.74799C20.7017 5.7255 18.8782 3.99804 16.7802 2.65799C16.634 2.5645 16.4659 2.51062 16.2926 2.50162C16.1192 2.49262 15.9465 2.52881 15.7913 2.60664C15.6362 2.68447 15.5039 2.80128 15.4075 2.94561C15.311 3.08994 15.2538 3.25685 15.2412 3.42999L15.1732 4.35999C15.1332 4.90665 15.1009 5.45332 15.0762 5.99999H14.0572C12.2952 5.99999 10.6031 6.68897 9.34226 7.91974C8.0814 9.15052 7.35178 10.8255 7.30923 12.587L7.25023 15.05ZM15.1332 9.74199C13.9569 9.56495 12.7547 9.70191 11.6484 10.139C10.5421 10.5761 9.57089 11.2978 8.83323 12.231C8.96176 10.9347 9.56761 9.73249 10.5331 8.85797C11.4985 7.98345 12.7546 7.49908 14.0572 7.49899H15.7972C15.9915 7.49884 16.1782 7.42329 16.3179 7.28824C16.4576 7.15319 16.5395 6.96918 16.5462 6.77499C16.5722 6.00499 16.6132 5.23665 16.6692 4.46999L16.6752 4.39499C18.3206 5.55742 19.7604 6.9864 20.9352 8.62299L21.0772 8.82099L20.9352 9.01799C19.7604 10.6546 18.3206 12.0836 16.6752 13.246L16.6692 13.171C16.6065 12.3074 16.5625 11.4425 16.5372 10.577C16.5322 10.4012 16.4655 10.2328 16.3489 10.1012C16.2323 9.96962 16.0731 9.88317 15.8992 9.85699L15.1332 9.74199Z" fill="white"/>
<path d="M19.641 17.411C19.759 16.4023 19.8423 15.3917 19.891 14.379C19.8933 14.3247 19.9066 14.2714 19.9302 14.2224C19.9537 14.1734 19.987 14.1297 20.028 14.094C20.392 13.774 20.744 13.4407 21.084 13.094C21.212 12.964 21.435 13.056 21.432 13.238C21.4008 14.6913 21.3007 16.1422 21.132 17.586C20.895 19.608 19.27 21.193 17.258 21.418C13.7633 21.8048 10.2367 21.8048 6.74201 21.418C4.73001 21.193 3.10501 19.608 2.86901 17.586C2.45512 14.0414 2.45512 10.4606 2.86901 6.916C3.10501 4.894 4.72901 3.309 6.74201 3.084C9.05199 2.829 11.3774 2.74211 13.7 2.824C13.896 2.83 14.03 3.022 14.007 3.217L13.994 3.339L13.943 4.043C13.9376 4.12099 13.902 4.19379 13.8437 4.2459C13.7854 4.29801 13.7091 4.32531 13.631 4.322C11.3868 4.24212 9.13983 4.32668 6.90801 4.575C6.26195 4.64651 5.65886 4.93372 5.19617 5.39025C4.73347 5.84678 4.43819 6.44596 4.35801 7.091C3.95687 10.5193 3.95687 13.9827 4.35801 17.411C4.43819 18.056 4.73347 18.6552 5.19617 19.1117C5.65886 19.5683 6.26195 19.8555 6.90801 19.927C10.264 20.302 13.736 20.302 17.092 19.927C17.7381 19.8555 18.3412 19.5683 18.8039 19.1117C19.2666 18.6552 19.5608 18.056 19.641 17.411Z" fill="white"/>
</svg>
