<svg width="24" height="24" viewBox="0 0 24 24" fill="none" xmlns="http://www.w3.org/2000/svg">
<path d="M10.5 16C10.5 15.6022 10.658 15.2206 10.9393 14.9393C11.2206 14.658 11.6022 14.5 12 14.5C12.3978 14.5 12.7794 14.658 13.0607 14.9393C13.342 15.2206 13.5 15.6022 13.5 16C13.5 16.3978 13.342 16.7794 13.0607 17.0607C12.7794 17.342 12.3978 17.5 12 17.5C11.6022 17.5 11.2206 17.342 10.9393 17.0607C10.658 16.7794 10.5 16.3978 10.5 16Z" fill="#333333"/>
<path fill-rule="evenodd" clip-rule="evenodd" d="M7.61909 10.597L7.30309 7.758C7.263 7.3941 7.263 7.0269 7.30309 6.663L7.32609 6.458C7.45434 5.30888 8.00167 4.24736 8.86341 3.47644C9.72516 2.70552 10.8408 2.2793 11.9971 2.2793C13.1533 2.2793 14.269 2.70552 15.1308 3.47644C15.9925 4.24736 16.5398 5.30888 16.6681 6.458L16.6911 6.663C16.7311 7.02767 16.7311 7.39267 16.6911 7.758L16.3751 10.598L17.0621 10.652C17.5882 10.6938 18.0851 10.9108 18.4734 11.2683C18.8617 11.6258 19.119 12.1031 19.2041 12.624C19.57 14.8598 19.57 17.1402 19.2041 19.376C19.119 19.8969 18.8617 20.3742 18.4734 20.7317C18.0851 21.0892 17.5882 21.3062 17.0621 21.348L15.5661 21.468C13.1901 21.658 10.8041 21.658 8.42809 21.468L6.93209 21.348C6.40596 21.3062 5.90905 21.0892 5.52075 20.7317C5.13246 20.3742 4.8752 19.8969 4.79009 19.376C4.42414 17.1402 4.42414 14.8598 4.79009 12.624C4.8752 12.1031 5.13246 11.6258 5.52075 11.2683C5.90905 10.9108 6.40596 10.6938 6.93209 10.652L7.61909 10.597ZM11.6231 3.8C12.0422 3.75074 12.4668 3.78486 12.8727 3.90037C13.2785 4.01589 13.6575 4.21053 13.9878 4.4731C14.3181 4.73566 14.5933 5.06096 14.7974 5.43027C15.0015 5.79958 15.1305 6.20562 15.1771 6.625L15.2001 6.83C15.2281 7.084 15.2281 7.33867 15.2001 7.594L14.8791 10.484C12.9597 10.3608 11.0345 10.3608 9.11509 10.484L8.79509 7.594C8.76721 7.3401 8.76721 7.0839 8.79509 6.83L8.81709 6.625C8.89686 5.90636 9.21765 5.23592 9.7272 4.72292C10.2367 4.20992 10.905 3.88461 11.6231 3.8ZM15.4471 12.029C13.1507 11.8459 10.8434 11.8459 8.54709 12.029L7.05209 12.149C6.86005 12.164 6.6786 12.243 6.53681 12.3733C6.39501 12.5037 6.30109 12.6779 6.27009 12.868C5.93055 14.9429 5.93055 17.0591 6.27009 19.134C6.30089 19.3243 6.39472 19.4987 6.53653 19.6293C6.67834 19.7599 6.85991 19.839 7.05209 19.854L8.54809 19.974C10.8441 20.157 13.1501 20.157 15.4471 19.974L16.9431 19.854C17.1351 19.8388 17.3164 19.7595 17.458 19.629C17.5997 19.4984 17.6933 19.3241 17.7241 19.134C18.0636 17.0591 18.0636 14.9429 17.7241 12.868C17.6933 12.6779 17.5997 12.5036 17.458 12.373C17.3164 12.2425 17.1351 12.1632 16.9431 12.148L15.4471 12.029Z" fill="#333333"/>
</svg>
