<svg width="24" height="24" viewBox="0 0 24 24" fill="none" xmlns="http://www.w3.org/2000/svg">
<path fill-rule="evenodd" clip-rule="evenodd" d="M14.385 15.4463C13.0372 16.5232 11.3281 17.0432 9.60888 16.8994C7.88965 16.7556 6.29075 15.9589 5.14055 14.673C3.99035 13.3872 3.37617 11.7097 3.42415 9.98511C3.47214 8.26054 4.17865 6.61981 5.39857 5.39988C6.6185 4.17996 8.25923 3.47345 9.9838 3.42547C11.7084 3.37748 13.3858 3.99166 14.6717 5.14186C15.9576 6.29206 16.7542 7.89097 16.898 9.6102C17.0419 11.3294 16.5219 13.0385 15.445 14.3863L20.601 19.5413C20.6747 19.61 20.7338 19.6928 20.7748 19.7848C20.8158 19.8768 20.8378 19.9761 20.8396 20.0768C20.8414 20.1775 20.8228 20.2775 20.7851 20.3709C20.7474 20.4643 20.6913 20.5491 20.62 20.6203C20.5488 20.6916 20.464 20.7477 20.3706 20.7854C20.2772 20.8232 20.1772 20.8417 20.0765 20.8399C19.9758 20.8381 19.8765 20.8161 19.7845 20.7751C19.6925 20.7341 19.6097 20.675 19.541 20.6013L14.385 15.4463ZM6.459 13.8843C5.72504 13.1503 5.22515 12.2151 5.02251 11.1971C4.81987 10.179 4.92357 9.12374 5.32051 8.16461C5.71745 7.20547 6.3898 6.38553 7.25261 5.80841C8.11541 5.23129 9.12994 4.92289 10.168 4.92219C11.206 4.92149 12.2209 5.22853 13.0845 5.80449C13.9481 6.38045 14.6216 7.19948 15.0198 8.15808C15.418 9.11668 15.5231 10.1718 15.3219 11.1901C15.1206 12.2085 14.622 13.1443 13.889 13.8793L13.884 13.8843L13.879 13.8883C12.8941 14.8709 11.5594 15.4224 10.1682 15.4217C8.77691 15.4209 7.44284 14.868 6.459 13.8843Z" fill="#333333"/>
</svg>
