<svg width="185" height="46" viewBox="0 0 185 46" fill="none" xmlns="http://www.w3.org/2000/svg">
<g filter="url(#filter0_b_349_5849)">
<rect width="185" height="46" rx="20" fill="white" fill-opacity="0.5"/>
<path d="M22.0791 28V14H27.0391C28.1458 14 29.0158 14.18 29.6491 14.54C30.2825 14.8933 30.7325 15.3533 30.9991 15.92C31.2658 16.4867 31.3991 17.08 31.3991 17.7C31.3991 18.34 31.2191 18.9167 30.8591 19.43C30.4991 19.9433 29.9925 20.34 29.3391 20.62C29.8791 20.7867 30.3391 21.0333 30.7191 21.36C31.1058 21.68 31.3991 22.0633 31.5991 22.51C31.7991 22.9567 31.8991 23.4467 31.8991 23.98C31.8991 24.4533 31.8225 24.9267 31.6691 25.4C31.5158 25.8733 31.2625 26.3067 30.9091 26.7C30.5625 27.0933 30.0958 27.41 29.5091 27.65C28.9291 27.8833 28.2125 28 27.3591 28H22.0791ZM23.8191 26.4H27.5591C28.2458 26.4 28.7791 26.2867 29.1591 26.06C29.5391 25.8333 29.8025 25.5433 29.9491 25.19C30.1025 24.8367 30.1791 24.4733 30.1791 24.1C30.1791 23.6533 30.0891 23.2333 29.9091 22.84C29.7291 22.4467 29.4025 22.13 28.9291 21.89C28.4625 21.6433 27.7925 21.52 26.9191 21.52H23.8191V26.4ZM23.8191 19.94H26.6991C27.6925 19.94 28.4358 19.7367 28.9291 19.33C29.4291 18.9233 29.6791 18.3867 29.6791 17.72C29.6791 17.38 29.6125 17.0467 29.4791 16.72C29.3525 16.3867 29.1058 16.1133 28.7391 15.9C28.3725 15.6867 27.8391 15.58 27.1391 15.58H23.8191V19.94ZM38.7199 28.24C37.8399 28.24 37.0833 28.0267 36.4499 27.6C35.8166 27.1667 35.3299 26.5533 34.9899 25.76C34.6499 24.96 34.4799 24.0067 34.4799 22.9C34.4799 21.7867 34.6533 20.83 34.9999 20.03C35.3466 19.23 35.8399 18.6167 36.4799 18.19C37.1266 17.7567 37.8999 17.54 38.7999 17.54C39.6799 17.54 40.4266 17.7433 41.0399 18.15C41.6533 18.5567 42.0999 19.1467 42.3799 19.92L40.7399 20.52C40.5733 20.08 40.3233 19.7433 39.9899 19.51C39.6633 19.2767 39.2733 19.16 38.8199 19.16C37.9933 19.16 37.3599 19.48 36.9199 20.12C36.4799 20.76 36.2599 21.6867 36.2599 22.9C36.2599 24.0867 36.4766 25 36.9099 25.64C37.3433 26.28 37.9599 26.6 38.7599 26.6C39.2733 26.6 39.7099 26.4667 40.0699 26.2C40.4366 25.9333 40.6933 25.56 40.8399 25.08L42.4599 25.62C42.2133 26.46 41.7633 27.1067 41.1099 27.56C40.4566 28.0133 39.6599 28.24 38.7199 28.24ZM49.098 28.24C48.1647 28.24 47.358 28.01 46.678 27.55C45.998 27.09 45.4747 26.4567 45.108 25.65C44.7414 24.8433 44.558 23.92 44.558 22.88C44.558 21.7533 44.748 20.7933 45.128 20C45.508 19.2 46.038 18.59 46.718 18.17C47.398 17.75 48.1914 17.54 49.098 17.54C49.8647 17.54 50.568 17.7133 51.208 18.06C51.848 18.4 52.358 18.93 52.738 19.65C53.1247 20.3633 53.318 21.28 53.318 22.4C53.318 22.56 53.3114 22.7467 53.298 22.96C53.2914 23.1667 53.278 23.38 53.258 23.6H46.338C46.4047 24.22 46.558 24.7633 46.798 25.23C47.038 25.6967 47.3547 26.0633 47.748 26.33C48.1414 26.59 48.6047 26.72 49.138 26.72C49.5714 26.72 49.9714 26.6433 50.338 26.49C50.7114 26.3367 51.058 26.1 51.378 25.78L52.398 26.92C52.018 27.3 51.5447 27.6167 50.978 27.87C50.418 28.1167 49.7914 28.24 49.098 28.24ZM46.318 22.08H51.558C51.558 21.5 51.4614 20.9833 51.268 20.53C51.0814 20.07 50.8047 19.71 50.438 19.45C50.0714 19.19 49.6247 19.06 49.098 19.06C48.358 19.06 47.7214 19.3 47.188 19.78C46.6614 20.26 46.3714 21.0267 46.318 22.08ZM60.6268 28V17.78H62.3668V21.98H67.4268V17.78H69.1668V28H67.4268V23.5H62.3668V28H60.6268ZM76.5195 28.24C75.1195 28.24 74.0161 27.7633 73.2095 26.81C72.4028 25.85 71.9995 24.5467 71.9995 22.9C71.9995 21.8 72.1828 20.85 72.5495 20.05C72.9161 19.25 73.4361 18.6333 74.1095 18.2C74.7895 17.76 75.5928 17.54 76.5195 17.54C77.4528 17.54 78.2561 17.7567 78.9295 18.19C79.6095 18.6167 80.1295 19.23 80.4895 20.03C80.8561 20.83 81.0395 21.78 81.0395 22.88C81.0395 23.98 80.8561 24.9333 80.4895 25.74C80.1228 26.54 79.5995 27.1567 78.9195 27.59C78.2461 28.0233 77.4461 28.24 76.5195 28.24ZM76.5195 26.62C77.3795 26.62 78.0528 26.29 78.5395 25.63C79.0328 24.9633 79.2795 24.0467 79.2795 22.88C79.2795 21.7067 79.0328 20.79 78.5395 20.13C78.0528 19.47 77.3795 19.14 76.5195 19.14C75.6528 19.14 74.9761 19.47 74.4895 20.13C74.0028 20.7833 73.7595 21.7067 73.7595 22.9C73.7595 24.0667 74.0028 24.98 74.4895 25.64C74.9761 26.2933 75.6528 26.62 76.5195 26.62ZM83.8495 28V17.78H88.4495C89.1295 17.78 89.7095 17.8933 90.1895 18.12C90.6695 18.34 91.0361 18.6533 91.2895 19.06C91.5428 19.46 91.6695 19.9333 91.6695 20.48C91.6695 20.9667 91.5428 21.4033 91.2895 21.79C91.0428 22.17 90.6895 22.4467 90.2295 22.62C90.8295 22.8067 91.2828 23.1033 91.5895 23.51C91.8961 23.91 92.0495 24.4067 92.0495 25C92.0495 25.5867 91.9195 26.1067 91.6595 26.56C91.3995 27.0067 91.0161 27.36 90.5095 27.62C90.0095 27.8733 89.3961 28 88.6695 28H83.8495ZM85.5895 26.48H88.5695C88.9295 26.48 89.2361 26.4233 89.4895 26.31C89.7428 26.19 89.9361 26.02 90.0695 25.8C90.2028 25.5733 90.2695 25.3 90.2695 24.98C90.2695 24.66 90.1861 24.39 90.0195 24.17C89.8595 23.95 89.6195 23.7833 89.2995 23.67C88.9861 23.5567 88.5961 23.5 88.1295 23.5H85.5895V26.48ZM85.5895 21.98H87.9895C88.6095 21.98 89.0795 21.87 89.3995 21.65C89.7261 21.4233 89.8895 21.1067 89.8895 20.7C89.8895 20.4067 89.8261 20.1567 89.6995 19.95C89.5728 19.7367 89.3861 19.5767 89.1395 19.47C88.8995 19.3567 88.6095 19.3 88.2695 19.3H85.5895V21.98ZM98.9804 28.24C97.5804 28.24 96.4771 27.7633 95.6704 26.81C94.8637 25.85 94.4604 24.5467 94.4604 22.9C94.4604 21.8 94.6437 20.85 95.0104 20.05C95.3771 19.25 95.8971 18.6333 96.5704 18.2C97.2504 17.76 98.0537 17.54 98.9804 17.54C99.9137 17.54 100.717 17.7567 101.39 18.19C102.07 18.6167 102.59 19.23 102.95 20.03C103.317 20.83 103.5 21.78 103.5 22.88C103.5 23.98 103.317 24.9333 102.95 25.74C102.584 26.54 102.06 27.1567 101.38 27.59C100.707 28.0233 99.9071 28.24 98.9804 28.24ZM98.9804 26.62C99.8404 26.62 100.514 26.29 101 25.63C101.494 24.9633 101.74 24.0467 101.74 22.88C101.74 21.7067 101.494 20.79 101 20.13C100.514 19.47 99.8404 19.14 98.9804 19.14C98.1137 19.14 97.4371 19.47 96.9504 20.13C96.4637 20.7833 96.2204 21.7067 96.2204 22.9C96.2204 24.0667 96.4637 24.98 96.9504 25.64C97.4371 26.2933 98.1137 26.62 98.9804 26.62ZM110.009 28.24C109.129 28.24 108.372 28.0267 107.739 27.6C107.106 27.1667 106.619 26.5533 106.279 25.76C105.939 24.96 105.769 24.0067 105.769 22.9C105.769 21.7867 105.942 20.83 106.289 20.03C106.636 19.23 107.129 18.6167 107.769 18.19C108.416 17.7567 109.189 17.54 110.089 17.54C110.969 17.54 111.716 17.7433 112.329 18.15C112.942 18.5567 113.389 19.1467 113.669 19.92L112.029 20.52C111.862 20.08 111.612 19.7433 111.279 19.51C110.952 19.2767 110.562 19.16 110.109 19.16C109.282 19.16 108.649 19.48 108.209 20.12C107.769 20.76 107.549 21.6867 107.549 22.9C107.549 24.0867 107.766 25 108.199 25.64C108.632 26.28 109.249 26.6 110.049 26.6C110.562 26.6 110.999 26.4667 111.359 26.2C111.726 25.9333 111.982 25.56 112.129 25.08L113.749 25.62C113.502 26.46 113.052 27.1067 112.399 27.56C111.746 28.0133 110.949 28.24 110.009 28.24ZM118.603 28V19.3H115.543V17.78H123.403V19.3H120.343V28H118.603ZM125.783 28V17.78H127.523V24.94L132.483 17.78H134.223V28H132.483V20.86L127.523 28H125.783Z" fill="white"/>
<path fill-rule="evenodd" clip-rule="evenodd" d="M148.46 27.82C148.351 27.7079 148.281 27.5649 148.257 27.4107C148.234 27.2566 148.259 27.099 148.33 26.96L149.032 25.574C149.846 23.9661 151.09 22.6153 152.626 21.6718C154.161 20.7282 155.929 20.2288 157.731 20.229H158.076C158.101 19.6823 158.133 19.1363 158.173 18.591L158.241 17.66C158.254 17.4869 158.311 17.3201 158.407 17.1759C158.504 17.0317 158.636 16.9151 158.791 16.8373C158.946 16.7596 159.119 16.7235 159.292 16.7326C159.466 16.7416 159.634 16.7955 159.78 16.889C161.878 18.2287 163.701 19.9558 165.153 21.978L165.609 22.613C165.7 22.7405 165.75 22.8935 165.75 23.0505C165.75 23.2074 165.7 23.3605 165.609 23.488L165.153 24.123C163.701 26.1451 161.878 27.8722 159.78 29.212C159.634 29.3054 159.466 29.3593 159.292 29.3683C159.119 29.3774 158.946 29.3413 158.791 29.2636C158.636 29.1859 158.504 29.0692 158.407 28.925C158.311 28.7808 158.254 28.614 158.241 28.441L158.173 27.511C158.126 26.8592 158.089 26.2068 158.062 25.554C155.901 25.4915 153.755 25.9303 151.792 26.836L149.314 27.98C149.172 28.0452 149.014 28.0649 148.861 28.0362C148.708 28.0075 148.568 27.932 148.46 27.82ZM150.678 25.698L151.163 25.474C153.564 24.3662 156.208 23.8912 158.845 24.094C159.029 24.1082 159.202 24.1901 159.33 24.3239C159.457 24.4577 159.531 24.634 159.537 24.819C159.562 25.6803 159.606 26.541 159.669 27.401L159.675 27.476C161.32 26.3135 162.76 24.8845 163.935 23.248L164.077 23.05L163.935 22.853C162.76 21.2164 161.32 19.7874 159.675 18.625L159.669 18.7C159.613 19.4671 159.572 20.2352 159.546 21.004C159.539 21.1985 159.457 21.3829 159.318 21.5182C159.178 21.6535 158.99 21.7291 158.796 21.729H157.731C156.313 21.7288 154.92 22.094 153.684 22.7892C152.449 23.4844 151.413 24.4862 150.678 25.698Z" fill="white"/>
</g>
<defs>
<filter id="filter0_b_349_5849" x="-6" y="-6" width="197" height="58" filterUnits="userSpaceOnUse" color-interpolation-filters="sRGB">
<feFlood flood-opacity="0" result="BackgroundImageFix"/>
<feGaussianBlur in="BackgroundImageFix" stdDeviation="3"/>
<feComposite in2="SourceAlpha" operator="in" result="effect1_backgroundBlur_349_5849"/>
<feBlend mode="normal" in="SourceGraphic" in2="effect1_backgroundBlur_349_5849" result="shape"/>
</filter>
</defs>
</svg>
