<svg width="24" height="24" viewBox="0 0 24 24" fill="none" xmlns="http://www.w3.org/2000/svg">
<path fill-rule="evenodd" clip-rule="evenodd" d="M2.45997 16.82C2.35161 16.7079 2.28087 16.5649 2.25757 16.4107C2.23427 16.2566 2.25958 16.099 2.32997 15.96L3.03197 14.574C3.84625 12.9661 5.09028 11.6153 6.62591 10.6718C8.16153 9.72824 9.92863 9.22881 11.731 9.22896H12.076C12.1006 8.68229 12.133 8.13629 12.173 7.59096L12.241 6.65996C12.2536 6.48691 12.3111 6.32012 12.4076 6.17592C12.5041 6.03172 12.6363 5.91505 12.7915 5.83733C12.9466 5.75962 13.1193 5.72352 13.2925 5.73256C13.4658 5.74161 13.6338 5.7955 13.78 5.88896C15.8779 7.22871 17.7014 8.95583 19.153 10.978L19.609 11.613C19.7005 11.7405 19.7498 11.8935 19.7498 12.0505C19.7498 12.2074 19.7005 12.3605 19.609 12.488L19.153 13.123C17.7014 15.1451 15.8779 16.8722 13.78 18.212C13.6338 18.3054 13.4658 18.3593 13.2925 18.3683C13.1193 18.3774 12.9466 18.3413 12.7915 18.2636C12.6363 18.1859 12.5041 18.0692 12.4076 17.925C12.3111 17.7808 12.2536 17.614 12.241 17.441L12.173 16.511C12.1257 15.8592 12.0887 15.2068 12.062 14.554C9.90102 14.4915 7.75495 14.9303 5.79197 15.836L3.31397 16.98C3.17262 17.0452 3.01446 17.0649 2.86144 17.0362C2.70841 17.0075 2.5681 16.932 2.45997 16.82ZM4.67797 14.698L5.16297 14.474C7.564 13.3662 10.2085 12.8912 12.845 13.094C13.0294 13.1082 13.2021 13.1901 13.3298 13.3239C13.4576 13.4577 13.5313 13.634 13.537 13.819C13.5623 14.6803 13.6063 15.541 13.669 16.401L13.675 16.476C15.3204 15.3135 16.7602 13.8845 17.935 12.248L18.077 12.05L17.935 11.853C16.7602 10.2164 15.3204 8.78739 13.675 7.62496L13.669 7.69996C13.6132 8.4671 13.5722 9.23524 13.546 10.004C13.5395 10.1985 13.4576 10.3829 13.3176 10.5182C13.1777 10.6535 12.9906 10.7291 12.796 10.729H11.731C10.3134 10.7288 8.91973 11.094 7.68435 11.7892C6.44896 12.4844 5.41355 13.4862 4.67797 14.698Z" fill="white"/>
</svg>
