<svg width="24" height="24" viewBox="0 0 24 24" fill="none" xmlns="http://www.w3.org/2000/svg">
<path fill-rule="evenodd" clip-rule="evenodd" d="M20.5292 4.53082C20.6617 4.38865 20.7338 4.2006 20.7304 4.0063C20.7269 3.812 20.6482 3.62661 20.5108 3.4892C20.3734 3.35179 20.188 3.27308 19.9937 3.26965C19.7994 3.26622 19.6114 3.33834 19.4692 3.47082L3.46918 19.4708C3.39549 19.5395 3.33639 19.6223 3.2954 19.7143C3.2544 19.8063 3.23236 19.9056 3.23059 20.0063C3.22881 20.107 3.24733 20.207 3.28505 20.3004C3.32278 20.3938 3.37892 20.4786 3.45014 20.5499C3.52136 20.6211 3.60619 20.6772 3.69958 20.7149C3.79297 20.7527 3.893 20.7712 3.9937 20.7694C4.0944 20.7676 4.19372 20.7456 4.28572 20.7046C4.37771 20.6636 4.46052 20.6045 4.52918 20.5308L7.37618 17.6838C8.74318 18.3278 10.3162 18.7508 11.9992 18.7508C14.6832 18.7508 17.0892 17.6738 18.8192 16.3458C19.6862 15.6808 20.4022 14.9388 20.9082 14.2098C21.4002 13.5008 21.7492 12.7238 21.7492 12.0008C21.7492 11.2778 21.3992 10.5008 20.9082 9.79182C20.4022 9.06282 19.6862 8.32182 18.8202 7.65582C18.5575 7.45382 18.2802 7.25949 17.9882 7.07282L20.5292 4.53082ZM16.8992 8.16182L15.1282 9.93282C15.6056 10.654 15.8192 11.518 15.7326 12.3785C15.646 13.239 15.2646 14.0432 14.6531 14.6547C14.0415 15.2663 13.2374 15.6477 12.3768 15.7342C11.5163 15.8208 10.6523 15.6073 9.93118 15.1298L8.51418 16.5458C9.61969 17.0028 10.803 17.2421 11.9992 17.2508C14.2862 17.2508 16.3792 16.3278 17.9062 15.1558C18.6682 14.5708 19.2702 13.9378 19.6762 13.3548C20.0952 12.7508 20.2492 12.2778 20.2492 12.0008C20.2492 11.7238 20.0952 11.2508 19.6762 10.6468C19.2702 10.0638 18.6682 9.43082 17.9062 8.84582C17.5928 8.60516 17.2578 8.37716 16.8992 8.16182ZM11.0282 14.0318C11.448 14.2323 11.9197 14.2978 12.3783 14.2191C12.8369 14.1404 13.2598 13.9215 13.5888 13.5925C13.9178 13.2635 14.1368 12.8406 14.2154 12.382C14.2941 11.9234 14.2287 11.4517 14.0282 11.0318L11.0282 14.0318Z" fill="#004529"/>
<path d="M12 5.25C13.032 5.25 14.024 5.41 14.951 5.681C14.9916 5.69311 15.0283 5.71562 15.0575 5.74629C15.0867 5.77697 15.1074 5.81474 15.1175 5.85588C15.1276 5.89701 15.1268 5.94007 15.1151 5.98078C15.1035 6.0215 15.0814 6.05846 15.051 6.088L14.227 6.913C14.1966 6.94368 14.1589 6.96597 14.1173 6.97771C14.0758 6.98945 14.0319 6.99024 13.99 6.98C13.3373 6.82952 12.6698 6.75237 12 6.75C9.713 6.75 7.62 7.673 6.093 8.845C5.331 9.43 4.729 10.063 4.323 10.646C3.904 11.25 3.75 11.723 3.75 12C3.75 12.277 3.904 12.75 4.323 13.354C4.677 13.864 5.181 14.411 5.811 14.931C5.927 15.026 5.938 15.201 5.831 15.308L5.123 16.017C5.07964 16.061 5.02132 16.087 4.95962 16.09C4.89793 16.093 4.83738 16.0726 4.79 16.033C4.14601 15.5023 3.57476 14.889 3.091 14.209C2.6 13.5 2.25 12.723 2.25 12C2.25 11.277 2.6 10.5 3.091 9.791C3.597 9.062 4.313 8.321 5.179 7.655C6.91 6.327 9.316 5.25 12 5.25Z" fill="#004529"/>
<path d="M12.0005 8.25C12.1191 8.25 12.2361 8.25533 12.3515 8.266C12.5485 8.285 12.6195 8.52 12.4805 8.66L11.2675 9.872C10.9446 9.98393 10.6513 10.1676 10.4097 10.4092C10.1681 10.6509 9.9844 10.9441 9.87246 11.267L8.66046 12.48C8.52046 12.62 8.28546 12.548 8.26646 12.351C8.2176 11.8312 8.27781 11.3069 8.44324 10.8117C8.60868 10.3166 8.87569 9.86137 9.22718 9.47532C9.57868 9.08928 10.0069 8.78089 10.4845 8.56989C10.962 8.35889 11.4784 8.24994 12.0005 8.25Z" fill="#004529"/>
</svg>
