<svg width="100" height="100" viewBox="0 0 100 100" fill="none" xmlns="http://www.w3.org/2000/svg">
<rect width="100" height="100" rx="50" fill="white" fill-opacity="0.7"/>
<path d="M30 48.5C29.1716 48.5 28.5 49.1716 28.5 50C28.5 50.8284 29.1716 51.5 30 51.5L30 48.5ZM71.0607 51.0607C71.6464 50.4749 71.6464 49.5251 71.0607 48.9393L61.5147 39.3934C60.9289 38.8076 59.9792 38.8076 59.3934 39.3934C58.8076 39.9792 58.8076 40.9289 59.3934 41.5147L67.8787 50L59.3934 58.4853C58.8076 59.0711 58.8076 60.0208 59.3934 60.6066C59.9792 61.1924 60.9289 61.1924 61.5147 60.6066L71.0607 51.0607ZM30 51.5L70 51.5L70 48.5L30 48.5L30 51.5Z" fill="white"/>
</svg>
