<svg width="55" height="41" viewBox="0 0 55 41" fill="none" xmlns="http://www.w3.org/2000/svg">
<path d="M31.9811 14.5721C31.8552 14.4548 31.7543 14.3134 31.6843 14.1562C31.6142 13.9991 31.5766 13.8294 31.5735 13.6574C31.5705 13.4853 31.6021 13.3145 31.6666 13.1549C31.731 12.9954 31.8269 12.8505 31.9486 12.7288C32.0703 12.6071 32.2152 12.5112 32.3747 12.4468C32.5343 12.3823 32.7052 12.3507 32.8772 12.3537C33.0492 12.3568 33.2189 12.3944 33.376 12.4644C33.5332 12.5345 33.6747 12.6354 33.792 12.7613L40.6253 19.5946C40.8652 19.8349 41 20.1605 41 20.5001C41 20.8396 40.8652 21.1652 40.6253 21.4055L33.792 28.2388C33.6747 28.3647 33.5332 28.4657 33.376 28.5357C33.2189 28.6057 33.0492 28.6434 32.8772 28.6464C32.7052 28.6494 32.5343 28.6178 32.3747 28.5534C32.2152 28.4889 32.0703 28.393 31.9486 28.2713C31.8269 28.1497 31.731 28.0047 31.6666 27.8452C31.6021 27.6857 31.5705 27.5148 31.5735 27.3428C31.5766 27.1707 31.6142 27.0011 31.6843 26.8439C31.7543 26.6867 31.8552 26.5453 31.9811 26.428L36.6278 21.7813H15.6055C15.2657 21.7813 14.9398 21.6463 14.6995 21.406C14.6995 21.406 14.3242 20.8399 14.3242 20.5001C14.3242 20.1603 14.4592 19.8344 14.6995 19.5941C14.9398 19.3538 15.2657 19.2188 15.6055 19.2188H36.6278L31.9811 14.5721Z" fill="white"/>
</svg>
