<svg width="24" height="24" viewBox="0 0 24 24" fill="none" xmlns="http://www.w3.org/2000/svg">
<path d="M10 2.25C9.80109 2.25 9.61032 2.32902 9.46967 2.46967C9.32902 2.61032 9.25 2.80109 9.25 3V3.75H5C4.80109 3.75 4.61032 3.82902 4.46967 3.96967C4.32902 4.11032 4.25 4.30109 4.25 4.5C4.25 4.69891 4.32902 4.88968 4.46967 5.03033C4.61032 5.17098 4.80109 5.25 5 5.25H19C19.1989 5.25 19.3897 5.17098 19.5303 5.03033C19.671 4.88968 19.75 4.69891 19.75 4.5C19.75 4.30109 19.671 4.11032 19.5303 3.96967C19.3897 3.82902 19.1989 3.75 19 3.75H14.75V3C14.75 2.80109 14.671 2.61032 14.5303 2.46967C14.3897 2.32902 14.1989 2.25 14 2.25H10ZM13.06 15L14.53 16.47C14.6037 16.5387 14.6628 16.6215 14.7038 16.7135C14.7448 16.8055 14.7668 16.9048 14.7686 17.0055C14.7704 17.1062 14.7518 17.2062 14.7141 17.2996C14.6764 17.393 14.6203 17.4778 14.549 17.549C14.4778 17.6203 14.393 17.6764 14.2996 17.7141C14.2062 17.7518 14.1062 17.7704 14.0055 17.7686C13.9048 17.7668 13.8055 17.7448 13.7135 17.7038C13.6215 17.6628 13.5387 17.6037 13.47 17.53L12 16.06L10.53 17.53C10.4613 17.6037 10.3785 17.6628 10.2865 17.7038C10.1945 17.7448 10.0952 17.7668 9.99452 17.7686C9.89382 17.7704 9.79379 17.7518 9.7004 17.7141C9.60701 17.6764 9.52218 17.6203 9.45096 17.549C9.37974 17.4778 9.3236 17.393 9.28588 17.2996C9.24816 17.2062 9.22963 17.1062 9.23141 17.0055C9.23318 16.9048 9.25523 16.8055 9.29622 16.7135C9.33721 16.6215 9.39631 16.5387 9.47 16.47L10.94 15L9.47 13.53C9.39631 13.4613 9.33721 13.3785 9.29622 13.2865C9.25523 13.1945 9.23318 13.0952 9.23141 12.9945C9.22963 12.8938 9.24816 12.7938 9.28588 12.7004C9.3236 12.607 9.37974 12.5222 9.45096 12.451C9.52218 12.3797 9.60701 12.3236 9.7004 12.2859C9.79379 12.2482 9.89382 12.2296 9.99452 12.2314C10.0952 12.2332 10.1945 12.2552 10.2865 12.2962C10.3785 12.3372 10.4613 12.3963 10.53 12.47L12 13.94L13.47 12.47C13.5387 12.3963 13.6215 12.3372 13.7135 12.2962C13.8055 12.2552 13.9048 12.2332 14.0055 12.2314C14.1062 12.2296 14.2062 12.2482 14.2996 12.2859C14.393 12.3236 14.4778 12.3797 14.549 12.451C14.6203 12.5222 14.6764 12.607 14.7141 12.7004C14.7518 12.7938 14.7704 12.8938 14.7686 12.9945C14.7668 13.0952 14.7448 13.1945 14.7038 13.2865C14.6628 13.3785 14.6037 13.4613 14.53 13.53L13.06 15Z" fill="#333333"/>
<path fill-rule="evenodd" clip-rule="evenodd" d="M5.99108 7.917C6.01152 7.73349 6.09893 7.56396 6.23658 7.44089C6.37423 7.31782 6.55244 7.24985 6.73708 7.25H17.2631C17.4477 7.24985 17.6259 7.31782 17.7636 7.44089C17.9012 7.56396 17.9886 7.73349 18.0091 7.917L18.2091 9.719C18.5721 12.984 18.5721 16.279 18.2091 19.545L18.1891 19.722C18.1195 20.3522 17.8418 20.9412 17.3998 21.3958C16.9579 21.8504 16.377 22.1446 15.7491 22.232C13.2619 22.5807 10.7383 22.5807 8.25108 22.232C7.62313 22.1446 7.04224 21.8504 6.60032 21.3958C6.15839 20.9412 5.88067 20.3522 5.81108 19.722L5.79108 19.545C5.42836 16.2797 5.42836 12.9843 5.79108 9.719L5.99108 7.917ZM7.40808 8.75L7.28208 9.884C6.93157 13.0393 6.93157 16.2237 7.28208 19.379L7.30208 19.556C7.33467 19.855 7.46621 20.1346 7.67582 20.3504C7.88543 20.5662 8.1611 20.7058 8.45908 20.747C10.8091 21.076 13.1921 21.076 15.5411 20.747C15.8389 20.7058 16.1145 20.5664 16.3241 20.3508C16.5337 20.1352 16.6653 19.8559 16.6981 19.557L16.7181 19.379C17.0681 16.224 17.0681 13.039 16.7181 9.884L16.5921 8.75H7.40808Z" fill="#333333"/>
</svg>
