<svg width="23" height="24" viewBox="0 0 23 24" fill="none" xmlns="http://www.w3.org/2000/svg">
<path d="M10.0052 9.646C10.2207 9.646 10.4274 9.7316 10.5797 9.88397C10.7321 10.0363 10.8177 10.243 10.8177 10.4585V15.8752C10.8177 16.0907 10.7321 16.2973 10.5797 16.4497C10.4274 16.6021 10.2207 16.6877 10.0052 16.6877C9.78972 16.6877 9.58306 16.6021 9.43068 16.4497C9.27831 16.2973 9.19271 16.0907 9.19271 15.8752V10.4585C9.19271 10.243 9.27831 10.0363 9.43068 9.88397C9.58306 9.7316 9.78972 9.646 10.0052 9.646ZM10.0052 7.75016C10.2925 7.75016 10.5681 7.63603 10.7712 7.43286C10.9744 7.2297 11.0885 6.95415 11.0885 6.66683C11.0885 6.37951 10.9744 6.10396 10.7712 5.9008C10.5681 5.69763 10.2925 5.5835 10.0052 5.5835C9.71789 5.5835 9.44234 5.69763 9.23918 5.9008C9.03601 6.10396 8.92188 6.37951 8.92188 6.66683C8.92188 6.95415 9.03601 7.2297 9.23918 7.43286C9.44234 7.63603 9.71789 7.75016 10.0052 7.75016Z" fill="#333333"/>
<path fill-rule="evenodd" clip-rule="evenodd" d="M4.92865 2.08309C8.30049 1.70928 11.7033 1.70928 15.0752 2.08309C17.0544 2.30409 18.6523 3.86193 18.8842 5.85309C19.285 9.27209 19.285 12.7279 18.8842 16.148C18.6512 18.137 17.0533 19.6959 15.0752 19.918C11.7033 20.2918 8.30049 20.2918 4.92865 19.918C2.9494 19.6959 1.35149 18.137 1.11965 16.148C0.720532 12.7276 0.720532 9.27241 1.11965 5.85201C1.35149 3.86193 2.95049 2.30409 4.92865 2.08201M14.8953 3.69618C11.643 3.33567 8.36081 3.33567 5.10849 3.69618C4.50642 3.76297 3.94445 4.03079 3.51336 4.45637C3.08228 4.88195 2.80726 5.44043 2.73274 6.04159C2.34743 9.33598 2.34743 12.664 2.73274 15.9584C2.80771 16.5592 3.08293 17.1172 3.51398 17.5423C3.94502 17.9675 4.50674 18.235 5.10849 18.3017C8.33357 18.6624 11.6702 18.6624 14.8953 18.3017C15.4969 18.2348 16.0583 17.9671 16.4892 17.542C16.92 17.1169 17.1951 16.559 17.27 15.9584C17.6553 12.664 17.6553 9.33598 17.27 6.04159C17.1953 5.44079 16.9203 4.88268 16.4895 4.45734C16.0586 4.032 15.497 3.76315 14.8953 3.69618Z" fill="#333333"/>
</svg>
