<svg width="14" height="15" viewBox="0 0 14 15" fill="none" xmlns="http://www.w3.org/2000/svg">
<g clip-path="url(#clip0_2004_41566)">
<path d="M8.23742 7.50022L13.7439 1.99438C14.0857 1.65257 14.0857 1.09838 13.7439 0.756602C13.4021 0.414792 12.8479 0.414792 12.5061 0.756602L7.00022 6.26302L1.49438 0.756602C1.15257 0.414792 0.598385 0.414792 0.256602 0.756602C-0.0851811 1.09841 -0.0852084 1.65259 0.256602 1.99438L5.76302 7.50022L0.256602 13.0061C-0.0852084 13.3479 -0.0852084 13.9021 0.256602 14.2439C0.598412 14.5857 1.15259 14.5857 1.49438 14.2439L7.00022 8.73742L12.5061 14.2439C12.8479 14.5857 13.4021 14.5857 13.7438 14.2439C14.0857 13.9021 14.0857 13.3479 13.7438 13.0061L8.23742 7.50022Z" fill="#333333"/>
</g>
<defs>
<clipPath id="clip0_2004_41566">
<rect width="14" height="14" fill="white" transform="translate(0 0.5)"/>
</clipPath>
</defs>
</svg>
