<svg width="10" height="7" viewBox="0 0 10 7" fill="none" xmlns="http://www.w3.org/2000/svg">
<path fill-rule="evenodd" clip-rule="evenodd" d="M9.53015 0.969971C9.6706 1.1106 9.74949 1.30122 9.74949 1.49997C9.74949 1.69872 9.6706 1.88935 9.53015 2.02997L5.53015 6.02997C5.38953 6.17042 5.1989 6.24931 5.00015 6.24931C4.8014 6.24931 4.61078 6.17042 4.47015 6.02997L0.470153 2.02997C0.396466 1.96131 0.337364 1.87851 0.296372 1.78651C0.25538 1.69451 0.233339 1.5952 0.231562 1.49449C0.229785 1.39379 0.24831 1.29376 0.286031 1.20037C0.323752 1.10698 0.379896 1.02215 0.451115 0.950933C0.522334 0.879714 0.607168 0.823569 0.700556 0.785848C0.793944 0.748127 0.893973 0.729602 0.994676 0.731379C1.09538 0.733156 1.19469 0.755198 1.28669 0.79619C1.37869 0.837182 1.46149 0.896284 1.53015 0.969971L5.00015 4.43997L8.47015 0.969971C8.61078 0.829521 8.8014 0.750631 9.00015 0.750631C9.1989 0.750631 9.38953 0.829521 9.53015 0.969971Z" fill="#004529"/>
</svg>
