<svg width="22" height="21" viewBox="0 0 22 21" fill="none" xmlns="http://www.w3.org/2000/svg">
<path fill-rule="evenodd" clip-rule="evenodd" d="M5.1667 0.791992C5.39877 0.791992 5.62133 0.884179 5.78542 1.04827C5.94951 1.21237 6.0417 1.43493 6.0417 1.66699V3.61299C9.34075 3.31974 12.6593 3.31974 15.9584 3.61299V1.66699C15.9584 1.43493 16.0506 1.21237 16.2146 1.04827C16.3787 0.884179 16.6013 0.791992 16.8334 0.791992C17.0654 0.791992 17.288 0.884179 17.4521 1.04827C17.6162 1.21237 17.7084 1.43493 17.7084 1.66699V3.78566C18.5595 3.90636 19.3478 4.30228 19.9528 4.91298C20.5578 5.52368 20.9463 6.3156 21.059 7.16783L21.1605 7.92966C21.5852 11.1333 21.5479 14.3813 21.0509 17.5757C20.9311 18.3446 20.5592 19.052 19.9937 19.5867C19.4281 20.1214 18.701 20.4531 17.9265 20.5297L16.5347 20.6673C12.8538 21.0299 9.14624 21.0299 5.46537 20.6673L4.07353 20.5297C3.29904 20.4531 2.57193 20.1214 2.00641 19.5867C1.44089 19.052 1.06902 18.3446 0.949201 17.5757C0.452099 14.3821 0.415168 11.1337 0.839534 7.92966L0.941034 7.16783C1.05376 6.3156 1.44229 5.52368 2.04731 4.91298C2.65232 4.30228 3.44057 3.90636 4.2917 3.78566V1.66699C4.2917 1.43493 4.38389 1.21237 4.54798 1.04827C4.71208 0.884179 4.93464 0.791992 5.1667 0.791992ZM5.68587 5.40383C9.22087 5.05499 12.7792 5.05499 16.3142 5.40383L17.37 5.50883C18.3815 5.60799 19.19 6.39083 19.3242 7.39766L19.4257 8.15949C19.4607 8.42549 19.4926 8.69188 19.5214 8.95866H2.4787C2.50748 8.69188 2.53937 8.42549 2.57437 8.15949L2.67587 7.39766C2.74061 6.90837 2.96893 6.45535 3.3237 6.11223C3.67847 5.7691 4.13885 5.55604 4.63003 5.50766L5.68587 5.40383ZM2.33987 10.7087C2.22533 12.9136 2.33871 15.1245 2.6782 17.3062C2.73833 17.6918 2.92483 18.0466 3.20842 18.3147C3.49201 18.5829 3.85663 18.7493 4.24503 18.7878L5.63687 18.9255C9.20337 19.2778 12.7967 19.2778 16.3632 18.9255L17.755 18.7878C18.1434 18.7493 18.5081 18.5829 18.7916 18.3147C19.0752 18.0466 19.2617 17.6918 19.3219 17.3062C19.6625 15.1222 19.7745 12.9113 19.6602 10.7087H2.33987Z" fill="#001C14"/>
</svg>
