<svg width="27" height="23" viewBox="0 0 27 23" fill="none" xmlns="http://www.w3.org/2000/svg">
<path fill-rule="evenodd" clip-rule="evenodd" d="M13.0474 0.852334C13.3309 0.770668 13.6307 0.770668 13.9142 0.852334C14.5186 1.02383 15.1276 1.1825 15.7389 1.34233C18.6101 2.09017 21.5256 2.85083 24.1202 4.96367L25.3149 5.93667C25.7991 6.331 26.0417 6.91667 26.0417 7.5V15.6667C26.0417 15.8987 25.9495 16.1213 25.7855 16.2854C25.6214 16.4495 25.3988 16.5417 25.1667 16.5417C24.9347 16.5417 24.7121 16.4495 24.548 16.2854C24.3839 16.1213 24.2917 15.8987 24.2917 15.6667V9.89983L24.1016 10.055C23.242 10.7519 22.3029 11.3444 21.3039 11.8202C21.3506 11.9267 21.3743 12.0422 21.3751 12.1667V17.1763C21.375 17.8223 21.18 18.4532 20.8155 18.9865C20.451 19.5198 19.9341 19.9307 19.3322 20.1653L14.6656 21.9853C13.916 22.2776 13.0841 22.2776 12.3346 21.9853L7.6679 20.1653C7.06607 19.9307 6.54909 19.5198 6.1846 18.9865C5.82011 18.4532 5.6251 17.8223 5.62507 17.1763V12.1667C5.62585 12.0399 5.65073 11.9217 5.69973 11.812C4.7314 11.3465 3.7864 10.7737 2.8799 10.0363L1.68523 9.06333C0.716901 8.2735 0.716901 6.7265 1.68523 5.93667L2.89857 4.945C5.4734 2.845 8.36907 2.08783 11.2192 1.3435C11.8304 1.18646 12.4398 1.02273 13.0474 0.852334ZM24.2917 7.50117C24.2917 7.39617 24.2497 7.32617 24.2101 7.2935L23.0154 6.3205C20.5001 4.58333 18.2577 3.81683 15.4134 3.069C14.7678 2.90163 14.1238 2.72818 13.4814 2.54867C12.8164 2.7365 12.1701 2.90683 11.5424 3.0725C8.71907 3.8145 6.25857 4.462 4.00573 6.30183L2.79123 7.29233C2.7504 7.325 2.7084 7.39383 2.7084 7.49883C2.7084 7.60383 2.7504 7.67383 2.79007 7.7065L3.9859 8.6795C6.25857 10.531 8.74123 11.1832 11.5867 11.931C12.2128 12.0928 12.8568 12.2662 13.5187 12.4513C14.1837 12.2635 14.8301 12.0932 15.4577 11.9275C18.2811 11.1855 20.7416 10.538 22.9944 8.69933L24.2089 7.70767C24.2497 7.675 24.2917 7.60617 24.2917 7.50117ZM15.7821 13.6565C17.0654 13.3217 18.3569 12.9833 19.6251 12.5225V17.1763C19.6251 17.7772 19.2564 18.3162 18.6964 18.5355L14.0297 20.3543C13.6891 20.4871 13.311 20.4871 12.9704 20.3543L8.30373 18.5343C8.03026 18.4277 7.79531 18.2411 7.62962 17.9988C7.46394 17.7565 7.37522 17.4699 7.37507 17.1763V12.512C8.65723 12.9787 9.9639 13.3193 11.2601 13.6577C11.8726 13.8175 12.4816 13.9762 13.0859 14.1477C13.3694 14.2293 13.6692 14.2293 13.9527 14.1477C14.5582 13.975 15.1684 13.8163 15.7821 13.6565Z" fill="#001C14"/>
</svg>
