<svg width="80" height="80" viewBox="0 0 80 80" fill="none" xmlns="http://www.w3.org/2000/svg">
<rect x="1.5" y="1.5" width="77" height="77" rx="38.5" stroke="#004529" stroke-width="3"/>
<path fill-rule="evenodd" clip-rule="evenodd" d="M57.8363 28.4138C58.2401 28.8181 58.4669 29.3661 58.4669 29.9376C58.4669 30.509 58.2401 31.057 57.8363 31.4613L37.7113 51.5863C37.307 51.9901 36.759 52.2169 36.1876 52.2169C35.6162 52.2169 35.0681 51.9901 34.6638 51.5863L23.1638 40.0863C22.952 39.8889 22.7821 39.6509 22.6642 39.3864C22.5464 39.1219 22.483 38.8363 22.4779 38.5468C22.4728 38.2573 22.526 37.9697 22.6345 37.7012C22.7429 37.4327 22.9043 37.1888 23.1091 36.9841C23.3138 36.7793 23.5577 36.6179 23.8262 36.5095C24.0947 36.401 24.3823 36.3477 24.6718 36.3529C24.9613 36.358 25.2469 36.4213 25.5114 36.5392C25.7759 36.657 26.0139 36.827 26.2113 37.0388L36.1876 47.0151L54.7888 28.4138C55.1931 28.01 55.7412 27.7832 56.3126 27.7832C56.884 27.7832 57.432 28.01 57.8363 28.4138Z" fill="#004529"/>
</svg>
