<svg width="41" height="40" viewBox="0 0 41 40" fill="none" xmlns="http://www.w3.org/2000/svg">
<path d="M26.75 21.666C26.75 21.3345 26.6183 21.0166 26.3839 20.7821C26.1495 20.5477 25.8315 20.416 25.5 20.416H15.5C15.1685 20.416 14.8505 20.5477 14.6161 20.7821C14.3817 21.0166 14.25 21.3345 14.25 21.666C14.25 21.9975 14.3817 22.3155 14.6161 22.5499C14.8505 22.7843 15.1685 22.916 15.5 22.916H25.5C25.8315 22.916 26.1495 22.7843 26.3839 22.5499C26.6183 22.3155 26.75 21.9975 26.75 21.666ZM26.75 28.3327C26.75 28.0012 26.6183 27.6832 26.3839 27.4488C26.1495 27.2144 25.8315 27.0827 25.5 27.0827H15.5C15.1685 27.0827 14.8505 27.2144 14.6161 27.4488C14.3817 27.6832 14.25 28.0012 14.25 28.3327C14.25 28.6642 14.3817 28.9821 14.6161 29.2166C14.8505 29.451 15.1685 29.5827 15.5 29.5827H25.5C25.8315 29.5827 26.1495 29.451 26.3839 29.2166C26.6183 28.9821 26.75 28.6642 26.75 28.3327Z" fill="#333333"/>
<path fill-rule="evenodd" clip-rule="evenodd" d="M12.1654 3.75C10.9498 3.75 9.784 4.23289 8.92446 5.09243C8.06492 5.95197 7.58203 7.11776 7.58203 8.33333V31.6667C7.58203 32.8822 8.06492 34.048 8.92446 34.9076C9.784 35.7671 10.9498 36.25 12.1654 36.25H28.832C30.0476 36.25 31.2134 35.7671 32.0729 34.9076C32.9325 34.048 33.4154 32.8822 33.4154 31.6667V13.28C33.4154 12.645 33.2087 12.0283 32.8254 11.5217L27.8287 4.90833C27.5568 4.54853 27.2052 4.25667 26.8015 4.05568C26.3978 3.85469 25.953 3.75006 25.502 3.75H12.1654ZM10.082 8.33333C10.082 7.18333 11.0154 6.25 12.1654 6.25H24.2487V13.5783C24.2487 14.2683 24.8087 14.8283 25.4987 14.8283H30.9154V31.6667C30.9154 32.8167 29.982 33.75 28.832 33.75H12.1654C11.0154 33.75 10.082 32.8167 10.082 31.6667V8.33333Z" fill="#333333"/>
</svg>
