<svg width="116" height="68" viewBox="0 0 116 68" fill="none" xmlns="http://www.w3.org/2000/svg">
<path d="M2.66591 68C1.08305 68 0.127461 66.2485 0.984196 64.9175L20.8455 34.0623C21.2698 33.4031 21.2699 32.5568 20.8457 31.8976L2.30362 3.08225C1.44716 1.75127 2.40278 0 3.9855 0H15.7057C16.387 0 17.0215 0.346827 17.3893 0.920331L28.0672 17.5706C28.8558 18.8002 30.6537 18.7971 31.438 17.5648L42.028 0.926123C42.3951 0.349299 43.0315 0 43.7152 0H55.474C57.0579 0 58.0133 1.75367 57.1544 3.08451L38.622 31.8001C38.1964 32.4594 38.1958 33.3067 38.6204 33.9667L58.5315 64.918C59.3878 66.2489 58.4321 68 56.8495 68H45.1276C44.4469 68 43.813 67.6539 43.4451 67.0813L31.3936 48.3283C30.6057 47.1022 28.813 47.1036 28.0269 48.3309L16.02 67.0786C15.6523 67.6527 15.0175 68 14.3358 68H2.66591Z" fill="#004529"/>
<path d="M64.568 68C63.4634 68 62.568 67.1046 62.568 66V2C62.568 0.895432 63.4634 0 64.568 0H74.6507C75.7553 0 76.6507 0.895431 76.6507 2V66C76.6507 67.1046 75.7553 68 74.6507 68H64.568Z" fill="#004529"/>
<path d="M83.9172 68C82.8127 68 81.9172 67.1046 81.9172 66V2C81.9172 0.895432 82.8127 0 83.9172 0H94C95.1046 0 96 0.895431 96 2V66C96 67.1046 95.1046 68 94 68H83.9172Z" fill="#004529"/>
<path d="M103.5 68C102.395 68 101.5 67.1046 101.5 66V2C101.5 0.895432 102.395 0 103.5 0H113.583C114.687 0 115.583 0.895431 115.583 2V66C115.583 67.1046 114.687 68 113.583 68H103.5Z" fill="#004529"/>
</svg>
