<svg width="16" height="20" viewBox="0 0 16 20" fill="none" xmlns="http://www.w3.org/2000/svg">
<path fill-rule="evenodd" clip-rule="evenodd" d="M3.62202 8.59699L3.30602 5.75799C3.26593 5.39409 3.26593 5.02689 3.30602 4.66299L3.32902 4.45799C3.45727 3.30887 4.0046 2.24735 4.86634 1.47643C5.72809 0.705511 6.84377 0.279297 8.00002 0.279297C9.15627 0.279297 10.272 0.705511 11.1337 1.47643C11.9954 2.24735 12.5428 3.30887 12.671 4.45799L12.694 4.66299C12.734 5.02766 12.734 5.39266 12.694 5.75799L12.378 8.59799L13.065 8.65199C13.5911 8.69384 14.0881 8.91084 14.4764 9.26831C14.8647 9.62579 15.1219 10.1031 15.207 10.624C15.573 12.8598 15.573 15.1402 15.207 17.376C15.1219 17.8969 14.8647 18.3742 14.4764 18.7317C14.0881 19.0891 13.5911 19.3061 13.065 19.348L11.569 19.468C9.19302 19.658 6.80702 19.658 4.43102 19.468L2.93502 19.348C2.40889 19.3061 1.91198 19.0891 1.52368 18.7317C1.13539 18.3742 0.878132 17.8969 0.793021 17.376C0.427066 15.1402 0.427066 12.8598 0.793021 10.624C0.878132 10.1031 1.13539 9.62579 1.52368 9.26831C1.91198 8.91084 2.40889 8.69384 2.93502 8.65199L3.62202 8.59699ZM7.62602 1.79999C8.0451 1.75074 8.46977 1.78485 8.87561 1.90037C9.28145 2.01588 9.66044 2.21053 9.99076 2.47309C10.3211 2.73565 10.5962 3.06095 10.8003 3.43026C11.0044 3.79958 11.1335 4.20561 11.18 4.62499L11.203 4.82999C11.231 5.08399 11.231 5.33866 11.203 5.59399L10.882 8.48399C8.96266 8.36081 7.03738 8.36081 5.11802 8.48399L4.79802 5.59399C4.77014 5.34009 4.77014 5.0839 4.79802 4.82999L4.82002 4.62499C4.89979 3.90635 5.22058 3.23591 5.73013 2.72291C6.23967 2.20991 6.90794 1.8846 7.62602 1.79999ZM11.45 10.029C9.15367 9.84587 6.84638 9.84587 4.55002 10.029L3.05502 10.149C2.86298 10.164 2.68153 10.2429 2.53974 10.3733C2.39794 10.5037 2.30402 10.6779 2.27302 10.868C1.93348 12.9429 1.93348 15.0591 2.27302 17.134C2.30382 17.3243 2.39765 17.4987 2.53946 17.6293C2.68127 17.7598 2.86284 17.839 3.05502 17.854L4.55102 17.974C6.84702 18.157 9.15302 18.157 11.45 17.974L12.946 17.854C13.138 17.8388 13.3194 17.7595 13.461 17.629C13.6026 17.4984 13.6963 17.3241 13.727 17.134C14.0666 15.0591 14.0666 12.9429 13.727 10.868C13.6963 10.6779 13.6026 10.5035 13.461 10.373C13.3194 10.2424 13.138 10.1632 12.946 10.148L11.45 10.029Z" fill="#004529"/>
</svg>
