<svg width="18" height="18" viewBox="0 0 18 18" fill="none" xmlns="http://www.w3.org/2000/svg">
<path fill-rule="evenodd" clip-rule="evenodd" d="M11.3853 12.4463C10.0375 13.5232 8.32845 14.0432 6.60922 13.8994C4.88999 13.7556 3.29108 12.9589 2.14088 11.673C0.990681 10.3872 0.376503 8.70967 0.424489 6.98511C0.472475 5.26054 1.17898 3.61981 2.39891 2.39988C3.61883 1.17996 5.25956 0.473452 6.98413 0.425466C8.7087 0.37748 10.3862 0.991657 11.6721 2.14186C12.9579 3.29206 13.7546 4.89097 13.8984 6.6102C14.0422 8.32943 13.5222 10.0385 12.4453 11.3863L17.6013 16.5413C17.675 16.61 17.7341 16.6928 17.7751 16.7848C17.8161 16.8768 17.8381 16.9761 17.8399 17.0768C17.8417 17.1775 17.8232 17.2775 17.7855 17.3709C17.7477 17.4643 17.6916 17.5491 17.6204 17.6203C17.5492 17.6916 17.4643 17.7477 17.3709 17.7854C17.2775 17.8232 17.1775 17.8417 17.0768 17.8399C16.9761 17.8381 16.8768 17.8161 16.7848 17.7751C16.6928 17.7341 16.61 17.675 16.5413 17.6013L11.3853 12.4463ZM3.45933 10.8843C2.72537 10.1503 2.22549 9.21514 2.02284 8.19708C1.8202 7.17902 1.92391 6.12374 2.32084 5.16461C2.71778 4.20547 3.39014 3.38553 4.25295 2.80841C5.11575 2.23129 6.13027 1.92289 7.1683 1.92219C8.20633 1.92149 9.22127 2.22853 10.0848 2.80449C10.9484 3.38045 11.6219 4.19948 12.0201 5.15808C12.4183 6.11668 12.5235 7.17182 12.3222 8.19015C12.1209 9.20848 11.6223 10.1443 10.8893 10.8793L10.8843 10.8843L10.8793 10.8883C9.89442 11.8709 8.55976 12.4224 7.1685 12.4217C5.77725 12.4209 4.44318 11.868 3.45933 10.8843Z" fill="#333333"/>
</svg>
