<svg width="1002" height="86" viewBox="0 0 1002 86" fill="none" xmlns="http://www.w3.org/2000/svg">
<path d="M3.66591 77C2.08305 77 1.12746 75.2485 1.9842 73.9175L21.8455 43.0623C22.2698 42.4031 22.2699 41.5568 21.8457 40.8976L3.30362 12.0823C2.44716 10.7513 3.40278 9 4.9855 9H16.7057C17.387 9 18.0215 9.34683 18.3893 9.92033L29.0672 26.5706C29.8558 27.8002 31.6537 27.7971 32.438 26.5648L43.028 9.92612C43.3951 9.3493 44.0315 9 44.7152 9H56.474C58.0579 9 59.0133 10.7537 58.1544 12.0845L39.622 40.8001C39.1964 41.4594 39.1958 42.3067 39.6204 42.9667L59.5315 73.918C60.3878 75.2489 59.4321 77 57.8495 77H46.1276C45.4469 77 44.813 76.6539 44.4451 76.0813L32.3936 57.3283C31.6057 56.1022 29.813 56.1036 29.0269 57.3309L17.02 76.0786C16.6523 76.6527 16.0175 77 15.3358 77H3.66591Z" fill="#004529"/>
<path d="M65.568 77C64.4634 77 63.568 76.1046 63.568 75V11C63.568 9.89543 64.4634 9 65.568 9H75.6507C76.7553 9 77.6507 9.89543 77.6507 11V75C77.6507 76.1046 76.7553 77 75.6507 77H65.568Z" fill="#004529"/>
<path d="M84.9172 77C83.8127 77 82.9172 76.1046 82.9172 75V11C82.9172 9.89543 83.8127 9 84.9172 9H95C96.1046 9 97 9.89543 97 11V75C97 76.1046 96.1046 77 95 77H84.9172Z" fill="#004529"/>
<path d="M104.5 77C103.395 77 102.5 76.1046 102.5 75V11C102.5 9.89543 103.395 9 104.5 9H114.583C115.687 9 116.583 9.89543 116.583 11V75C116.583 76.1046 115.687 77 114.583 77H104.5Z" fill="#004529"/>
<path d="M139.559 31V8.6H148.071C149.863 8.6 151.271 8.888 152.295 9.464C153.319 10.04 154.049 10.7867 154.487 11.704C154.924 12.6107 155.143 13.56 155.143 14.552C155.143 15.5653 154.876 16.488 154.343 17.32C153.809 18.1413 153.031 18.776 152.007 19.224C152.849 19.4907 153.564 19.8907 154.151 20.424C154.737 20.9467 155.18 21.56 155.479 22.264C155.777 22.9573 155.927 23.704 155.927 24.504C155.927 25.272 155.799 26.04 155.543 26.808C155.297 27.576 154.887 28.28 154.311 28.92C153.745 29.5493 152.988 30.056 152.039 30.44C151.1 30.8133 149.943 31 148.567 31H139.559ZM142.791 27.992H148.871C149.863 27.992 150.636 27.8267 151.191 27.496C151.756 27.1653 152.145 26.744 152.359 26.232C152.583 25.7093 152.695 25.176 152.695 24.632C152.695 23.992 152.561 23.384 152.295 22.808C152.039 22.232 151.559 21.768 150.855 21.416C150.161 21.0533 149.169 20.872 147.879 20.872H142.791V27.992ZM142.791 17.944H147.543C149.004 17.944 150.097 17.6507 150.823 17.064C151.548 16.4667 151.911 15.6773 151.911 14.696C151.911 14.2053 151.815 13.72 151.623 13.24C151.431 12.7493 151.068 12.3493 150.535 12.04C150.001 11.7307 149.223 11.576 148.199 11.576H142.791V17.944ZM169.224 31.368C167.517 31.368 166.067 31.0373 164.872 30.376C163.688 29.7147 162.733 28.8293 162.008 27.72C161.283 26.6 160.749 25.352 160.408 23.976C160.077 22.6 159.912 21.208 159.912 19.8C159.912 18.424 160.083 17.0533 160.424 15.688C160.765 14.312 161.304 13.064 162.04 11.944C162.787 10.8133 163.752 9.912 164.936 9.24C166.12 8.55733 167.549 8.216 169.224 8.216C170.621 8.216 171.811 8.42933 172.792 8.856C173.773 9.272 174.579 9.81067 175.208 10.472C175.848 11.1333 176.339 11.8213 176.68 12.536L173.768 13.976C173.416 13.4427 173.037 12.9733 172.632 12.568C172.227 12.152 171.752 11.832 171.208 11.608C170.664 11.3733 170.003 11.256 169.224 11.256C168.115 11.256 167.176 11.5173 166.408 12.04C165.64 12.552 165.027 13.2293 164.568 14.072C164.109 14.9147 163.779 15.8373 163.576 16.84C163.373 17.8427 163.272 18.8293 163.272 19.8C163.272 20.8453 163.384 21.8747 163.608 22.888C163.832 23.8907 164.189 24.8027 164.68 25.624C165.171 26.4347 165.789 27.0853 166.536 27.576C167.283 28.056 168.179 28.296 169.224 28.296C170.376 28.296 171.309 28.0347 172.024 27.512C172.739 26.9787 173.352 26.2907 173.864 25.448L176.84 26.552C176.424 27.4587 175.875 28.2747 175.192 29C174.509 29.7253 173.677 30.3013 172.696 30.728C171.715 31.1547 170.557 31.368 169.224 31.368ZM181.215 31V8.6H195.135V11.656H184.447V17.896H191.247V20.952H184.447V27.912H195.823V31H181.215ZM200.465 31V8.6H209.329C211.174 8.6 212.63 8.936 213.697 9.608C214.774 10.2693 215.542 11.1227 216.001 12.168C216.46 13.2133 216.689 14.296 216.689 15.416C216.689 16.2053 216.556 17 216.289 17.8C216.022 18.5893 215.596 19.32 215.009 19.992C214.422 20.664 213.66 21.2027 212.721 21.608C211.793 22.0133 210.662 22.216 209.329 22.216H203.697V31H200.465ZM203.697 19.192H209.521C210.481 19.192 211.244 19 211.809 18.616C212.385 18.232 212.796 17.752 213.041 17.176C213.286 16.6 213.409 16.0133 213.409 15.416C213.409 14.8827 213.297 14.3227 213.073 13.736C212.86 13.1387 212.47 12.6373 211.905 12.232C211.34 11.8267 210.545 11.624 209.521 11.624H203.697V19.192ZM229.606 31.384C227.835 31.384 226.336 31.048 225.11 30.376C223.883 29.6933 222.896 28.792 222.15 27.672C221.403 26.5413 220.859 25.2933 220.518 23.928C220.176 22.5627 220.006 21.1867 220.006 19.8C220.006 18.4133 220.176 17.0373 220.518 15.672C220.859 14.3067 221.403 13.064 222.15 11.944C222.896 10.8133 223.883 9.912 225.11 9.24C226.336 8.55733 227.835 8.216 229.606 8.216C231.376 8.216 232.875 8.55733 234.102 9.24C235.328 9.912 236.315 10.8133 237.062 11.944C237.808 13.064 238.347 14.3067 238.678 15.672C239.019 17.0373 239.19 18.4133 239.19 19.8C239.19 21.1867 239.019 22.5627 238.678 23.928C238.347 25.2933 237.808 26.5413 237.062 27.672C236.315 28.792 235.328 29.6933 234.102 30.376C232.875 31.048 231.376 31.384 229.606 31.384ZM229.606 28.312C230.758 28.312 231.728 28.0507 232.518 27.528C233.318 27.0053 233.963 26.3227 234.454 25.48C234.944 24.6373 235.296 23.72 235.51 22.728C235.723 21.7253 235.83 20.7493 235.83 19.8C235.83 18.7653 235.723 17.7467 235.51 16.744C235.296 15.7307 234.944 14.8133 234.454 13.992C233.974 13.16 233.334 12.4987 232.534 12.008C231.744 11.5067 230.768 11.256 229.606 11.256C228.443 11.256 227.462 11.5173 226.662 12.04C225.872 12.5627 225.232 13.2507 224.742 14.104C224.262 14.9467 223.91 15.8693 223.686 16.872C223.472 17.864 223.366 18.84 223.366 19.8C223.366 20.824 223.472 21.8427 223.686 22.856C223.91 23.8587 224.262 24.776 224.742 25.608C225.232 26.4293 225.872 27.0853 226.662 27.576C227.462 28.0667 228.443 28.312 229.606 28.312ZM252.599 31.368C250.892 31.368 249.442 31.0373 248.247 30.376C247.063 29.7147 246.108 28.8293 245.383 27.72C244.658 26.6 244.124 25.352 243.783 23.976C243.452 22.6 243.287 21.208 243.287 19.8C243.287 18.424 243.458 17.0533 243.799 15.688C244.14 14.312 244.679 13.064 245.415 11.944C246.162 10.8133 247.127 9.912 248.311 9.24C249.495 8.55733 250.924 8.216 252.599 8.216C253.996 8.216 255.186 8.42933 256.167 8.856C257.148 9.272 257.954 9.81067 258.583 10.472C259.223 11.1333 259.714 11.8213 260.055 12.536L257.143 13.976C256.791 13.4427 256.412 12.9733 256.007 12.568C255.602 12.152 255.127 11.832 254.583 11.608C254.039 11.3733 253.378 11.256 252.599 11.256C251.49 11.256 250.551 11.5173 249.783 12.04C249.015 12.552 248.402 13.2293 247.943 14.072C247.484 14.9147 247.154 15.8373 246.951 16.84C246.748 17.8427 246.647 18.8293 246.647 19.8C246.647 20.8453 246.759 21.8747 246.983 22.888C247.207 23.8907 247.564 24.8027 248.055 25.624C248.546 26.4347 249.164 27.0853 249.911 27.576C250.658 28.056 251.554 28.296 252.599 28.296C253.751 28.296 254.684 28.0347 255.399 27.512C256.114 26.9787 256.727 26.2907 257.239 25.448L260.215 26.552C259.799 27.4587 259.25 28.2747 258.567 29C257.884 29.7253 257.052 30.3013 256.071 30.728C255.09 31.1547 253.932 31.368 252.599 31.368ZM272.724 31.368C271.017 31.368 269.567 31.0373 268.372 30.376C267.188 29.7147 266.233 28.8293 265.508 27.72C264.783 26.6 264.249 25.352 263.908 23.976C263.577 22.6 263.412 21.208 263.412 19.8C263.412 18.424 263.583 17.0533 263.924 15.688C264.265 14.312 264.804 13.064 265.54 11.944C266.287 10.8133 267.252 9.912 268.436 9.24C269.62 8.55733 271.049 8.216 272.724 8.216C274.121 8.216 275.311 8.42933 276.292 8.856C277.273 9.272 278.079 9.81067 278.708 10.472C279.348 11.1333 279.839 11.8213 280.18 12.536L277.268 13.976C276.916 13.4427 276.537 12.9733 276.132 12.568C275.727 12.152 275.252 11.832 274.708 11.608C274.164 11.3733 273.503 11.256 272.724 11.256C271.615 11.256 270.676 11.5173 269.908 12.04C269.14 12.552 268.527 13.2293 268.068 14.072C267.609 14.9147 267.279 15.8373 267.076 16.84C266.873 17.8427 266.772 18.8293 266.772 19.8C266.772 20.8453 266.884 21.8747 267.108 22.888C267.332 23.8907 267.689 24.8027 268.18 25.624C268.671 26.4347 269.289 27.0853 270.036 27.576C270.783 28.056 271.679 28.296 272.724 28.296C273.876 28.296 274.809 28.0347 275.524 27.512C276.239 26.9787 276.852 26.2907 277.364 25.448L280.34 26.552C279.924 27.4587 279.375 28.2747 278.692 29C278.009 29.7253 277.177 30.3013 276.196 30.728C275.215 31.1547 274.057 31.368 272.724 31.368ZM284.715 31V8.6H287.915V23.32C287.915 23.5653 287.904 23.88 287.883 24.264C287.872 24.6373 287.851 24.9787 287.819 25.288C287.958 24.9893 288.118 24.6693 288.299 24.328C288.491 23.9867 288.651 23.7093 288.779 23.496L298.267 8.6H301.499V31H298.283V16.568C298.283 16.0987 298.288 15.688 298.299 15.336C298.32 14.9733 298.347 14.6533 298.379 14.376C298.24 14.6427 298.054 14.9787 297.819 15.384C297.584 15.7893 297.387 16.1093 297.227 16.344L287.787 31H284.715ZM307.371 31V8.6H310.571V23.32C310.571 23.5653 310.561 23.88 310.539 24.264C310.529 24.6373 310.507 24.9787 310.475 25.288C310.614 24.9893 310.774 24.6693 310.955 24.328C311.147 23.9867 311.307 23.7093 311.435 23.496L320.923 8.6H324.155V31H320.939V16.568C320.939 16.0987 320.945 15.688 320.955 15.336C320.977 14.9733 321.003 14.6533 321.035 14.376C320.897 14.6427 320.71 14.9787 320.475 15.384C320.241 15.7893 320.043 16.1093 319.883 16.344L310.443 31H307.371ZM315.723 6.488C314.305 6.488 313.121 6.248 312.171 5.768C311.233 5.288 310.523 4.648 310.043 3.848C309.574 3.048 309.339 2.168 309.339 1.208H312.043C312.043 1.74133 312.193 2.216 312.491 2.632C312.801 3.048 313.233 3.37333 313.787 3.608C314.342 3.84267 314.987 3.96 315.723 3.96C316.459 3.96 317.105 3.84267 317.659 3.608C318.225 3.37333 318.662 3.048 318.971 2.632C319.281 2.216 319.435 1.74133 319.435 1.208H322.139C322.139 2.168 321.899 3.048 321.419 3.848C320.939 4.648 320.225 5.288 319.275 5.768C318.326 6.248 317.142 6.488 315.723 6.488ZM338.38 31.368C336.674 31.368 335.223 31.0373 334.028 30.376C332.844 29.7147 331.89 28.8293 331.164 27.72C330.439 26.6 329.906 25.352 329.564 23.976C329.234 22.6 329.068 21.208 329.068 19.8C329.068 18.424 329.239 17.0533 329.58 15.688C329.922 14.312 330.46 13.064 331.196 11.944C331.943 10.8133 332.908 9.912 334.092 9.24C335.276 8.55733 336.706 8.216 338.38 8.216C339.778 8.216 340.967 8.42933 341.948 8.856C342.93 9.272 343.735 9.81067 344.364 10.472C345.004 11.1333 345.495 11.8213 345.836 12.536L342.924 13.976C342.572 13.4427 342.194 12.9733 341.788 12.568C341.383 12.152 340.908 11.832 340.364 11.608C339.82 11.3733 339.159 11.256 338.38 11.256C337.271 11.256 336.332 11.5173 335.564 12.04C334.796 12.552 334.183 13.2293 333.724 14.072C333.266 14.9147 332.935 15.8373 332.732 16.84C332.53 17.8427 332.428 18.8293 332.428 19.8C332.428 20.8453 332.54 21.8747 332.764 22.888C332.988 23.8907 333.346 24.8027 333.836 25.624C334.327 26.4347 334.946 27.0853 335.692 27.576C336.439 28.056 337.335 28.296 338.38 28.296C339.532 28.296 340.466 28.0347 341.18 27.512C341.895 26.9787 342.508 26.2907 343.02 25.448L345.996 26.552C345.58 27.4587 345.031 28.2747 344.348 29C343.666 29.7253 342.834 30.3013 341.852 30.728C340.871 31.1547 339.714 31.368 338.38 31.368ZM350.371 31V8.6H353.603V19.496L362.275 8.6H365.987L359.715 16.424L367.683 31H363.907L357.507 19.144L353.603 23.96V31H350.371ZM370.772 31L378.9 8.6H381.94L390.084 31H386.708L384.836 25.768H376.052L374.212 31H370.772ZM377.044 22.872H383.796L381.124 15.336C381.049 15.1333 380.969 14.904 380.884 14.648C380.799 14.3813 380.713 14.12 380.628 13.864C380.543 13.608 380.479 13.384 380.436 13.192C380.383 13.384 380.313 13.608 380.228 13.864C380.153 14.12 380.073 14.3813 379.988 14.648C379.903 14.904 379.823 15.1333 379.748 15.336L377.044 22.872ZM408.449 31V21.768H402.017C400.417 21.768 399.089 21.4533 398.033 20.824C396.977 20.1947 396.188 19.3733 395.665 18.36C395.142 17.3467 394.881 16.28 394.881 15.16C394.881 14.0507 395.1 12.9947 395.537 11.992C395.985 10.9893 396.732 10.1733 397.777 9.544C398.822 8.91467 400.257 8.6 402.081 8.6H411.681V31H408.449ZM393.281 31L400.801 20.664H404.833L397.329 31H393.281ZM402.017 18.744H408.449V11.624H402.017C401.014 11.624 400.236 11.816 399.681 12.2C399.126 12.5733 398.737 13.0373 398.513 13.592C398.289 14.136 398.177 14.6747 398.177 15.208C398.177 15.7947 398.294 16.36 398.529 16.904C398.774 17.4373 399.174 17.88 399.729 18.232C400.294 18.5733 401.057 18.744 402.017 18.744ZM425.309 31V8.6H428.541V17.88H438.749V8.6H441.981V31H438.749V20.936H428.541V31H425.309ZM446.272 31L454.4 8.6H457.44L465.584 31H462.208L460.336 25.768H451.552L449.712 31H446.272ZM452.544 22.872H459.296L456.624 15.336C456.549 15.1333 456.469 14.904 456.384 14.648C456.299 14.3813 456.213 14.12 456.128 13.864C456.043 13.608 455.979 13.384 455.936 13.192C455.883 13.384 455.813 13.608 455.728 13.864C455.653 14.12 455.573 14.3813 455.488 14.648C455.403 14.904 455.323 15.1333 455.248 15.336L452.544 22.872ZM471.597 31.384L469.901 28.696C470.925 28.6213 471.762 28.5253 472.413 28.408C473.064 28.2907 473.592 28.1147 473.997 27.88C474.413 27.6347 474.776 27.288 475.085 26.84C475.405 26.392 475.736 25.8107 476.077 25.096L468.365 8.6H471.997L477.229 20.296C477.325 20.4987 477.41 20.696 477.485 20.888C477.56 21.08 477.634 21.2827 477.709 21.496C477.784 21.2827 477.864 21.08 477.949 20.888C478.034 20.696 478.125 20.4827 478.221 20.248L483.501 8.6H487.101L479.037 25.848C478.546 26.8827 478.072 27.7413 477.613 28.424C477.154 29.096 476.653 29.6347 476.109 30.04C475.576 30.4453 474.946 30.7493 474.221 30.952C473.496 31.1547 472.621 31.2987 471.597 31.384ZM504.238 31V20.344C503.864 20.9733 503.39 21.5173 502.814 21.976C502.248 22.424 501.587 22.7707 500.83 23.016C500.072 23.2613 499.235 23.384 498.318 23.384C496.739 23.384 495.39 23.0427 494.27 22.36C493.15 21.6773 492.291 20.68 491.694 19.368C491.096 18.056 490.798 16.4507 490.798 14.552V8.6H494.03V14.328C494.03 15.6507 494.216 16.7547 494.59 17.64C494.974 18.5253 495.539 19.192 496.286 19.64C497.043 20.088 497.987 20.312 499.118 20.312C499.95 20.312 500.686 20.1893 501.326 19.944C501.966 19.688 502.499 19.3093 502.926 18.808C503.352 18.3067 503.678 17.6827 503.902 16.936C504.126 16.1893 504.238 15.32 504.238 14.328V8.6H507.47V31H504.238ZM513.34 31V8.6H516.572V17.88H526.78V8.6H530.012V31H526.78V20.936H516.572V31H513.34ZM534.303 31L542.431 8.6H545.471L553.615 31H550.239L548.367 25.768H539.583L537.743 31H534.303ZM540.575 22.872H547.327L544.655 15.336C544.581 15.1333 544.501 14.904 544.415 14.648C544.33 14.3813 544.245 14.12 544.159 13.864C544.074 13.608 544.01 13.384 543.967 13.192C543.914 13.384 543.845 13.608 543.759 13.864C543.685 14.12 543.605 14.3813 543.519 14.648C543.434 14.904 543.354 15.1333 543.279 15.336L540.575 22.872ZM571.98 31V21.768H565.548C563.948 21.768 562.62 21.4533 561.564 20.824C560.508 20.1947 559.719 19.3733 559.196 18.36C558.674 17.3467 558.412 16.28 558.412 15.16C558.412 14.0507 558.631 12.9947 559.068 11.992C559.516 10.9893 560.263 10.1733 561.308 9.544C562.354 8.91467 563.788 8.6 565.612 8.6H575.212V31H571.98ZM556.812 31L564.332 20.664H568.364L560.86 31H556.812ZM565.548 18.744H571.98V11.624H565.548C564.546 11.624 563.767 11.816 563.212 12.2C562.658 12.5733 562.268 13.0373 562.044 13.592C561.82 14.136 561.708 14.6747 561.708 15.208C561.708 15.7947 561.826 16.36 562.06 16.904C562.306 17.4373 562.706 17.88 563.26 18.232C563.826 18.5733 564.588 18.744 565.548 18.744ZM588.84 31V8.6H592.072V19.496L600.744 8.6H604.456L598.184 16.424L606.152 31H602.376L595.976 19.144L592.072 23.96V31H588.84ZM618.418 31.384C616.648 31.384 615.149 31.048 613.922 30.376C612.696 29.6933 611.709 28.792 610.962 27.672C610.216 26.5413 609.672 25.2933 609.33 23.928C608.989 22.5627 608.818 21.1867 608.818 19.8C608.818 18.4133 608.989 17.0373 609.33 15.672C609.672 14.3067 610.216 13.064 610.962 11.944C611.709 10.8133 612.696 9.912 613.922 9.24C615.149 8.55733 616.648 8.216 618.418 8.216C620.189 8.216 621.688 8.55733 622.914 9.24C624.141 9.912 625.128 10.8133 625.874 11.944C626.621 13.064 627.16 14.3067 627.49 15.672C627.832 17.0373 628.002 18.4133 628.002 19.8C628.002 21.1867 627.832 22.5627 627.49 23.928C627.16 25.2933 626.621 26.5413 625.874 27.672C625.128 28.792 624.141 29.6933 622.914 30.376C621.688 31.048 620.189 31.384 618.418 31.384ZM618.418 28.312C619.57 28.312 620.541 28.0507 621.33 27.528C622.13 27.0053 622.776 26.3227 623.266 25.48C623.757 24.6373 624.109 23.72 624.322 22.728C624.536 21.7253 624.642 20.7493 624.642 19.8C624.642 18.7653 624.536 17.7467 624.322 16.744C624.109 15.7307 623.757 14.8133 623.266 13.992C622.786 13.16 622.146 12.4987 621.346 12.008C620.557 11.5067 619.581 11.256 618.418 11.256C617.256 11.256 616.274 11.5173 615.474 12.04C614.685 12.5627 614.045 13.2507 613.554 14.104C613.074 14.9467 612.722 15.8693 612.498 16.872C612.285 17.864 612.178 18.84 612.178 19.8C612.178 20.824 612.285 21.8427 612.498 22.856C612.722 23.8587 613.074 24.776 613.554 25.608C614.045 26.4293 614.685 27.0853 615.474 27.576C616.274 28.0667 617.256 28.312 618.418 28.312ZM632.871 31V8.6H636.103V17.88H646.311V8.6H649.543V31H646.311V20.936H636.103V31H632.871ZM665.482 28.248V25.176H666.506C667.796 25.176 668.916 24.9627 669.866 24.536C670.815 24.1093 671.546 23.496 672.058 22.696C672.58 21.8853 672.842 20.92 672.842 19.8C672.842 18.68 672.58 17.72 672.058 16.92C671.546 16.1093 670.815 15.4907 669.866 15.064C668.916 14.6373 667.796 14.424 666.506 14.424H665.482V11.352H666.026C668.052 11.352 669.828 11.6987 671.354 12.392C672.879 13.0853 674.068 14.0667 674.922 15.336C675.775 16.5947 676.202 18.0827 676.202 19.8C676.202 21.528 675.78 23.0267 674.938 24.296C674.106 25.5547 672.927 26.5307 671.402 27.224C669.876 27.9067 668.084 28.248 666.026 28.248H665.482ZM663.994 28.248C661.946 28.248 660.159 27.9067 658.634 27.224C657.108 26.5307 655.924 25.5547 655.082 24.296C654.25 23.0267 653.834 21.528 653.834 19.8C653.834 18.04 654.25 16.5307 655.082 15.272C655.914 14.0133 657.087 13.048 658.602 12.376C660.127 11.6933 661.924 11.352 663.994 11.352H664.554V14.424H663.514C662.234 14.424 661.119 14.6373 660.17 15.064C659.22 15.4907 658.484 16.1093 657.962 16.92C657.439 17.72 657.178 18.68 657.178 19.8C657.178 20.92 657.439 21.8853 657.962 22.696C658.484 23.496 659.22 24.1093 660.17 24.536C661.119 24.9627 662.234 25.176 663.514 25.176H664.554V28.248H663.994ZM663.386 31.384V8.216H666.65V31.384H663.386ZM680.496 31V8.6H694.416V11.656H683.728V17.896H690.528V20.952H683.728V27.912H695.104V31H680.496ZM699.746 31V8.6H708.61C710.456 8.6 711.912 8.936 712.978 9.608C714.056 10.2693 714.824 11.1227 715.282 12.168C715.741 13.2133 715.97 14.296 715.97 15.416C715.97 16.2053 715.837 17 715.57 17.8C715.304 18.5893 714.877 19.32 714.29 19.992C713.704 20.664 712.941 21.2027 712.002 21.608C711.074 22.0133 709.944 22.216 708.61 22.216H702.978V31H699.746ZM702.978 19.192H708.802C709.762 19.192 710.525 19 711.09 18.616C711.666 18.232 712.077 17.752 712.322 17.176C712.568 16.6 712.69 16.0133 712.69 15.416C712.69 14.8827 712.578 14.3227 712.354 13.736C712.141 13.1387 711.752 12.6373 711.186 12.232C710.621 11.8267 709.826 11.624 708.802 11.624H702.978V19.192ZM720.028 31V8.6H733.948V11.656H723.26V17.896H730.06V20.952H723.26V27.912H734.636V31H720.028ZM739.278 31V8.6H742.51V17.88H752.718V8.6H755.95V31H752.718V20.936H742.51V31H739.278ZM761.809 31V8.6H765.041V27.88H774.945V8.6H778.161V31H761.809ZM777.761 36.312V31H776.161V27.88H781.009V34.808L777.761 36.312ZM785.371 31V8.6H788.571V23.32C788.571 23.5653 788.561 23.88 788.539 24.264C788.529 24.6373 788.507 24.9787 788.475 25.288C788.614 24.9893 788.774 24.6693 788.955 24.328C789.147 23.9867 789.307 23.7093 789.435 23.496L798.923 8.6H802.155V31H798.939V16.568C798.939 16.0987 798.945 15.688 798.955 15.336C798.977 14.9733 799.003 14.6533 799.035 14.376C798.897 14.6427 798.71 14.9787 798.475 15.384C798.241 15.7893 798.043 16.1093 797.883 16.344L788.443 31H785.371ZM822.105 31V21.768H815.673C814.073 21.768 812.745 21.4533 811.689 20.824C810.633 20.1947 809.844 19.3733 809.321 18.36C808.799 17.3467 808.537 16.28 808.537 15.16C808.537 14.0507 808.756 12.9947 809.193 11.992C809.641 10.9893 810.388 10.1733 811.433 9.544C812.479 8.91467 813.913 8.6 815.737 8.6H825.337V31H822.105ZM806.937 31L814.457 20.664H818.489L810.985 31H806.937ZM815.673 18.744H822.105V11.624H815.673C814.671 11.624 813.892 11.816 813.337 12.2C812.783 12.5733 812.393 13.0373 812.169 13.592C811.945 14.136 811.833 14.6747 811.833 15.208C811.833 15.7947 811.951 16.36 812.185 16.904C812.431 17.4373 812.831 17.88 813.385 18.232C813.951 18.5733 814.713 18.744 815.673 18.744ZM144.999 62.496L144.343 53.6H148.263L147.607 62.496H144.999ZM138.855 62.496L138.231 53.6H142.119L141.463 62.496H138.855ZM161.255 76.368C159.549 76.368 158.098 76.0373 156.903 75.376C155.719 74.7147 154.765 73.8293 154.039 72.72C153.314 71.6 152.781 70.352 152.439 68.976C152.109 67.6 151.943 66.208 151.943 64.8C151.943 63.424 152.114 62.0533 152.455 60.688C152.797 59.312 153.335 58.064 154.071 56.944C154.818 55.8133 155.783 54.912 156.967 54.24C158.151 53.5573 159.581 53.216 161.255 53.216C162.653 53.216 163.842 53.4293 164.823 53.856C165.805 54.272 166.61 54.8107 167.239 55.472C167.879 56.1333 168.37 56.8213 168.711 57.536L165.799 58.976C165.447 58.4427 165.069 57.9733 164.663 57.568C164.258 57.152 163.783 56.832 163.239 56.608C162.695 56.3733 162.034 56.256 161.255 56.256C160.146 56.256 159.207 56.5173 158.439 57.04C157.671 57.552 157.058 58.2293 156.599 59.072C156.141 59.9147 155.81 60.8373 155.607 61.84C155.405 62.8427 155.303 63.8293 155.303 64.8C155.303 65.8453 155.415 66.8747 155.639 67.888C155.863 68.8907 156.221 69.8027 156.711 70.624C157.202 71.4347 157.821 72.0853 158.567 72.576C159.314 73.056 160.21 73.296 161.255 73.296C162.407 73.296 163.341 73.0347 164.055 72.512C164.77 71.9787 165.383 71.2907 165.895 70.448L168.871 71.552C168.455 72.4587 167.906 73.2747 167.223 74C166.541 74.7253 165.709 75.3013 164.727 75.728C163.746 76.1547 162.589 76.368 161.255 76.368ZM173.246 76V53.6H176.446V68.32C176.446 68.5653 176.436 68.88 176.414 69.264C176.404 69.6373 176.382 69.9787 176.35 70.288C176.489 69.9893 176.649 69.6693 176.83 69.328C177.022 68.9867 177.182 68.7093 177.31 68.496L186.798 53.6H190.03V76H186.814V61.568C186.814 61.0987 186.82 60.688 186.83 60.336C186.852 59.9733 186.878 59.6533 186.91 59.376C186.772 59.6427 186.585 59.9787 186.35 60.384C186.116 60.7893 185.918 61.1093 185.758 61.344L176.318 76H173.246ZM204.255 76.368C202.549 76.368 201.098 76.0373 199.903 75.376C198.719 74.7147 197.765 73.8293 197.039 72.72C196.314 71.6 195.781 70.352 195.439 68.976C195.109 67.6 194.943 66.208 194.943 64.8C194.943 63.424 195.114 62.0533 195.455 60.688C195.797 59.312 196.335 58.064 197.071 56.944C197.818 55.8133 198.783 54.912 199.967 54.24C201.151 53.5573 202.581 53.216 204.255 53.216C205.653 53.216 206.842 53.4293 207.823 53.856C208.805 54.272 209.61 54.8107 210.239 55.472C210.879 56.1333 211.37 56.8213 211.711 57.536L208.799 58.976C208.447 58.4427 208.069 57.9733 207.663 57.568C207.258 57.152 206.783 56.832 206.239 56.608C205.695 56.3733 205.034 56.256 204.255 56.256C203.146 56.256 202.207 56.5173 201.439 57.04C200.671 57.552 200.058 58.2293 199.599 59.072C199.141 59.9147 198.81 60.8373 198.607 61.84C198.405 62.8427 198.303 63.8293 198.303 64.8C198.303 65.8453 198.415 66.8747 198.639 67.888C198.863 68.8907 199.221 69.8027 199.711 70.624C200.202 71.4347 200.821 72.0853 201.567 72.576C202.314 73.056 203.21 73.296 204.255 73.296C205.407 73.296 206.341 73.0347 207.055 72.512C207.77 71.9787 208.383 71.2907 208.895 70.448L211.871 71.552C211.455 72.4587 210.906 73.2747 210.223 74C209.541 74.7253 208.709 75.3013 207.727 75.728C206.746 76.1547 205.589 76.368 204.255 76.368ZM221.11 76V56.704H214.838V53.6H230.63V56.704H224.342V76H221.11ZM235.059 76V53.6H248.979V56.656H238.291V62.896H245.091V65.952H238.291V72.912H249.667V76H235.059ZM264.229 76.384L258.261 62.8C258.133 62.4907 257.994 62.1547 257.845 61.792C257.706 61.4293 257.583 61.088 257.477 60.768C257.498 61.024 257.514 61.3493 257.525 61.744C257.535 62.1387 257.541 62.4907 257.541 62.8V76H254.309V53.6H257.445L263.685 67.888C263.781 68.1227 263.877 68.3627 263.973 68.608C264.069 68.8533 264.165 69.104 264.261 69.36C264.346 69.1147 264.431 68.8693 264.517 68.624C264.613 68.3787 264.714 68.1333 264.821 67.888L271.077 53.6H274.149V76H270.901V62.8C270.901 62.48 270.906 62.1173 270.917 61.712C270.938 61.3067 270.949 60.9867 270.949 60.752C270.842 61.0507 270.709 61.3973 270.549 61.792C270.399 62.176 270.261 62.5227 270.133 62.832L264.229 76.384ZM279.996 76V53.6H283.228V62.88H293.436V53.6H296.668V76H293.436V65.936H283.228V76H279.996ZM302.528 76V53.6H305.76V62.896H311.504C312.88 62.896 314.042 63.0933 314.992 63.488C315.952 63.872 316.72 64.3893 317.296 65.04C317.882 65.68 318.309 66.384 318.576 67.152C318.842 67.92 318.976 68.6827 318.976 69.44C318.976 70.1973 318.842 70.96 318.576 71.728C318.309 72.496 317.882 73.2053 317.296 73.856C316.72 74.496 315.952 75.0133 314.992 75.408C314.042 75.8027 312.88 76 311.504 76H302.528ZM305.76 72.992H311.76C312.784 72.992 313.578 72.8213 314.144 72.48C314.72 72.128 315.125 71.6853 315.36 71.152C315.594 70.608 315.712 70.0373 315.712 69.44C315.712 68.864 315.594 68.3093 315.36 67.776C315.125 67.232 314.72 66.7893 314.144 66.448C313.578 66.1067 312.784 65.936 311.76 65.936H305.76V72.992ZM323.456 76V53.6H326.688V76H323.456ZM332.559 76V53.6H335.759V68.32C335.759 68.5653 335.748 68.88 335.727 69.264C335.716 69.6373 335.695 69.9787 335.663 70.288C335.801 69.9893 335.961 69.6693 336.143 69.328C336.335 68.9867 336.495 68.7093 336.623 68.496L346.111 53.6H349.343V76H346.127V61.568C346.127 61.0987 346.132 60.688 346.143 60.336C346.164 59.9733 346.191 59.6533 346.223 59.376C346.084 59.6427 345.897 59.9787 345.663 60.384C345.428 60.7893 345.231 61.1093 345.071 61.344L335.631 76H332.559ZM340.911 51.488C339.492 51.488 338.308 51.248 337.359 50.768C336.42 50.288 335.711 49.648 335.231 48.848C334.761 48.048 334.527 47.168 334.527 46.208H337.231C337.231 46.7413 337.38 47.216 337.679 47.632C337.988 48.048 338.42 48.3733 338.975 48.608C339.529 48.8427 340.175 48.96 340.911 48.96C341.647 48.96 342.292 48.8427 342.847 48.608C343.412 48.3733 343.849 48.048 344.159 47.632C344.468 47.216 344.623 46.7413 344.623 46.208H347.327C347.327 47.168 347.087 48.048 346.607 48.848C346.127 49.648 345.412 50.288 344.463 50.768C343.513 51.248 342.329 51.488 340.911 51.488ZM371.38 76.368C369.674 76.368 368.223 76.0373 367.028 75.376C365.844 74.7147 364.89 73.8293 364.164 72.72C363.439 71.6 362.906 70.352 362.564 68.976C362.234 67.6 362.068 66.208 362.068 64.8C362.068 63.424 362.239 62.0533 362.58 60.688C362.922 59.312 363.46 58.064 364.196 56.944C364.943 55.8133 365.908 54.912 367.092 54.24C368.276 53.5573 369.706 53.216 371.38 53.216C372.778 53.216 373.967 53.4293 374.948 53.856C375.93 54.272 376.735 54.8107 377.364 55.472C378.004 56.1333 378.495 56.8213 378.836 57.536L375.924 58.976C375.572 58.4427 375.194 57.9733 374.788 57.568C374.383 57.152 373.908 56.832 373.364 56.608C372.82 56.3733 372.159 56.256 371.38 56.256C370.271 56.256 369.332 56.5173 368.564 57.04C367.796 57.552 367.183 58.2293 366.724 59.072C366.266 59.9147 365.935 60.8373 365.732 61.84C365.53 62.8427 365.428 63.8293 365.428 64.8C365.428 65.8453 365.54 66.8747 365.764 67.888C365.988 68.8907 366.346 69.8027 366.836 70.624C367.327 71.4347 367.946 72.0853 368.692 72.576C369.439 73.056 370.335 73.296 371.38 73.296C372.532 73.296 373.466 73.0347 374.18 72.512C374.895 71.9787 375.508 71.2907 376.02 70.448L378.996 71.552C378.58 72.4587 378.031 73.2747 377.348 74C376.666 74.7253 375.834 75.3013 374.852 75.728C373.871 76.1547 372.714 76.368 371.38 76.368ZM383.371 76V53.6H386.571V68.32C386.571 68.5653 386.561 68.88 386.539 69.264C386.529 69.6373 386.507 69.9787 386.475 70.288C386.614 69.9893 386.774 69.6693 386.955 69.328C387.147 68.9867 387.307 68.7093 387.435 68.496L396.923 53.6H400.155V76H396.939V61.568C396.939 61.0987 396.945 60.688 396.955 60.336C396.977 59.9733 397.003 59.6533 397.035 59.376C396.897 59.6427 396.71 59.9787 396.475 60.384C396.241 60.7893 396.043 61.1093 395.883 61.344L386.443 76H383.371ZM406.028 76V53.6H409.26V62.88H419.468V53.6H422.7V76H419.468V65.936H409.26V76H406.028ZM433.391 76V56.704H427.119V53.6H442.911V56.704H436.623V76H433.391ZM447.34 76V53.6H461.26V56.656H450.572V62.896H457.372V65.952H450.572V72.912H461.948V76H447.34ZM473.818 76.384C471.578 76.384 469.764 75.8827 468.378 74.88C467.002 73.8667 466.02 72.608 465.434 71.104L468.298 69.888C468.831 71.0933 469.546 71.968 470.442 72.512C471.348 73.0453 472.463 73.312 473.786 73.312C475.204 73.312 476.34 73.0133 477.194 72.416C478.047 71.8187 478.474 70.9013 478.474 69.664C478.474 68.576 478.106 67.6907 477.37 67.008C476.634 66.3147 475.434 65.968 473.77 65.968H470.234V62.912H473.642C474.922 62.912 475.908 62.6027 476.602 61.984C477.295 61.3653 477.642 60.528 477.642 59.472C477.642 58.4907 477.295 57.712 476.602 57.136C475.908 56.56 474.954 56.272 473.738 56.272C472.415 56.272 471.37 56.5707 470.602 57.168C469.834 57.7547 469.274 58.4107 468.922 59.136L466.026 58C466.602 56.656 467.535 55.5253 468.826 54.608C470.127 53.68 471.77 53.216 473.754 53.216C475.204 53.216 476.474 53.4773 477.562 54C478.65 54.5227 479.492 55.248 480.09 56.176C480.698 57.0933 481.002 58.144 481.002 59.328C481.002 60.32 480.724 61.2747 480.17 62.192C479.626 63.0987 478.815 63.776 477.738 64.224C479.071 64.6613 480.084 65.328 480.778 66.224C481.482 67.12 481.834 68.2613 481.834 69.648C481.834 71.0133 481.492 72.2027 480.81 73.216C480.138 74.2187 479.199 74.9973 477.994 75.552C476.788 76.1067 475.396 76.384 473.818 76.384ZM494.528 76V53.6H497.728V68.32C497.728 68.5653 497.717 68.88 497.696 69.264C497.685 69.6373 497.664 69.9787 497.632 70.288C497.77 69.9893 497.93 69.6693 498.112 69.328C498.304 68.9867 498.464 68.7093 498.592 68.496L508.08 53.6H511.312V76H508.096V61.568C508.096 61.0987 508.101 60.688 508.112 60.336C508.133 59.9733 508.16 59.6533 508.192 59.376C508.053 59.6427 507.866 59.9787 507.632 60.384C507.397 60.7893 507.2 61.1093 507.04 61.344L497.6 76H494.528ZM524.965 76V53.6H541.317V76H538.101V56.72H528.197V76H524.965ZM547.184 76V53.6H556.048C557.893 53.6 559.349 53.936 560.416 54.608C561.493 55.2693 562.261 56.1227 562.72 57.168C563.178 58.2133 563.408 59.296 563.408 60.416C563.408 61.2053 563.274 62 563.008 62.8C562.741 63.5893 562.314 64.32 561.728 64.992C561.141 65.664 560.378 66.2027 559.44 66.608C558.512 67.0133 557.381 67.216 556.048 67.216H550.416V76H547.184ZM550.416 64.192H556.24C557.2 64.192 557.962 64 558.528 63.616C559.104 63.232 559.514 62.752 559.76 62.176C560.005 61.6 560.128 61.0133 560.128 60.416C560.128 59.8827 560.016 59.3227 559.792 58.736C559.578 58.1387 559.189 57.6373 558.624 57.232C558.058 56.8267 557.264 56.624 556.24 56.624H550.416V64.192ZM567.465 76V53.6H570.665V68.32C570.665 68.5653 570.654 68.88 570.633 69.264C570.622 69.6373 570.601 69.9787 570.569 70.288C570.708 69.9893 570.868 69.6693 571.049 69.328C571.241 68.9867 571.401 68.7093 571.529 68.496L581.017 53.6H584.249V76H581.033V61.568C581.033 61.0987 581.038 60.688 581.049 60.336C581.07 59.9733 581.097 59.6533 581.129 59.376C580.99 59.6427 580.804 59.9787 580.569 60.384C580.334 60.7893 580.137 61.1093 579.977 61.344L570.537 76H567.465ZM590.121 76V53.6H593.353V64.496L602.025 53.6H605.737L599.465 61.424L607.433 76H603.657L597.257 64.144L593.353 68.96V76H590.121ZM627.567 76V56.672H616.479L617.039 53.6H630.815V76H627.567ZM611.839 76.384L610.367 73.776C611.231 73.4987 611.93 73.1573 612.463 72.752C612.997 72.336 613.402 71.8027 613.679 71.152C613.957 70.4907 614.149 69.6533 614.255 68.64L615.887 53.6H619.151L617.407 69.248C617.183 71.296 616.634 72.88 615.759 74C614.895 75.1093 613.589 75.904 611.839 76.384ZM635.116 76L643.244 53.6H646.284L654.428 76H651.052L649.18 70.768H640.396L638.556 76H635.116ZM641.388 67.872H648.14L645.468 60.336C645.393 60.1333 645.313 59.904 645.228 59.648C645.142 59.3813 645.057 59.12 644.972 58.864C644.886 58.608 644.822 58.384 644.78 58.192C644.726 58.384 644.657 58.608 644.572 58.864C644.497 59.12 644.417 59.3813 644.332 59.648C644.246 59.904 644.166 60.1333 644.092 60.336L641.388 67.872ZM676.084 76V56.72H663.94L664.5 53.6H679.332V76H676.084ZM659.86 75.488L657.876 73.472C658.942 73.4507 659.806 73.0133 660.468 72.16C661.14 71.296 661.556 70.1013 661.716 68.576L663.348 53.6H666.612L664.884 69.12C664.724 70.528 664.414 71.6587 663.956 72.512C663.497 73.3547 662.985 73.9947 662.42 74.432C661.854 74.8587 661.332 75.1413 660.852 75.28C660.382 75.4187 660.052 75.488 659.86 75.488ZM657.524 80.896V72.88H682.068V79.392L678.82 80.896V76H660.772V79.424L657.524 80.896ZM686.434 76V53.6H689.666V62.88H699.874V53.6H703.106V76H699.874V65.936H689.666V76H686.434ZM707.397 76L715.525 53.6H718.565L726.709 76H723.333L721.461 70.768H712.677L710.837 76H707.397ZM713.669 67.872H720.421L717.749 60.336C717.674 60.1333 717.594 59.904 717.509 59.648C717.424 59.3813 717.338 59.12 717.253 58.864C717.168 58.608 717.104 58.384 717.061 58.192C717.008 58.384 716.938 58.608 716.853 58.864C716.778 59.12 716.698 59.3813 716.613 59.648C716.528 59.904 716.448 60.1333 716.373 60.336L713.669 67.872ZM745.074 76V66.768H738.642C737.042 66.768 735.714 66.4533 734.658 65.824C733.602 65.1947 732.813 64.3733 732.29 63.36C731.767 62.3467 731.506 61.28 731.506 60.16C731.506 59.0507 731.725 57.9947 732.162 56.992C732.61 55.9893 733.357 55.1733 734.402 54.544C735.447 53.9147 736.882 53.6 738.706 53.6H748.306V76H745.074ZM729.906 76L737.426 65.664H741.458L733.954 76H729.906ZM738.642 63.744H745.074V56.624H738.642C737.639 56.624 736.861 56.816 736.306 57.2C735.751 57.5733 735.362 58.0373 735.138 58.592C734.914 59.136 734.802 59.6747 734.802 60.208C734.802 60.7947 734.919 61.36 735.154 61.904C735.399 62.4373 735.799 62.88 736.354 63.232C736.919 63.5733 737.682 63.744 738.642 63.744ZM770.318 76.368C768.611 76.368 767.16 76.0373 765.966 75.376C764.782 74.7147 763.827 73.8293 763.102 72.72C762.376 71.6 761.843 70.352 761.502 68.976C761.171 67.6 761.006 66.208 761.006 64.8C761.006 63.424 761.176 62.0533 761.518 60.688C761.859 59.312 762.398 58.064 763.134 56.944C763.88 55.8133 764.846 54.912 766.03 54.24C767.214 53.5573 768.643 53.216 770.318 53.216C771.715 53.216 772.904 53.4293 773.886 53.856C774.867 54.272 775.672 54.8107 776.302 55.472C776.942 56.1333 777.432 56.8213 777.774 57.536L774.862 58.976C774.51 58.4427 774.131 57.9733 773.726 57.568C773.32 57.152 772.846 56.832 772.302 56.608C771.758 56.3733 771.096 56.256 770.318 56.256C769.208 56.256 768.27 56.5173 767.502 57.04C766.734 57.552 766.12 58.2293 765.662 59.072C765.203 59.9147 764.872 60.8373 764.67 61.84C764.467 62.8427 764.366 63.8293 764.366 64.8C764.366 65.8453 764.478 66.8747 764.702 67.888C764.926 68.8907 765.283 69.8027 765.774 70.624C766.264 71.4347 766.883 72.0853 767.63 72.576C768.376 73.056 769.272 73.296 770.318 73.296C771.47 73.296 772.403 73.0347 773.118 72.512C773.832 71.9787 774.446 71.2907 774.958 70.448L777.934 71.552C777.518 72.4587 776.968 73.2747 776.286 74C775.603 74.7253 774.771 75.3013 773.79 75.728C772.808 76.1547 771.651 76.368 770.318 76.368ZM782.309 76V53.6H785.509V68.32C785.509 68.5653 785.498 68.88 785.477 69.264C785.466 69.6373 785.445 69.9787 785.413 70.288C785.551 69.9893 785.711 69.6693 785.893 69.328C786.085 68.9867 786.245 68.7093 786.373 68.496L795.861 53.6H799.093V76H795.877V61.568C795.877 61.0987 795.882 60.688 795.893 60.336C795.914 59.9733 795.941 59.6533 795.973 59.376C795.834 59.6427 795.647 59.9787 795.413 60.384C795.178 60.7893 794.981 61.1093 794.821 61.344L785.381 76H782.309ZM804.965 76V53.6H808.197V62.88H818.405V53.6H821.637V76H818.405V65.936H808.197V76H804.965ZM827.496 76V53.6H841.416V56.656H830.728V62.896H837.528V65.952H830.728V72.912H842.104V76H827.496ZM846.746 76V53.6H855.61C857.456 53.6 858.912 53.936 859.978 54.608C861.056 55.2693 861.824 56.1227 862.282 57.168C862.741 58.2133 862.97 59.296 862.97 60.416C862.97 61.2053 862.837 62 862.57 62.8C862.304 63.5893 861.877 64.32 861.29 64.992C860.704 65.664 859.941 66.2027 859.002 66.608C858.074 67.0133 856.944 67.216 855.61 67.216H849.978V76H846.746ZM849.978 64.192H855.802C856.762 64.192 857.525 64 858.09 63.616C858.666 63.232 859.077 62.752 859.322 62.176C859.568 61.6 859.69 61.0133 859.69 60.416C859.69 59.8827 859.578 59.3227 859.354 58.736C859.141 58.1387 858.752 57.6373 858.186 57.232C857.621 56.8267 856.826 56.624 855.802 56.624H849.978V64.192ZM867.028 76V53.6H881.028V56.656H870.26V76H867.028ZM885.434 76V53.6H899.354V56.656H888.666V62.896H895.466V65.952H888.666V72.912H900.042V76H885.434ZM909.703 76V56.704H903.431V53.6H919.223V56.704H912.935V76H909.703ZM923.653 76V53.6H926.853V68.32C926.853 68.5653 926.842 68.88 926.821 69.264C926.81 69.6373 926.789 69.9787 926.757 70.288C926.895 69.9893 927.055 69.6693 927.237 69.328C927.429 68.9867 927.589 68.7093 927.717 68.496L937.205 53.6H940.437V76H937.221V61.568C937.221 61.0987 937.226 60.688 937.237 60.336C937.258 59.9733 937.285 59.6533 937.317 59.376C937.178 59.6427 936.991 59.9787 936.757 60.384C936.522 60.7893 936.325 61.1093 936.165 61.344L926.725 76H923.653ZM946.309 76V53.6H949.541V64.496L958.213 53.6H961.925L955.653 61.424L963.621 76H959.845L953.445 64.144L949.541 68.96V76H946.309ZM966.71 76L974.838 53.6H977.878L986.022 76H982.646L980.774 70.768H971.99L970.15 76H966.71ZM972.982 67.872H979.734L977.062 60.336C976.987 60.1333 976.907 59.904 976.822 59.648C976.736 59.3813 976.651 59.12 976.566 58.864C976.48 58.608 976.416 58.384 976.374 58.192C976.32 58.384 976.251 58.608 976.166 58.864C976.091 59.12 976.011 59.3813 975.926 59.648C975.84 59.904 975.76 60.1333 975.686 60.336L972.982 67.872ZM995.843 62.496L995.187 53.6H999.107L998.451 62.496H995.843ZM989.699 62.496L989.075 53.6H992.963L992.307 62.496H989.699Z" fill="#333333"/>
</svg>
