<svg width="52" height="67" viewBox="0 0 52 67" fill="none" xmlns="http://www.w3.org/2000/svg">
<mask id="path-1-inside-1_582_3044" fill="white">
<path fill-rule="evenodd" clip-rule="evenodd" d="M13.0796 7C13 7.78964 13 8.81242 13 10.4C13 10.9578 13 11.2367 13.0553 11.4669C13.2308 12.1982 13.8018 12.7692 14.5331 12.9447C14.7633 13 15.0422 13 15.6 13H36.4C36.9578 13 37.2367 13 37.4669 12.9447C38.1982 12.7692 38.7692 12.1982 38.9447 11.4669C39 11.2367 39 10.9578 39 10.4C39 8.81242 39 7.78964 38.9204 7H41.4C41.9799 7 42.2004 7.00056 42.3769 7.00888C46.4989 7.20327 49.7967 10.5011 49.9911 14.6231C49.9994 14.7996 50 15.0201 50 15.6V56.4C50 56.9799 49.9994 57.2004 49.9911 57.3769C49.7967 61.4989 46.4989 64.7967 42.3769 64.9911C42.2004 64.9994 41.9799 65 41.4 65H10.6C10.0201 65 9.7996 64.9994 9.62315 64.9911C5.50111 64.7967 2.20327 61.4989 2.00888 57.3769C2.00056 57.2004 2 56.9799 2 56.4V15.6C2 15.0201 2.00056 14.7996 2.00888 14.6231C2.20327 10.5011 5.50111 7.20327 9.62315 7.00888C9.7996 7.00056 10.0201 7 10.6 7H13.0796ZM13.5836 5H10.6C10.0429 5 9.76434 5 9.52894 5.0111C4.37638 5.25409 0.254089 9.37638 0.0111012 14.5289C0 14.7643 0 15.0429 0 15.6V56.4C0 56.9571 0 57.2357 0.0111012 57.4711C0.254089 62.6236 4.37638 66.7459 9.52894 66.9889C9.76434 67 10.0429 67 10.6 67H41.4C41.9571 67 42.2357 67 42.4711 66.9889C47.6236 66.7459 51.7459 62.6236 51.9889 57.4711C52 57.2357 52 56.9571 52 56.4V15.6C52 15.0429 52 14.7643 51.9889 14.5289C51.7459 9.37638 47.6236 5.25409 42.4711 5.0111C42.2357 5 41.9571 5 41.4 5H38.4164C37.4569 2.62693 35.4032 0.829784 32.8676 0.221041C31.9469 0 30.8312 0 28.6 0H23.4C21.1688 0 20.0531 0 19.1324 0.221041C16.5968 0.829784 14.5431 2.62693 13.5836 5ZM14 26C14 25.4477 14.4477 25 15 25H37C37.5523 25 38 25.4477 38 26C38 26.5523 37.5523 27 37 27H15C14.4477 27 14 26.5523 14 26ZM14 36C14 35.4477 14.4477 35 15 35H37C37.5523 35 38 35.4477 38 36C38 36.5523 37.5523 37 37 37H15C14.4477 37 14 36.5523 14 36ZM15 45C14.4477 45 14 45.4477 14 46C14 46.5523 14.4477 47 15 47H33C33.5523 47 34 46.5523 34 46C34 45.4477 33.5523 45 33 45H15Z"/>
</mask>
<path fill-rule="evenodd" clip-rule="evenodd" d="M13.0796 7C13 7.78964 13 8.81242 13 10.4C13 10.9578 13 11.2367 13.0553 11.4669C13.2308 12.1982 13.8018 12.7692 14.5331 12.9447C14.7633 13 15.0422 13 15.6 13H36.4C36.9578 13 37.2367 13 37.4669 12.9447C38.1982 12.7692 38.7692 12.1982 38.9447 11.4669C39 11.2367 39 10.9578 39 10.4C39 8.81242 39 7.78964 38.9204 7H41.4C41.9799 7 42.2004 7.00056 42.3769 7.00888C46.4989 7.20327 49.7967 10.5011 49.9911 14.6231C49.9994 14.7996 50 15.0201 50 15.6V56.4C50 56.9799 49.9994 57.2004 49.9911 57.3769C49.7967 61.4989 46.4989 64.7967 42.3769 64.9911C42.2004 64.9994 41.9799 65 41.4 65H10.6C10.0201 65 9.7996 64.9994 9.62315 64.9911C5.50111 64.7967 2.20327 61.4989 2.00888 57.3769C2.00056 57.2004 2 56.9799 2 56.4V15.6C2 15.0201 2.00056 14.7996 2.00888 14.6231C2.20327 10.5011 5.50111 7.20327 9.62315 7.00888C9.7996 7.00056 10.0201 7 10.6 7H13.0796ZM13.5836 5H10.6C10.0429 5 9.76434 5 9.52894 5.0111C4.37638 5.25409 0.254089 9.37638 0.0111012 14.5289C0 14.7643 0 15.0429 0 15.6V56.4C0 56.9571 0 57.2357 0.0111012 57.4711C0.254089 62.6236 4.37638 66.7459 9.52894 66.9889C9.76434 67 10.0429 67 10.6 67H41.4C41.9571 67 42.2357 67 42.4711 66.9889C47.6236 66.7459 51.7459 62.6236 51.9889 57.4711C52 57.2357 52 56.9571 52 56.4V15.6C52 15.0429 52 14.7643 51.9889 14.5289C51.7459 9.37638 47.6236 5.25409 42.4711 5.0111C42.2357 5 41.9571 5 41.4 5H38.4164C37.4569 2.62693 35.4032 0.829784 32.8676 0.221041C31.9469 0 30.8312 0 28.6 0H23.4C21.1688 0 20.0531 0 19.1324 0.221041C16.5968 0.829784 14.5431 2.62693 13.5836 5ZM14 26C14 25.4477 14.4477 25 15 25H37C37.5523 25 38 25.4477 38 26C38 26.5523 37.5523 27 37 27H15C14.4477 27 14 26.5523 14 26ZM14 36C14 35.4477 14.4477 35 15 35H37C37.5523 35 38 35.4477 38 36C38 36.5523 37.5523 37 37 37H15C14.4477 37 14 36.5523 14 36ZM15 45C14.4477 45 14 45.4477 14 46C14 46.5523 14.4477 47 15 47H33C33.5523 47 34 46.5523 34 46C34 45.4477 33.5523 45 33 45H15Z" fill="#F0F3F2"/>
<path d="M13.0796 7L15.0695 7.20066L15.2914 5H13.0796V7ZM13.0553 11.4669L11.1105 11.9338L11.1105 11.9338L13.0553 11.4669ZM14.5331 12.9447L14.0662 14.8895L14.0662 14.8895L14.5331 12.9447ZM37.4669 12.9447L37.9338 14.8895L37.9338 14.8895L37.4669 12.9447ZM38.9447 11.4669L37 11V11L38.9447 11.4669ZM38.9204 7V5H36.7086L36.9305 7.20066L38.9204 7ZM42.3769 7.00888L42.4711 5.0111L42.3769 7.00888ZM49.9911 14.6231L51.9889 14.529V14.5289L49.9911 14.6231ZM49.9911 57.3769L51.9889 57.4711V57.471L49.9911 57.3769ZM42.3769 64.9911L42.471 66.9889H42.4711L42.3769 64.9911ZM9.62315 64.9911L9.52894 66.9889H9.52899L9.62315 64.9911ZM2.00888 57.3769L4.00666 57.2826V57.2826L2.00888 57.3769ZM2.00888 14.6231L4.00666 14.7174V14.7174L2.00888 14.6231ZM9.62315 7.00888L9.52894 5.0111H9.52893L9.62315 7.00888ZM13.5836 5V7H14.9322L15.4378 5.74968L13.5836 5ZM9.52894 5.0111L9.62315 7.00888L9.52894 5.0111ZM0.0111012 14.5289L2.00888 14.6231L0.0111012 14.5289ZM0.0111012 57.4711L2.00888 57.3769L0.0111012 57.4711ZM9.52894 66.9889L9.43472 68.9867H9.43473L9.52894 66.9889ZM42.4711 66.9889L42.5653 68.9867H42.5653L42.4711 66.9889ZM51.9889 57.4711L53.9867 57.5653V57.5653L51.9889 57.4711ZM51.9889 14.5289L53.9867 14.4347V14.4347L51.9889 14.5289ZM42.4711 5.0111L42.3769 7.00888L42.4711 5.0111ZM38.4164 5L36.5622 5.74968L37.0678 7H38.4164V5ZM32.8676 0.221041L32.4007 2.16578V2.16578L32.8676 0.221041ZM19.1324 0.221041L18.6655 -1.7237L19.1324 0.221041ZM15 10.4C15 8.76574 15.0025 7.86543 15.0695 7.20066L11.0897 6.79934C10.9975 7.71384 11 8.85909 11 10.4H15ZM15 11C15.0155 11.0645 15.0097 11.0824 15.0052 10.9743C15.0004 10.8566 15 10.6952 15 10.4H11C11 10.8423 10.9861 11.4154 11.1105 11.9338L15 11ZM15 11L15 11L11.1105 11.9338C11.4617 13.3964 12.6036 14.5383 14.0662 14.8895L15 11ZM15.6 11C15.3048 11 15.1434 10.9996 15.0257 10.9948C14.9176 10.9903 14.9355 10.9845 15 11L14.0662 14.8895C14.5846 15.0139 15.1577 15 15.6 15V11ZM36.4 11H15.6V15H36.4V11ZM37 11C37.0645 10.9845 37.0824 10.9903 36.9743 10.9948C36.8566 10.9996 36.6952 11 36.4 11V15C36.8423 15 37.4154 15.0139 37.9338 14.8895L37 11ZM37 11V11L37.9338 14.8895C39.3964 14.5383 40.5383 13.3964 40.8895 11.9338L37 11ZM37 10.4C37 10.6952 36.9996 10.8566 36.9948 10.9743C36.9903 11.0824 36.9845 11.0645 37 11L40.8895 11.9338C41.0139 11.4154 41 10.8423 41 10.4H37ZM36.9305 7.20066C36.9975 7.86543 37 8.76574 37 10.4H41C41 8.85909 41.0025 7.71384 40.9103 6.79934L36.9305 7.20066ZM38.9204 9H41.4V5H38.9204V9ZM41.4 9C42.0042 9 42.1654 9.00113 42.2826 9.00666L42.4711 5.0111C42.2354 4.99999 41.9556 5 41.4 5V9ZM42.2826 9.00666C45.3742 9.15245 47.8475 11.6258 47.9933 14.7174L51.9889 14.5289C51.7459 9.37638 47.6236 5.25409 42.4711 5.0111L42.2826 9.00666ZM47.9933 14.7173C47.9989 14.8346 48 14.9958 48 15.6H52C52 15.0444 52 14.7647 51.9889 14.529L47.9933 14.7173ZM48 15.6V56.4H52V15.6H48ZM48 56.4C48 57.0042 47.9989 57.1654 47.9933 57.2827L51.9889 57.471C52 57.2353 52 56.9556 52 56.4H48ZM47.9933 57.2826C47.8475 60.3742 45.3742 62.8475 42.2826 62.9933L42.4711 66.9889C47.6236 66.7459 51.7459 62.6236 51.9889 57.4711L47.9933 57.2826ZM42.2827 62.9933C42.1655 62.9989 42.0042 63 41.4 63V67C41.9557 67 42.2353 67 42.471 66.9889L42.2827 62.9933ZM41.4 63H10.6V67H41.4V63ZM10.6 63C9.99584 63 9.83454 62.9989 9.7173 62.9933L9.52899 66.9889C9.76466 67 10.0443 67 10.6 67V63ZM9.71736 62.9933C6.62583 62.8475 4.15245 60.3742 4.00666 57.2826L0.0111013 57.4711C0.254089 62.6236 4.37638 66.7459 9.52894 66.9889L9.71736 62.9933ZM4.00666 57.2826C4.00113 57.1654 4 57.0042 4 56.4H0C0 56.9556 -1.47793e-05 57.2354 0.0111015 57.4711L4.00666 57.2826ZM4 56.4V15.6H0V56.4H4ZM4 15.6C4 14.9958 4.00113 14.8346 4.00666 14.7174L0.0111014 14.5289C-1.47721e-05 14.7646 0 15.0444 0 15.6H4ZM4.00666 14.7174C4.15245 11.6258 6.62583 9.15245 9.71736 9.00666L9.52893 5.0111C4.37638 5.25409 0.25409 9.37638 0.0111013 14.5289L4.00666 14.7174ZM9.71736 9.00666C9.83456 9.00113 9.99578 9 10.6 9V5C10.0444 5 9.76465 4.99999 9.52894 5.0111L9.71736 9.00666ZM10.6 9H13.0796V5H10.6V9ZM10.6 7H13.5836V3H10.6V7ZM9.62315 7.00888C9.7996 7.00056 10.0201 7 10.6 7V3C10.0657 3 9.72907 2.99944 9.43472 3.01332L9.62315 7.00888ZM2.00888 14.6231C2.20327 10.5011 5.50111 7.20327 9.62315 7.00888L9.43472 3.01332C3.25166 3.30491 -1.69509 8.25166 -1.98668 14.4347L2.00888 14.6231ZM2 15.6C2 15.0201 2.00056 14.7996 2.00888 14.6231L-1.98668 14.4347C-2.00056 14.7291 -2 15.0657 -2 15.6H2ZM2 56.4V15.6H-2V56.4H2ZM2.00888 57.3769C2.00056 57.2004 2 56.9799 2 56.4H-2C-2 56.9343 -2.00056 57.2709 -1.98668 57.5653L2.00888 57.3769ZM9.62315 64.9911C5.50111 64.7967 2.20327 61.4989 2.00888 57.3769L-1.98668 57.5653C-1.69509 63.7483 3.25166 68.6951 9.43472 68.9867L9.62315 64.9911ZM10.6 65C10.0201 65 9.7996 64.9994 9.62314 64.9911L9.43473 68.9867C9.72907 69.0006 10.0657 69 10.6 69V65ZM41.4 65H10.6V69H41.4V65ZM42.3769 64.9911C42.2004 64.9994 41.9799 65 41.4 65V69C41.9343 69 42.2709 69.0006 42.5653 68.9867L42.3769 64.9911ZM49.9911 57.3769C49.7967 61.4989 46.4989 64.7967 42.3769 64.9911L42.5653 68.9867C48.7483 68.6951 53.6951 63.7483 53.9867 57.5653L49.9911 57.3769ZM50 56.4C50 56.9799 49.9994 57.2004 49.9911 57.3769L53.9867 57.5653C54.0006 57.2709 54 56.9343 54 56.4H50ZM50 15.6V56.4H54V15.6H50ZM49.9911 14.6231C49.9994 14.7996 50 15.0201 50 15.6H54C54 15.0657 54.0006 14.7291 53.9867 14.4347L49.9911 14.6231ZM42.3769 7.00888C46.4989 7.20327 49.7967 10.5011 49.9911 14.6231L53.9867 14.4347C53.6951 8.25166 48.7483 3.30491 42.5653 3.01332L42.3769 7.00888ZM41.4 7C41.9799 7 42.2004 7.00056 42.3769 7.00888L42.5653 3.01332C42.2709 2.99944 41.9343 3 41.4 3V7ZM38.4164 7H41.4V3H38.4164V7ZM32.4007 2.16578C34.302 2.62226 35.8427 3.97003 36.5622 5.74968L40.2706 4.25032C39.0712 1.28383 36.5043 -0.962688 33.3345 -1.7237L32.4007 2.16578ZM28.6 2C30.9468 2 31.7682 2.01393 32.4007 2.16578L33.3345 -1.7237C32.1256 -2.01393 30.7157 -2 28.6 -2V2ZM23.4 2H28.6V-2H23.4V2ZM19.5993 2.16578C20.2318 2.01393 21.0532 2 23.4 2V-2C21.2843 -2 19.8744 -2.01393 18.6655 -1.7237L19.5993 2.16578ZM15.4378 5.74968C16.1573 3.97003 17.698 2.62226 19.5993 2.16578L18.6655 -1.7237C15.4957 -0.962688 12.9288 1.28383 11.7294 4.25032L15.4378 5.74968ZM15 23C13.3431 23 12 24.3431 12 26H16C16 26.5523 15.5523 27 15 27V23ZM37 23H15V27H37V23ZM40 26C40 24.3431 38.6569 23 37 23V27C36.4477 27 36 26.5523 36 26H40ZM37 29C38.6569 29 40 27.6569 40 26H36C36 25.4477 36.4477 25 37 25V29ZM15 29H37V25H15V29ZM12 26C12 27.6569 13.3431 29 15 29V25C15.5523 25 16 25.4477 16 26H12ZM15 33C13.3431 33 12 34.3431 12 36H16C16 36.5523 15.5523 37 15 37V33ZM37 33H15V37H37V33ZM40 36C40 34.3431 38.6569 33 37 33V37C36.4477 37 36 36.5523 36 36H40ZM37 39C38.6569 39 40 37.6569 40 36H36C36 35.4477 36.4477 35 37 35V39ZM15 39H37V35H15V39ZM12 36C12 37.6569 13.3431 39 15 39V35C15.5523 35 16 35.4477 16 36H12ZM16 46C16 46.5523 15.5523 47 15 47V43C13.3431 43 12 44.3431 12 46H16ZM15 45C15.5523 45 16 45.4477 16 46H12C12 47.6569 13.3431 49 15 49V45ZM33 45H15V49H33V45ZM32 46C32 45.4477 32.4477 45 33 45V49C34.6569 49 36 47.6569 36 46H32ZM33 47C32.4477 47 32 46.5523 32 46H36C36 44.3431 34.6569 43 33 43V47ZM15 47H33V43H15V47Z" fill="#333333" mask="url(#path-1-inside-1_582_3044)"/>
</svg>
