<svg width="105" height="98" viewBox="0 0 105 98" fill="none" xmlns="http://www.w3.org/2000/svg">
<path d="M47.3691 0.0709056C48.9631 -0.0622774 50.6475 0.015551 52.2448 0.113288C52.7031 0.141361 53.161 0.176027 53.6183 0.217286C54.0757 0.258546 54.5324 0.306378 54.9885 0.360784C55.4444 0.415198 55.8996 0.476162 56.3539 0.543675C56.8081 0.611188 57.2613 0.685227 57.7135 0.765792C58.1657 0.846357 58.6166 0.933418 59.0663 1.02697C59.516 1.12052 59.9642 1.22052 60.411 1.32698C60.8579 1.43344 61.3031 1.54631 61.7467 1.66558C62.1904 1.78486 62.6322 1.9105 63.0722 2.0425C63.5123 2.1745 63.9504 2.31282 64.3865 2.45744C64.8226 2.60204 65.2565 2.75292 65.6884 2.91006C66.1201 3.06713 66.5496 3.23041 66.9769 3.39993C67.404 3.56944 67.8287 3.74501 68.2509 3.92666C68.673 4.10838 69.0925 4.29616 69.5093 4.49001C69.9262 4.68379 70.3401 4.88351 70.7512 5.08917C71.1624 5.29492 71.5705 5.50653 71.9757 5.72401C72.3807 5.94141 72.7827 6.16465 73.1815 6.39371C74.2067 6.96959 76.1216 8.04231 77 8.76139C76.8836 8.82177 76.1612 8.34939 76.0204 8.2668C75.0541 7.70124 74.072 7.16502 73.0741 6.65814C72.0762 6.15126 71.0642 5.67462 70.0382 5.22824C69.012 4.78185 67.9737 4.3665 66.923 3.98219C65.8724 3.59779 64.8114 3.24514 63.7399 2.92424C63.4546 2.84098 63.1686 2.76036 62.8818 2.68238C62.595 2.60433 62.3076 2.52892 62.0195 2.45617C61.7313 2.38342 61.4425 2.31332 61.1531 2.24586C60.8637 2.1784 60.5738 2.1136 60.2832 2.05146C59.9926 1.98932 59.7014 1.92984 59.4098 1.87304C59.1181 1.81624 58.826 1.76211 58.5334 1.71066C58.2407 1.65921 57.9476 1.61044 57.6541 1.56436C57.3606 1.51828 57.0666 1.47489 56.7723 1.43419C56.4781 1.3935 56.1835 1.3555 55.8884 1.32021C55.5934 1.28492 55.2981 1.25233 55.0026 1.22245C54.707 1.19257 54.4111 1.1654 54.115 1.14093C53.819 1.11647 53.5227 1.09473 53.2262 1.0757C52.9298 1.05667 52.6331 1.04035 52.3363 1.02676C52.0396 1.01317 51.7427 1.0023 51.4457 0.994148C51.1488 0.985996 50.8517 0.980565 50.5547 0.977855C50.2576 0.975145 49.9606 0.975157 49.6635 0.97789C49.3665 0.980623 49.0694 0.986082 48.7725 0.994267C48.4755 1.00244 48.1786 1.01334 47.8819 1.02696C47.5851 1.04058 47.2885 1.05692 46.992 1.07597C46.6956 1.09503 46.3993 1.1168 46.1032 1.14129C45.8071 1.16577 45.5113 1.19297 45.2158 1.22288C44.9201 1.25279 44.6248 1.2854 44.3299 1.32071C44.0349 1.35603 43.7402 1.39406 43.4459 1.43478C43.1516 1.4755 42.8577 1.51891 42.5642 1.56502C42.2707 1.61112 41.9776 1.65991 41.6849 1.71139C41.3923 1.76287 41.1002 1.81703 40.8085 1.87386C40.5169 1.93069 40.2258 1.99019 39.9352 2.05236C39.6446 2.11452 39.3546 2.17935 39.0652 2.24684C38.7758 2.31432 38.4871 2.38445 38.1989 2.45722C37.9108 2.53 37.6233 2.6054 37.3365 2.68344C37.0498 2.7615 36.7638 2.84216 36.4785 2.92542C36.1932 3.00868 35.9087 3.09458 35.6249 3.18311C32.5894 4.1079 29.5304 5.32323 26.7536 6.87625C24.0704 8.37692 21.3932 10.1427 19.014 12.0949C18.7788 12.2884 18.5454 12.4841 18.3138 12.682C18.0822 12.8799 17.8525 13.08 17.6247 13.2823C17.3969 13.4846 17.171 13.689 16.947 13.8955C16.723 14.1021 16.501 14.3108 16.2809 14.5215C16.0608 14.7323 15.8428 14.9451 15.6267 15.16C15.4105 15.3749 15.1964 15.5918 14.9844 15.8107C14.7724 16.0297 14.5624 16.2506 14.3545 16.4734C14.1466 16.6963 13.9408 16.9212 13.7371 17.1481C13.5334 17.3748 13.3318 17.6036 13.1324 17.8342C12.933 18.0648 12.7357 18.2973 12.5407 18.5317C12.3456 18.766 12.1528 19.0022 11.9621 19.2402C11.7714 19.4782 11.583 19.718 11.3968 19.9595C11.2107 20.2011 11.0268 20.4444 10.8452 20.6895C10.6636 20.9345 10.4843 21.1813 10.3073 21.4297C10.1303 21.6782 9.95561 21.9283 9.78331 22.18C9.61102 22.4318 9.44107 22.6851 9.27347 22.9401C9.10595 23.1951 8.94078 23.4516 8.77796 23.7097C8.61521 23.9678 8.45486 24.2274 8.29689 24.4885C8.139 24.7497 7.98358 25.0123 7.83063 25.2763C7.6776 25.5405 7.52706 25.806 7.37902 26.0728C7.23099 26.3398 7.08547 26.6081 6.94245 26.8777C6.79945 27.1474 6.65897 27.4184 6.52103 27.6908C6.38309 27.9631 6.24771 28.2367 6.11489 28.5116C5.98207 28.7865 5.85183 29.0627 5.72418 29.34C5.59653 29.6174 5.47148 29.8959 5.34904 30.1757C5.2266 30.4554 5.10678 30.7363 4.9896 31.0183C4.87241 31.3003 4.75788 31.5834 4.64599 31.8676C4.5341 32.1517 4.42488 32.4369 4.31833 32.7231C4.21178 33.0094 4.10792 33.2966 4.00675 33.5848C3.90557 33.873 3.8071 34.1621 3.71133 34.4522C3.61557 34.7422 3.52252 35.0331 3.4322 35.325C3.34188 35.6168 3.2543 35.9095 3.16945 36.203C3.09025 36.4724 3.01349 36.7424 2.93919 37.0132C2.86487 37.284 2.79302 37.5554 2.72362 37.8275C2.65422 38.0995 2.58729 38.3722 2.52283 38.6456C2.45837 38.9189 2.39639 39.1928 2.33689 39.4672C2.27738 39.7417 2.22037 40.0167 2.16584 40.2922C2.11131 40.5677 2.05928 40.8437 2.00975 41.1201C1.96023 41.3965 1.9132 41.6734 1.86868 41.9507C1.82416 42.228 1.78216 42.5057 1.74266 42.7838C1.70317 43.0619 1.6662 43.3403 1.63175 43.619C1.59729 43.8978 1.56536 44.1769 1.53596 44.4563C1.50656 44.7356 1.47969 45.0152 1.45535 45.295C1.43101 45.5748 1.40921 45.8548 1.38994 46.1351C1.37067 46.4153 1.35393 46.6957 1.33973 46.9762C1.32554 47.2568 1.31389 47.5375 1.30477 47.8182C1.29565 48.0989 1.28908 48.3798 1.28505 48.6606C1.28101 48.9415 1.27952 49.2224 1.28057 49.5033C1.28163 49.7842 1.28522 50.0651 1.29135 50.3459C1.29749 50.6267 1.30616 50.9075 1.31739 51.1882C1.3286 51.4688 1.34236 51.7494 1.35866 52.0298C1.37495 52.3102 1.39379 52.5905 1.41515 52.8706C1.43652 53.1506 1.46043 53.4304 1.48686 53.7101C1.5133 53.9898 1.54226 54.2692 1.57375 54.5483C1.60525 54.8273 1.63926 55.1061 1.67579 55.3847C1.71234 55.6631 1.75139 55.9412 1.79296 56.2191C1.83454 56.4968 1.87862 56.7742 1.92522 57.0511C1.97181 57.3281 2.02091 57.6046 2.07251 57.8807C2.12411 58.1568 2.1782 58.4323 2.23479 58.7074C2.29137 58.9824 2.35045 59.257 2.412 59.531C2.47356 59.805 2.53759 60.0784 2.6041 60.3513C2.67061 60.624 2.73958 60.8962 2.81101 61.1678C2.88244 61.4393 2.95633 61.7102 3.03266 61.9805C3.109 62.2507 3.18777 62.5201 3.26899 62.7889C3.74736 64.3861 4.35605 66.4912 5.15207 67.9383C6.11171 68.0909 7.07403 68.2239 8.03903 68.3373C8.6156 65.8916 8.93091 63.3844 9.53779 60.9475C9.3651 60.4348 9.17138 59.8947 9.11828 59.3531C9.03476 58.5013 9.40786 56.7688 9.64916 55.922C10.7788 55.2096 12.1749 54.9543 13.4776 54.7939C13.6651 53.9901 13.7938 53.1725 13.9841 52.3688C14.1438 51.6947 14.3737 51.0423 14.5591 50.3758C14.7112 49.8289 14.8085 49.2698 14.9766 48.7266C15.5355 46.9199 16.3838 45.2171 17.362 43.6061C18.1407 42.3238 18.9951 41.0587 19.9714 39.9197C22.5694 36.8891 26.8793 33.5137 30.8105 32.561C30.9137 32.1985 30.9885 31.7739 31.2494 31.4909C31.331 31.4938 31.4113 31.4982 31.4926 31.5041C31.8266 31.2063 32.0504 29.4676 32.1567 28.9466C32.8455 28.8588 33.5699 28.8674 34.2647 28.8283C34.757 27.3818 34.9862 25.7507 35.2976 24.2516C35.1507 24.1267 35.0059 23.9993 34.8631 23.8696L35.1778 23.4636C35.0418 23.2478 34.8904 22.9928 34.8027 22.7523C34.7422 22.5861 34.7528 22.5266 34.8212 22.3668C35.0585 22.176 35.4117 22.1329 35.6995 22.0434C35.9084 21.0441 36.0473 21.4478 36.3693 20.8534C36.4876 20.6348 36.4945 20.2848 36.5591 20.0401C36.6342 19.756 36.794 19.4714 36.9439 19.2188C37.5543 18.1903 38.369 17.4497 39.5323 17.1484C39.6512 16.6725 40.0152 16.4314 40.1539 16.0033C40.3224 15.4821 40.0278 14.8084 40.3189 14.2885L40.5243 14.252C40.7202 13.8502 40.9757 13.2911 41.0215 12.8443C41.0543 12.5236 41.0101 12.2446 41.1365 11.9329C41.239 11.6805 41.3687 11.5133 41.6223 11.4136C41.7785 11.4477 41.813 11.4492 41.9057 11.5928C42.222 12.0833 41.8429 12.9021 41.6906 13.3905C41.7877 13.5633 41.8686 13.7275 41.938 13.9134C41.7499 14.5778 42.0555 14.2719 42.0941 14.7811C42.1291 15.2446 41.8682 15.8627 41.5572 16.1953C41.5666 16.5163 41.6026 16.8279 41.6432 17.1461C41.8571 17.356 42.0626 17.5738 42.2598 17.7996C43.4533 19.1691 43.5636 20.3558 43.4431 22.0956C43.5718 22.2354 43.7175 22.3773 43.7757 22.5635C43.8992 22.9571 43.6311 23.334 43.4497 23.6621C43.6811 23.7803 44.0706 23.9038 44.2144 24.1158L44.1513 24.3048C43.9881 24.4744 43.7714 24.5131 43.553 24.5765C43.4785 24.7481 43.4893 24.9239 43.4861 25.1076C43.3645 25.2716 43.2295 25.3684 43.0634 25.4847C42.6879 27.1164 42.23 28.7253 41.9311 30.3743C42.6497 30.7049 43.4173 31.1348 44.1772 31.343C44.0283 32.0444 43.8286 32.7427 43.6613 33.4412C43.8393 33.5571 44.0164 33.6742 44.1928 33.7924C44.1879 34.2376 44.1071 34.6784 44.0398 35.1175C44.8795 35.9648 45.6962 36.833 46.424 37.7807C48.8872 40.9889 50.8237 45.186 51.5709 49.1756C51.8988 50.9272 52.0089 52.6931 52.0379 54.4722L52.6548 54.9723C52.4456 55.8989 51.3279 62.3231 51.3279 62.3231C53.1074 64.0702 54.437 66.2682 54.2935 68.7579C54.0882 72.3178 52.7765 78.3475 47.6157 86.6365L40.5879 96C40.5879 96 37.1648 95.7234 36.0084 95.5174C28.0871 94.1065 21.0606 90.3801 15.1267 84.9691C13.017 83.0453 11.233 80.9482 9.54437 78.6501C9.36424 78.4037 9.18642 78.1557 9.01091 77.906C8.8354 77.6563 8.6622 77.405 8.49131 77.152C8.3205 76.8991 8.15201 76.6446 7.98582 76.3885C7.81963 76.1324 7.65583 75.8748 7.49441 75.6157C7.33304 75.3565 7.17406 75.0959 7.01748 74.8338C6.8609 74.5717 6.70675 74.3081 6.55503 74.0432C6.40332 73.7781 6.25407 73.5117 6.10728 73.244C5.96049 72.9762 5.8162 72.707 5.67439 72.4365C5.53258 72.166 5.39328 71.8942 5.25649 71.6211C5.1197 71.348 4.98545 71.0737 4.85374 70.7981C4.72202 70.5225 4.59287 70.2457 4.46627 69.9677C4.33967 69.6896 4.21566 69.4104 4.09422 69.1301C3.97279 68.8497 3.85396 68.5683 3.73772 68.2858C3.62149 68.0032 3.50788 67.7196 3.39688 67.4348C3.2859 67.1502 3.17755 66.8644 3.07184 66.5777C2.96614 66.291 2.86309 66.0033 2.7627 65.7147C2.66231 65.426 2.5646 65.1365 2.46957 64.8461C2.37453 64.5556 2.28218 64.2642 2.19253 63.9721C2.10289 63.6799 2.01594 63.3868 1.9317 63.093C1.84747 62.7992 1.76596 62.5046 1.68718 62.2092C1.60839 61.9139 1.53234 61.6179 1.45903 61.3211C1.38572 61.0243 1.31515 60.7269 1.24734 60.4288C1.17952 60.1307 1.11447 59.832 1.05217 59.5327C0.989881 59.2334 0.930356 58.9335 0.873599 58.6331C0.816851 58.3327 0.762886 58.0318 0.711706 57.7304C0.660518 57.4289 0.612121 57.127 0.566517 56.8247C0.520905 56.5224 0.478097 56.2197 0.438093 55.9165C0.398081 55.6134 0.360876 55.3099 0.326479 55.0061C0.292082 54.7023 0.260493 54.3982 0.231712 54.0937C0.202938 53.7893 0.17698 53.4846 0.153837 53.1797C0.130694 52.8748 0.110371 52.5698 0.0928671 52.2645C0.0753632 51.9591 0.0606825 51.6537 0.0488253 51.3482C-0.539258 38.8272 4.21681 25.7893 12.6012 16.5338C12.877 16.2274 13.1564 15.9244 13.4396 15.625C13.7228 15.3255 14.0097 15.0296 14.3001 14.7373C14.5906 14.4449 14.8847 14.1563 15.1823 13.8712C15.4798 13.5861 15.7808 13.3048 16.0853 13.0273C16.3897 12.7498 16.6975 12.476 17.0088 12.206C17.3199 11.9362 17.6344 11.6702 17.9521 11.408C18.2698 11.146 18.5907 10.8878 18.9147 10.6337C19.2388 10.3795 19.5659 10.1295 19.8961 9.8835C20.2263 9.6375 20.5594 9.3956 20.8956 9.1578C21.2317 8.92007 21.5708 8.68656 21.9127 8.45726C22.2545 8.22797 22.5991 8.00292 22.9465 7.78213C23.2939 7.56142 23.644 7.34504 23.9967 7.133C24.3494 6.92095 24.7046 6.71327 25.0624 6.50997C25.4203 6.30675 25.7805 6.10801 26.1432 5.91377C26.5059 5.71944 26.8709 5.52969 27.2382 5.3445C27.6056 5.15924 27.9752 4.97858 28.347 4.80253C28.7187 4.62648 29.0926 4.45508 29.4686 4.28833C29.8446 4.12157 30.2226 3.95954 30.6026 3.80224C30.9825 3.64486 31.3644 3.4922 31.7481 3.34428C32.1318 3.19643 32.5173 3.05334 32.9045 2.91502C33.2917 2.7767 33.6806 2.64323 34.0711 2.5146C34.4616 2.38595 34.8537 2.26217 35.2472 2.14325C35.6408 2.02434 36.0357 1.91034 36.432 1.80123C36.8284 1.69214 37.226 1.58798 37.625 1.48875C38.0238 1.38952 38.4239 1.29526 38.8251 1.20597C39.2263 1.11669 39.6286 1.0324 40.0319 0.953101C40.4352 0.873796 40.8394 0.799518 41.2445 0.730264C41.6496 0.661002 42.0554 0.596785 42.4621 0.537614C42.8688 0.478435 43.2762 0.424316 43.6842 0.375259C44.0923 0.326201 44.5008 0.28222 44.9099 0.243315C45.319 0.204403 45.7285 0.170577 46.1384 0.141834C46.5483 0.113099 46.9586 0.0894558 47.3691 0.0709056Z" fill="#002D1B"/>
<path d="M34.361 30C34.612 30.0097 34.712 29.9914 34.9032 30.0884C34.9549 30.1943 35.0116 30.3052 34.9979 30.4164C34.9775 30.5831 34.8931 30.8909 34.6621 30.9999C34.4972 30.9984 34.302 31.0093 34.1567 30.96C34.0653 30.929 34.0415 30.8487 34.021 30.7953C33.9352 30.5717 34.1248 30.1841 34.361 30Z" fill="#F0F3F2"/>
<path d="M40.2627 31L41 31.1694L40.751 32C40.4921 31.9506 40.2481 31.8775 40 31.8068L40.2627 31Z" fill="#F0F3F2"/>
<path d="M37.2559 30L38 30.091C37.9145 30.3962 37.8043 30.6979 37.6998 31L37 30.9372C37.0718 30.6225 37.1623 30.3117 37.2559 30Z" fill="#F0F3F2"/>
<path d="M36.2211 30C36.4845 30.0011 36.7395 30.0256 37 30.0508C36.9049 30.3626 36.8278 30.6787 36.7433 30.9924C36.5093 31.0161 36.2367 30.978 36 30.9642C36.061 30.6406 36.1388 30.3209 36.2211 30Z" fill="#F0F3F2"/>
<path d="M39.2164 30C39.4788 30.0516 39.74 30.1064 40 30.1644C39.928 30.4435 39.8314 30.7195 39.7415 30.9956C39.5027 31.0203 39.2299 30.9359 39 30.8872C39.0447 30.5907 39.14 30.2931 39.2164 30Z" fill="#F0F3F2"/>
<path d="M15 82C15.667 82.1007 16.3309 82.2805 17 82.3889C16.9522 82.8852 16.8802 83.3789 16.8147 83.8724C16.8025 83.9111 16.7626 83.9655 16.7419 84C16.3181 83.8876 15.3194 82.4161 15 82Z" fill="#F0F3F2"/>
<path d="M14 81C14.9906 81.0615 15.952 81.1686 16.9282 81.3292L17 82C16.2354 81.9287 15.4819 81.7146 14.7119 81.7025C14.4671 81.4753 14.2356 81.2348 14 81Z" fill="#F0F3F2"/>
<path d="M43.1007 86C44.0648 86.2553 45.0314 86.5366 46 86.7273C45.8579 87.0809 45.6503 87.7687 45.459 88C44.6727 87.5537 43.8048 87.4377 43 87.0786C43.0006 86.707 43.0541 86.3593 43.1007 86Z" fill="#F0F3F2"/>
<path d="M20.0773 82C21.3748 82.4267 22.7048 82.6258 23.9977 83.0994C24.0059 83.3988 23.9902 83.7008 23.981 84C22.6493 83.7558 21.3206 83.2982 20 82.9394L20.0773 82Z" fill="#F0F3F2"/>
<path d="M27.1768 84C29.1149 84.1872 31.0661 84.3443 33 84.5417C32.9534 84.7103 32.9737 84.8799 32.7208 84.9953C32.5484 85.001 32.3843 85.0016 32.2118 84.9968C31.9022 84.8871 30.4514 84.8257 30.0078 84.79C29.0034 84.7127 28.0008 84.6298 27 84.5412C27.0694 84.3611 27.1428 84.1829 27.1768 84Z" fill="#F0F3F2"/>
<path d="M35.1834 85C36.4561 85.153 37.7391 85.3013 39 85.5049L38.9436 86C38.5581 85.9515 38.1457 85.8738 37.7563 85.8646C37.2589 85.7702 36.7259 85.7202 36.22 85.6518C35.8123 85.5985 35.4057 85.5412 35 85.48L35.1834 85Z" fill="#F0F3F2"/>
<path d="M37.426 21.0543C37.6209 21.0306 37.8163 21.0147 38.0121 21.0066C38.208 20.9983 38.4039 20.9978 38.5998 21.0051C38.7957 21.0124 38.9911 21.0274 39.1861 21.0502C39.3811 21.0729 39.5751 21.1033 39.7682 21.1414C39.9613 21.1794 40.153 21.225 40.3435 21.2783C40.5338 21.3315 40.7223 21.3922 40.9089 21.4604C41.0955 21.5285 41.2799 21.6039 41.462 21.6866C41.644 21.7694 41.8234 21.8592 42 21.9561C41.934 22.2994 41.891 22.68 41.7487 22.9934L41.6077 23C40.7405 22.7494 39.877 22.5054 38.987 22.3814C38.3277 22.2897 37.6616 22.2765 37 22.2066C37.08 21.8015 37.118 21.306 37.426 21.0543Z" fill="#F0F3F2"/>
<path d="M18.3274 72C19.8839 72.1691 21.4503 72.5251 23 72.7771L21.6417 73.0911C20.4708 73.4471 19.2061 73.8292 18 74L18.3274 72Z" fill="#F0F3F2"/>
<path d="M6 70C7.33304 70.2165 8.65949 70.4619 10 70.6408C9.87658 71.3109 9.69632 71.9738 9.5313 72.6366L9.43465 72.9107C9.0375 73.1162 8.01967 72.9063 7.53433 72.8802C7.04462 71.911 6.4701 70.9772 6 70Z" fill="#F0F3F2"/>
<path d="M32.7731 32.0189C35.4254 31.8938 38.8372 32.4065 41.3257 33.0585C41.8113 33.1857 42.4171 33.3106 42.8219 33.5511C42.9605 33.6334 42.99 33.6934 43 33.8192C42.9316 33.9056 42.9073 33.9414 42.7918 34L42.5474 33.9269C40.235 33.2504 37.6414 32.8317 35.1683 32.6093C34.486 32.5479 32.4289 32.5128 32.0558 32.4116L32 32.3059L32.0542 32.2806L32.0192 32.2253C32.0597 32.1826 32.0814 32.1554 32.1371 32.1186C32.3084 32.0057 32.5561 32.0224 32.7731 32.0189Z" fill="#F0F3F2"/>
<path d="M40.4643 18.0116C40.5738 18.0044 40.6859 17.9962 40.7956 18.0019C41.074 18.0165 41.3882 18.1554 41.5748 18.3441C42.3254 19.1036 41.8633 20.0721 41.8173 20.9389C41.8162 20.9593 41.8156 20.9796 41.8147 21C41.2406 20.7971 40.6566 20.6632 40.0559 20.5457C39.3597 20.4497 38.7037 20.4175 38 20.4436C38.214 20.016 38.3966 19.5575 38.6604 19.1543C39.0976 18.486 39.6672 18.1992 40.4643 18.0116Z" fill="#F0F3F2"/>
<path d="M11.4811 71C13.3279 71.2377 15.1527 71.596 17 71.8377L16.4604 74C14.8584 73.9048 12.6252 73.4649 11 73.1839C11.172 72.459 11.3219 71.7278 11.4811 71Z" fill="#F0F3F2"/>
<path d="M41 95C41.066 94.2326 42.0409 87.3815 42.2224 87.0657C42.2637 86.9939 42.3768 87.0093 42.4407 87C43.2888 87.2515 44.1461 87.4571 45 87.6706C44.9223 88.0543 41.5017 94.0323 41 95Z" fill="#F0F3F2"/>
<path d="M19.4832 83C20.9923 83.2912 22.4894 83.662 24 83.9398C23.9692 84.7753 23.5634 88.2497 23.3704 88.9929C23.2203 89.0279 23.1018 88.926 22.9724 88.8472C22.7449 88.7185 22.5246 88.5677 22.3026 88.4258C22.352 87.7935 22.4356 87.1614 22.5073 86.532C21.7733 86.3747 21.0358 86.2857 20.3063 86.0899L20.169 86.7047C19.7693 86.3556 19.3856 85.9834 19 85.6125C19.1652 84.7343 19.2546 83.8654 19.4832 83Z" fill="#F0F3F2"/>
<path d="M29.9527 34L30 34.0089C29.9741 34.0992 30.0011 34.0626 29.9177 34.1151C29.4732 34.4 29.0392 34.6991 28.616 35.0126C28.1929 35.326 27.7814 35.6531 27.3817 35.9937C26.9819 36.3343 26.5949 36.6877 26.2204 37.0539C25.846 37.42 25.4852 37.798 25.1379 38.188C22.8316 40.7421 21.3785 43.4525 20.1855 46.6142C19.1526 46.7213 18.1073 46.7611 17.0952 47L17 46.9558C17.0105 46.85 17.0268 46.7679 17.0668 46.6677C17.6375 45.2353 18.4299 43.9157 19.3128 42.6423C22.0016 38.765 25.5346 35.9222 29.9527 34Z" fill="#F0F3F2"/>
<path d="M36.6974 23.0015C38.1139 22.9808 39.5394 23.1699 40.8549 23.753C40.7334 24.0636 40.5815 24.3577 40.4814 24.6786C40.0905 25.932 39.8621 27.3015 39.5687 28.5889L39.9313 29.0411L40.6586 29.1922C40.8103 28.3883 40.9742 27.5872 41.1503 26.7889C41.2685 26.2645 41.4288 25.7207 41.5081 25.1904C41.5246 25.0799 41.5143 25.0073 41.4746 24.9026C41.4605 24.8653 41.4411 24.8306 41.4263 24.7938C41.3549 24.6169 41.339 24.5781 41.4178 24.3978C41.4793 24.2569 41.5629 24.2007 41.6893 24.1406C41.7995 24.1875 41.8166 24.1762 41.8883 24.2885C42.0908 24.6057 41.9706 24.9295 41.8959 25.2707C41.5258 26.8316 41.1268 28.4061 40.9089 30C39.6497 29.491 38.19 29.2047 36.8567 29.0099C36.3034 28.929 35.4999 28.99 35 28.769C35.0503 28.4805 35.5063 28.3868 35.6037 28.0365C35.7151 27.6354 35.7597 27.1895 35.8468 26.7775C36.1134 25.5149 36.3649 24.2465 36.6974 23.0015Z" fill="#F0F3F2"/>
<path d="M37.6145 24C37.7191 24.0033 37.8031 24.0197 37.9048 24.0569C37.9846 24.1686 37.9985 24.2434 38 24.408C38.0044 24.9331 37.6218 27.6845 37.4203 28C37.282 27.9527 37.1548 27.9185 37.0354 27.7951C36.9911 27.6852 36.998 27.5874 37.0055 27.4635C37.0476 26.7712 37.295 24.8786 37.469 24.2679C37.5025 24.1501 37.551 24.0824 37.6145 24Z" fill="#002D1B"/>
<path d="M39.1179 24C39.2978 24.0039 39.4662 24.0121 39.6328 24.075C39.8433 24.1545 39.9201 24.2729 40 24.4459C39.9866 24.9638 39.235 27.5792 38.9082 27.9752C38.8509 27.981 38.7935 27.9861 38.736 27.9906C38.4622 28.0111 38.2779 28.0107 38.0595 27.8561C38.0219 27.7835 38.0001 27.7194 38 27.6393C37.9987 26.9664 38.4926 24.9419 38.8123 24.3403C38.8833 24.2065 38.9961 24.1022 39.1179 24Z" fill="#002D1B"/>
<path d="M26 90.2095C26.007 90.1359 26.0162 90.0635 26.0288 89.9905C26.1029 89.5598 27.1055 85.138 27.182 85.0501C27.2016 85.0274 27.2363 85.0167 27.2635 85L27.5494 85.0408L29.8798 85.351C30.6476 85.4446 31.5032 85.6487 32.2668 85.6768L33 85.8407C32.555 87.8875 31.9182 89.9405 31.5982 92C31.1202 91.8379 30.6194 91.7201 30.1257 91.5938C30.3988 90.5425 30.6478 89.4893 30.9406 88.4411C30 88.222 28.9945 88.1587 28.038 87.9693C27.8132 88.8729 27.5681 89.777 27.3999 90.689C26.9391 90.5178 26.4724 90.3579 26 90.2095Z" fill="#F0F3F2"/>
<path d="M33 92.9227C33.2353 91.5942 34.0268 86.9786 34.5019 86.0313L34.6812 86C35.2382 86.1639 35.839 86.2335 36.4131 86.3301C37.0409 86.44 37.6692 86.562 38.3004 86.653L40 86.9434C39.6476 89.3096 38.903 91.6302 38.5782 94C37.7961 93.8911 37.016 93.7413 36.2387 93.6051C36.578 92.294 36.8043 90.9306 37.0672 89.6024C36.3018 89.4577 35.5347 89.3213 34.766 89.193C34.5192 90.5081 34.2404 91.8171 33.9296 93.12L33 92.9227Z" fill="#F0F3F2"/>
<path d="M43 36C43.3349 36.1361 43.63 36.4357 43.8825 36.6771C46.8417 39.5079 49.3503 44.2995 50.3716 48.1356C50.7855 49.6904 51.0088 51.399 50.9997 53C50.8948 52.9874 47.8288 51.3836 47.139 51.1086C47.133 45.8313 46.0294 40.5065 43 36Z" fill="#F0F3F2"/>
<path d="M22.6595 48.0364C22.6812 48.0351 22.7029 48.0331 22.7247 48.0322C29.3356 47.7573 38.2691 49.2699 44.4894 51.461C45.9624 51.98 47.4103 52.6142 48.7999 53.3022C49.8675 53.8306 51.0948 54.4169 52 55.1652L51.7536 56C50.2591 54.9501 48.6225 54.2056 46.9167 53.5011C46.1275 53.1526 45.3061 52.8442 44.4872 52.5607C37.4242 50.1163 27.8052 48.503 20.3037 49.216C18.9062 49.3488 17.3662 49.5132 16.0826 50.0559L16 49.3412C17.9386 48.2782 20.4612 48.162 22.6595 48.0364Z" fill="#F0F3F2"/>
<path d="M31.787 33.0466C32.4861 32.9451 33.2996 33.0304 34 33.1038C29.8333 36.5708 27.5285 40.8688 26.1672 46C25.2069 45.9094 24.2162 45.937 23.2525 45.9273L21 45.9815C21.0888 45.6844 21.2007 45.3907 21.3078 45.0995C23.1179 40.1765 26.9028 35.3007 31.787 33.0466Z" fill="#F0F3F2"/>
<path d="M31.9891 71.0098C32.0073 71.0066 32.0254 71.0009 32.0439 71.0001C32.4189 70.9835 35.5129 73.1889 36.0348 73.5491C39.0386 75.6032 42.0692 77.6096 45.1266 79.5683C46.7497 80.619 48.4859 81.5628 50 82.7912C49.748 83.2075 49.4781 83.6039 49.1998 84C46.0527 82.1347 43.0164 80.0246 39.9682 77.9759C38.8419 77.2189 37.6849 76.5176 36.5479 75.7799C35.4721 75.0818 34.4162 74.3495 33.3376 73.6551C32.8783 73.3641 32.4052 73.0702 31.9931 72.7043C27.7182 73.8034 23.4618 75.0328 19.2003 76.1959C18.2923 76.4421 17.3867 76.6984 16.4836 76.9646C15.8546 77.1482 15.1886 77.4012 14.5395 77.462C13.8171 77.5296 13.0332 77.3376 12.3185 77.2344C11.5443 77.1227 10.7809 77.0402 10 77.0105C14.1963 75.7597 18.4673 74.7109 22.705 73.6311C25.8063 72.841 28.9502 72.0491 31.9891 71.0098Z" fill="#F0F3F2"/>
<path d="M40 34C40.5215 34.1355 41.0472 34.3319 41.5439 34.5583C41.8144 34.6817 42.0895 34.8192 42.3079 35.0432C43.0207 35.7742 43.5173 37.1655 43.8959 38.1681C45.2177 41.6684 45.8552 45.5461 45.957 49.3417C45.9687 49.7752 46.064 50.6119 45.9265 51L45.8175 50.9551C44.2607 50.1933 42.6673 49.5477 41.0373 49.0185C41.8596 44.2692 41.5161 38.535 40 34Z" fill="#F0F3F2"/>
<path d="M10 77C11.096 77.2352 12.212 77.386 13.3144 77.583L20.4277 78.887L48 84.1448C47.7757 84.5446 47.5067 84.9219 47.2559 85.3027C47.0986 85.5419 46.9247 85.7693 46.7571 86C41.0043 84.988 35.2623 83.9074 29.5311 82.7582C23.5593 81.658 17.5944 80.515 11.6362 79.3292C11.0757 78.5629 10.5101 77.8087 10 77Z" fill="#F0F3F2"/>
<path d="M37.5882 34C38.2582 34.112 38.9101 34.3126 39.5586 34.5083C41.4065 38.0025 41.1113 45.1463 40.6622 49C39.827 48.7813 38.9892 48.5727 38.1488 48.3743C36.7697 48.0596 35.3868 47.7621 34 47.4818C34.1909 46.1938 34.5266 44.8996 34.8152 43.6287C35.5544 40.3723 36.3696 37.1194 37.5882 34Z" fill="#F0F3F2"/>
<path d="M34.706 33C35.4697 33.0615 36.2421 33.2184 37 33.3378C35.9562 35.8883 35.2474 38.6449 34.5916 41.3245C34.1342 43.1935 33.674 45.0926 33.3951 47C32.174 46.83 30.952 46.6669 29.7292 46.5106C28.8246 46.3885 27.9088 46.3302 27 46.2466C27.8812 41.6512 30.8875 35.6392 34.706 33Z" fill="#F0F3F2"/>
<path d="M18.7103 55.057C23.088 54.7738 28.7475 55.5946 33.0654 56.4301C35.9987 56.9977 38.8814 57.8853 41.7105 58.8514C43.5898 59.493 45.4609 60.1471 47.2553 61.0161C48.2552 61.5003 49.1941 62.0592 50.1355 62.6516C51.0329 63.2163 52.1162 63.9122 52.7017 64.8378C53.1449 65.5384 53.0069 66.2408 52.8431 67C51.3966 65.077 49.3257 63.9191 47.2492 62.8622C47.0952 62.781 46.9401 62.7018 46.7841 62.6247C43.9012 61.1985 40.7522 60.2572 37.6617 59.4422C36.0155 59.0081 34.3612 58.5789 32.6926 58.245C26.1895 56.9434 16.3186 55.9016 10 58.1697C10.0901 57.6761 10.2073 57.1911 10.3255 56.7042C12.6005 55.464 16.1559 55.2138 18.7103 55.057Z" fill="#F0F3F2"/>
<path d="M31.5349 74C31.627 74.0002 31.6729 74.0153 31.7538 74.0626C33.505 75.089 35.1901 76.2359 36.9126 77.3119C39.9417 79.2042 42.995 81.0674 46 83L33.7687 80.7617C28.1871 79.7315 22.5975 78.7502 17 77.8178C18.4071 77.3369 19.8992 77.0149 21.334 76.6278C24.726 75.7171 28.1263 74.8412 31.5349 74Z" fill="#F0F3F2"/>
<path d="M22.2813 50.0239C24.2282 49.9358 26.1869 50.1052 28.1231 50.3021C35.118 51.0134 45.3091 53.1569 51 57.647C50.6694 59.0895 50.4539 60.554 50.1451 62L49.1477 61.4514C49.3741 60.5908 49.7248 59.2236 49.4434 58.3484C49.3818 58.1569 49.3048 58.0465 49.1251 57.9549C48.9151 57.9332 48.763 57.9754 48.5793 58.0844C48.108 58.3639 47.9247 60.1692 47.7876 60.747C47.3974 60.549 47.0124 60.362 46.6041 60.2071C46.7013 59.344 47.2336 57.8481 46.8905 57.0599C46.796 56.8429 46.6208 56.6856 46.4045 56.6072C46.2279 56.5431 46.0632 56.5531 45.8987 56.651C45.3254 56.9922 45.1595 58.8725 44.9986 59.5381C44.5754 59.3646 44.1432 59.2195 43.7111 59.0719C43.873 58.2103 44.3427 56.5947 43.9235 55.8195C43.8066 55.603 43.6155 55.4576 43.384 55.3957C43.1993 55.3463 43.0182 55.3652 42.8562 55.4727C42.2619 55.8675 42.1482 57.7223 42.0268 58.4427C41.479 58.2906 40.936 58.1218 40.3979 57.9362C40.5212 57.3242 40.6541 56.7114 40.7596 56.096C40.8419 55.616 40.935 54.998 40.6303 54.5802C40.4557 54.341 40.1973 54.2801 39.9215 54.2547C39.5104 54.2166 39.2939 54.3645 38.9924 54.6354C38.5279 55.3409 38.448 56.489 38.2915 57.3245C37.6745 57.1231 37.0474 56.9536 36.4237 56.7762C36.6535 55.8429 36.9078 54.9128 36.8125 53.9421C36.6399 53.6753 36.4055 53.3958 36.0936 53.3073C35.8111 53.2271 35.4669 53.3163 35.2268 53.479C34.4877 53.9797 34.4468 55.441 34.2575 56.2587C33.6163 56.1206 32.9711 55.9982 32.328 55.869C32.5001 55.0622 33.0167 53.5534 32.5831 52.823C32.4532 52.6038 32.2485 52.4765 32.0089 52.4202C31.7156 52.3511 31.4085 52.3872 31.1602 52.5699C30.4294 53.1071 30.3368 54.6819 30.2062 55.5328C29.5964 55.4013 28.9773 55.3177 28.361 55.2247C28.5148 54.4175 29.0199 52.9793 28.5738 52.2562C28.458 52.0685 28.2858 51.9332 28.0692 51.8978C27.7658 51.8482 27.4529 51.9632 27.2155 52.1552C26.4874 52.744 26.4867 54.1253 26.3596 55.0117C25.7841 54.9098 25.1931 54.8564 24.6133 54.7816C24.7732 54.1198 25.2588 52.6931 24.87 52.0638C24.756 51.8792 24.5851 51.7675 24.38 51.7198C24.0889 51.652 23.7649 51.7209 23.5187 51.8936C22.8848 52.3387 22.8172 53.9316 22.7028 54.6616L20.9659 54.6468C21.1239 53.9689 21.6041 52.5988 21.2112 51.9852C21.0881 51.7929 20.877 51.6852 20.661 51.6475C20.4611 51.6126 20.2628 51.6571 20.0989 51.7814C19.4409 52.281 19.3318 53.9126 19.2313 54.6856C18.6845 54.6979 18.1379 54.7149 17.5915 54.7367C17.7196 54.0837 18.0973 52.8941 17.874 52.274C17.8186 52.1201 17.7266 52.0131 17.5748 51.9555C17.4108 51.8931 17.1991 51.9387 17.0561 52.03C16.3993 52.4498 16.2576 54.0837 16.12 54.8141C15.7494 54.8798 15.3732 54.9208 15 54.9692C15.2902 53.7217 15.4707 52.4416 15.6666 51.1752C18.0319 50.3311 19.8214 50.1297 22.2813 50.0239Z" fill="#F0F3F2"/>
<path d="M17.059 59.0791C22.6257 58.7548 28.3822 59.4571 33.819 60.6564C36.2454 61.1917 38.7054 61.8183 41.0637 62.6097C43.6456 63.4761 50.3471 66.2556 51.7499 68.5708C51.9342 68.8751 52.0099 69.1157 51.999 69.4724C51.9704 70.3958 51.6311 71.4152 51.422 72.3153C51.0685 73.88 50.7021 75.4415 50.3229 77C50.063 76.9449 49.8056 76.8726 49.5481 76.8069C49.7966 75.5158 50.0631 74.2287 50.3474 72.9453C50.6096 71.7918 50.9305 70.6289 51.0749 69.4535C50.819 69.1726 50.5554 68.9434 50.2552 68.713C49.5628 71.3228 48.9108 73.943 48.2991 76.5737C47.846 76.4765 47.3946 76.3714 46.945 76.2583C47.2245 74.8455 47.5874 73.4583 47.9118 72.0565C48.2333 70.6177 48.5355 69.1747 48.8185 67.7274C48.463 67.3739 48.0386 67.1063 47.6144 66.8487C46.8541 69.88 46.2489 72.9557 45.5104 75.9948C44.9511 75.8754 44.3908 75.7614 43.8293 75.6528L45.959 65.8991C45.3839 65.6528 44.8111 65.4091 44.2234 65.1955C43.5664 68.5587 42.8543 71.9095 42.0869 75.2481L40.593 74.986C41.2203 71.4947 42.1844 68.0496 42.7393 64.5474C42.0471 64.2508 41.3173 64.0285 40.605 63.7861C40.0324 67.4013 39.1746 70.9683 38.5722 74.5799C38.0923 74.4899 37.6196 74.3823 37.1453 74.2655C37.8395 70.6057 38.7414 66.9543 39.3021 63.2723C38.4719 63.0114 37.6486 62.7632 36.7879 62.6277C36.5641 63.474 36.4677 64.3911 36.3151 65.2556C36.0701 66.645 35.7747 68.0263 35.5444 69.4182C35.3494 70.5966 35.2266 71.797 34.973 72.9637C34.5236 72.6861 34.0737 72.4147 33.6114 72.1598C33.9397 69.9704 34.4543 67.8134 34.8226 65.6303C35.0214 64.4884 35.2317 63.3672 35.5363 62.2492C34.5946 62.0259 33.651 61.8113 32.7054 61.6054C32.4593 63.415 32.1014 65.223 31.7554 67.0159C31.4834 68.4251 31.2304 69.8409 30.9022 71.2378C30.402 71.3554 29.9041 71.4826 29.4087 71.6196C30.0117 68.1811 30.6459 64.7486 31.3114 61.3222C30.3498 61.1556 29.4419 60.9411 28.4595 60.9156L26.4931 71.7196C25.9712 71.5945 25.425 71.5336 24.8948 71.45C25.5314 67.8533 26.3805 64.2932 26.9858 60.6935C26.2096 60.5372 25.3849 60.4888 24.5962 60.4224C24.4669 61.6836 24.1743 62.9709 23.9464 64.2194C23.527 66.4881 23.093 68.7538 22.6443 71.0166C22.111 70.8959 21.5716 70.801 21.0345 70.6993C21.3466 69.3103 21.5625 67.8917 21.8175 66.4904C22.1954 64.4102 22.5947 62.3344 23.0156 60.2629C22.3788 60.2583 21.7374 60.2129 21.1003 60.1924C20.922 61.2496 20.6559 62.2943 20.4499 63.347C19.9934 65.6809 19.565 68.0157 19.0257 70.3322C18.4248 70.2695 17.8253 70.1391 17.2306 70.0317L19.0668 60.1949C18.522 60.2383 17.9787 60.2504 17.4327 60.2615C17.0945 62.134 16.6898 63.9883 16.3226 65.8543C16.0656 67.1611 15.8481 68.4757 15.5862 69.7815L13.874 69.5064C14.4563 66.451 15.0466 63.4127 15.7455 60.3819L14.2974 60.5157C13.6538 63.4085 13.0368 66.3072 12.4465 69.2119C11.9939 69.1327 11.54 69.0626 11.0848 69.0016C11.5497 66.2312 12.0923 63.4769 12.7126 60.7385C12.305 60.8141 11.9316 60.915 11.5395 61.0527C10.9212 63.623 10.3821 66.2107 9.78049 68.7847L9 68.6306C9.27988 67.5427 9.4456 66.4021 9.65222 65.2954C9.97122 63.5868 10.3117 61.8732 10.5571 60.1521C12.6561 59.4221 14.8541 59.1707 17.059 59.0791Z" fill="#F0F3F2"/>
<path d="M77.8073 81.9961C78.0532 82.1272 78.2099 82.4639 78.3447 82.6789C77.6444 83.2591 76.8723 83.7404 76.0878 84.2289C76.7345 84.7779 77.2813 85.4691 77.8407 86.0879C78.6119 85.5336 79.3836 84.9718 80.1844 84.4501C80.4036 84.6994 80.5962 84.9522 80.7833 85.2205C80.0096 85.7373 79.2286 86.2456 78.4402 86.7454L79.4718 87.9337C79.8438 88.3839 80.245 88.8149 80.6418 89.2487C80.3217 89.4385 80.0269 89.6549 79.7274 89.8683L74.6725 84.0707C75.7377 83.4016 76.7484 82.6721 77.8073 81.9961Z" fill="#002D1B"/>
<path d="M89.4093 64.0165C89.7309 64.0379 90.0211 64.2046 90.3164 64.3431C89.7427 64.9988 89.2825 65.8018 89.2802 66.7628C89.2787 67.4774 89.5464 68.1462 90.0011 68.6522C90.6379 69.3608 91.6053 69.749 92.49 69.7363C93.3171 69.7242 94.2087 69.3823 94.7717 68.7005C95.3738 67.9715 95.4839 67.1097 95.4331 66.1527L96.0864 65.7037C96.2401 66.0844 96.3201 66.4431 96.3718 66.8514C96.4152 67.7246 96.1126 68.5487 95.6276 69.2089C94.9671 70.1077 93.9335 70.6776 92.8904 70.761C91.772 70.8505 90.4196 70.4318 89.554 69.5961C88.8749 68.9407 88.4091 67.9404 88.3549 66.9425C88.292 65.784 88.7346 64.83 89.4093 64.0165Z" fill="#002D1B"/>
<path d="M60.4928 89.3965C60.969 89.358 61.3711 89.4151 61.8316 89.5319C61.8021 89.8409 61.7827 90.1515 61.7593 90.4612C61.4698 90.3401 61.2097 90.2687 60.8982 90.263C60.8554 90.2618 60.8126 90.2618 60.7698 90.263C60.7271 90.2641 60.6844 90.2664 60.6417 90.2699C60.5991 90.2734 60.5566 90.2781 60.5142 90.2839C60.4718 90.2898 60.4296 90.2968 60.3876 90.305C60.3456 90.3131 60.3038 90.3225 60.2622 90.333C60.2207 90.3434 60.1794 90.355 60.1384 90.3678C60.0975 90.3805 60.0569 90.3944 60.0166 90.4095C59.9763 90.4244 59.9364 90.4405 59.8969 90.4577C59.8574 90.4749 59.8184 90.4932 59.7798 90.5125C59.7412 90.5319 59.7032 90.5523 59.6656 90.5738C59.628 90.5952 59.5909 90.6177 59.5545 90.6413C59.518 90.6647 59.4821 90.6892 59.4469 90.7148C59.4116 90.7403 59.377 90.7668 59.343 90.7941C59.309 90.8216 59.2758 90.8499 59.2432 90.8791C59.2106 90.9085 59.1787 90.9387 59.1476 90.9697C59.1165 91.0008 59.0861 91.0326 59.0565 91.0653C58.5062 91.6826 58.3153 92.5552 58.3546 93.3919C58.396 94.2737 58.7368 95.2663 59.3724 95.8591C60.0869 96.5255 60.8796 96.5223 61.731 96.2562C61.9558 96.186 62.1809 96.0642 62.4155 96.046L62.4792 96.1888C62.5169 96.4251 62.5884 96.6528 62.6532 96.8821C62.3031 97.0713 61.9419 97.2245 61.5555 97.3072C60.654 97.5 59.6868 97.3328 58.9205 96.7611C58.1031 96.1513 57.5946 95.1748 57.4354 94.139C57.2597 92.9964 57.3821 91.7159 58.0492 90.7768C58.6435 89.9402 59.5395 89.5317 60.4928 89.3965Z" fill="#002D1B"/>
<path d="M90.7481 53.8779C91.0359 53.9261 91.321 54.0163 91.6047 54.0939C91.4539 54.4317 91.3731 54.7964 91.321 55.1733C91.2361 55.7884 91.3653 56.5332 91.6996 57.0464C91.8364 57.2563 92.0099 57.3746 92.2325 57.3992C93.4504 57.5341 93.3356 55.0916 94.2659 54.2106C94.657 53.8402 95.1505 53.7607 95.6456 53.8436C96.2754 53.9492 96.7575 54.2784 97.1475 54.8771C97.4954 55.4114 97.587 56.2467 97.5115 56.8851C97.4356 57.5268 97.1891 58.0257 96.7559 58.4111C96.6066 58.4269 96.4417 58.4462 96.2916 58.4291C96.1617 58.4142 96.1141 58.3662 96.0419 58.2462C96.0846 57.7809 96.4787 57.3377 96.6096 56.8806C96.7335 56.4477 96.7203 55.9907 96.5342 55.5756C96.3893 55.2525 96.1572 54.9805 95.8564 54.8695C94.0808 54.2136 94.5339 57.4433 93.2196 58.2072C92.7856 58.4594 92.2076 58.4186 91.7515 58.232C91.3352 58.0617 90.913 57.5611 90.7381 57.0915C90.3452 56.037 90.4172 54.9097 90.7481 53.8779Z" fill="#002D1B"/>
<path d="M81.0845 78.7251C81.3735 78.8887 81.5501 79.3231 81.7039 79.6054C81.1061 80.0885 80.5015 80.565 79.9282 81.0764L81.7161 82.8412C82.1899 82.1486 82.7781 81.6089 83.4295 81.0783C83.6754 81.3102 83.9293 81.5348 84.1793 81.7622C83.5612 82.2955 83.0052 82.897 82.3618 83.4014C82.9981 83.9962 83.6305 84.5901 84.232 85.219C84.712 84.6746 85.2263 84.1535 85.7245 83.6248L86.0944 83.2285L86.7027 83.9719C85.9396 84.8604 85.0183 85.7271 84.1398 86.5068C83.1395 85.2908 81.8206 84.2297 80.6463 83.1795C79.8899 82.5031 79.1754 81.7862 78.4467 81.0814C79.4305 80.4226 80.2601 79.5619 81.0845 78.7251Z" fill="#002D1B"/>
<path d="M90.4912 59.9175C90.8144 59.95 91.0941 60.0195 91.3985 60.1025C91.2102 60.7766 91.1746 61.4703 91.066 62.1525C91.7678 62.1853 92.4626 62.2382 93.1601 62.298C93.3368 61.6037 93.403 60.8853 93.4759 60.1834L94.3265 60.3194C94.2761 61.0006 94.1943 61.6803 94.081 62.3585C94.8566 62.4586 95.6658 62.4647 96.4498 62.5391C96.5205 61.8237 96.6954 61.1154 96.7653 60.3983L96.828 59.8506L97.8381 60.0819C97.6225 61.1835 97.5107 62.2915 97.2536 63.3907C94.8716 63.0612 92.4325 63.0551 90.0319 62.829C90.2118 61.8602 90.2671 60.8837 90.4912 59.9175Z" fill="#002D1B"/>
<path d="M87.3604 69.1958C88.4721 69.6621 89.567 70.3047 90.6381 70.8776C91.7027 71.4469 92.8091 71.978 93.8248 72.6472C93.6333 73.035 93.4636 73.4363 93.2887 73.8336C91.0055 73.8399 88.697 73.9739 86.416 73.8019C87.6072 74.4272 88.7597 75.1195 89.9159 75.8185C90.5986 76.2312 91.3041 76.6217 91.9501 77.1012C91.7826 77.3603 91.6284 77.63 91.4709 77.8965C90.8669 77.7202 90.1691 77.1684 89.6111 76.8358L84.906 74.0237L85.4485 72.8756C86.416 72.9664 87.4182 72.9056 88.387 72.887C89.7014 72.8621 91.0162 72.8557 92.3311 72.8677C91.2274 72.324 90.1433 71.7409 89.0509 71.1712C88.4239 70.844 87.7015 70.5457 87.1314 70.1172C87.04 69.781 87.2254 69.483 87.3604 69.1958Z" fill="#002D1B"/>
<path d="M73.3538 85.3609C73.6863 85.6837 74.9537 88.0267 75.2944 88.5957C75.9452 89.6826 76.6385 90.7413 77.2973 91.823C76.9676 92.0622 76.6296 92.2819 76.2855 92.4986C75.6609 92.1683 75.0738 91.6978 74.4777 91.3115C73.128 90.4367 71.7775 89.6134 70.5237 88.5937C71.4567 90.3984 72.5271 92.1493 73.5006 93.9351C73.2413 94.1348 72.9963 94.2963 72.7038 94.4413C71.8246 93.0305 71.0529 91.5703 70.2635 90.1059C69.8277 89.2974 69.3634 88.506 68.9421 87.6893C69.2675 87.5141 69.6082 87.3621 69.9413 87.2026C71.9117 88.4372 73.8438 89.7322 75.7378 91.0877C74.9382 90.1423 74.3565 88.9278 73.7167 87.8619C73.3194 87.1998 72.8591 86.5519 72.521 85.8577L73.3538 85.3609Z" fill="#002D1B"/>
<path d="M65.7317 87.9951C66.4211 87.8841 67.0522 87.8832 67.7003 88.1663C68.7806 88.6383 69.5488 89.682 69.9427 90.7172C70.3481 91.7826 70.5362 93.1241 69.9901 94.1821C69.5663 95.0029 68.8539 95.4858 67.9645 95.7738C67.161 95.9321 66.4228 95.9823 65.664 95.6256C64.6004 95.1254 63.8904 94.0906 63.532 93.0459C63.1481 91.9267 63.0659 90.6773 63.6602 89.6015C64.1155 88.7775 64.8012 88.272 65.7317 87.9951Z" fill="#002D1B"/>
<path d="M66.0688 88.9529C66.5624 88.9008 66.9666 88.9552 67.4013 89.1731C68.3274 89.6376 68.9252 90.666 69.1804 91.5677C69.4035 92.3558 69.3839 93.2427 68.8899 93.9606C68.5433 94.4644 68.0839 94.7161 67.4614 94.8596C66.9692 94.8967 66.5213 94.8399 66.0808 94.6374C65.2126 94.2382 64.6813 93.4135 64.4263 92.5911C64.16 91.7321 64.1106 90.7048 64.6355 89.9032C64.9729 89.3879 65.4419 89.1112 66.0688 88.9529Z" fill="#F0F3F2"/>
<path d="M87.6546 82.2633L81.5406 77.9323L83.7144 76.2468C84.1416 75.9155 84.5636 75.7157 84.9802 75.6476C85.3968 75.5794 85.7932 75.6025 86.1693 75.7169C86.5479 75.8294 86.8886 75.9929 87.1914 76.2074C87.4272 76.3745 87.6231 76.5725 87.779 76.8016C87.9348 77.0306 88.0168 77.2759 88.0249 77.5375C88.0355 77.7971 87.944 78.0603 87.7502 78.3272L91.4474 79.3224L90.5929 79.9849L87.0237 79.0137L85.8918 79.8913L88.4116 81.6763L87.6546 82.2633ZM85.0664 79.3066L86.4981 78.1965C86.723 78.0221 86.8538 77.8516 86.8906 77.6848C86.9269 77.5141 86.8998 77.3558 86.8092 77.2101C86.7182 77.0604 86.5926 76.9288 86.4325 76.8153C86.2869 76.7122 86.1136 76.6284 85.9127 76.5639C85.7088 76.4974 85.491 76.4784 85.2592 76.5069C85.0244 76.5334 84.7896 76.6377 84.5548 76.8198L83.1231 77.93L85.0664 79.3066Z" fill="#002D1B"/>
<path d="M91.1198 12.0137C91.1198 12.0137 90.7317 12.2474 90.085 13.1824C89.7228 13.7018 89.283 14.429 88.7914 15.4419C88.4551 16.0652 88.1187 16.7665 87.7565 17.6235C87.6789 17.8313 87.6789 18.0131 87.8342 18.1689C88.067 18.4286 88.274 18.7403 88.5068 19.026C88.7138 19.2857 88.7914 19.5454 88.7914 19.8831C88.7914 27.9342 88.7914 35.9854 88.7914 44.0366V44.4522H90.1884H91.1198V12.0137Z" fill="#002D1B"/>
<path d="M82.0648 24.8953C81.8578 24.7135 81.7802 24.5057 81.7802 24.22C81.7802 21.3631 81.8061 18.5322 81.7802 15.6754C81.7802 13.7535 80.5384 12.2471 78.6498 12.0653C77.4597 11.9355 76.2438 12.0393 74.9761 12.0393C75.1313 12.351 75.2348 12.6367 75.39 12.8964C75.7522 13.5457 76.2696 14.0132 77.0716 13.9872C77.2786 13.9872 77.4856 14.0132 77.6667 14.0392C78.5722 14.143 79.012 14.4807 79.1931 15.2338C79.2707 15.5715 79.2966 15.9091 79.2966 16.2467C79.2966 18.8958 79.2966 21.5449 79.2966 24.22C79.2966 25.155 79.6588 25.8562 80.409 26.4276C80.7712 26.6873 81.1076 26.947 81.4698 27.2067C81.6509 27.3366 81.832 27.4924 82.0389 27.6742C81.4698 28.1157 80.9265 28.5053 80.409 28.8949C79.6846 29.4663 79.2966 30.1935 79.2966 31.1284C79.2966 34.0892 79.2966 37.0759 79.2966 40.0367C79.2966 40.3743 79.2966 40.712 79.2966 41.0496C79.2707 41.8028 78.9861 42.1923 78.2617 42.4001C77.8995 42.504 77.5373 42.5819 77.1751 42.6079C76.5025 42.6339 75.9851 42.9195 75.6229 43.4649C75.4159 43.7766 75.2089 44.1142 74.9761 44.5038C76.2438 44.5038 77.408 44.5298 78.5981 44.5038C79.219 44.4778 79.7881 44.2441 80.2797 43.8805C81.3404 43.1013 81.8061 42.0365 81.8061 40.7379C81.8061 37.5175 81.8061 34.271 81.8061 31.0505C81.8061 30.8168 81.8837 30.661 82.0389 30.5051C82.9186 29.674 83.7723 28.817 84.6519 27.9599C84.8848 27.7521 84.8848 27.5703 84.6519 27.3626C83.7464 26.5055 82.9186 25.6744 82.0648 24.8953Z" fill="#002D1B"/>
<path d="M95.2392 23.09L95.2243 22.0931C99.0121 21.8683 101.387 22.142 102.78 22.7477C103.488 23.0553 103.983 23.4663 104.257 23.9805C104.533 24.4987 104.549 25.0535 104.428 25.574C104.194 26.5805 103.424 27.5728 102.751 28.2983C102.141 28.9547 101.546 29.4583 101.346 29.6281C101.32 29.6503 101.3 29.6667 101.288 29.6771L100.96 29.3004L101.288 29.6771C99.435 31.2946 97.323 32.5896 95.1665 33.7675C94.4719 34.147 93.7695 34.5138 93.0593 34.868L93.0593 34.868C92.349 35.2222 91.6315 35.5634 90.9067 35.8918L90.7003 35.4364L90.9067 35.8919C90.1818 36.2203 89.4502 36.5355 88.7118 36.8376C87.9735 37.1397 87.229 37.4284 86.4784 37.7037C85.7277 37.979 84.9714 38.2408 84.2095 38.4889C83.4477 38.737 82.6808 38.9714 81.9089 39.192L81.9089 39.192C81.137 39.4126 80.3607 39.6192 79.58 39.8118C78.7993 40.0045 78.0147 40.1831 77.2263 40.3476L77.2224 40.3484L77.2224 40.3484C75.4183 40.7098 73.4694 41.0621 71.5507 41.01C70.1635 40.9722 68.4385 40.6355 67.3479 39.5543C66.7591 38.9706 66.4669 38.2039 66.503 37.4067C66.5309 36.7882 66.8473 36.1267 67.2528 35.5057C67.6675 34.8706 68.2194 34.2128 68.8025 33.5898C69.968 32.3445 71.3015 31.1926 72.0326 30.5752C72.2295 30.4033 72.6004 30.1006 72.9154 29.8462C73.0754 29.7169 73.2236 29.598 73.3317 29.5114L73.4605 29.4084L73.4959 29.3801L73.5052 29.3727L73.5076 29.3708L73.5082 29.3704L73.5084 29.3702L73.5084 29.3702L73.8199 29.7613M95.2392 23.09L68.475 37.959M95.2392 23.09L95.2391 23.092L95.2392 23.092L95.2393 23.092L95.2403 23.0921L95.2453 23.0922L95.2666 23.093C95.2858 23.0937 95.3147 23.0948 95.3526 23.0965C95.4283 23.0998 95.5398 23.1054 95.6806 23.1141C95.9624 23.1315 96.3608 23.1616 96.825 23.2118C97.7584 23.3129 98.9367 23.4937 99.9644 23.81C100.478 23.9681 100.938 24.1554 101.306 24.3736C101.677 24.5937 101.922 24.8264 102.051 25.0608C102.171 25.2777 102.211 25.5297 102.11 25.8589C102.003 26.2064 101.732 26.6516 101.192 27.2007L101.183 27.2095L101.175 27.2188C100.822 27.6155 100.409 27.9801 99.976 28.3628L99.963 28.3743C98.9362 29.2811 97.7522 30.0582 96.5523 30.8422L96.8258 31.2607M95.2392 23.09L96.8258 31.2607M73.8199 29.7613L74.1861 30.1018L74.186 30.1019L74.1854 30.1025L74.183 30.1051L74.1735 30.1154L74.1359 30.1559L73.9921 30.3114C73.8677 30.4462 73.6889 30.6406 73.4716 30.8783C73.0368 31.3538 72.4484 32.0024 71.8334 32.6951C71.2179 33.3884 70.5778 34.1236 70.0389 34.7729C69.4926 35.431 69.0722 35.9752 68.8779 36.2963L68.8778 36.2963C68.5035 36.9149 68.309 37.4602 68.475 37.959M73.8199 29.7613L73.5084 29.3702L74.1861 30.1017L73.8199 29.7613ZM68.475 37.959C68.5754 38.2608 68.8559 38.5064 69.2993 38.7101L69.2994 38.7101C70.1434 39.098 71.2469 39.2138 72.4287 39.1757C73.602 39.1378 74.799 38.9508 75.8048 38.7743C80.4402 37.9608 85.3381 36.3508 89.6238 34.4849C91.0418 33.8675 92.432 33.1593 93.7975 32.4265L93.7975 32.4265C94.7449 31.9181 95.6806 31.4117 96.5523 30.8422L96.8258 31.2607M68.475 37.959L96.8258 31.2607" fill="#002D1B" stroke="#F0F3F2"/>
<path d="M49.3261 3.01874C50.5898 2.97955 51.8525 3.00183 53.114 3.08561C54.3756 3.16938 55.63 3.31424 56.8772 3.5202L56.8967 3.54901L57 3.5558C54.8219 3.43284 52.6743 3.36585 50.493 3.47875C50.0919 3.50256 49.6911 3.53098 49.2906 3.564C48.8901 3.59703 48.4901 3.63466 48.0904 3.67689C47.6908 3.71913 47.2917 3.76598 46.8932 3.81743C46.4947 3.86888 46.0968 3.92489 45.6996 3.98548C45.3025 4.04606 44.906 4.11121 44.5103 4.18093C44.1146 4.25065 43.7198 4.32494 43.326 4.40379C42.932 4.48257 42.539 4.56587 42.147 4.65371C41.755 4.74162 41.3641 4.83402 40.9742 4.93091C40.5844 5.02772 40.1958 5.12905 39.8082 5.23492C39.4208 5.34071 39.0346 5.45095 38.6497 5.56564C38.2648 5.68041 37.8813 5.79955 37.4992 5.92306C37.117 6.04657 36.7364 6.17449 36.3573 6.30683C35.9782 6.43916 35.6007 6.57583 35.2247 6.71683C34.8488 6.85783 34.4745 7.00312 34.102 7.15271C33.7295 7.3023 33.3587 7.45618 32.9897 7.61436C32.6209 7.77253 32.2538 7.93493 31.8886 8.10153C31.5314 8.26377 31.1762 8.4303 30.8231 8.60112C30.4699 8.77195 30.1189 8.94707 29.7701 9.12648C29.4212 9.30589 29.0746 9.48948 28.7303 9.67725C28.386 9.86501 28.044 10.057 27.7045 10.2531C27.365 10.4492 27.0278 10.6494 26.6932 10.8537C26.3585 11.058 26.0264 11.2664 25.6969 11.4787C25.3675 11.6911 25.0406 11.9074 24.7164 12.1278C24.3923 12.3481 24.0708 12.5723 23.7521 12.8004C23.4335 13.0286 23.1177 13.2605 22.8049 13.4963C22.4919 13.7321 22.1819 13.9717 21.8749 14.215C21.5678 14.4584 21.2639 14.7054 20.963 14.9561C20.6621 15.2069 20.3643 15.4612 20.0695 15.7192C19.7749 15.9771 19.4835 16.2386 19.1953 16.5036C18.9071 16.7686 18.6222 17.0372 18.3406 17.3092C18.059 17.5811 17.7808 17.8564 17.5059 18.1351C17.2311 18.4139 16.9598 18.6959 16.6919 18.9813C16.4241 19.2665 16.1598 19.5551 15.8991 19.8468C15.6383 20.1385 15.3812 20.4333 15.1277 20.7313C14.8742 21.0294 14.6245 21.3304 14.3784 21.6345C14.1324 21.9385 13.8901 22.2455 13.6516 22.5555C13.4131 22.8654 13.1785 23.1782 12.9478 23.4939C12.717 23.8095 12.4901 24.1279 12.2672 24.449C12.0442 24.7702 11.8253 25.094 11.6104 25.4205C11.3954 25.747 11.1845 26.076 10.9777 26.4077C10.7709 26.7392 10.5682 27.0733 10.3695 27.4098C10.171 27.7463 9.97657 28.0853 9.78627 28.4265C9.59605 28.7678 9.41008 29.1113 9.22835 29.4571C9.04655 29.8028 8.86903 30.1507 8.6958 30.5009C8.52264 30.851 8.35381 31.2031 8.18931 31.5572C8.0248 31.9114 7.86467 32.2676 7.70891 32.6256C7.55317 32.9837 7.40187 33.3437 7.25501 33.7055C7.10815 34.0672 6.96577 34.4307 6.82787 34.7959C6.1192 36.8329 5.51889 38.9009 5.02695 41L5.08293 40.9548L5 40.8505C5.09815 39.7663 5.37034 38.6039 5.59854 37.5392C7.21149 30.0138 11.08 23.1156 16.2918 17.4652C16.5178 17.2249 16.7464 16.9872 16.9775 16.7518C17.2087 16.5166 17.4424 16.2838 17.6786 16.0535C17.9148 15.8233 18.1535 15.5956 18.3947 15.3705C18.636 15.1454 18.8796 14.9229 19.1257 14.703C19.3717 14.4831 19.6202 14.2659 19.871 14.0514C20.1218 13.8369 20.3749 13.6251 20.6304 13.416C20.8858 13.2069 21.1435 13.0006 21.4035 12.797C21.6634 12.5935 21.9256 12.3928 22.1898 12.1949C22.4541 11.997 22.7206 11.8019 22.9892 11.6098C23.2578 11.4177 23.5285 11.2284 23.8012 11.042C24.0739 10.8558 24.3486 10.6724 24.6253 10.492C24.9021 10.3116 25.1807 10.1341 25.4613 9.95971C25.7419 9.7853 26.0244 9.61393 26.3086 9.4456C26.593 9.27728 26.8791 9.11203 27.1671 8.94988C27.4551 8.78772 27.7448 8.62865 28.0362 8.47266C28.3276 8.31674 28.6207 8.16395 28.9154 8.01429C29.2102 7.8647 29.5066 7.71827 29.8045 7.57501C30.1025 7.43175 30.402 7.29172 30.703 7.15494C31.004 7.01815 31.3065 6.88461 31.6104 6.7543C31.9143 6.624 32.2197 6.49697 32.5264 6.37323C32.8331 6.24956 33.1411 6.12917 33.4505 6.01206C33.7597 5.89495 34.0703 5.7812 34.3822 5.6708C34.694 5.56041 35.0069 5.45341 35.3211 5.34981C35.6352 5.24613 35.9505 5.14584 36.2668 5.04895C36.5832 4.95206 36.9005 4.85861 37.2189 4.76859C37.5373 4.6785 37.8567 4.59187 38.177 4.50872C38.4972 4.42558 38.8184 4.34586 39.1404 4.26959C39.4624 4.19339 39.7852 4.12062 40.1088 4.05129C40.4324 3.98197 40.7568 3.91615 41.0818 3.85385C41.4069 3.79154 41.7326 3.73272 42.0589 3.67736C42.3852 3.62209 42.7121 3.57029 43.0396 3.52196C43.367 3.47371 43.695 3.42897 44.0234 3.38775C45.7784 3.15318 47.5583 3.09626 49.3261 3.01874Z" fill="#0D3334"/>
</svg>
