<svg width="29" height="28" viewBox="0 0 29 28" fill="none" xmlns="http://www.w3.org/2000/svg">
<path d="M10.125 9.33337C10.125 9.10131 10.2172 8.87875 10.3813 8.71466C10.5454 8.55056 10.7679 8.45837 11 8.45837H19.1667C19.3987 8.45837 19.6213 8.55056 19.7854 8.71466C19.9495 8.87875 20.0417 9.10131 20.0417 9.33337C20.0417 9.56544 19.9495 9.788 19.7854 9.95209C19.6213 10.1162 19.3987 10.2084 19.1667 10.2084H11C10.7679 10.2084 10.5454 10.1162 10.3813 9.95209C10.2172 9.788 10.125 9.56544 10.125 9.33337ZM11 11.9584C10.7679 11.9584 10.5454 12.0506 10.3813 12.2147C10.2172 12.3788 10.125 12.6013 10.125 12.8334C10.125 13.0654 10.2172 13.288 10.3813 13.4521C10.5454 13.6162 10.7679 13.7084 11 13.7084H16.8333C17.0654 13.7084 17.288 13.6162 17.4521 13.4521C17.6161 13.288 17.7083 13.0654 17.7083 12.8334C17.7083 12.6013 17.6161 12.3788 17.4521 12.2147C17.288 12.0506 17.0654 11.9584 16.8333 11.9584H11Z" fill="#001C14"/>
<path fill-rule="evenodd" clip-rule="evenodd" d="M10.4167 3.79163C8.94693 3.79163 7.53738 4.37548 6.49812 5.41474C5.45885 6.45401 4.875 7.86355 4.875 9.33329V21C4.875 22.1603 5.33594 23.2731 6.15641 24.0936C6.97688 24.914 8.08968 25.375 9.25 25.375H22.0833C22.6248 25.375 23.1441 25.1599 23.527 24.777C23.9099 24.3941 24.125 23.8748 24.125 23.3333V5.83329C24.125 5.29181 23.9099 4.7725 23.527 4.38962C23.1441 4.00673 22.6248 3.79163 22.0833 3.79163H10.4167ZM22.375 16.625V5.83329C22.375 5.75594 22.3443 5.68175 22.2896 5.62705C22.2349 5.57235 22.1607 5.54163 22.0833 5.54163H10.4167C9.41105 5.54163 8.44663 5.9411 7.73555 6.65218C7.02448 7.36326 6.625 8.32768 6.625 9.33329V17.5C7.3815 16.9305 8.30311 16.6233 9.25 16.625H22.375ZM22.375 18.375H9.25C8.55381 18.375 7.88613 18.6515 7.39384 19.1438C6.90156 19.6361 6.625 20.3038 6.625 21C6.625 21.6962 6.90156 22.3638 7.39384 22.8561C7.88613 23.3484 8.55381 23.625 9.25 23.625H22.0833C22.1607 23.625 22.2349 23.5942 22.2896 23.5395C22.3443 23.4848 22.375 23.4106 22.375 23.3333V18.375Z" fill="#004529"/>
</svg>
