<svg width="24" height="24" viewBox="0 0 24 24" fill="none" xmlns="http://www.w3.org/2000/svg">
<path fill-rule="evenodd" clip-rule="evenodd" d="M15.1363 3.46983C14.9957 3.32938 14.8051 3.25049 14.6063 3.25049C14.4076 3.25049 14.217 3.32938 14.0763 3.46983L4.88334 12.6618C4.78935 12.7559 4.72205 12.8732 4.68834 13.0018L3.68834 16.8318C3.65533 16.9584 3.65599 17.0914 3.69027 17.2176C3.72455 17.3439 3.79124 17.4589 3.88373 17.5514C3.97622 17.6439 4.0913 17.7106 4.21753 17.7449C4.34377 17.7792 4.47677 17.7798 4.60334 17.7468L8.43134 16.7468C8.56042 16.713 8.67813 16.6453 8.77234 16.5508L17.9643 7.35883C18.1048 7.2182 18.1837 7.02758 18.1837 6.82883C18.1837 6.63008 18.1048 6.43945 17.9643 6.29883L15.1363 3.46983ZM6.08734 13.5788L14.6063 5.06083L16.3733 6.82783L7.85534 15.3468L5.46234 15.9718L6.08734 13.5788Z" fill="#333333"/>
<path d="M4 19.25C3.80109 19.25 3.61032 19.329 3.46967 19.4697C3.32902 19.6103 3.25 19.8011 3.25 20C3.25 20.1989 3.32902 20.3897 3.46967 20.5303C3.61032 20.671 3.80109 20.75 4 20.75H19C19.1989 20.75 19.3897 20.671 19.5303 20.5303C19.671 20.3897 19.75 20.1989 19.75 20C19.75 19.8011 19.671 19.6103 19.5303 19.4697C19.3897 19.329 19.1989 19.25 19 19.25H4Z" fill="#333333"/>
</svg>
