<svg width="24" height="24" viewBox="0 0 24 24" fill="none" xmlns="http://www.w3.org/2000/svg">
<path d="M10 2.25C9.80109 2.25 9.61032 2.32902 9.46967 2.46967C9.32902 2.61032 9.25 2.80109 9.25 3V3.75H5C4.80109 3.75 4.61032 3.82902 4.46967 3.96967C4.32902 4.11032 4.25 4.30109 4.25 4.5C4.25 4.69891 4.32902 4.88968 4.46967 5.03033C4.61032 5.17098 4.80109 5.25 5 5.25H19C19.1989 5.25 19.3897 5.17098 19.5303 5.03033C19.671 4.88968 19.75 4.69891 19.75 4.5C19.75 4.30109 19.671 4.11032 19.5303 3.96967C19.3897 3.82902 19.1989 3.75 19 3.75H14.75V3C14.75 2.80109 14.671 2.61032 14.5303 2.46967C14.3897 2.32902 14.1989 2.25 14 2.25H10ZM10 10.65C10.1989 10.65 10.3897 10.729 10.5303 10.8697C10.671 11.0103 10.75 11.2011 10.75 11.4V18.4C10.75 18.5989 10.671 18.7897 10.5303 18.9303C10.3897 19.071 10.1989 19.15 10 19.15C9.80109 19.15 9.61032 19.071 9.46967 18.9303C9.32902 18.7897 9.25 18.5989 9.25 18.4V11.4C9.25 11.2011 9.32902 11.0103 9.46967 10.8697C9.61032 10.729 9.80109 10.65 10 10.65ZM14.75 11.4C14.75 11.2011 14.671 11.0103 14.5303 10.8697C14.3897 10.729 14.1989 10.65 14 10.65C13.8011 10.65 13.6103 10.729 13.4697 10.8697C13.329 11.0103 13.25 11.2011 13.25 11.4V18.4C13.25 18.5989 13.329 18.7897 13.4697 18.9303C13.6103 19.071 13.8011 19.15 14 19.15C14.1989 19.15 14.3897 19.071 14.5303 18.9303C14.671 18.7897 14.75 18.5989 14.75 18.4V11.4Z" fill="#333333"/>
<path fill-rule="evenodd" clip-rule="evenodd" d="M5.99157 7.917C6.01201 7.73349 6.09942 7.56396 6.23707 7.44089C6.37471 7.31782 6.55293 7.24985 6.73757 7.25H17.2636C17.4482 7.24985 17.6264 7.31782 17.7641 7.44089C17.9017 7.56396 17.9891 7.73349 18.0096 7.917L18.2096 9.719C18.5726 12.984 18.5726 16.279 18.2096 19.545L18.1896 19.722C18.12 20.3522 17.8423 20.9412 17.4003 21.3958C16.9584 21.8504 16.3775 22.1446 15.7496 22.232C13.2624 22.5807 10.7387 22.5807 8.25157 22.232C7.62362 22.1446 7.04273 21.8504 6.60081 21.3958C6.15888 20.9412 5.88116 20.3522 5.81157 19.722L5.79157 19.545C5.42885 16.2797 5.42885 12.9843 5.79157 9.719L5.99157 7.917ZM7.40857 8.75L7.28257 9.884C6.93206 13.0393 6.93206 16.2237 7.28257 19.379L7.30257 19.556C7.33516 19.855 7.4667 20.1346 7.67631 20.3504C7.88592 20.5662 8.16159 20.7058 8.45957 20.747C10.8096 21.076 13.1926 21.076 15.5416 20.747C15.8394 20.7058 16.115 20.5664 16.3245 20.3508C16.5341 20.1352 16.6658 19.8559 16.6986 19.557L16.7186 19.379C17.0686 16.224 17.0686 13.039 16.7186 9.884L16.5926 8.75H7.40857Z" fill="#333333"/>
</svg>
