<svg width="20" height="20" viewBox="0 0 20 20" fill="none" xmlns="http://www.w3.org/2000/svg">
<path d="M10.8334 9.58333C10.8334 9.25181 10.9651 8.93387 11.1995 8.69945C11.4339 8.46503 11.7519 8.33333 12.0834 8.33333C12.4149 8.33333 12.7329 8.46503 12.9673 8.69945C13.2017 8.93387 13.3334 9.25181 13.3334 9.58333C13.3334 9.91485 13.2017 10.2328 12.9673 10.4672C12.7329 10.7016 12.4149 10.8333 12.0834 10.8333C11.7519 10.8333 11.4339 10.7016 11.1995 10.4672C10.9651 10.2328 10.8334 9.91485 10.8334 9.58333ZM9.28007 10.9192C9.22389 10.8293 9.14576 10.7551 9.05305 10.7038C8.96033 10.6524 8.85607 10.6254 8.75007 10.6254C8.64406 10.6254 8.5398 10.6524 8.44709 10.7038C8.35437 10.7551 8.27625 10.8293 8.22007 10.9192L6.13673 14.2525C6.07771 14.3471 6.04507 14.4558 6.0422 14.5672C6.03933 14.6787 6.06633 14.7889 6.1204 14.8864C6.17447 14.9839 6.25364 15.0652 6.34971 15.1218C6.44577 15.1784 6.55523 15.2083 6.66673 15.2083H13.3334C13.4495 15.2083 13.5632 15.176 13.662 15.115C13.7607 15.054 13.8405 14.9667 13.8924 14.8628C13.9443 14.759 13.9663 14.6428 13.9559 14.5272C13.9455 14.4116 13.903 14.3012 13.8334 14.2083L12.5834 12.5417C12.5252 12.464 12.4497 12.401 12.3629 12.3576C12.2761 12.3143 12.1804 12.2917 12.0834 12.2917C11.9864 12.2917 11.8907 12.3143 11.8039 12.3576C11.7171 12.401 11.6416 12.464 11.5834 12.5417L10.8801 13.4792L9.28007 10.9192Z" fill="#333"/>
<path fill-rule="evenodd" clip-rule="evenodd" d="M5.83341 1.875C5.22563 1.875 4.64273 2.11644 4.21296 2.54621C3.78319 2.97598 3.54175 3.55888 3.54175 4.16667V15.8333C3.54175 16.4411 3.78319 17.024 4.21296 17.4538C4.64273 17.8836 5.22563 18.125 5.83341 18.125H14.1667C14.7745 18.125 15.3574 17.8836 15.7872 17.4538C16.217 17.024 16.4584 16.4411 16.4584 15.8333V6.64C16.4584 6.3225 16.3551 6.01417 16.1634 5.76083L13.6651 2.45417C13.5291 2.27426 13.3533 2.12833 13.1515 2.02784C12.9496 1.92735 12.7272 1.87503 12.5017 1.875H5.83341ZM4.79175 4.16667C4.79175 3.59167 5.25841 3.125 5.83341 3.125H11.8751V6.78917C11.8751 7.13417 12.1551 7.41417 12.5001 7.41417H15.2084V15.8333C15.2084 16.4083 14.7417 16.875 14.1667 16.875H5.83341C5.25841 16.875 4.79175 16.4083 4.79175 15.8333V4.16667Z" fill="#333"/>
</svg>
