<svg width="20" height="20" viewBox="0 0 20 20" fill="none" xmlns="http://www.w3.org/2000/svg">
<path d="M7.0583 7.05834C7.17549 6.9413 7.33434 6.87555 7.49997 6.87555C7.66559 6.87555 7.82444 6.9413 7.94163 7.05834L9.99997 9.11667L12.0583 7.05834C12.1155 6.99693 12.1845 6.94768 12.2612 6.91352C12.3378 6.87936 12.4206 6.86099 12.5045 6.85951C12.5884 6.85803 12.6718 6.87347 12.7496 6.9049C12.8275 6.93634 12.8981 6.98312 12.9575 7.04247C13.0168 7.10182 13.0636 7.17252 13.0951 7.25034C13.1265 7.32816 13.1419 7.41152 13.1405 7.49544C13.139 7.57936 13.1206 7.66212 13.0864 7.73879C13.0523 7.81545 13.003 7.88445 12.9416 7.94167L10.8833 10L12.9416 12.0583C13.052 12.1768 13.1121 12.3335 13.1093 12.4954C13.1064 12.6574 13.0408 12.8118 12.9263 12.9264C12.8118 13.0409 12.6573 13.1065 12.4954 13.1093C12.3335 13.1122 12.1768 13.0521 12.0583 12.9417L9.99997 10.8833L7.94163 12.9417C7.88441 13.0031 7.81541 13.0523 7.73875 13.0865C7.66208 13.1206 7.57932 13.139 7.4954 13.1405C7.41148 13.142 7.32812 13.1265 7.2503 13.0951C7.17248 13.0637 7.10178 13.0169 7.04243 12.9575C6.98308 12.8982 6.9363 12.8275 6.90486 12.7497C6.87343 12.6718 6.85799 12.5885 6.85947 12.5046C6.86095 12.4206 6.87932 12.3379 6.91348 12.2612C6.94764 12.1846 6.99689 12.1156 7.0583 12.0583L9.11663 10L7.0583 7.94167C6.94126 7.82448 6.87552 7.66563 6.87552 7.5C6.87552 7.33438 6.94126 7.17552 7.0583 7.05834Z" fill="white"/>
<path fill-rule="evenodd" clip-rule="evenodd" d="M6.09747 3.14083C8.69119 2.85328 11.3087 2.85328 13.9025 3.14083C15.425 3.31083 16.6541 4.51 16.8325 6.04083C17.1408 8.67167 17.1408 11.3292 16.8325 13.96C16.6533 15.4908 15.4241 16.6892 13.9025 16.86C11.3087 17.1475 8.69119 17.1475 6.09747 16.86C4.57497 16.6892 3.3458 15.4908 3.16747 13.96C2.86052 11.3292 2.86052 8.67163 3.16747 6.04083C3.3458 4.51 4.5758 3.31083 6.09747 3.14083ZM13.7641 4.3825C11.2624 4.10519 8.73759 4.10519 6.2358 4.3825C5.77267 4.43388 5.34039 4.63989 5.00879 4.96726C4.67718 5.29463 4.46563 5.72423 4.4083 6.18667C4.11191 8.72081 4.11191 11.2809 4.4083 13.815C4.4658 14.2773 4.67743 14.7067 5.00902 15.0339C5.34061 15.3611 5.7728 15.567 6.2358 15.6183C8.71664 15.895 11.2833 15.895 13.7641 15.6183C14.227 15.5668 14.659 15.3608 14.9904 15.0337C15.3218 14.7065 15.5333 14.2772 15.5908 13.815C15.8872 11.2809 15.8872 8.72081 15.5908 6.18667C15.5332 5.72466 15.3216 5.29554 14.9902 4.96852C14.6588 4.6415 14.2269 4.43565 13.7641 4.38417" fill="white"/>
</svg>
