<svg width="20" height="20" viewBox="0 0 20 20" fill="none" xmlns="http://www.w3.org/2000/svg">
<path d="M13.125 10.8333C13.125 10.6676 13.0592 10.5086 12.9419 10.3914C12.8247 10.2742 12.6658 10.2083 12.5 10.2083H7.5C7.33424 10.2083 7.17527 10.2742 7.05806 10.3914C6.94085 10.5086 6.875 10.6676 6.875 10.8333C6.875 10.9991 6.94085 11.1581 7.05806 11.2753C7.17527 11.3925 7.33424 11.4583 7.5 11.4583H12.5C12.6658 11.4583 12.8247 11.3925 12.9419 11.2753C13.0592 11.1581 13.125 10.9991 13.125 10.8333ZM13.125 14.1667C13.125 14.0009 13.0592 13.8419 12.9419 13.7247C12.8247 13.6075 12.6658 13.5417 12.5 13.5417H7.5C7.33424 13.5417 7.17527 13.6075 7.05806 13.7247C6.94085 13.8419 6.875 14.0009 6.875 14.1667C6.875 14.3324 6.94085 14.4914 7.05806 14.6086C7.17527 14.7258 7.33424 14.7917 7.5 14.7917H12.5C12.6658 14.7917 12.8247 14.7258 12.9419 14.6086C13.0592 14.4914 13.125 14.3324 13.125 14.1667Z" fill="#333"/>
<path fill-rule="evenodd" clip-rule="evenodd" d="M5.83341 1.875C5.22563 1.875 4.64273 2.11644 4.21296 2.54621C3.78319 2.97598 3.54175 3.55888 3.54175 4.16667V15.8333C3.54175 16.4411 3.78319 17.024 4.21296 17.4538C4.64273 17.8836 5.22563 18.125 5.83341 18.125H14.1667C14.7745 18.125 15.3574 17.8836 15.7872 17.4538C16.217 17.024 16.4584 16.4411 16.4584 15.8333V6.64C16.4584 6.3225 16.3551 6.01417 16.1634 5.76083L13.6651 2.45417C13.5291 2.27426 13.3533 2.12833 13.1515 2.02784C12.9496 1.92735 12.7272 1.87503 12.5017 1.875H5.83341ZM4.79175 4.16667C4.79175 3.59167 5.25841 3.125 5.83341 3.125H11.8751V6.78917C11.8751 7.13417 12.1551 7.41417 12.5001 7.41417H15.2084V15.8333C15.2084 16.4083 14.7417 16.875 14.1667 16.875H5.83341C5.25841 16.875 4.79175 16.4083 4.79175 15.8333V4.16667Z" fill="#333"/>
</svg>
