<svg width="20" height="20" viewBox="0 0 20 20" fill="none" xmlns="http://www.w3.org/2000/svg">
<path d="M10 15.2083C9.83424 15.2083 9.67527 15.2742 9.55806 15.3914C9.44085 15.5086 9.375 15.6676 9.375 15.8333C9.375 15.9991 9.44085 16.1581 9.55806 16.2753C9.67527 16.3925 9.83424 16.4583 10 16.4583H15C15.3868 16.4583 15.7577 16.3047 16.0312 16.0312C16.3047 15.7577 16.4583 15.3868 16.4583 15V5C16.4583 4.61323 16.3047 4.24229 16.0312 3.9688C15.7577 3.69531 15.3868 3.54167 15 3.54167H10C9.83424 3.54167 9.67527 3.60752 9.55806 3.72473C9.44085 3.84194 9.375 4.00091 9.375 4.16667C9.375 4.33243 9.44085 4.4914 9.55806 4.60861C9.67527 4.72582 9.83424 4.79167 10 4.79167H15C15.0553 4.79167 15.1082 4.81362 15.1473 4.85269C15.1864 4.89176 15.2083 4.94475 15.2083 5V15C15.2083 15.0553 15.1864 15.1082 15.1473 15.1473C15.1082 15.1864 15.0553 15.2083 15 15.2083H10Z" fill="#333"/>
<path fill-rule="evenodd" clip-rule="evenodd" d="M12.0858 11.9708C12.6608 11.9708 13.1275 11.5042 13.1275 10.9292V9.0625C13.1275 8.4875 12.6608 8.02084 12.0858 8.02084H8.24167L8.225 7.8375L8.18 7.37417C8.16409 7.21052 8.10895 7.05313 8.01926 6.91533C7.92956 6.77754 7.80797 6.6634 7.66477 6.5826C7.52158 6.50181 7.36101 6.45673 7.19669 6.4512C7.03237 6.44567 6.86913 6.47985 6.72083 6.55084C5.35816 7.20257 4.12489 8.0959 3.08083 9.1875L2.99833 9.27334C2.81202 9.46773 2.70801 9.72658 2.70801 9.99584C2.70801 10.2651 2.81202 10.5239 2.99833 10.7183L3.08167 10.8042C4.12548 11.8957 5.35845 12.789 6.72083 13.4408C6.86913 13.5118 7.03237 13.546 7.19669 13.5405C7.36101 13.5349 7.52158 13.4899 7.66477 13.4091C7.80797 13.3283 7.92956 13.2141 8.01926 13.0763C8.10895 12.9385 8.16409 12.7811 8.18 12.6175L8.225 12.1542L8.24167 11.9708H12.0858ZM7.6625 10.7208C7.50346 10.721 7.35045 10.7817 7.23464 10.8907C7.11882 10.9997 7.04892 11.1488 7.03917 11.3075C7.02361 11.5492 7.00417 11.7911 6.98083 12.0333L6.9675 12.1683C5.87994 11.6071 4.89046 10.8734 4.0375 9.99584C4.89046 9.11822 5.87994 8.38455 6.9675 7.82334L6.98083 7.95834C7.00417 8.2 7.02361 8.44195 7.03917 8.68417C7.04892 8.84291 7.11882 8.99196 7.23464 9.10096C7.35045 9.20996 7.50346 9.27071 7.6625 9.27084H11.8775V10.7208H7.6625Z" fill="#333"/>
</svg>
