<svg width="20" height="20" viewBox="0 0 20 20" fill="none" xmlns="http://www.w3.org/2000/svg">
<path fill-rule="evenodd" clip-rule="evenodd" d="M6.45841 6.24999C6.45841 5.7849 6.55002 5.32435 6.72801 4.89466C6.90599 4.46496 7.16687 4.07453 7.49574 3.74566C7.82462 3.41678 8.21505 3.15591 8.64474 2.97792C9.07444 2.79994 9.53498 2.70833 10.0001 2.70833C10.4652 2.70833 10.9257 2.79994 11.3554 2.97792C11.7851 3.15591 12.1755 3.41678 12.5044 3.74566C12.8333 4.07453 13.0942 4.46496 13.2722 4.89466C13.4501 5.32435 13.5417 5.7849 13.5417 6.24999C13.5417 7.1893 13.1686 8.09014 12.5044 8.75433C11.8402 9.41852 10.9394 9.79166 10.0001 9.79166C9.06077 9.79166 8.15994 9.41852 7.49574 8.75433C6.83155 8.09014 6.45841 7.1893 6.45841 6.24999ZM10.0001 3.95833C9.39229 3.95833 8.8094 4.19977 8.37963 4.62954C7.94986 5.05931 7.70842 5.64221 7.70842 6.24999C7.70842 6.85778 7.94986 7.44068 8.37963 7.87045C8.8094 8.30022 9.39229 8.54166 10.0001 8.54166C10.6079 8.54166 11.1908 8.30022 11.6205 7.87045C12.0503 7.44068 12.2917 6.85778 12.2917 6.24999C12.2917 5.64221 12.0503 5.05931 11.6205 4.62954C11.1908 4.19977 10.6079 3.95833 10.0001 3.95833ZM6.66675 12.2917C6.16947 12.2917 5.69255 12.4892 5.34092 12.8408C4.98929 13.1925 4.79175 13.6694 4.79175 14.1667V15.1567C4.79175 15.1717 4.80258 15.185 4.81758 15.1875C8.25008 15.7475 11.7509 15.7475 15.1826 15.1875C15.1897 15.1859 15.196 15.182 15.2007 15.1764C15.2053 15.1708 15.2081 15.1639 15.2084 15.1567V14.1667C15.2084 13.6694 15.0109 13.1925 14.6592 12.8408C14.3076 12.4892 13.8307 12.2917 13.3334 12.2917H13.0501C13.0278 12.292 13.0056 12.2954 12.9842 12.3017L12.2634 12.5375C10.7927 13.0177 9.20743 13.0177 7.73675 12.5375L7.01508 12.3017C6.99422 12.2956 6.97265 12.2922 6.95091 12.2917H6.66675ZM3.54175 14.1667C3.54175 13.3379 3.87099 12.543 4.45704 11.957C5.04309 11.3709 5.83795 11.0417 6.66675 11.0417H6.95008C7.10564 11.0422 7.25675 11.0661 7.40341 11.1133L8.12508 11.3492C9.34344 11.7469 10.6567 11.7469 11.8751 11.3492L12.5967 11.1133C12.7426 11.0658 12.8959 11.0417 13.0492 11.0417H13.3334C14.1622 11.0417 14.9571 11.3709 15.5431 11.957C16.1292 12.543 16.4584 13.3379 16.4584 14.1667V15.1567C16.4584 15.785 16.0034 16.32 15.3834 16.4208C11.8181 17.0028 8.18204 17.0028 4.61675 16.4208C4.3169 16.3715 4.04429 16.2174 3.84743 15.9859C3.65058 15.7544 3.54226 15.4605 3.54175 15.1567V14.1667Z" fill="white"/>
</svg>
