<svg width="20" height="20" viewBox="0 0 20 20" fill="none" xmlns="http://www.w3.org/2000/svg">
<path fill-rule="evenodd" clip-rule="evenodd" d="M9.99994 2.56667L8.15577 4.47333C8.05859 4.57382 7.94218 4.65371 7.81347 4.70826C7.68476 4.7628 7.54639 4.79089 7.4066 4.79083H4.7916V7.40583C4.7916 7.68917 4.6766 7.95917 4.4741 8.15583L2.56577 10L4.4741 11.8442C4.6766 12.04 4.7916 12.3108 4.7916 12.5933V15.2083H7.4066C7.68994 15.2083 7.95994 15.3233 8.1566 15.5258L9.99994 17.4342L11.8441 15.5258C11.9413 15.4254 12.0577 15.3455 12.1864 15.2909C12.3151 15.2364 12.4535 15.2083 12.5933 15.2083H15.2083V12.5933C15.2083 12.31 15.3233 12.04 15.5258 11.8433L17.4341 10L15.5258 8.15583C15.4253 8.05865 15.3454 7.94224 15.2908 7.81353C15.2363 7.68483 15.2082 7.54646 15.2083 7.40667V4.79167H12.5933C12.4533 4.79183 12.3148 4.7638 12.186 4.70925C12.0571 4.6547 11.9405 4.57475 11.8433 4.47417L9.99994 2.56667ZM9.25077 1.54167C9.34792 1.44111 9.46431 1.36114 9.59302 1.30652C9.72173 1.2519 9.86012 1.22375 9.99994 1.22375C10.1398 1.22375 10.2781 1.2519 10.4069 1.30652C10.5356 1.36114 10.652 1.44111 10.7491 1.54167L12.6816 3.54167H15.4166C15.9916 3.54167 16.4583 4.00833 16.4583 4.58333V7.31833L18.4583 9.25167C18.5587 9.3488 18.6386 9.46515 18.6931 9.59378C18.7476 9.72241 18.7758 9.8607 18.7758 10.0004C18.7758 10.1401 18.7476 10.2784 18.6931 10.4071C18.6386 10.5357 18.5587 10.652 18.4583 10.7492L16.4583 12.6817V15.4167C16.4583 15.9917 15.9916 16.4583 15.4166 16.4583H12.6816L10.7483 18.4583C10.6511 18.5588 10.5348 18.6386 10.4062 18.6932C10.2775 18.7477 10.1392 18.7758 9.99952 18.7758C9.8598 18.7758 9.72151 18.7477 9.59288 18.6932C9.46425 18.6386 9.3479 18.5588 9.25077 18.4583L7.31827 16.4583H4.58327C4.00827 16.4583 3.5416 15.9917 3.5416 15.4167V12.6817L1.5416 10.7483C1.44117 10.6512 1.36131 10.5349 1.30677 10.4062C1.25223 10.2776 1.22412 10.1393 1.22412 9.99958C1.22412 9.85987 1.25223 9.72158 1.30677 9.59294C1.36131 9.46431 1.44117 9.34797 1.5416 9.25083L3.5416 7.31833V4.58333C3.5416 4.00833 4.00827 3.54167 4.58327 3.54167H7.31827L9.25077 1.54167Z" fill="#333"/>
<path fill-rule="evenodd" clip-rule="evenodd" d="M6.0415 10C6.0415 8.95018 6.45854 7.94337 7.20087 7.20104C7.9432 6.4587 8.95002 6.04167 9.99984 6.04167C11.0497 6.04167 12.0565 6.4587 12.7988 7.20104C13.5411 7.94337 13.9582 8.95018 13.9582 10C13.9582 11.0498 13.5411 12.0566 12.7988 12.799C12.0565 13.5413 11.0497 13.9583 9.99984 13.9583C8.95002 13.9583 7.9432 13.5413 7.20087 12.799C6.45854 12.0566 6.0415 11.0498 6.0415 10ZM9.99984 7.29167C9.28154 7.29167 8.59267 7.57701 8.08476 8.08492C7.57685 8.59283 7.2915 9.2817 7.2915 10C7.2915 10.7183 7.57685 11.4072 8.08476 11.9151C8.59267 12.423 9.28154 12.7083 9.99984 12.7083C10.7181 12.7083 11.407 12.423 11.9149 11.9151C12.4228 11.4072 12.7082 10.7183 12.7082 10C12.7082 9.2817 12.4228 8.59283 11.9149 8.08492C11.407 7.57701 10.7181 7.29167 9.99984 7.29167Z" fill="#333"/>
</svg>
